MFile 1 11 384
MTrk
TimestampType=Delta
0 Tempo 810810
0 TimeSig 4/4 24 8
44544 TimeSig 2/4 24 8
768 TimeSig 4/4 24 8
30720 TimeSig 2/4 24 8
768 TimeSig 4/4 24 8
56832 Meta TrkEnd
TrkEnd
MTrk
TimestampType=Delta
0 Meta TrkName "MELODY"
2 Par ch=1 c=7 v=125
0 PrCh ch=1 p=1
768 PrCh ch=1 p=1
0 Par ch=1 c=7 v=125
388 On ch=1 n=72 v=67
378 Off ch=1 n=72 v=0
6 On ch=1 n=69 v=66
420 ChPr ch=1 v=0
100 ChPr ch=1 v=1
12 ChPr ch=1 v=2
100 ChPr ch=1 v=1
8 ChPr ch=1 v=0
4 ChPr ch=1 v=0
150 Off ch=1 n=69 v=0
166 On ch=1 n=69 v=64
192 On ch=1 n=72 v=66
10 Off ch=1 n=69 v=0
182 On ch=1 n=74 v=64
2 Off ch=1 n=72 v=0
186 On ch=1 n=67 v=62
2 Off ch=1 n=74 v=0
46 ChPr ch=1 v=0
32 ChPr ch=1 v=0
706 Off ch=1 n=67 v=0
366 On ch=1 n=67 v=73
192 On ch=1 n=69 v=79
2 Off ch=1 n=67 v=0
160 Off ch=1 n=69 v=0
30 On ch=1 n=70 v=63
306 Off ch=1 n=70 v=0
78 On ch=1 n=77 v=69
498 Off ch=1 n=77 v=0
78 On ch=1 n=77 v=67
190 Off ch=1 n=77 v=0
2 On ch=1 n=76 v=62
192 On ch=1 n=72 v=62
2 Off ch=1 n=76 v=0
168 Off ch=1 n=72 v=0
22 On ch=1 n=74 v=78
192 On ch=1 n=72 v=63
14 Off ch=1 n=74 v=0
82 On ch=1 n=70 v=63
26 Off ch=1 n=72 v=0
56 Off ch=1 n=70 v=0
14 On ch=1 n=69 v=66
44 ChPr ch=1 v=0
16 ChPr ch=1 v=1
120 ChPr ch=1 v=0
72 ChPr ch=1 v=0
534 Off ch=1 n=69 v=0
174 On ch=1 n=72 v=76
170 Off ch=1 n=72 v=0
22 On ch=1 n=74 v=74
114 Off ch=1 n=74 v=0
78 On ch=1 n=74 v=79
262 Off ch=1 n=74 v=0
122 On ch=1 n=74 v=64
142 Off ch=1 n=74 v=0
50 On ch=1 n=79 v=64
90 Off ch=1 n=79 v=0
10 On ch=1 n=77 v=73
170 Off ch=1 n=77 v=0
22 On ch=1 n=76 v=72
190 Off ch=1 n=76 v=0
2 On ch=1 n=77 v=64
82 Off ch=1 n=77 v=0
14 On ch=1 n=74 v=63
178 Off ch=1 n=74 v=0
10 On ch=1 n=72 v=79
570 Off ch=1 n=72 v=0
198 On ch=1 n=65 v=63
192 On ch=1 n=67 v=70
2 Off ch=1 n=65 v=0
180 Off ch=1 n=67 v=0
10 On ch=1 n=69 v=70
374 Off ch=1 n=69 v=0
10 On ch=1 n=74 v=74
36 ChPr ch=1 v=0
20 ChPr ch=1 v=0
130 Off ch=1 n=74 v=0
6 On ch=1 n=72 v=66
358 Off ch=1 n=72 v=0
30 On ch=1 n=72 v=68
190 Off ch=1 n=72 v=0
2 On ch=1 n=70 v=65
158 Off ch=1 n=70 v=0
26 On ch=1 n=69 v=65
330 Off ch=1 n=69 v=0
58 On ch=1 n=64 v=74
216 ChPr ch=1 v=0
28 ChPr ch=1 v=0
104 ChPr ch=1 v=0
36 On ch=1 n=65 v=69
6 Off ch=1 n=64 v=0
278 ChPr ch=1 v=0
498 Off ch=1 n=65 v=0
182 On ch=1 n=72 v=67
378 Off ch=1 n=72 v=0
6 On ch=1 n=69 v=66
420 ChPr ch=1 v=0
100 ChPr ch=1 v=1
12 ChPr ch=1 v=2
100 ChPr ch=1 v=1
8 ChPr ch=1 v=0
4 ChPr ch=1 v=0
150 Off ch=1 n=69 v=0
166 On ch=1 n=69 v=64
192 On ch=1 n=72 v=66
10 Off ch=1 n=69 v=0
182 On ch=1 n=74 v=64
2 Off ch=1 n=72 v=0
186 On ch=1 n=67 v=62
2 Off ch=1 n=74 v=0
46 ChPr ch=1 v=0
32 ChPr ch=1 v=0
706 Off ch=1 n=67 v=0
366 On ch=1 n=67 v=73
192 On ch=1 n=69 v=79
2 Off ch=1 n=67 v=0
160 Off ch=1 n=69 v=0
30 On ch=1 n=70 v=63
306 Off ch=1 n=70 v=0
78 On ch=1 n=77 v=69
498 Off ch=1 n=77 v=0
78 On ch=1 n=77 v=67
190 Off ch=1 n=77 v=0
2 On ch=1 n=76 v=62
192 On ch=1 n=72 v=62
2 Off ch=1 n=76 v=0
168 Off ch=1 n=72 v=0
22 On ch=1 n=74 v=78
192 On ch=1 n=72 v=63
14 Off ch=1 n=74 v=0
82 On ch=1 n=70 v=63
26 Off ch=1 n=72 v=0
56 Off ch=1 n=70 v=0
14 On ch=1 n=69 v=66
44 ChPr ch=1 v=0
16 ChPr ch=1 v=1
120 ChPr ch=1 v=0
72 ChPr ch=1 v=0
534 Off ch=1 n=69 v=0
174 On ch=1 n=72 v=76
170 Off ch=1 n=72 v=0
22 On ch=1 n=74 v=74
70 Off ch=1 n=74 v=0
30 On ch=1 n=74 v=79
194 Off ch=1 n=74 v=0
282 On ch=1 n=74 v=64
142 Off ch=1 n=74 v=0
50 On ch=1 n=79 v=64
90 Off ch=1 n=79 v=0
10 On ch=1 n=77 v=73
170 Off ch=1 n=77 v=0
22 On ch=1 n=76 v=72
190 Off ch=1 n=76 v=0
2 On ch=1 n=77 v=64
82 Off ch=1 n=77 v=0
14 On ch=1 n=74 v=63
178 Off ch=1 n=74 v=0
10 On ch=1 n=72 v=79
570 Off ch=1 n=72 v=0
198 On ch=1 n=65 v=63
192 On ch=1 n=67 v=70
2 Off ch=1 n=65 v=0
180 Off ch=1 n=67 v=0
10 On ch=1 n=69 v=70
374 Off ch=1 n=69 v=0
10 On ch=1 n=74 v=74
36 ChPr ch=1 v=0
20 ChPr ch=1 v=0
130 Off ch=1 n=74 v=0
6 On ch=1 n=72 v=66
358 Off ch=1 n=72 v=0
30 On ch=1 n=72 v=68
190 Off ch=1 n=72 v=0
2 On ch=1 n=70 v=65
158 Off ch=1 n=70 v=0
26 On ch=1 n=69 v=65
330 Off ch=1 n=69 v=0
58 On ch=1 n=64 v=74
216 ChPr ch=1 v=0
28 ChPr ch=1 v=0
104 ChPr ch=1 v=0
36 On ch=1 n=65 v=69
6 Off ch=1 n=64 v=0
278 ChPr ch=1 v=0
498 Off ch=1 n=65 v=0
854 On ch=1 n=65 v=66
92 On ch=1 n=77 v=65
18 Off ch=1 n=65 v=0
78 On ch=1 n=75 v=65
18 Off ch=1 n=77 v=0
136 Off ch=1 n=75 v=0
38 On ch=1 n=74 v=75
286 Off ch=1 n=74 v=0
6 On ch=1 n=72 v=78
130 Off ch=1 n=72 v=0
62 On ch=1 n=72 v=72
166 Off ch=1 n=72 v=0
26 On ch=1 n=70 v=66
92 On ch=1 n=74 v=65
18 Off ch=1 n=70 v=0
400 Off ch=1 n=74 v=0
70 On ch=1 n=77 v=77
162 Off ch=1 n=77 v=0
22 On ch=1 n=74 v=76
534 Off ch=1 n=74 v=0
42 On ch=1 n=77 v=63
182 Off ch=1 n=77 v=0
10 On ch=1 n=70 v=66
458 Off ch=1 n=70 v=0
114 On ch=1 n=77 v=63
186 Off ch=1 n=77 v=0
10 On ch=1 n=74 v=78
382 Off ch=1 n=74 v=0
2 On ch=1 n=72 v=70
188 On ch=1 n=70 v=66
6 Off ch=1 n=72 v=0
180 Off ch=1 n=70 v=0
10 On ch=1 n=72 v=73
570 Off ch=1 n=72 v=0
10 On ch=1 n=74 v=65
158 Off ch=1 n=74 v=0
30 On ch=1 n=72 v=69
514 Off ch=1 n=72 v=0
58 On ch=1 n=70 v=66
178 Off ch=1 n=70 v=0
18 On ch=1 n=69 v=78
354 Off ch=1 n=69 v=0
34 On ch=1 n=67 v=66
92 On ch=1 n=65 v=64
6 Off ch=1 n=67 v=0
58 ChPr ch=1 v=0
4 ChPr ch=1 v=1
8 ChPr ch=1 v=3
4 ChPr ch=1 v=4
16 ChPr ch=1 v=3
12 ChPr ch=1 v=2
28 ChPr ch=1 v=3
4 ChPr ch=1 v=4
12 ChPr ch=1 v=5
68 ChPr ch=1 v=6
36 ChPr ch=1 v=7
12 ChPr ch=1 v=8
4 ChPr ch=1 v=9
12 ChPr ch=1 v=10
16 ChPr ch=1 v=11
8 ChPr ch=1 v=12
12 ChPr ch=1 v=13
4 ChPr ch=1 v=14
12 ChPr ch=1 v=15
8 ChPr ch=1 v=16
8 ChPr ch=1 v=17
4 ChPr ch=1 v=18
8 ChPr ch=1 v=19
4 ChPr ch=1 v=20
8 ChPr ch=1 v=21
4 ChPr ch=1 v=23
8 ChPr ch=1 v=24
8 ChPr ch=1 v=26
12 ChPr ch=1 v=27
12 ChPr ch=1 v=26
8 ChPr ch=1 v=23
8 ChPr ch=1 v=19
4 ChPr ch=1 v=14
8 ChPr ch=1 v=9
8 ChPr ch=1 v=5
4 ChPr ch=1 v=1
8 ChPr ch=1 v=0
4 ChPr ch=1 v=0
6 Off ch=1 n=65 v=0
1062 On ch=1 n=65 v=65
96 On ch=1 n=77 v=77
6 Off ch=1 n=65 v=0
54 ChPr ch=1 v=0
8 ChPr ch=1 v=1
24 ChPr ch=1 v=0
8 ChPr ch=1 v=0
70 Off ch=1 n=77 v=0
22 On ch=1 n=74 v=64
158 Off ch=1 n=74 v=0
30 On ch=1 n=74 v=65
190 Off ch=1 n=74 v=0
6 On ch=1 n=72 v=76
130 Off ch=1 n=72 v=0
58 On ch=1 n=72 v=68
178 Off ch=1 n=72 v=0
14 On ch=1 n=70 v=64
138 Off ch=1 n=70 v=0
50 On ch=1 n=74 v=74
382 Off ch=1 n=74 v=0
6 On ch=1 n=77 v=64
170 Off ch=1 n=77 v=0
22 On ch=1 n=74 v=65
546 Off ch=1 n=74 v=0
22 On ch=1 n=77 v=64
186 Off ch=1 n=77 v=0
14 On ch=1 n=70 v=64
478 Off ch=1 n=70 v=0
102 On ch=1 n=77 v=75
166 Off ch=1 n=77 v=0
18 On ch=1 n=74 v=68
380 On ch=1 n=72 v=66
6 Off ch=1 n=74 v=0
190 On ch=1 n=70 v=63
6 Off ch=1 n=72 v=0
190 On ch=1 n=72 v=63
6 Off ch=1 n=70 v=0
488 Off ch=1 n=72 v=0
86 On ch=1 n=74 v=75
142 Off ch=1 n=74 v=0
46 On ch=1 n=72 v=74
362 Off ch=1 n=72 v=0
22 On ch=1 n=70 v=63
382 Off ch=1 n=70 v=0
98 On ch=1 n=69 v=76
274 Off ch=1 n=69 v=0
10 On ch=1 n=67 v=66
90 Off ch=1 n=67 v=0
6 On ch=1 n=65 v=66
28 ChPr ch=1 v=0
8 ChPr ch=1 v=1
24 ChPr ch=1 v=0
76 ChPr ch=1 v=0
44 ChPr ch=1 v=0
342 Off ch=1 n=65 v=0
154 On ch=1 n=65 v=78
158 Off ch=1 n=65 v=0
34 On ch=1 n=72 v=66
186 Off ch=1 n=72 v=0
6 On ch=1 n=74 v=67
154 Off ch=1 n=74 v=0
38 On ch=1 n=75 v=77
362 Off ch=1 n=75 v=0
22 On ch=1 n=75 v=77
226 Off ch=1 n=75 v=0
162 On ch=1 n=76 v=76
166 Off ch=1 n=76 v=0
22 On ch=1 n=77 v=64
154 Off ch=1 n=77 v=0
34 On ch=1 n=79 v=66
310 Off ch=1 n=79 v=0
78 On ch=1 n=79 v=79
104 ChPr ch=1 v=0
16 ChPr ch=1 v=0
12 ChPr ch=1 v=1
4 ChPr ch=1 v=2
40 ChPr ch=1 v=3
20 ChPr ch=1 v=4
16 ChPr ch=1 v=5
28 ChPr ch=1 v=6
16 ChPr ch=1 v=7
100 ChPr ch=1 v=6
16 ChPr ch=1 v=5
4 ChPr ch=1 v=4
8 ChPr ch=1 v=3
76 ChPr ch=1 v=2
4 ChPr ch=1 v=1
8 ChPr ch=1 v=0
8 ChPr ch=1 v=0
250 Off ch=1 n=79 v=0
1194 On ch=1 n=74 v=67
378 Off ch=1 n=74 v=0
6 On ch=1 n=69 v=66
420 ChPr ch=1 v=0
100 ChPr ch=1 v=1
12 ChPr ch=1 v=2
100 ChPr ch=1 v=1
8 ChPr ch=1 v=0
4 ChPr ch=1 v=0
150 Off ch=1 n=69 v=0
166 On ch=1 n=69 v=64
192 On ch=1 n=72 v=66
10 Off ch=1 n=69 v=0
182 On ch=1 n=74 v=64
2 Off ch=1 n=72 v=0
186 On ch=1 n=67 v=62
2 Off ch=1 n=74 v=0
46 ChPr ch=1 v=0
32 ChPr ch=1 v=0
706 Off ch=1 n=67 v=0
366 On ch=1 n=67 v=73
192 On ch=1 n=69 v=79
2 Off ch=1 n=67 v=0
160 Off ch=1 n=69 v=0
30 On ch=1 n=70 v=63
306 Off ch=1 n=70 v=0
78 On ch=1 n=77 v=69
498 Off ch=1 n=77 v=0
78 On ch=1 n=77 v=67
190 Off ch=1 n=77 v=0
2 On ch=1 n=76 v=62
192 On ch=1 n=72 v=62
2 Off ch=1 n=76 v=0
168 Off ch=1 n=72 v=0
22 On ch=1 n=74 v=78
192 On ch=1 n=72 v=63
14 Off ch=1 n=74 v=0
82 On ch=1 n=70 v=63
26 Off ch=1 n=72 v=0
56 Off ch=1 n=70 v=0
14 On ch=1 n=69 v=66
44 ChPr ch=1 v=0
16 ChPr ch=1 v=1
120 ChPr ch=1 v=0
72 ChPr ch=1 v=0
534 Off ch=1 n=69 v=0
174 On ch=1 n=72 v=76
170 Off ch=1 n=72 v=0
22 On ch=1 n=74 v=74
66 Off ch=1 n=74 v=0
30 On ch=1 n=74 v=79
210 Off ch=1 n=74 v=0
270 On ch=1 n=74 v=64
142 Off ch=1 n=74 v=0
50 On ch=1 n=79 v=64
90 Off ch=1 n=79 v=0
10 On ch=1 n=77 v=73
170 Off ch=1 n=77 v=0
22 On ch=1 n=76 v=72
190 Off ch=1 n=76 v=0
2 On ch=1 n=77 v=64
82 Off ch=1 n=77 v=0
14 On ch=1 n=74 v=63
178 Off ch=1 n=74 v=0
10 On ch=1 n=72 v=79
570 Off ch=1 n=72 v=0
198 On ch=1 n=65 v=63
192 On ch=1 n=67 v=70
2 Off ch=1 n=65 v=0
180 Off ch=1 n=67 v=0
10 On ch=1 n=69 v=70
374 Off ch=1 n=69 v=0
10 On ch=1 n=74 v=74
36 ChPr ch=1 v=0
20 ChPr ch=1 v=0
130 Off ch=1 n=74 v=0
6 On ch=1 n=72 v=66
358 Off ch=1 n=72 v=0
30 On ch=1 n=72 v=68
190 Off ch=1 n=72 v=0
2 On ch=1 n=70 v=65
158 Off ch=1 n=70 v=0
26 On ch=1 n=69 v=65
330 Off ch=1 n=69 v=0
58 On ch=1 n=64 v=74
216 ChPr ch=1 v=0
28 ChPr ch=1 v=0
104 ChPr ch=1 v=0
36 On ch=1 n=65 v=69
6 Off ch=1 n=64 v=0
278 ChPr ch=1 v=0
498 Off ch=1 n=65 v=0
854 On ch=1 n=65 v=66
92 On ch=1 n=77 v=65
18 Off ch=1 n=65 v=0
78 On ch=1 n=75 v=65
18 Off ch=1 n=77 v=0
136 Off ch=1 n=75 v=0
38 On ch=1 n=74 v=75
286 Off ch=1 n=74 v=0
6 On ch=1 n=72 v=78
130 Off ch=1 n=72 v=0
62 On ch=1 n=72 v=72
166 Off ch=1 n=72 v=0
26 On ch=1 n=70 v=66
92 On ch=1 n=74 v=65
18 Off ch=1 n=70 v=0
400 Off ch=1 n=74 v=0
70 On ch=1 n=77 v=77
162 Off ch=1 n=77 v=0
22 On ch=1 n=74 v=76
534 Off ch=1 n=74 v=0
42 On ch=1 n=77 v=63
182 Off ch=1 n=77 v=0
10 On ch=1 n=70 v=66
458 Off ch=1 n=70 v=0
114 On ch=1 n=77 v=63
186 Off ch=1 n=77 v=0
10 On ch=1 n=74 v=78
382 Off ch=1 n=74 v=0
2 On ch=1 n=72 v=70
188 On ch=1 n=70 v=66
6 Off ch=1 n=72 v=0
180 Off ch=1 n=70 v=0
10 On ch=1 n=72 v=73
570 Off ch=1 n=72 v=0
10 On ch=1 n=74 v=65
158 Off ch=1 n=74 v=0
30 On ch=1 n=72 v=69
514 Off ch=1 n=72 v=0
58 On ch=1 n=70 v=66
178 Off ch=1 n=70 v=0
18 On ch=1 n=69 v=78
354 Off ch=1 n=69 v=0
34 On ch=1 n=67 v=66
92 On ch=1 n=65 v=64
6 Off ch=1 n=67 v=0
58 ChPr ch=1 v=0
4 ChPr ch=1 v=1
8 ChPr ch=1 v=3
4 ChPr ch=1 v=4
16 ChPr ch=1 v=3
12 ChPr ch=1 v=2
28 ChPr ch=1 v=3
4 ChPr ch=1 v=4
12 ChPr ch=1 v=5
68 ChPr ch=1 v=6
36 ChPr ch=1 v=7
12 ChPr ch=1 v=8
4 ChPr ch=1 v=9
12 ChPr ch=1 v=10
16 ChPr ch=1 v=11
8 ChPr ch=1 v=12
12 ChPr ch=1 v=13
4 ChPr ch=1 v=14
12 ChPr ch=1 v=15
8 ChPr ch=1 v=16
8 ChPr ch=1 v=17
4 ChPr ch=1 v=18
8 ChPr ch=1 v=19
4 ChPr ch=1 v=20
8 ChPr ch=1 v=21
4 ChPr ch=1 v=23
8 ChPr ch=1 v=24
8 ChPr ch=1 v=26
12 ChPr ch=1 v=27
12 ChPr ch=1 v=26
8 ChPr ch=1 v=23
8 ChPr ch=1 v=19
4 ChPr ch=1 v=14
8 ChPr ch=1 v=9
8 ChPr ch=1 v=5
4 ChPr ch=1 v=1
8 ChPr ch=1 v=0
4 ChPr ch=1 v=0
6 Off ch=1 n=65 v=0
1062 On ch=1 n=65 v=65
96 On ch=1 n=77 v=77
6 Off ch=1 n=65 v=0
54 ChPr ch=1 v=0
8 ChPr ch=1 v=1
24 ChPr ch=1 v=0
8 ChPr ch=1 v=0
70 Off ch=1 n=77 v=0
22 On ch=1 n=79 v=64
98 Off ch=1 n=79 v=0
2 On ch=1 n=82 v=65
242 Off ch=1 n=82 v=0
42 On ch=1 n=77 v=76
130 Off ch=1 n=77 v=0
58 On ch=1 n=79 v=68
178 Off ch=1 n=79 v=0
14 On ch=1 n=77 v=64
138 Off ch=1 n=77 v=0
50 On ch=1 n=74 v=74
382 Off ch=1 n=74 v=0
6 On ch=1 n=77 v=64
170 Off ch=1 n=77 v=0
22 On ch=1 n=74 v=65
546 Off ch=1 n=74 v=0
22 On ch=1 n=77 v=64
186 Off ch=1 n=77 v=0
14 On ch=1 n=70 v=64
478 Off ch=1 n=70 v=0
102 On ch=1 n=77 v=75
166 Off ch=1 n=77 v=0
18 On ch=1 n=74 v=68
380 On ch=1 n=72 v=66
6 Off ch=1 n=74 v=0
190 On ch=1 n=70 v=63
6 Off ch=1 n=72 v=0
190 On ch=1 n=72 v=63
6 Off ch=1 n=70 v=0
488 Off ch=1 n=72 v=0
86 On ch=1 n=74 v=75
142 Off ch=1 n=74 v=0
46 On ch=1 n=72 v=74
362 Off ch=1 n=72 v=0
22 On ch=1 n=70 v=63
382 Off ch=1 n=70 v=0
98 On ch=1 n=69 v=76
274 Off ch=1 n=69 v=0
10 On ch=1 n=67 v=66
90 Off ch=1 n=67 v=0
6 On ch=1 n=65 v=66
28 ChPr ch=1 v=0
8 ChPr ch=1 v=1
24 ChPr ch=1 v=0
76 ChPr ch=1 v=0
44 ChPr ch=1 v=0
342 Off ch=1 n=65 v=0
154 On ch=1 n=65 v=78
158 Off ch=1 n=65 v=0
34 On ch=1 n=72 v=66
186 Off ch=1 n=72 v=0
6 On ch=1 n=74 v=67
154 Off ch=1 n=74 v=0
38 On ch=1 n=75 v=77
362 Off ch=1 n=75 v=0
22 On ch=1 n=75 v=77
226 Off ch=1 n=75 v=0
162 On ch=1 n=76 v=76
166 Off ch=1 n=76 v=0
22 On ch=1 n=77 v=64
154 Off ch=1 n=77 v=0
34 On ch=1 n=79 v=66
310 Off ch=1 n=79 v=0
78 On ch=1 n=79 v=79
104 ChPr ch=1 v=0
16 ChPr ch=1 v=0
12 ChPr ch=1 v=1
4 ChPr ch=1 v=2
40 ChPr ch=1 v=3
20 ChPr ch=1 v=4
16 ChPr ch=1 v=5
28 ChPr ch=1 v=6
16 ChPr ch=1 v=7
100 ChPr ch=1 v=6
16 ChPr ch=1 v=5
4 ChPr ch=1 v=4
8 ChPr ch=1 v=3
76 ChPr ch=1 v=2
4 ChPr ch=1 v=1
8 ChPr ch=1 v=0
8 ChPr ch=1 v=0
250 Off ch=1 n=79 v=0
1194 On ch=1 n=72 v=67
92 On ch=1 n=74 v=64
30 Off ch=1 n=72 v=0
228 Off ch=1 n=74 v=0
30 On ch=1 n=77 v=64
96 On ch=1 n=72 v=64
2 Off ch=1 n=77 v=0
94 On ch=1 n=74 v=64
2 Off ch=1 n=72 v=0
94 On ch=1 n=67 v=64
2 Off ch=1 n=74 v=0
96 Off ch=1 n=67 v=0
2 On ch=1 n=69 v=66
36 ChPr ch=1 v=0
100 ChPr ch=1 v=1
12 ChPr ch=1 v=2
100 ChPr ch=1 v=1
8 ChPr ch=1 v=0
4 ChPr ch=1 v=0
230 Off ch=1 n=69 v=0
86 On ch=1 n=69 v=64
192 On ch=1 n=72 v=66
10 Off ch=1 n=69 v=0
182 On ch=1 n=74 v=64
2 Off ch=1 n=72 v=0
186 On ch=1 n=67 v=62
2 Off ch=1 n=74 v=0
46 ChPr ch=1 v=0
32 ChPr ch=1 v=0
706 Off ch=1 n=67 v=0
366 On ch=1 n=67 v=73
192 On ch=1 n=69 v=79
2 Off ch=1 n=67 v=0
160 Off ch=1 n=69 v=0
30 On ch=1 n=70 v=63
306 Off ch=1 n=70 v=0
78 On ch=1 n=77 v=69
498 Off ch=1 n=77 v=0
78 On ch=1 n=77 v=67
190 Off ch=1 n=77 v=0
2 On ch=1 n=76 v=62
192 On ch=1 n=72 v=62
2 Off ch=1 n=76 v=0
168 Off ch=1 n=72 v=0
22 On ch=1 n=74 v=78
192 On ch=1 n=72 v=63
14 Off ch=1 n=74 v=0
82 On ch=1 n=70 v=63
26 Off ch=1 n=72 v=0
56 Off ch=1 n=70 v=0
14 On ch=1 n=69 v=66
44 ChPr ch=1 v=0
16 ChPr ch=1 v=1
120 ChPr ch=1 v=0
72 ChPr ch=1 v=0
534 Off ch=1 n=69 v=0
174 On ch=1 n=72 v=76
170 Off ch=1 n=72 v=0
22 On ch=1 n=74 v=74
114 Off ch=1 n=74 v=0
78 On ch=1 n=74 v=79
262 Off ch=1 n=74 v=0
122 On ch=1 n=74 v=64
142 Off ch=1 n=74 v=0
50 On ch=1 n=79 v=64
90 Off ch=1 n=79 v=0
10 On ch=1 n=77 v=73
170 Off ch=1 n=77 v=0
22 On ch=1 n=76 v=72
190 Off ch=1 n=76 v=0
2 On ch=1 n=77 v=64
82 Off ch=1 n=77 v=0
14 On ch=1 n=74 v=63
178 Off ch=1 n=74 v=0
10 On ch=1 n=72 v=79
570 Off ch=1 n=72 v=0
198 On ch=1 n=65 v=63
192 On ch=1 n=67 v=70
2 Off ch=1 n=65 v=0
180 Off ch=1 n=67 v=0
10 On ch=1 n=69 v=70
374 Off ch=1 n=69 v=0
10 On ch=1 n=74 v=74
36 ChPr ch=1 v=0
20 ChPr ch=1 v=0
130 Off ch=1 n=74 v=0
6 On ch=1 n=72 v=66
358 Off ch=1 n=72 v=0
30 On ch=1 n=72 v=68
190 Off ch=1 n=72 v=0
2 On ch=1 n=70 v=65
158 Off ch=1 n=70 v=0
26 On ch=1 n=69 v=65
330 Off ch=1 n=69 v=0
58 On ch=1 n=64 v=74
216 ChPr ch=1 v=0
28 ChPr ch=1 v=0
104 ChPr ch=1 v=0
36 On ch=1 n=65 v=69
6 Off ch=1 n=64 v=0
172 Off ch=1 n=65 v=0
22 On ch=1 n=68 v=89
170 Off ch=1 n=68 v=0
18 On ch=1 n=69 v=82
48 ChPr ch=1 v=0
4 ChPr ch=1 v=1
8 ChPr ch=1 v=2
24 ChPr ch=1 v=1
8 ChPr ch=1 v=0
8 ChPr ch=1 v=0
30 Off ch=1 n=69 v=0
62 On ch=1 n=71 v=95
32 ChPr ch=1 v=1
4 ChPr ch=1 v=4
8 ChPr ch=1 v=7
8 ChPr ch=1 v=8
16 ChPr ch=1 v=7
8 ChPr ch=1 v=6
8 ChPr ch=1 v=5
4 ChPr ch=1 v=4
8 ChPr ch=1 v=2
8 ChPr ch=1 v=1
4 ChPr ch=1 v=0
8 ChPr ch=1 v=0
62 Off ch=1 n=71 v=0
10 On ch=1 n=72 v=79
28 ChPr ch=1 v=0
8 ChPr ch=1 v=1
8 ChPr ch=1 v=2
12 ChPr ch=1 v=1
8 ChPr ch=1 v=0
4 ChPr ch=1 v=0
70 Off ch=1 n=72 v=0
58 On ch=1 n=76 v=85
28 ChPr ch=1 v=0
4 ChPr ch=1 v=1
32 ChPr ch=1 v=0
8 ChPr ch=1 v=0
4 ChPr ch=1 v=0
102 Off ch=1 n=76 v=0
6 On ch=1 n=77 v=88
28 ChPr ch=1 v=0
8 ChPr ch=1 v=0
32 ChPr ch=1 v=0
54 Off ch=1 n=77 v=0
78 On ch=1 n=80 v=84
158 Off ch=1 n=80 v=0
26 On ch=1 n=81 v=78
138 Off ch=1 n=81 v=0
62 On ch=1 n=83 v=88
24 ChPr ch=1 v=0
8 ChPr ch=1 v=2
4 ChPr ch=1 v=4
8 ChPr ch=1 v=5
4 ChPr ch=1 v=6
16 ChPr ch=1 v=5
4 ChPr ch=1 v=3
8 ChPr ch=1 v=1
8 ChPr ch=1 v=0
4 ChPr ch=1 v=0
96 On ch=1 n=84 v=79
2 Off ch=1 n=83 v=0
156 Off ch=1 n=84 v=0
46 On ch=1 n=89 v=87
20 ChPr ch=1 v=0
8 ChPr ch=1 v=2
16 ChPr ch=1 v=0
8 ChPr ch=1 v=0
550 Off ch=1 n=89 v=0
158 On ch=1 n=65 v=80
12 ChPr ch=1 v=0
8 ChPr ch=1 v=3
8 ChPr ch=1 v=5
4 ChPr ch=1 v=6
12 ChPr ch=1 v=5
8 ChPr ch=1 v=3
4 ChPr ch=1 v=1
8 ChPr ch=1 v=0
8 ChPr ch=1 v=0
590 Off ch=1 n=65 v=0
106 On ch=1 n=69 v=83
334 Off ch=1 n=69 v=0
50 On ch=1 n=72 v=83
24 ChPr ch=1 v=0
4 ChPr ch=1 v=1
8 ChPr ch=1 v=2
32 ChPr ch=1 v=1
4 ChPr ch=1 v=0
8 ChPr ch=1 v=0
74 Off ch=1 n=72 v=0
230 On ch=1 n=79 v=86
96 On ch=1 n=77 v=74
18 Off ch=1 n=79 v=0
78 On ch=1 n=79 v=80
10 Off ch=1 n=77 v=0
180 Off ch=1 n=79 v=0
6 On ch=1 n=77 v=88
28 ChPr ch=1 v=0
8 ChPr ch=1 v=1
8 ChPr ch=1 v=2
4 ChPr ch=1 v=3
24 ChPr ch=1 v=2
8 ChPr ch=1 v=1
8 ChPr ch=1 v=0
68 ChPr ch=1 v=0
12 ChPr ch=1 v=0
622 Off ch=1 n=77 v=0
358 On ch=1 n=79 v=86
96 On ch=1 n=77 v=73
18 Off ch=1 n=79 v=0
86 On ch=1 n=79 v=82
2 Off ch=1 n=77 v=0
176 Off ch=1 n=79 v=0
10 On ch=1 n=77 v=89
32 ChPr ch=1 v=0
8 ChPr ch=1 v=2
4 ChPr ch=1 v=4
8 ChPr ch=1 v=5
12 ChPr ch=1 v=4
8 ChPr ch=1 v=2
4 ChPr ch=1 v=1
8 ChPr ch=1 v=0
36 ChPr ch=1 v=0
8 ChPr ch=1 v=0
554 Off ch=1 n=77 v=0
82 On ch=1 n=74 v=83
274 Off ch=1 n=74 v=0
106 On ch=1 n=72 v=85
1254 Off ch=1 n=72 v=0
286 On ch=1 n=65 v=80
12 ChPr ch=1 v=0
8 ChPr ch=1 v=3
8 ChPr ch=1 v=5
4 ChPr ch=1 v=6
12 ChPr ch=1 v=5
8 ChPr ch=1 v=3
4 ChPr ch=1 v=1
8 ChPr ch=1 v=0
8 ChPr ch=1 v=0
590 Off ch=1 n=65 v=0
106 On ch=1 n=69 v=83
334 Off ch=1 n=69 v=0
50 On ch=1 n=72 v=83
24 ChPr ch=1 v=0
4 ChPr ch=1 v=1
8 ChPr ch=1 v=2
32 ChPr ch=1 v=1
4 ChPr ch=1 v=0
8 ChPr ch=1 v=0
74 Off ch=1 n=72 v=0
230 On ch=1 n=79 v=86
96 On ch=1 n=77 v=74
18 Off ch=1 n=79 v=0
78 On ch=1 n=79 v=80
10 Off ch=1 n=77 v=0
180 Off ch=1 n=79 v=0
6 On ch=1 n=77 v=88
28 ChPr ch=1 v=0
8 ChPr ch=1 v=1
8 ChPr ch=1 v=2
4 ChPr ch=1 v=3
24 ChPr ch=1 v=2
8 ChPr ch=1 v=1
8 ChPr ch=1 v=0
68 ChPr ch=1 v=0
12 ChPr ch=1 v=0
622 Off ch=1 n=77 v=0
358 On ch=1 n=79 v=86
96 On ch=1 n=77 v=73
18 Off ch=1 n=79 v=0
86 On ch=1 n=79 v=82
2 Off ch=1 n=77 v=0
176 Off ch=1 n=79 v=0
10 On ch=1 n=77 v=89
32 ChPr ch=1 v=0
8 ChPr ch=1 v=2
4 ChPr ch=1 v=4
8 ChPr ch=1 v=5
12 ChPr ch=1 v=4
8 ChPr ch=1 v=2
4 ChPr ch=1 v=1
8 ChPr ch=1 v=0
36 ChPr ch=1 v=0
8 ChPr ch=1 v=0
554 Off ch=1 n=77 v=0
82 On ch=1 n=74 v=83
274 Off ch=1 n=74 v=0
106 On ch=1 n=72 v=85
1254 Off ch=1 n=72 v=0
286 On ch=1 n=65 v=80
12 ChPr ch=1 v=0
8 ChPr ch=1 v=3
8 ChPr ch=1 v=5
4 ChPr ch=1 v=6
12 ChPr ch=1 v=5
8 ChPr ch=1 v=3
4 ChPr ch=1 v=1
8 ChPr ch=1 v=0
8 ChPr ch=1 v=0
590 Off ch=1 n=65 v=0
106 On ch=1 n=69 v=83
334 Off ch=1 n=69 v=0
50 On ch=1 n=72 v=83
24 ChPr ch=1 v=0
4 ChPr ch=1 v=1
8 ChPr ch=1 v=2
32 ChPr ch=1 v=1
4 ChPr ch=1 v=0
8 ChPr ch=1 v=0
74 Off ch=1 n=72 v=0
230 On ch=1 n=79 v=86
96 On ch=1 n=77 v=74
18 Off ch=1 n=79 v=0
78 On ch=1 n=79 v=80
10 Off ch=1 n=77 v=0
180 Off ch=1 n=79 v=0
6 On ch=1 n=77 v=88
28 ChPr ch=1 v=0
8 ChPr ch=1 v=1
8 ChPr ch=1 v=2
4 ChPr ch=1 v=3
24 ChPr ch=1 v=2
8 ChPr ch=1 v=1
8 ChPr ch=1 v=0
68 ChPr ch=1 v=0
12 ChPr ch=1 v=0
622 Off ch=1 n=77 v=0
358 On ch=1 n=79 v=86
96 On ch=1 n=77 v=73
18 Off ch=1 n=79 v=0
86 On ch=1 n=79 v=82
2 Off ch=1 n=77 v=0
176 Off ch=1 n=79 v=0
10 On ch=1 n=77 v=89
32 ChPr ch=1 v=0
8 ChPr ch=1 v=2
4 ChPr ch=1 v=4
8 ChPr ch=1 v=5
12 ChPr ch=1 v=4
8 ChPr ch=1 v=2
4 ChPr ch=1 v=1
8 ChPr ch=1 v=0
36 ChPr ch=1 v=0
8 ChPr ch=1 v=0
554 Off ch=1 n=77 v=0
82 On ch=1 n=74 v=83
274 Off ch=1 n=74 v=0
106 On ch=1 n=72 v=85
1254 Off ch=1 n=72 v=0
286 On ch=1 n=65 v=80
12 ChPr ch=1 v=0
8 ChPr ch=1 v=3
8 ChPr ch=1 v=5
4 ChPr ch=1 v=6
12 ChPr ch=1 v=5
8 ChPr ch=1 v=3
4 ChPr ch=1 v=1
8 ChPr ch=1 v=0
8 ChPr ch=1 v=0
590 Off ch=1 n=65 v=0
106 On ch=1 n=69 v=83
334 Off ch=1 n=69 v=0
50 On ch=1 n=72 v=83
24 ChPr ch=1 v=0
4 ChPr ch=1 v=1
8 ChPr ch=1 v=2
32 ChPr ch=1 v=1
4 ChPr ch=1 v=0
8 ChPr ch=1 v=0
74 Off ch=1 n=72 v=0
230 On ch=1 n=79 v=86
96 On ch=1 n=77 v=74
18 Off ch=1 n=79 v=0
78 On ch=1 n=79 v=80
10 Off ch=1 n=77 v=0
180 Off ch=1 n=79 v=0
6 On ch=1 n=77 v=88
28 ChPr ch=1 v=0
8 ChPr ch=1 v=1
8 ChPr ch=1 v=2
4 ChPr ch=1 v=3
24 ChPr ch=1 v=2
8 ChPr ch=1 v=1
8 ChPr ch=1 v=0
68 ChPr ch=1 v=0
12 ChPr ch=1 v=0
622 Off ch=1 n=77 v=0
358 On ch=1 n=79 v=86
96 On ch=1 n=77 v=73
18 Off ch=1 n=79 v=0
86 On ch=1 n=79 v=82
2 Off ch=1 n=77 v=0
176 Off ch=1 n=79 v=0
10 On ch=1 n=77 v=89
32 ChPr ch=1 v=0
8 ChPr ch=1 v=2
4 ChPr ch=1 v=4
8 ChPr ch=1 v=5
12 ChPr ch=1 v=4
8 ChPr ch=1 v=2
4 ChPr ch=1 v=1
8 ChPr ch=1 v=0
36 ChPr ch=1 v=0
8 ChPr ch=1 v=0
554 Off ch=1 n=77 v=0
82 On ch=1 n=74 v=83
274 Off ch=1 n=74 v=0
106 On ch=1 n=72 v=85
1254 Off ch=1 n=72 v=0
286 On ch=1 n=65 v=72
12 ChPr ch=1 v=0
8 ChPr ch=1 v=3
8 ChPr ch=1 v=5
4 ChPr ch=1 v=6
12 ChPr ch=1 v=5
8 ChPr ch=1 v=3
4 ChPr ch=1 v=1
8 ChPr ch=1 v=0
8 ChPr ch=1 v=0
590 Off ch=1 n=65 v=0
106 On ch=1 n=69 v=68
334 Off ch=1 n=69 v=0
50 On ch=1 n=72 v=67
24 ChPr ch=1 v=0
4 ChPr ch=1 v=1
8 ChPr ch=1 v=2
32 ChPr ch=1 v=1
4 ChPr ch=1 v=0
8 ChPr ch=1 v=0
74 Off ch=1 n=72 v=0
230 On ch=1 n=79 v=65
96 On ch=1 n=77 v=65
18 Off ch=1 n=79 v=0
78 On ch=1 n=79 v=64
10 Off ch=1 n=77 v=0
180 Off ch=1 n=79 v=0
6 On ch=1 n=77 v=63
28 ChPr ch=1 v=0
8 ChPr ch=1 v=1
8 ChPr ch=1 v=2
4 ChPr ch=1 v=3
24 ChPr ch=1 v=2
8 ChPr ch=1 v=1
8 ChPr ch=1 v=0
68 ChPr ch=1 v=0
12 ChPr ch=1 v=0
622 Off ch=1 n=77 v=0
358 On ch=1 n=79 v=59
96 On ch=1 n=77 v=58
18 Off ch=1 n=79 v=0
86 On ch=1 n=79 v=58
2 Off ch=1 n=77 v=0
176 Off ch=1 n=79 v=0
10 On ch=1 n=77 v=57
32 ChPr ch=1 v=0
8 ChPr ch=1 v=2
4 ChPr ch=1 v=4
8 ChPr ch=1 v=5
12 ChPr ch=1 v=4
8 ChPr ch=1 v=2
4 ChPr ch=1 v=1
8 ChPr ch=1 v=0
36 ChPr ch=1 v=0
8 ChPr ch=1 v=0
554 Off ch=1 n=77 v=0
82 On ch=1 n=74 v=54
274 Off ch=1 n=74 v=0
106 On ch=1 n=72 v=52
1254 Off ch=1 n=72 v=0
286 On ch=1 n=65 v=45
12 ChPr ch=1 v=0
8 ChPr ch=1 v=3
8 ChPr ch=1 v=5
4 ChPr ch=1 v=6
12 ChPr ch=1 v=5
8 ChPr ch=1 v=3
4 ChPr ch=1 v=1
8 ChPr ch=1 v=0
8 ChPr ch=1 v=0
590 Off ch=1 n=65 v=0
106 On ch=1 n=69 v=42
334 Off ch=1 n=69 v=0
50 On ch=1 n=72 v=41
24 ChPr ch=1 v=0
4 ChPr ch=1 v=1
8 ChPr ch=1 v=2
32 ChPr ch=1 v=1
4 ChPr ch=1 v=0
8 ChPr ch=1 v=0
74 Off ch=1 n=72 v=0
230 On ch=1 n=79 v=39
96 On ch=1 n=77 v=39
18 Off ch=1 n=79 v=0
78 On ch=1 n=79 v=38
10 Off ch=1 n=77 v=0
180 Off ch=1 n=79 v=0
6 On ch=1 n=77 v=37
28 ChPr ch=1 v=0
8 ChPr ch=1 v=1
8 ChPr ch=1 v=2
4 ChPr ch=1 v=3
24 ChPr ch=1 v=2
8 ChPr ch=1 v=1
8 ChPr ch=1 v=0
68 ChPr ch=1 v=0
12 ChPr ch=1 v=0
622 Off ch=1 n=77 v=0
358 On ch=1 n=79 v=32
96 On ch=1 n=77 v=32
18 Off ch=1 n=79 v=0
86 On ch=1 n=79 v=32
2 Off ch=1 n=77 v=0
176 Off ch=1 n=79 v=0
10 On ch=1 n=77 v=31
32 ChPr ch=1 v=0
8 ChPr ch=1 v=2
4 ChPr ch=1 v=4
8 ChPr ch=1 v=5
12 ChPr ch=1 v=4
8 ChPr ch=1 v=2
4 ChPr ch=1 v=1
8 ChPr ch=1 v=0
36 ChPr ch=1 v=0
8 ChPr ch=1 v=0
554 Off ch=1 n=77 v=0
82 On ch=1 n=74 v=28
274 Off ch=1 n=74 v=0
106 On ch=1 n=72 v=26
1254 Off ch=1 n=72 v=0
286 On ch=1 n=65 v=19
12 ChPr ch=1 v=0
8 ChPr ch=1 v=3
8 ChPr ch=1 v=5
4 ChPr ch=1 v=6
12 ChPr ch=1 v=5
8 ChPr ch=1 v=3
4 ChPr ch=1 v=1
8 ChPr ch=1 v=0
8 ChPr ch=1 v=0
590 Off ch=1 n=65 v=0
106 On ch=1 n=69 v=16
334 Off ch=1 n=69 v=0
50 On ch=1 n=72 v=15
24 ChPr ch=1 v=0
4 ChPr ch=1 v=1
8 ChPr ch=1 v=2
32 ChPr ch=1 v=1
4 ChPr ch=1 v=0
8 ChPr ch=1 v=0
74 Off ch=1 n=72 v=0
230 On ch=1 n=79 v=13
96 On ch=1 n=77 v=13
18 Off ch=1 n=79 v=0
78 On ch=1 n=79 v=12
10 Off ch=1 n=77 v=0
180 Off ch=1 n=79 v=0
6 On ch=1 n=77 v=11
28 ChPr ch=1 v=0
8 ChPr ch=1 v=1
8 ChPr ch=1 v=2
4 ChPr ch=1 v=3
24 ChPr ch=1 v=2
8 ChPr ch=1 v=1
8 ChPr ch=1 v=0
68 ChPr ch=1 v=0
12 ChPr ch=1 v=0
622 Off ch=1 n=77 v=0
358 On ch=1 n=79 v=6
96 On ch=1 n=77 v=6
18 Off ch=1 n=79 v=0
86 On ch=1 n=79 v=6
2 Off ch=1 n=77 v=0
176 Off ch=1 n=79 v=0
10 On ch=1 n=77 v=5
32 ChPr ch=1 v=0
8 ChPr ch=1 v=2
4 ChPr ch=1 v=4
8 ChPr ch=1 v=5
12 ChPr ch=1 v=4
8 ChPr ch=1 v=2
4 ChPr ch=1 v=1
8 ChPr ch=1 v=0
36 ChPr ch=1 v=0
8 ChPr ch=1 v=0
554 Off ch=1 n=77 v=0
82 On ch=1 n=74 v=2
274 Off ch=1 n=74 v=0
106 On ch=1 n=72 v=1
1254 Off ch=1 n=72 v=0
284 Meta TrkEnd
TrkEnd
MTrk
TimestampType=Delta
0 Meta TrkName "ACOU BASS"
0 Par ch=2 c=7 v=117
0 PrCh ch=2 p=32
1536 Par ch=2 c=7 v=117
0 PrCh ch=2 p=32
26112 On ch=2 n=58 v=74
344 Off ch=2 n=58 v=0
40 On ch=2 n=58 v=65
360 Off ch=2 n=58 v=0
28 On ch=2 n=57 v=75
360 Off ch=2 n=57 v=0
24 On ch=2 n=57 v=61
352 Off ch=2 n=57 v=0
28 On ch=2 n=55 v=70
368 Off ch=2 n=55 v=0
20 On ch=2 n=55 v=65
356 Off ch=2 n=55 v=0
24 On ch=2 n=53 v=71
744 Off ch=2 n=53 v=0
28 On ch=2 n=52 v=62
360 Off ch=2 n=52 v=0
24 On ch=2 n=55 v=62
340 Off ch=2 n=55 v=0
36 On ch=2 n=60 v=66
348 Off ch=2 n=60 v=0
40 On ch=2 n=60 v=62
364 Off ch=2 n=60 v=0
20 On ch=2 n=53 v=70
136 Off ch=2 n=53 v=0
52 On ch=2 n=53 v=63
148 Off ch=2 n=53 v=0
48 On ch=2 n=53 v=64
152 Off ch=2 n=53 v=0
36 On ch=2 n=53 v=61
160 Off ch=2 n=53 v=0
36 On ch=2 n=53 v=63
140 Off ch=2 n=53 v=0
52 On ch=2 n=53 v=60
140 Off ch=2 n=53 v=0
52 On ch=2 n=53 v=68
152 Off ch=2 n=53 v=0
32 On ch=2 n=53 v=67
152 Off ch=2 n=53 v=0
44 On ch=2 n=53 v=71
108 Off ch=2 n=53 v=0
92 On ch=2 n=53 v=70
124 Off ch=2 n=53 v=0
64 On ch=2 n=53 v=71
116 Off ch=2 n=53 v=0
76 On ch=2 n=53 v=76
144 Off ch=2 n=53 v=0
48 On ch=2 n=53 v=79
128 Off ch=2 n=53 v=0
60 On ch=2 n=53 v=70
136 Off ch=2 n=53 v=0
60 On ch=2 n=53 v=85
140 Off ch=2 n=53 v=0
48 On ch=2 n=53 v=66
160 Off ch=2 n=53 v=0
36 On ch=2 n=58 v=79
140 Off ch=2 n=58 v=0
52 On ch=2 n=58 v=79
144 Off ch=2 n=58 v=0
48 On ch=2 n=58 v=77
144 Off ch=2 n=58 v=0
48 On ch=2 n=58 v=73
172 Off ch=2 n=58 v=0
24 On ch=2 n=57 v=76
336 Off ch=2 n=57 v=0
48 On ch=2 n=57 v=76
368 Off ch=2 n=57 v=0
12 On ch=2 n=55 v=82
340 Off ch=2 n=55 v=0
44 On ch=2 n=55 v=68
368 Off ch=2 n=55 v=0
20 On ch=2 n=53 v=80
352 Off ch=2 n=53 v=0
28 On ch=2 n=53 v=66
364 Off ch=2 n=53 v=0
20 On ch=2 n=52 v=80
552 Off ch=2 n=52 v=0
24 On ch=2 n=55 v=79
172 Off ch=2 n=55 v=0
28 On ch=2 n=60 v=63
360 Off ch=2 n=60 v=0
20 On ch=2 n=55 v=86
356 Off ch=2 n=55 v=0
24 On ch=2 n=53 v=72
520 Off ch=2 n=53 v=0
56 On ch=2 n=53 v=90
156 Off ch=2 n=53 v=0
40 On ch=2 n=53 v=92
684 Off ch=2 n=53 v=0
80 On ch=2 n=53 v=92
136 Off ch=2 n=53 v=0
56 On ch=2 n=53 v=76
172 Off ch=2 n=53 v=0
20 On ch=2 n=53 v=71
160 Off ch=2 n=53 v=0
32 On ch=2 n=53 v=72
156 Off ch=2 n=53 v=0
40 On ch=2 n=60 v=66
144 Off ch=2 n=60 v=0
48 On ch=2 n=60 v=65
140 Off ch=2 n=60 v=0
48 On ch=2 n=60 v=74
144 Off ch=2 n=60 v=0
48 On ch=2 n=60 v=72
148 Off ch=2 n=60 v=0
44 On ch=2 n=60 v=74
128 Off ch=2 n=60 v=0
64 On ch=2 n=60 v=67
116 Off ch=2 n=60 v=0
68 On ch=2 n=60 v=74
128 Off ch=2 n=60 v=0
64 On ch=2 n=60 v=81
96 Off ch=2 n=60 v=0
100 On ch=2 n=48 v=93
4 Pb ch=2 v=8194
8 Pb ch=2 v=10087
8 Pb ch=2 v=11982
8 Pb ch=2 v=14070
4 Pb ch=2 v=15709
8 Pb ch=2 v=16383
1108 Pb ch=2 v=16255
4 Pb ch=2 v=16159
8 Pb ch=2 v=16030
8 Pb ch=2 v=15934
4 Pb ch=2 v=15805
8 Pb ch=2 v=15709
8 Pb ch=2 v=15516
4 Pb ch=2 v=15355
8 Pb ch=2 v=15163
8 Pb ch=2 v=14938
4 Pb ch=2 v=14777
8 Pb ch=2 v=14552
8 Pb ch=2 v=14295
4 Pb ch=2 v=14070
8 Pb ch=2 v=13846
8 Pb ch=2 v=13556
4 Pb ch=2 v=13332
8 Pb ch=2 v=13042
8 Pb ch=2 v=12753
4 Pb ch=2 v=12432
8 Pb ch=2 v=12047
8 Pb ch=2 v=11725
8 Pb ch=2 v=11243
4 Pb ch=2 v=10858
8 Pb ch=2 v=10408
8 Pb ch=2 v=9862
4 Pb ch=2 v=9348
8 Pb ch=2 v=8770
4 Off ch=2 n=48 v=0
4 Pb ch=2 v=8416
8 Pb ch=2 v=8256
4 Pb ch=2 v=8192
192 On ch=2 n=53 v=92
372 Off ch=2 n=53 v=0
20 On ch=2 n=53 v=73
296 Off ch=2 n=53 v=0
88 On ch=2 n=53 v=85
120 Off ch=2 n=53 v=0
72 On ch=2 n=53 v=75
120 Off ch=2 n=53 v=0
68 On ch=2 n=53 v=75
132 Off ch=2 n=53 v=0
60 On ch=2 n=53 v=82
180 Off ch=2 n=53 v=0
12 On ch=2 n=48 v=82
552 Off ch=2 n=48 v=0
20 On ch=2 n=43 v=69
184 Off ch=2 n=43 v=0
8 On ch=2 n=48 v=74
560 Off ch=2 n=48 v=0
16 On ch=2 n=43 v=69
180 Off ch=2 n=43 v=0
12 On ch=2 n=48 v=65
556 Off ch=2 n=48 v=0
20 On ch=2 n=52 v=68
180 Off ch=2 n=52 v=0
16 On ch=2 n=55 v=70
172 Off ch=2 n=55 v=0
16 On ch=2 n=48 v=63
172 Off ch=2 n=48 v=0
24 On ch=2 n=50 v=65
168 Off ch=2 n=50 v=0
24 On ch=2 n=52 v=67
176 Off ch=2 n=52 v=0
16 On ch=2 n=53 v=79
556 Off ch=2 n=53 v=0
16 On ch=2 n=57 v=82
180 Off ch=2 n=57 v=0
16 On ch=2 n=60 v=66
352 Off ch=2 n=60 v=0
20 On ch=2 n=53 v=68
372 Off ch=2 n=53 v=0
16 On ch=2 n=46 v=75
760 Off ch=2 n=46 v=0
12 On ch=2 n=53 v=88
364 Off ch=2 n=53 v=0
20 On ch=2 n=58 v=61
176 Off ch=2 n=58 v=0
16 On ch=2 n=60 v=62
172 Off ch=2 n=60 v=0
20 On ch=2 n=53 v=71
156 Off ch=2 n=53 v=0
32 On ch=2 n=53 v=64
156 Off ch=2 n=53 v=0
40 On ch=2 n=53 v=59
176 Off ch=2 n=53 v=0
16 On ch=2 n=57 v=62
180 Off ch=2 n=57 v=0
16 On ch=2 n=60 v=80
356 Off ch=2 n=60 v=0
24 On ch=2 n=53 v=73
356 Off ch=2 n=53 v=0
28 On ch=2 n=60 v=70
552 Off ch=2 n=60 v=0
28 On ch=2 n=55 v=92
172 Off ch=2 n=55 v=0
20 On ch=2 n=60 v=86
352 Off ch=2 n=60 v=0
28 On ch=2 n=55 v=85
328 Off ch=2 n=55 v=0
60 On ch=2 n=53 v=86
152 Off ch=2 n=53 v=0
36 On ch=2 n=53 v=70
140 Off ch=2 n=53 v=0
52 On ch=2 n=53 v=65
128 Off ch=2 n=53 v=0
64 On ch=2 n=53 v=72
160 Off ch=2 n=53 v=0
32 On ch=2 n=53 v=78
152 Off ch=2 n=53 v=0
36 On ch=2 n=53 v=67
136 Off ch=2 n=53 v=0
60 On ch=2 n=53 v=60
164 Off ch=2 n=53 v=0
28 On ch=2 n=53 v=75
168 Off ch=2 n=53 v=0
24 On ch=2 n=41 v=78
156 Off ch=2 n=41 v=0
36 On ch=2 n=41 v=69
148 Off ch=2 n=41 v=0
44 On ch=2 n=41 v=64
144 Off ch=2 n=41 v=0
44 On ch=2 n=41 v=66
148 Off ch=2 n=41 v=0
48 On ch=2 n=41 v=66
148 Off ch=2 n=41 v=0
40 On ch=2 n=41 v=66
152 Off ch=2 n=41 v=0
36 On ch=2 n=43 v=70
176 Off ch=2 n=43 v=0
20 On ch=2 n=45 v=78
152 Off ch=2 n=45 v=0
44 On ch=2 n=46 v=78
344 Off ch=2 n=46 v=0
40 On ch=2 n=46 v=69
360 Off ch=2 n=46 v=0
28 On ch=2 n=45 v=79
360 Off ch=2 n=45 v=0
24 On ch=2 n=45 v=65
352 Off ch=2 n=45 v=0
28 On ch=2 n=43 v=74
368 Off ch=2 n=43 v=0
20 On ch=2 n=43 v=69
356 Off ch=2 n=43 v=0
24 On ch=2 n=41 v=75
744 Off ch=2 n=41 v=0
28 On ch=2 n=40 v=66
360 Off ch=2 n=40 v=0
24 On ch=2 n=43 v=66
340 Off ch=2 n=43 v=0
36 On ch=2 n=48 v=70
348 Off ch=2 n=48 v=0
40 On ch=2 n=48 v=66
364 Off ch=2 n=48 v=0
20 On ch=2 n=41 v=74
136 Off ch=2 n=41 v=0
52 On ch=2 n=41 v=67
148 Off ch=2 n=41 v=0
48 On ch=2 n=41 v=68
152 Off ch=2 n=41 v=0
36 On ch=2 n=41 v=65
160 Off ch=2 n=41 v=0
36 On ch=2 n=41 v=67
140 Off ch=2 n=41 v=0
52 On ch=2 n=41 v=64
140 Off ch=2 n=41 v=0
52 On ch=2 n=41 v=72
152 Off ch=2 n=41 v=0
32 On ch=2 n=41 v=71
152 Off ch=2 n=41 v=0
44 On ch=2 n=41 v=75
108 Off ch=2 n=41 v=0
92 On ch=2 n=41 v=74
124 Off ch=2 n=41 v=0
64 On ch=2 n=41 v=75
116 Off ch=2 n=41 v=0
76 On ch=2 n=41 v=80
144 Off ch=2 n=41 v=0
48 On ch=2 n=41 v=83
128 Off ch=2 n=41 v=0
60 On ch=2 n=41 v=74
136 Off ch=2 n=41 v=0
60 On ch=2 n=41 v=89
140 Off ch=2 n=41 v=0
48 On ch=2 n=41 v=70
160 Off ch=2 n=41 v=0
36 On ch=2 n=46 v=83
140 Off ch=2 n=46 v=0
52 On ch=2 n=46 v=83
144 Off ch=2 n=46 v=0
48 On ch=2 n=46 v=81
144 Off ch=2 n=46 v=0
48 On ch=2 n=46 v=77
172 Off ch=2 n=46 v=0
24 On ch=2 n=45 v=80
336 Off ch=2 n=45 v=0
48 On ch=2 n=45 v=80
368 Off ch=2 n=45 v=0
12 On ch=2 n=43 v=86
340 Off ch=2 n=43 v=0
44 On ch=2 n=43 v=72
368 Off ch=2 n=43 v=0
20 On ch=2 n=41 v=84
352 Off ch=2 n=41 v=0
28 On ch=2 n=41 v=70
364 Off ch=2 n=41 v=0
20 On ch=2 n=40 v=84
552 Off ch=2 n=40 v=0
24 On ch=2 n=43 v=83
172 Off ch=2 n=43 v=0
28 On ch=2 n=48 v=67
360 Off ch=2 n=48 v=0
20 On ch=2 n=43 v=90
356 Off ch=2 n=43 v=0
24 On ch=2 n=41 v=76
520 Off ch=2 n=41 v=0
56 On ch=2 n=41 v=94
156 Off ch=2 n=41 v=0
40 On ch=2 n=41 v=96
684 Off ch=2 n=41 v=0
80 On ch=2 n=41 v=96
136 Off ch=2 n=41 v=0
56 On ch=2 n=41 v=80
172 Off ch=2 n=41 v=0
20 On ch=2 n=41 v=75
160 Off ch=2 n=41 v=0
32 On ch=2 n=41 v=76
156 Off ch=2 n=41 v=0
40 On ch=2 n=48 v=70
144 Off ch=2 n=48 v=0
48 On ch=2 n=48 v=69
140 Off ch=2 n=48 v=0
48 On ch=2 n=48 v=78
144 Off ch=2 n=48 v=0
48 On ch=2 n=48 v=76
148 Off ch=2 n=48 v=0
44 On ch=2 n=48 v=78
128 Off ch=2 n=48 v=0
64 On ch=2 n=48 v=71
116 Off ch=2 n=48 v=0
68 On ch=2 n=48 v=78
128 Off ch=2 n=48 v=0
64 On ch=2 n=48 v=85
96 Off ch=2 n=48 v=0
100 On ch=2 n=36 v=97
4 Pb ch=2 v=8194
8 Pb ch=2 v=10087
8 Pb ch=2 v=11982
8 Pb ch=2 v=14070
4 Pb ch=2 v=15709
8 Pb ch=2 v=16383
1108 Pb ch=2 v=16255
4 Pb ch=2 v=16159
8 Pb ch=2 v=16030
8 Pb ch=2 v=15934
4 Pb ch=2 v=15805
8 Pb ch=2 v=15709
8 Pb ch=2 v=15516
4 Pb ch=2 v=15355
8 Pb ch=2 v=15163
8 Pb ch=2 v=14938
4 Pb ch=2 v=14777
8 Pb ch=2 v=14552
8 Pb ch=2 v=14295
4 Pb ch=2 v=14070
8 Pb ch=2 v=13846
8 Pb ch=2 v=13556
4 Pb ch=2 v=13332
8 Pb ch=2 v=13042
8 Pb ch=2 v=12753
4 Pb ch=2 v=12432
8 Pb ch=2 v=12047
8 Pb ch=2 v=11725
8 Pb ch=2 v=11243
4 Pb ch=2 v=10858
8 Pb ch=2 v=10408
8 Pb ch=2 v=9862
4 Pb ch=2 v=9348
8 Pb ch=2 v=8770
4 Off ch=2 n=36 v=0
4 Pb ch=2 v=8416
8 Pb ch=2 v=8256
4 Pb ch=2 v=8192
192 On ch=2 n=41 v=99
520 Off ch=2 n=41 v=0
60 On ch=2 n=41 v=88
180 Off ch=2 n=41 v=0
12 On ch=2 n=45 v=97
364 Off ch=2 n=45 v=0
20 On ch=2 n=46 v=72
352 Off ch=2 n=46 v=0
28 On ch=2 n=48 v=80
560 Off ch=2 n=48 v=0
20 On ch=2 n=43 v=78
176 Off ch=2 n=43 v=0
16 On ch=2 n=48 v=94
372 Off ch=2 n=48 v=0
12 On ch=2 n=43 v=79
340 Off ch=2 n=43 v=0
40 On ch=2 n=48 v=97
540 Off ch=2 n=48 v=0
36 On ch=2 n=48 v=90
156 Off ch=2 n=48 v=0
40 On ch=2 n=48 v=85
180 Off ch=2 n=48 v=0
4 On ch=2 n=46 v=69
180 Off ch=2 n=46 v=0
12 On ch=2 n=45 v=71
184 Off ch=2 n=45 v=0
8 On ch=2 n=43 v=70
184 Off ch=2 n=43 v=0
12 On ch=2 n=41 v=72
556 Off ch=2 n=41 v=0
20 On ch=2 n=48 v=70
176 Off ch=2 n=48 v=0
16 On ch=2 n=53 v=64
364 Off ch=2 n=53 v=0
16 On ch=2 n=48 v=90
344 Off ch=2 n=48 v=0
36 On ch=2 n=46 v=70
568 Off ch=2 n=46 v=0
24 On ch=2 n=41 v=69
172 Off ch=2 n=41 v=0
16 On ch=2 n=46 v=79
368 Off ch=2 n=46 v=0
16 On ch=2 n=41 v=70
336 Off ch=2 n=41 v=0
44 On ch=2 n=41 v=92
556 Off ch=2 n=41 v=0
20 On ch=2 n=48 v=73
176 Off ch=2 n=48 v=0
20 On ch=2 n=41 v=76
368 Off ch=2 n=41 v=0
12 On ch=2 n=48 v=87
340 Off ch=2 n=48 v=0
48 On ch=2 n=48 v=89
552 Off ch=2 n=48 v=0
24 On ch=2 n=43 v=80
168 Off ch=2 n=43 v=0
24 On ch=2 n=48 v=97
336 Off ch=2 n=48 v=0
48 On ch=2 n=48 v=97
324 Off ch=2 n=48 v=0
60 On ch=2 n=41 v=92
100 Off ch=2 n=41 v=0
88 On ch=2 n=41 v=92
64 Off ch=2 n=41 v=0
128 On ch=2 n=41 v=99
84 Off ch=2 n=41 v=0
108 On ch=2 n=41 v=94
76 Off ch=2 n=41 v=0
116 On ch=2 n=41 v=104
64 Off ch=2 n=41 v=0
128 On ch=2 n=41 v=97
56 Off ch=2 n=41 v=0
136 On ch=2 n=41 v=99
72 Off ch=2 n=41 v=0
120 On ch=2 n=41 v=97
64 Off ch=2 n=41 v=0
128 On ch=2 n=41 v=104
60 Off ch=2 n=41 v=0
132 On ch=2 n=41 v=101
56 Off ch=2 n=41 v=0
132 On ch=2 n=41 v=97
60 Off ch=2 n=41 v=0
132 On ch=2 n=41 v=97
80 Off ch=2 n=41 v=0
116 On ch=2 n=41 v=110
728 Off ch=2 n=41 v=0
40 On ch=2 n=53 v=101
144 Off ch=2 n=53 v=0
48 On ch=2 n=53 v=97
144 Off ch=2 n=53 v=0
48 On ch=2 n=53 v=101
144 Off ch=2 n=53 v=0
48 On ch=2 n=53 v=94
144 Off ch=2 n=53 v=0
48 On ch=2 n=53 v=101
144 Off ch=2 n=53 v=0
48 On ch=2 n=53 v=97
144 Off ch=2 n=53 v=0
48 On ch=2 n=53 v=94
144 Off ch=2 n=53 v=0
48 On ch=2 n=53 v=97
144 Off ch=2 n=53 v=0
48 On ch=2 n=51 v=84
144 Off ch=2 n=51 v=0
48 On ch=2 n=51 v=96
144 Off ch=2 n=51 v=0
48 On ch=2 n=51 v=100
144 Off ch=2 n=51 v=0
48 On ch=2 n=51 v=96
144 Off ch=2 n=51 v=0
48 On ch=2 n=51 v=100
144 Off ch=2 n=51 v=0
44 On ch=2 n=51 v=100
144 Off ch=2 n=51 v=0
48 On ch=2 n=51 v=100
144 Off ch=2 n=51 v=0
48 On ch=2 n=51 v=104
116 Pb ch=2 v=8481
4 Pb ch=2 v=7517
8 Pb ch=2 v=6906
8 Pb ch=2 v=6521
4 Pb ch=2 v=6200
8 Pb ch=2 v=5878
8 Pb ch=2 v=5718
8 Pb ch=2 v=5654
4 Pb ch=2 v=5814
8 Pb ch=2 v=6746
4 Off ch=2 n=51 v=0
4 Pb ch=2 v=7549
4 Pb ch=2 v=7967
8 Pb ch=2 v=8127
0 On ch=2 n=46 v=92
8 Pb ch=2 v=8192
136 Off ch=2 n=46 v=0
48 On ch=2 n=46 v=92
144 Off ch=2 n=46 v=0
48 On ch=2 n=46 v=100
144 Off ch=2 n=46 v=0
44 On ch=2 n=46 v=100
144 Off ch=2 n=46 v=0
52 On ch=2 n=46 v=104
144 Off ch=2 n=46 v=0
48 On ch=2 n=46 v=100
144 Off ch=2 n=46 v=0
48 On ch=2 n=46 v=92
144 Off ch=2 n=46 v=0
44 On ch=2 n=46 v=92
128 Pb ch=2 v=8481
4 Pb ch=2 v=7324
8 Pb ch=2 v=6682
4 Off ch=2 n=46 v=0
4 Pb ch=2 v=5975
4 Pb ch=2 v=5364
8 Pb ch=2 v=4883
8 Pb ch=2 v=4626
8 Pb ch=2 v=4497
4 Pb ch=2 v=4433
0 On ch=2 n=53 v=85
8 Pb ch=2 v=4561
8 Pb ch=2 v=5011
8 Pb ch=2 v=5718
8 Pb ch=2 v=6746
4 Pb ch=2 v=7549
8 Pb ch=2 v=7967
8 Pb ch=2 v=8127
4 Pb ch=2 v=8192
128 Off ch=2 n=53 v=0
16 On ch=2 n=53 v=83
144 Off ch=2 n=53 v=0
56 On ch=2 n=53 v=97
144 Off ch=2 n=53 v=0
48 On ch=2 n=53 v=99
144 Off ch=2 n=53 v=0
48 On ch=2 n=53 v=101
144 Off ch=2 n=53 v=0
48 On ch=2 n=53 v=104
144 Off ch=2 n=53 v=0
48 On ch=2 n=53 v=110
144 Off ch=2 n=53 v=0
48 On ch=2 n=53 v=110
144 Off ch=2 n=53 v=0
48 On ch=2 n=53 v=101
144 Off ch=2 n=53 v=0
48 On ch=2 n=53 v=97
144 Off ch=2 n=53 v=0
48 On ch=2 n=53 v=101
144 Off ch=2 n=53 v=0
48 On ch=2 n=53 v=94
144 Off ch=2 n=53 v=0
48 On ch=2 n=53 v=101
144 Off ch=2 n=53 v=0
48 On ch=2 n=53 v=97
144 Off ch=2 n=53 v=0
48 On ch=2 n=53 v=94
144 Off ch=2 n=53 v=0
48 On ch=2 n=53 v=97
144 Off ch=2 n=53 v=0
48 On ch=2 n=51 v=84
144 Off ch=2 n=51 v=0
48 On ch=2 n=51 v=96
144 Off ch=2 n=51 v=0
48 On ch=2 n=51 v=100
144 Off ch=2 n=51 v=0
48 On ch=2 n=51 v=96
144 Off ch=2 n=51 v=0
48 On ch=2 n=51 v=100
144 Off ch=2 n=51 v=0
44 On ch=2 n=51 v=100
144 Off ch=2 n=51 v=0
48 On ch=2 n=51 v=100
144 Off ch=2 n=51 v=0
48 On ch=2 n=51 v=104
116 Pb ch=2 v=8481
4 Pb ch=2 v=7517
8 Pb ch=2 v=6906
8 Pb ch=2 v=6521
4 Pb ch=2 v=6200
8 Pb ch=2 v=5878
8 Pb ch=2 v=5718
8 Pb ch=2 v=5654
4 Pb ch=2 v=5814
8 Pb ch=2 v=6746
4 Off ch=2 n=51 v=0
4 Pb ch=2 v=7549
4 Pb ch=2 v=7967
8 Pb ch=2 v=8127
0 On ch=2 n=46 v=92
8 Pb ch=2 v=8192
136 Off ch=2 n=46 v=0
48 On ch=2 n=46 v=92
144 Off ch=2 n=46 v=0
48 On ch=2 n=46 v=100
144 Off ch=2 n=46 v=0
44 On ch=2 n=46 v=100
144 Off ch=2 n=46 v=0
52 On ch=2 n=46 v=104
144 Off ch=2 n=46 v=0
48 On ch=2 n=46 v=100
144 Off ch=2 n=46 v=0
48 On ch=2 n=46 v=92
144 Off ch=2 n=46 v=0
44 On ch=2 n=46 v=92
128 Pb ch=2 v=8481
4 Pb ch=2 v=7324
8 Pb ch=2 v=6682
4 Off ch=2 n=46 v=0
4 Pb ch=2 v=5975
4 Pb ch=2 v=5364
8 Pb ch=2 v=4883
8 Pb ch=2 v=4626
8 Pb ch=2 v=4497
4 Pb ch=2 v=4433
0 On ch=2 n=53 v=85
8 Pb ch=2 v=4561
8 Pb ch=2 v=5011
8 Pb ch=2 v=5718
8 Pb ch=2 v=6746
4 Pb ch=2 v=7549
8 Pb ch=2 v=7967
8 Pb ch=2 v=8127
4 Pb ch=2 v=8192
128 Off ch=2 n=53 v=0
16 On ch=2 n=53 v=83
144 Off ch=2 n=53 v=0
56 On ch=2 n=53 v=97
144 Off ch=2 n=53 v=0
48 On ch=2 n=53 v=99
144 Off ch=2 n=53 v=0
48 On ch=2 n=53 v=101
144 Off ch=2 n=53 v=0
48 On ch=2 n=53 v=104
144 Off ch=2 n=53 v=0
48 On ch=2 n=53 v=110
144 Off ch=2 n=53 v=0
48 On ch=2 n=53 v=110
144 Off ch=2 n=53 v=0
48 On ch=2 n=53 v=101
144 Off ch=2 n=53 v=0
48 On ch=2 n=53 v=97
144 Off ch=2 n=53 v=0
48 On ch=2 n=53 v=101
144 Off ch=2 n=53 v=0
48 On ch=2 n=53 v=94
144 Off ch=2 n=53 v=0
48 On ch=2 n=53 v=101
144 Off ch=2 n=53 v=0
48 On ch=2 n=53 v=97
144 Off ch=2 n=53 v=0
48 On ch=2 n=53 v=94
144 Off ch=2 n=53 v=0
48 On ch=2 n=53 v=97
144 Off ch=2 n=53 v=0
48 On ch=2 n=51 v=84
144 Off ch=2 n=51 v=0
48 On ch=2 n=51 v=96
144 Off ch=2 n=51 v=0
48 On ch=2 n=51 v=100
144 Off ch=2 n=51 v=0
48 On ch=2 n=51 v=96
144 Off ch=2 n=51 v=0
48 On ch=2 n=51 v=100
144 Off ch=2 n=51 v=0
44 On ch=2 n=51 v=100
144 Off ch=2 n=51 v=0
48 On ch=2 n=51 v=100
144 Off ch=2 n=51 v=0
48 On ch=2 n=51 v=104
116 Pb ch=2 v=8481
4 Pb ch=2 v=7517
8 Pb ch=2 v=6906
8 Pb ch=2 v=6521
4 Pb ch=2 v=6200
8 Pb ch=2 v=5878
8 Pb ch=2 v=5718
8 Pb ch=2 v=5654
4 Pb ch=2 v=5814
8 Pb ch=2 v=6746
4 Off ch=2 n=51 v=0
4 Pb ch=2 v=7549
4 Pb ch=2 v=7967
8 Pb ch=2 v=8127
0 On ch=2 n=46 v=92
8 Pb ch=2 v=8192
136 Off ch=2 n=46 v=0
48 On ch=2 n=46 v=92
144 Off ch=2 n=46 v=0
48 On ch=2 n=46 v=100
144 Off ch=2 n=46 v=0
44 On ch=2 n=46 v=100
144 Off ch=2 n=46 v=0
52 On ch=2 n=46 v=104
144 Off ch=2 n=46 v=0
48 On ch=2 n=46 v=100
144 Off ch=2 n=46 v=0
48 On ch=2 n=46 v=92
144 Off ch=2 n=46 v=0
44 On ch=2 n=46 v=92
128 Pb ch=2 v=8481
4 Pb ch=2 v=7324
8 Pb ch=2 v=6682
4 Off ch=2 n=46 v=0
4 Pb ch=2 v=5975
4 Pb ch=2 v=5364
8 Pb ch=2 v=4883
8 Pb ch=2 v=4626
8 Pb ch=2 v=4497
4 Pb ch=2 v=4433
0 On ch=2 n=53 v=85
8 Pb ch=2 v=4561
8 Pb ch=2 v=5011
8 Pb ch=2 v=5718
8 Pb ch=2 v=6746
4 Pb ch=2 v=7549
8 Pb ch=2 v=7967
8 Pb ch=2 v=8127
4 Pb ch=2 v=8192
128 Off ch=2 n=53 v=0
16 On ch=2 n=53 v=83
144 Off ch=2 n=53 v=0
56 On ch=2 n=53 v=97
144 Off ch=2 n=53 v=0
48 On ch=2 n=53 v=99
144 Off ch=2 n=53 v=0
48 On ch=2 n=53 v=101
144 Off ch=2 n=53 v=0
48 On ch=2 n=53 v=104
144 Off ch=2 n=53 v=0
48 On ch=2 n=53 v=110
144 Off ch=2 n=53 v=0
48 On ch=2 n=53 v=110
144 Off ch=2 n=53 v=0
48 On ch=2 n=53 v=101
144 Off ch=2 n=53 v=0
48 On ch=2 n=53 v=97
144 Off ch=2 n=53 v=0
48 On ch=2 n=53 v=101
144 Off ch=2 n=53 v=0
48 On ch=2 n=53 v=94
144 Off ch=2 n=53 v=0
48 On ch=2 n=53 v=101
144 Off ch=2 n=53 v=0
48 On ch=2 n=53 v=97
144 Off ch=2 n=53 v=0
48 On ch=2 n=53 v=94
144 Off ch=2 n=53 v=0
48 On ch=2 n=53 v=97
144 Off ch=2 n=53 v=0
48 On ch=2 n=51 v=84
144 Off ch=2 n=51 v=0
48 On ch=2 n=51 v=96
144 Off ch=2 n=51 v=0
48 On ch=2 n=51 v=100
144 Off ch=2 n=51 v=0
48 On ch=2 n=51 v=96
144 Off ch=2 n=51 v=0
48 On ch=2 n=51 v=100
144 Off ch=2 n=51 v=0
44 On ch=2 n=51 v=100
144 Off ch=2 n=51 v=0
48 On ch=2 n=51 v=100
144 Off ch=2 n=51 v=0
48 On ch=2 n=51 v=104
116 Pb ch=2 v=8481
4 Pb ch=2 v=7517
8 Pb ch=2 v=6906
8 Pb ch=2 v=6521
4 Pb ch=2 v=6200
8 Pb ch=2 v=5878
8 Pb ch=2 v=5718
8 Pb ch=2 v=5654
4 Pb ch=2 v=5814
8 Pb ch=2 v=6746
4 Off ch=2 n=51 v=0
4 Pb ch=2 v=7549
4 Pb ch=2 v=7967
8 Pb ch=2 v=8127
0 On ch=2 n=46 v=92
8 Pb ch=2 v=8192
136 Off ch=2 n=46 v=0
48 On ch=2 n=46 v=92
144 Off ch=2 n=46 v=0
48 On ch=2 n=46 v=100
144 Off ch=2 n=46 v=0
44 On ch=2 n=46 v=100
144 Off ch=2 n=46 v=0
52 On ch=2 n=46 v=104
144 Off ch=2 n=46 v=0
48 On ch=2 n=46 v=100
144 Off ch=2 n=46 v=0
48 On ch=2 n=46 v=92
144 Off ch=2 n=46 v=0
44 On ch=2 n=46 v=92
128 Pb ch=2 v=8481
4 Pb ch=2 v=7324
8 Pb ch=2 v=6682
4 Off ch=2 n=46 v=0
4 Pb ch=2 v=5975
4 Pb ch=2 v=5364
8 Pb ch=2 v=4883
8 Pb ch=2 v=4626
8 Pb ch=2 v=4497
4 Pb ch=2 v=4433
0 On ch=2 n=53 v=85
8 Pb ch=2 v=4561
8 Pb ch=2 v=5011
8 Pb ch=2 v=5718
8 Pb ch=2 v=6746
4 Pb ch=2 v=7549
8 Pb ch=2 v=7967
8 Pb ch=2 v=8127
4 Pb ch=2 v=8192
128 Off ch=2 n=53 v=0
16 On ch=2 n=53 v=83
144 Off ch=2 n=53 v=0
56 On ch=2 n=53 v=97
144 Off ch=2 n=53 v=0
48 On ch=2 n=53 v=95
144 Off ch=2 n=53 v=0
48 On ch=2 n=53 v=95
144 Off ch=2 n=53 v=0
48 On ch=2 n=53 v=94
144 Off ch=2 n=53 v=0
48 On ch=2 n=53 v=93
144 Off ch=2 n=53 v=0
48 On ch=2 n=53 v=92
144 Off ch=2 n=53 v=0
48 On ch=2 n=53 v=91
144 Off ch=2 n=53 v=0
48 On ch=2 n=53 v=90
144 Off ch=2 n=53 v=0
48 On ch=2 n=53 v=89
144 Off ch=2 n=53 v=0
48 On ch=2 n=53 v=88
144 Off ch=2 n=53 v=0
48 On ch=2 n=53 v=87
144 Off ch=2 n=53 v=0
48 On ch=2 n=53 v=86
144 Off ch=2 n=53 v=0
48 On ch=2 n=53 v=85
144 Off ch=2 n=53 v=0
48 On ch=2 n=53 v=84
144 Off ch=2 n=53 v=0
48 On ch=2 n=51 v=83
144 Off ch=2 n=51 v=0
48 On ch=2 n=51 v=82
144 Off ch=2 n=51 v=0
48 On ch=2 n=51 v=81
144 Off ch=2 n=51 v=0
48 On ch=2 n=51 v=80
144 Off ch=2 n=51 v=0
48 On ch=2 n=51 v=79
144 Off ch=2 n=51 v=0
44 On ch=2 n=51 v=78
144 Off ch=2 n=51 v=0
48 On ch=2 n=51 v=77
144 Off ch=2 n=51 v=0
48 On ch=2 n=51 v=76
116 Pb ch=2 v=8481
4 Pb ch=2 v=7517
8 Pb ch=2 v=6906
8 Pb ch=2 v=6521
4 Pb ch=2 v=6200
8 Pb ch=2 v=5878
8 Pb ch=2 v=5718
8 Pb ch=2 v=5654
4 Pb ch=2 v=5814
8 Pb ch=2 v=6746
4 Off ch=2 n=51 v=0
4 Pb ch=2 v=7549
4 Pb ch=2 v=7967
8 Pb ch=2 v=8127
0 On ch=2 n=46 v=75
8 Pb ch=2 v=8192
136 Off ch=2 n=46 v=0
48 On ch=2 n=46 v=74
144 Off ch=2 n=46 v=0
48 On ch=2 n=46 v=74
144 Off ch=2 n=46 v=0
44 On ch=2 n=46 v=73
144 Off ch=2 n=46 v=0
52 On ch=2 n=46 v=72
144 Off ch=2 n=46 v=0
48 On ch=2 n=46 v=71
144 Off ch=2 n=46 v=0
48 On ch=2 n=46 v=70
144 Off ch=2 n=46 v=0
44 On ch=2 n=46 v=69
128 Pb ch=2 v=8481
4 Pb ch=2 v=7324
8 Pb ch=2 v=6682
4 Off ch=2 n=46 v=0
4 Pb ch=2 v=5975
4 Pb ch=2 v=5364
8 Pb ch=2 v=4883
8 Pb ch=2 v=4626
8 Pb ch=2 v=4497
4 Pb ch=2 v=4433
0 On ch=2 n=53 v=68
8 Pb ch=2 v=4561
8 Pb ch=2 v=5011
8 Pb ch=2 v=5718
8 Pb ch=2 v=6746
4 Pb ch=2 v=7549
8 Pb ch=2 v=7967
8 Pb ch=2 v=8127
4 Pb ch=2 v=8192
128 Off ch=2 n=53 v=0
16 On ch=2 n=53 v=67
144 Off ch=2 n=53 v=0
56 On ch=2 n=53 v=66
144 Off ch=2 n=53 v=0
48 On ch=2 n=53 v=65
144 Off ch=2 n=53 v=0
48 On ch=2 n=53 v=64
144 Off ch=2 n=53 v=0
48 On ch=2 n=53 v=63
144 Off ch=2 n=53 v=0
48 On ch=2 n=53 v=62
144 Off ch=2 n=53 v=0
48 On ch=2 n=53 v=61
144 Off ch=2 n=53 v=0
48 On ch=2 n=53 v=60
144 Off ch=2 n=53 v=0
48 On ch=2 n=53 v=59
144 Off ch=2 n=53 v=0
48 On ch=2 n=53 v=58
144 Off ch=2 n=53 v=0
48 On ch=2 n=53 v=57
144 Off ch=2 n=53 v=0
48 On ch=2 n=53 v=56
144 Off ch=2 n=53 v=0
48 On ch=2 n=53 v=55
144 Off ch=2 n=53 v=0
48 On ch=2 n=53 v=54
144 Off ch=2 n=53 v=0
48 On ch=2 n=53 v=53
144 Off ch=2 n=53 v=0
48 On ch=2 n=51 v=53
144 Off ch=2 n=51 v=0
48 On ch=2 n=51 v=52
144 Off ch=2 n=51 v=0
48 On ch=2 n=51 v=51
144 Off ch=2 n=51 v=0
48 On ch=2 n=51 v=50
144 Off ch=2 n=51 v=0
48 On ch=2 n=51 v=49
144 Off ch=2 n=51 v=0
44 On ch=2 n=51 v=48
144 Off ch=2 n=51 v=0
48 On ch=2 n=51 v=47
144 Off ch=2 n=51 v=0
48 On ch=2 n=51 v=46
116 Pb ch=2 v=8481
4 Pb ch=2 v=7517
8 Pb ch=2 v=6906
8 Pb ch=2 v=6521
4 Pb ch=2 v=6200
8 Pb ch=2 v=5878
8 Pb ch=2 v=5718
8 Pb ch=2 v=5654
4 Pb ch=2 v=5814
8 Pb ch=2 v=6746
4 Off ch=2 n=51 v=0
4 Pb ch=2 v=7549
4 Pb ch=2 v=7967
8 Pb ch=2 v=8127
0 On ch=2 n=46 v=45
8 Pb ch=2 v=8192
136 Off ch=2 n=46 v=0
48 On ch=2 n=46 v=44
144 Off ch=2 n=46 v=0
48 On ch=2 n=46 v=43
144 Off ch=2 n=46 v=0
44 On ch=2 n=46 v=42
144 Off ch=2 n=46 v=0
52 On ch=2 n=46 v=41
144 Off ch=2 n=46 v=0
48 On ch=2 n=46 v=40
144 Off ch=2 n=46 v=0
48 On ch=2 n=46 v=39
144 Off ch=2 n=46 v=0
44 On ch=2 n=46 v=38
128 Pb ch=2 v=8481
4 Pb ch=2 v=7324
8 Pb ch=2 v=6682
4 Off ch=2 n=46 v=0
4 Pb ch=2 v=5975
4 Pb ch=2 v=5364
8 Pb ch=2 v=4883
8 Pb ch=2 v=4626
8 Pb ch=2 v=4497
4 Pb ch=2 v=4433
0 On ch=2 n=53 v=37
8 Pb ch=2 v=4561
8 Pb ch=2 v=5011
8 Pb ch=2 v=5718
8 Pb ch=2 v=6746
4 Pb ch=2 v=7549
8 Pb ch=2 v=7967
8 Pb ch=2 v=8127
4 Pb ch=2 v=8192
128 Off ch=2 n=53 v=0
16 On ch=2 n=53 v=36
144 Off ch=2 n=53 v=0
56 On ch=2 n=53 v=35
144 Off ch=2 n=53 v=0
48 On ch=2 n=53 v=34
144 Off ch=2 n=53 v=0
48 On ch=2 n=53 v=33
144 Off ch=2 n=53 v=0
48 On ch=2 n=53 v=32
144 Off ch=2 n=53 v=0
48 On ch=2 n=53 v=32
144 Off ch=2 n=53 v=0
48 On ch=2 n=53 v=31
144 Off ch=2 n=53 v=0
48 On ch=2 n=53 v=30
144 Off ch=2 n=53 v=0
48 On ch=2 n=53 v=29
144 Off ch=2 n=53 v=0
48 On ch=2 n=53 v=28
144 Off ch=2 n=53 v=0
48 On ch=2 n=53 v=27
144 Off ch=2 n=53 v=0
48 On ch=2 n=53 v=26
144 Off ch=2 n=53 v=0
48 On ch=2 n=53 v=25
144 Off ch=2 n=53 v=0
48 On ch=2 n=53 v=24
144 Off ch=2 n=53 v=0
48 On ch=2 n=53 v=23
144 Off ch=2 n=53 v=0
48 On ch=2 n=51 v=22
144 Off ch=2 n=51 v=0
48 On ch=2 n=51 v=21
144 Off ch=2 n=51 v=0
48 On ch=2 n=51 v=20
144 Off ch=2 n=51 v=0
48 On ch=2 n=51 v=19
144 Off ch=2 n=51 v=0
48 On ch=2 n=51 v=18
144 Off ch=2 n=51 v=0
44 On ch=2 n=51 v=17
144 Off ch=2 n=51 v=0
48 On ch=2 n=51 v=16
144 Off ch=2 n=51 v=0
48 On ch=2 n=51 v=15
116 Pb ch=2 v=8481
4 Pb ch=2 v=7517
8 Pb ch=2 v=6906
8 Pb ch=2 v=6521
4 Pb ch=2 v=6200
8 Pb ch=2 v=5878
8 Pb ch=2 v=5718
8 Pb ch=2 v=5654
4 Pb ch=2 v=5814
8 Pb ch=2 v=6746
4 Off ch=2 n=51 v=0
4 Pb ch=2 v=7549
4 Pb ch=2 v=7967
8 Pb ch=2 v=8127
0 On ch=2 n=46 v=14
8 Pb ch=2 v=8192
136 Off ch=2 n=46 v=0
48 On ch=2 n=46 v=13
144 Off ch=2 n=46 v=0
48 On ch=2 n=46 v=12
144 Off ch=2 n=46 v=0
44 On ch=2 n=46 v=11
144 Off ch=2 n=46 v=0
52 On ch=2 n=46 v=10
144 Off ch=2 n=46 v=0
48 On ch=2 n=46 v=10
144 Off ch=2 n=46 v=0
48 On ch=2 n=46 v=9
144 Off ch=2 n=46 v=0
44 On ch=2 n=46 v=5
128 Pb ch=2 v=8481
4 Pb ch=2 v=7324
8 Pb ch=2 v=6682
4 Off ch=2 n=46 v=0
4 Pb ch=2 v=5975
4 Pb ch=2 v=5364
8 Pb ch=2 v=4883
8 Pb ch=2 v=4626
8 Pb ch=2 v=4497
4 Pb ch=2 v=4433
0 On ch=2 n=53 v=4
8 Pb ch=2 v=4561
8 Pb ch=2 v=5011
8 Pb ch=2 v=5718
8 Pb ch=2 v=6746
4 Pb ch=2 v=7549
8 Pb ch=2 v=7967
8 Pb ch=2 v=8127
4 Pb ch=2 v=8192
128 Off ch=2 n=53 v=0
16 On ch=2 n=53 v=4
144 Off ch=2 n=53 v=0
56 On ch=2 n=53 v=1
144 Off ch=2 n=53 v=0
48 On ch=2 n=53 v=1
144 Off ch=2 n=53 v=0
48 On ch=2 n=53 v=1
144 Off ch=2 n=53 v=0
48 On ch=2 n=53 v=1
144 Off ch=2 n=53 v=0
48 On ch=2 n=53 v=1
144 Off ch=2 n=53 v=0
48 On ch=2 n=53 v=1
144 Off ch=2 n=53 v=0
48 Meta TrkEnd
TrkEnd
MTrk
TimestampType=Delta
0 Meta TrkName "A.PIANO 1"
0 Par ch=3 c=7 v=114
0 PrCh ch=3 p=0
1536 Par ch=3 c=64 v=127
0 On ch=3 n=53 v=79
0 On ch=3 n=60 v=75
0 On ch=3 n=57 v=79
0 On ch=3 n=65 v=75
188 Off ch=3 n=53 v=0
4 On ch=3 n=41 v=65
16 Off ch=3 n=60 v=0
8 Off ch=3 n=65 v=0
8 Off ch=3 n=57 v=0
160 On ch=3 n=60 v=77
4 On ch=3 n=57 v=76
4 Off ch=3 n=41 v=0
0 On ch=3 n=53 v=74
0 On ch=3 n=65 v=74
180 Off ch=3 n=53 v=0
0 On ch=3 n=41 v=68
4 Off ch=3 n=60 v=0
16 Off ch=3 n=65 v=0
4 Off ch=3 n=57 v=0
168 Off ch=3 n=41 v=0
4 On ch=3 n=53 v=77
0 On ch=3 n=60 v=75
8 On ch=3 n=57 v=72
0 On ch=3 n=65 v=71
172 Off ch=3 n=65 v=0
0 Off ch=3 n=60 v=0
8 Off ch=3 n=53 v=0
4 On ch=3 n=41 v=64
4 Off ch=3 n=57 v=0
192 Off ch=3 n=41 v=0
0 On ch=3 n=53 v=79
0 On ch=3 n=60 v=76
0 On ch=3 n=57 v=76
0 On ch=3 n=65 v=72
176 Off ch=3 n=53 v=0
8 Off ch=3 n=60 v=0
4 On ch=3 n=41 v=72
28 Off ch=3 n=57 v=0
4 Off ch=3 n=65 v=0
140 Off ch=3 n=41 v=0
8 Par ch=3 c=64 v=0
16 On ch=3 n=52 v=80
0 On ch=3 n=60 v=71
0 On ch=3 n=55 v=73
0 On ch=3 n=64 v=73
72 Par ch=3 c=64 v=127
120 Off ch=3 n=64 v=0
0 On ch=3 n=48 v=77
4 Off ch=3 n=60 v=0
0 Off ch=3 n=52 v=0
4 Off ch=3 n=55 v=0
176 Off ch=3 n=48 v=0
0 On ch=3 n=60 v=75
4 On ch=3 n=64 v=72
4 On ch=3 n=55 v=77
0 On ch=3 n=52 v=81
176 Off ch=3 n=52 v=0
8 On ch=3 n=48 v=72
24 Off ch=3 n=64 v=0
0 Off ch=3 n=60 v=0
4 Off ch=3 n=55 v=0
160 Off ch=3 n=48 v=0
4 On ch=3 n=52 v=76
4 On ch=3 n=60 v=69
0 On ch=3 n=64 v=73
4 On ch=3 n=55 v=66
120 Off ch=3 n=55 v=0
36 Off ch=3 n=60 v=0
20 Off ch=3 n=64 v=0
8 On ch=3 n=48 v=74
8 Off ch=3 n=52 v=0
180 Off ch=3 n=48 v=0
0 On ch=3 n=60 v=76
4 On ch=3 n=67 v=77
4 On ch=3 n=52 v=81
20 Par ch=3 c=64 v=0
60 Par ch=3 c=64 v=127
72 Off ch=3 n=67 v=0
20 Off ch=3 n=52 v=0
16 On ch=3 n=69 v=83
0 On ch=3 n=53 v=86
76 Off ch=3 n=69 v=0
36 Off ch=3 n=60 v=0
76 Par ch=3 c=64 v=0
4 On ch=3 n=70 v=79
0 On ch=3 n=55 v=80
4 On ch=3 n=67 v=76
0 On ch=3 n=64 v=79
4 Off ch=3 n=53 v=0
60 Par ch=3 c=64 v=127
104 Off ch=3 n=55 v=0
12 Off ch=3 n=64 v=0
8 On ch=3 n=48 v=76
20 Off ch=3 n=67 v=0
24 Off ch=3 n=70 v=0
140 Off ch=3 n=48 v=0
4 On ch=3 n=65 v=80
0 On ch=3 n=67 v=80
4 On ch=3 n=70 v=69
0 On ch=3 n=55 v=85
4 On ch=3 n=77 v=70
184 Off ch=3 n=55 v=0
4 Off ch=3 n=65 v=0
4 Off ch=3 n=77 v=0
0 On ch=3 n=48 v=76
8 Off ch=3 n=67 v=0
12 Off ch=3 n=70 v=0
156 Off ch=3 n=48 v=0
4 On ch=3 n=70 v=69
0 On ch=3 n=67 v=76
4 On ch=3 n=65 v=77
0 On ch=3 n=55 v=79
8 On ch=3 n=77 v=70
168 Off ch=3 n=55 v=0
12 Off ch=3 n=65 v=0
4 Off ch=3 n=67 v=0
0 On ch=3 n=48 v=74
8 Off ch=3 n=77 v=0
4 Off ch=3 n=70 v=0
172 Off ch=3 n=48 v=0
16 On ch=3 n=77 v=70
0 On ch=3 n=70 v=66
0 On ch=3 n=67 v=78
0 On ch=3 n=55 v=84
0 On ch=3 n=65 v=75
176 Off ch=3 n=55 v=0
12 On ch=3 n=48 v=78
4 Off ch=3 n=77 v=0
4 Off ch=3 n=65 v=0
48 Off ch=3 n=70 v=0
20 Off ch=3 n=67 v=0
100 Off ch=3 n=48 v=0
16 On ch=3 n=65 v=75
0 On ch=3 n=60 v=72
0 On ch=3 n=69 v=75
0 On ch=3 n=53 v=84
4 On ch=3 n=72 v=74
8 Par ch=3 c=64 v=0
72 Par ch=3 c=64 v=127
92 Off ch=3 n=53 v=0
12 Off ch=3 n=65 v=0
0 On ch=3 n=41 v=71
4 Off ch=3 n=60 v=0
4 Off ch=3 n=72 v=0
0 Off ch=3 n=69 v=0
188 On ch=3 n=65 v=75
0 On ch=3 n=53 v=77
0 On ch=3 n=60 v=74
0 On ch=3 n=69 v=79
4 Off ch=3 n=41 v=0
0 On ch=3 n=72 v=74
176 Off ch=3 n=60 v=0
0 Off ch=3 n=53 v=0
4 Off ch=3 n=65 v=0
8 On ch=3 n=41 v=71
4 Off ch=3 n=72 v=0
4 Off ch=3 n=69 v=0
188 Off ch=3 n=41 v=0
0 On ch=3 n=72 v=74
0 On ch=3 n=65 v=72
0 On ch=3 n=60 v=71
0 On ch=3 n=53 v=80
0 On ch=3 n=69 v=77
168 Off ch=3 n=53 v=0
8 Off ch=3 n=65 v=0
8 Off ch=3 n=60 v=0
4 Off ch=3 n=69 v=0
4 Off ch=3 n=72 v=0
0 On ch=3 n=41 v=65
192 On ch=3 n=72 v=74
0 On ch=3 n=65 v=74
0 On ch=3 n=53 v=83
0 On ch=3 n=60 v=77
0 On ch=3 n=69 v=78
4 Off ch=3 n=41 v=0
176 Off ch=3 n=53 v=0
12 Off ch=3 n=72 v=0
0 On ch=3 n=41 v=78
16 Off ch=3 n=60 v=0
16 Off ch=3 n=69 v=0
16 Off ch=3 n=65 v=0
64 Off ch=3 n=41 v=0
76 Par ch=3 c=64 v=0
4 On ch=3 n=74 v=63
0 On ch=3 n=70 v=72
0 On ch=3 n=62 v=76
0 On ch=3 n=65 v=78
0 On ch=3 n=46 v=83
128 Par ch=3 c=64 v=127
44 Off ch=3 n=65 v=0
8 Off ch=3 n=62 v=0
4 Off ch=3 n=70 v=0
8 Off ch=3 n=74 v=0
0 On ch=3 n=34 v=53
20 Off ch=3 n=46 v=0
172 On ch=3 n=74 v=62
0 On ch=3 n=70 v=66
0 On ch=3 n=46 v=73
0 On ch=3 n=62 v=69
0 On ch=3 n=65 v=73
12 Off ch=3 n=34 v=0
164 Off ch=3 n=65 v=0
16 Off ch=3 n=62 v=0
0 Off ch=3 n=46 v=0
0 Off ch=3 n=70 v=0
0 Off ch=3 n=74 v=0
0 On ch=3 n=34 v=66
192 On ch=3 n=74 v=61
4 On ch=3 n=62 v=77
0 On ch=3 n=70 v=69
0 On ch=3 n=46 v=76
0 On ch=3 n=65 v=78
8 Off ch=3 n=34 v=0
160 Off ch=3 n=65 v=0
20 Off ch=3 n=62 v=0
0 Off ch=3 n=74 v=0
0 On ch=3 n=34 v=69
4 Off ch=3 n=46 v=0
8 Off ch=3 n=70 v=0
180 Off ch=3 n=34 v=0
0 On ch=3 n=74 v=61
4 On ch=3 n=70 v=71
0 On ch=3 n=46 v=79
0 On ch=3 n=62 v=75
0 On ch=3 n=65 v=77
172 Off ch=3 n=46 v=0
16 Off ch=3 n=74 v=0
0 On ch=3 n=34 v=80
4 Off ch=3 n=70 v=0
8 Off ch=3 n=65 v=0
12 Off ch=3 n=62 v=0
16 Off ch=3 n=34 v=0
120 Par ch=3 c=64 v=0
32 On ch=3 n=72 v=68
0 On ch=3 n=53 v=83
0 On ch=3 n=60 v=79
0 On ch=3 n=65 v=75
0 On ch=3 n=69 v=80
56 Par ch=3 c=64 v=127
136 Off ch=3 n=72 v=0
4 On ch=3 n=41 v=72
12 Off ch=3 n=65 v=0
0 Off ch=3 n=53 v=0
12 Off ch=3 n=69 v=0
4 Off ch=3 n=60 v=0
160 Off ch=3 n=41 v=0
0 On ch=3 n=72 v=74
0 On ch=3 n=77 v=68
4 On ch=3 n=65 v=72
0 On ch=3 n=53 v=81
0 On ch=3 n=69 v=78
164 Off ch=3 n=53 v=0
16 Off ch=3 n=69 v=0
4 Off ch=3 n=65 v=0
4 Off ch=3 n=77 v=0
0 Off ch=3 n=72 v=0
0 On ch=3 n=41 v=68
188 Off ch=3 n=41 v=0
8 On ch=3 n=53 v=81
0 On ch=3 n=65 v=73
0 On ch=3 n=60 v=74
0 On ch=3 n=69 v=79
168 Off ch=3 n=53 v=0
20 Off ch=3 n=69 v=0
0 On ch=3 n=41 v=71
4 Off ch=3 n=60 v=0
4 Off ch=3 n=65 v=0
184 Off ch=3 n=41 v=0
4 On ch=3 n=65 v=74
0 On ch=3 n=69 v=76
0 On ch=3 n=60 v=75
0 On ch=3 n=53 v=84
100 Off ch=3 n=69 v=0
8 Off ch=3 n=65 v=0
56 Off ch=3 n=53 v=0
12 Off ch=3 n=60 v=0
12 On ch=3 n=41 v=75
176 Off ch=3 n=41 v=0
0 Par ch=3 c=64 v=0
20 On ch=3 n=60 v=74
0 On ch=3 n=58 v=78
0 On ch=3 n=48 v=90
0 On ch=3 n=67 v=68
0 On ch=3 n=64 v=65
56 Par ch=3 c=64 v=127
128 Off ch=3 n=64 v=0
0 Off ch=3 n=58 v=0
4 On ch=3 n=36 v=72
4 Off ch=3 n=67 v=0
0 Off ch=3 n=48 v=0
4 Off ch=3 n=60 v=0
184 On ch=3 n=60 v=75
0 On ch=3 n=58 v=74
0 On ch=3 n=67 v=66
0 On ch=3 n=48 v=80
0 On ch=3 n=64 v=72
4 Off ch=3 n=36 v=0
176 Off ch=3 n=64 v=0
8 Off ch=3 n=48 v=0
4 On ch=3 n=36 v=72
8 Off ch=3 n=60 v=0
4 Off ch=3 n=67 v=0
4 Off ch=3 n=58 v=0
172 Off ch=3 n=36 v=0
4 On ch=3 n=60 v=75
0 On ch=3 n=58 v=68
0 On ch=3 n=48 v=77
0 On ch=3 n=67 v=66
0 On ch=3 n=64 v=65
152 Off ch=3 n=48 v=0
8 Off ch=3 n=64 v=0
32 On ch=3 n=36 v=69
4 Off ch=3 n=60 v=0
4 Off ch=3 n=67 v=0
0 Off ch=3 n=58 v=0
180 Off ch=3 n=36 v=0
4 On ch=3 n=60 v=73
4 On ch=3 n=67 v=63
4 On ch=3 n=58 v=64
0 On ch=3 n=48 v=78
0 On ch=3 n=64 v=67
156 Off ch=3 n=60 v=0
4 Off ch=3 n=48 v=0
16 Off ch=3 n=64 v=0
0 Off ch=3 n=58 v=0
0 On ch=3 n=36 v=78
4 Off ch=3 n=67 v=0
44 Off ch=3 n=36 v=0
148 On ch=3 n=53 v=86
0 On ch=3 n=60 v=76
0 On ch=3 n=65 v=74
8 Par ch=3 c=64 v=0
0 On ch=3 n=69 v=79
88 Par ch=3 c=64 v=127
100 Off ch=3 n=53 v=0
4 On ch=3 n=41 v=69
4 Off ch=3 n=65 v=0
12 Off ch=3 n=69 v=0
8 Off ch=3 n=60 v=0
152 Off ch=3 n=41 v=0
12 On ch=3 n=60 v=75
0 On ch=3 n=65 v=71
0 On ch=3 n=53 v=75
0 On ch=3 n=69 v=74
148 Off ch=3 n=53 v=0
36 On ch=3 n=41 v=68
8 Off ch=3 n=65 v=0
4 Off ch=3 n=60 v=0
24 Off ch=3 n=69 v=0
24 Off ch=3 n=41 v=0
84 Par ch=3 c=64 v=0
48 On ch=3 n=60 v=71
0 On ch=3 n=65 v=70
0 On ch=3 n=53 v=79
0 On ch=3 n=41 v=71
0 On ch=3 n=69 v=72
28 Par ch=3 c=64 v=127
592 Off ch=3 n=69 v=0
0 Par ch=3 c=64 v=0
4 Off ch=3 n=41 v=0
0 Off ch=3 n=60 v=0
4 Off ch=3 n=65 v=0
4 Off ch=3 n=53 v=0
144 Par ch=3 c=64 v=127
0 On ch=3 n=53 v=74
0 On ch=3 n=60 v=75
0 On ch=3 n=57 v=79
0 On ch=3 n=65 v=75
192 Off ch=3 n=53 v=0
0 On ch=3 n=41 v=65
16 Off ch=3 n=60 v=0
8 Off ch=3 n=65 v=0
8 Off ch=3 n=57 v=0
160 On ch=3 n=60 v=77
4 On ch=3 n=57 v=76
4 Off ch=3 n=41 v=0
0 On ch=3 n=53 v=74
0 On ch=3 n=65 v=74
180 Off ch=3 n=53 v=0
0 On ch=3 n=41 v=68
4 Off ch=3 n=60 v=0
16 Off ch=3 n=65 v=0
4 Off ch=3 n=57 v=0
168 Off ch=3 n=41 v=0
4 On ch=3 n=53 v=77
0 On ch=3 n=60 v=75
8 On ch=3 n=57 v=72
0 On ch=3 n=65 v=71
172 Off ch=3 n=65 v=0
0 Off ch=3 n=60 v=0
8 Off ch=3 n=53 v=0
4 On ch=3 n=41 v=64
4 Off ch=3 n=57 v=0
192 Off ch=3 n=41 v=0
0 On ch=3 n=53 v=79
0 On ch=3 n=60 v=76
0 On ch=3 n=57 v=76
0 On ch=3 n=65 v=72
176 Off ch=3 n=53 v=0
8 Off ch=3 n=60 v=0
4 On ch=3 n=41 v=72
28 Off ch=3 n=57 v=0
4 Off ch=3 n=65 v=0
140 Off ch=3 n=41 v=0
8 Par ch=3 c=64 v=0
16 On ch=3 n=52 v=80
0 On ch=3 n=60 v=71
0 On ch=3 n=55 v=73
0 On ch=3 n=64 v=73
72 Par ch=3 c=64 v=127
120 Off ch=3 n=64 v=0
0 On ch=3 n=48 v=77
4 Off ch=3 n=60 v=0
0 Off ch=3 n=52 v=0
4 Off ch=3 n=55 v=0
176 Off ch=3 n=48 v=0
0 On ch=3 n=60 v=75
4 On ch=3 n=64 v=72
4 On ch=3 n=55 v=77
0 On ch=3 n=52 v=81
176 Off ch=3 n=52 v=0
8 On ch=3 n=48 v=72
24 Off ch=3 n=64 v=0
0 Off ch=3 n=60 v=0
4 Off ch=3 n=55 v=0
160 Off ch=3 n=48 v=0
4 On ch=3 n=52 v=76
4 On ch=3 n=60 v=69
0 On ch=3 n=64 v=73
4 On ch=3 n=55 v=66
120 Off ch=3 n=55 v=0
36 Off ch=3 n=60 v=0
20 Off ch=3 n=64 v=0
8 On ch=3 n=48 v=74
8 Off ch=3 n=52 v=0
180 Off ch=3 n=48 v=0
0 On ch=3 n=60 v=76
4 On ch=3 n=67 v=77
4 On ch=3 n=52 v=81
20 Par ch=3 c=64 v=0
60 Par ch=3 c=64 v=127
72 Off ch=3 n=67 v=0
20 Off ch=3 n=52 v=0
16 On ch=3 n=69 v=83
0 On ch=3 n=53 v=86
112 Off ch=3 n=60 v=0
56 Off ch=3 n=69 v=0
20 Par ch=3 c=64 v=0
4 On ch=3 n=70 v=79
0 On ch=3 n=55 v=92
4 On ch=3 n=67 v=76
0 On ch=3 n=64 v=79
4 Off ch=3 n=53 v=0
60 Par ch=3 c=64 v=127
104 Off ch=3 n=55 v=0
12 Off ch=3 n=64 v=0
8 On ch=3 n=48 v=76
20 Off ch=3 n=67 v=0
24 Off ch=3 n=70 v=0
140 Off ch=3 n=48 v=0
4 On ch=3 n=65 v=80
0 On ch=3 n=67 v=80
4 On ch=3 n=70 v=56
0 On ch=3 n=55 v=90
4 On ch=3 n=77 v=60
184 Off ch=3 n=55 v=0
4 Off ch=3 n=65 v=0
4 Off ch=3 n=77 v=0
0 On ch=3 n=48 v=76
8 Off ch=3 n=67 v=0
12 Off ch=3 n=70 v=0
156 Off ch=3 n=48 v=0
4 On ch=3 n=70 v=69
0 On ch=3 n=67 v=76
4 On ch=3 n=65 v=77
0 On ch=3 n=55 v=79
8 On ch=3 n=77 v=54
168 Off ch=3 n=55 v=0
12 Off ch=3 n=65 v=0
4 Off ch=3 n=67 v=0
0 On ch=3 n=48 v=74
8 Off ch=3 n=77 v=0
4 Off ch=3 n=70 v=0
172 Off ch=3 n=48 v=0
16 On ch=3 n=70 v=66
0 On ch=3 n=67 v=78
0 On ch=3 n=55 v=84
0 On ch=3 n=65 v=75
176 Off ch=3 n=55 v=0
12 On ch=3 n=48 v=78
8 Off ch=3 n=65 v=0
48 Off ch=3 n=70 v=0
20 Off ch=3 n=67 v=0
100 Off ch=3 n=48 v=0
16 On ch=3 n=65 v=75
0 On ch=3 n=60 v=72
0 On ch=3 n=69 v=75
0 On ch=3 n=53 v=84
12 Par ch=3 c=64 v=0
72 Par ch=3 c=64 v=127
92 Off ch=3 n=53 v=0
12 Off ch=3 n=65 v=0
0 On ch=3 n=41 v=71
4 Off ch=3 n=60 v=0
4 Off ch=3 n=69 v=0
188 On ch=3 n=65 v=75
0 On ch=3 n=53 v=77
0 On ch=3 n=60 v=74
0 On ch=3 n=69 v=79
4 Off ch=3 n=41 v=0
176 Off ch=3 n=60 v=0
0 Off ch=3 n=53 v=0
4 Off ch=3 n=65 v=0
8 On ch=3 n=41 v=71
8 Off ch=3 n=69 v=0
188 Off ch=3 n=41 v=0
0 On ch=3 n=65 v=72
0 On ch=3 n=60 v=71
0 On ch=3 n=53 v=80
0 On ch=3 n=69 v=77
168 Off ch=3 n=53 v=0
8 Off ch=3 n=65 v=0
8 Off ch=3 n=60 v=0
4 Off ch=3 n=69 v=0
4 On ch=3 n=41 v=65
192 On ch=3 n=65 v=74
0 On ch=3 n=53 v=83
0 On ch=3 n=60 v=77
0 On ch=3 n=69 v=78
4 Off ch=3 n=41 v=0
176 Off ch=3 n=53 v=0
12 On ch=3 n=41 v=78
16 Off ch=3 n=60 v=0
16 Off ch=3 n=69 v=0
16 Off ch=3 n=65 v=0
64 Off ch=3 n=41 v=0
76 Par ch=3 c=64 v=0
4 On ch=3 n=70 v=72
0 On ch=3 n=62 v=76
0 On ch=3 n=65 v=78
0 On ch=3 n=46 v=83
128 Par ch=3 c=64 v=127
44 Off ch=3 n=65 v=0
8 Off ch=3 n=62 v=0
4 Off ch=3 n=70 v=0
8 On ch=3 n=34 v=53
20 Off ch=3 n=46 v=0
172 On ch=3 n=70 v=66
0 On ch=3 n=46 v=73
0 On ch=3 n=62 v=69
0 On ch=3 n=65 v=73
12 Off ch=3 n=34 v=0
164 Off ch=3 n=65 v=0
16 Off ch=3 n=62 v=0
0 Off ch=3 n=46 v=0
0 Off ch=3 n=70 v=0
0 On ch=3 n=34 v=66
196 On ch=3 n=62 v=77
0 On ch=3 n=70 v=69
0 On ch=3 n=46 v=76
0 On ch=3 n=65 v=78
8 Off ch=3 n=34 v=0
160 Off ch=3 n=65 v=0
20 Off ch=3 n=62 v=0
0 On ch=3 n=34 v=69
4 Off ch=3 n=46 v=0
8 Off ch=3 n=70 v=0
180 Off ch=3 n=34 v=0
4 On ch=3 n=70 v=71
0 On ch=3 n=46 v=79
0 On ch=3 n=62 v=75
0 On ch=3 n=65 v=77
172 Off ch=3 n=46 v=0
16 On ch=3 n=34 v=80
4 Off ch=3 n=70 v=0
8 Off ch=3 n=65 v=0
12 Off ch=3 n=62 v=0
16 Off ch=3 n=34 v=0
120 Par ch=3 c=64 v=0
32 On ch=3 n=53 v=83
0 On ch=3 n=60 v=79
0 On ch=3 n=65 v=75
0 On ch=3 n=69 v=80
56 Par ch=3 c=64 v=127
140 On ch=3 n=41 v=72
12 Off ch=3 n=65 v=0
0 Off ch=3 n=53 v=0
12 Off ch=3 n=69 v=0
4 Off ch=3 n=60 v=0
160 Off ch=3 n=41 v=0
4 On ch=3 n=60 v=77
0 On ch=3 n=65 v=72
0 On ch=3 n=53 v=81
0 On ch=3 n=69 v=78
164 Off ch=3 n=53 v=0
16 Off ch=3 n=69 v=0
4 Off ch=3 n=65 v=0
4 On ch=3 n=41 v=68
4 Off ch=3 n=60 v=0
184 Off ch=3 n=41 v=0
8 On ch=3 n=53 v=84
0 On ch=3 n=65 v=73
0 On ch=3 n=60 v=74
0 On ch=3 n=69 v=79
168 Off ch=3 n=53 v=0
20 Off ch=3 n=69 v=0
0 On ch=3 n=41 v=71
4 Off ch=3 n=60 v=0
4 Off ch=3 n=65 v=0
184 Off ch=3 n=41 v=0
4 On ch=3 n=65 v=74
0 On ch=3 n=69 v=76
0 On ch=3 n=60 v=75
0 On ch=3 n=53 v=84
100 Off ch=3 n=69 v=0
8 Off ch=3 n=65 v=0
56 Off ch=3 n=53 v=0
12 Off ch=3 n=60 v=0
12 On ch=3 n=41 v=75
176 Off ch=3 n=41 v=0
0 Par ch=3 c=64 v=0
20 On ch=3 n=60 v=74
0 On ch=3 n=58 v=78
0 On ch=3 n=48 v=90
0 On ch=3 n=67 v=68
0 On ch=3 n=64 v=65
56 Par ch=3 c=64 v=127
128 Off ch=3 n=64 v=0
0 Off ch=3 n=58 v=0
4 On ch=3 n=36 v=72
4 Off ch=3 n=67 v=0
0 Off ch=3 n=48 v=0
4 Off ch=3 n=60 v=0
184 On ch=3 n=60 v=75
0 On ch=3 n=58 v=74
0 On ch=3 n=67 v=66
0 On ch=3 n=48 v=80
0 On ch=3 n=64 v=72
4 Off ch=3 n=36 v=0
176 Off ch=3 n=64 v=0
8 Off ch=3 n=48 v=0
4 On ch=3 n=36 v=72
8 Off ch=3 n=60 v=0
4 Off ch=3 n=67 v=0
4 Off ch=3 n=58 v=0
172 Off ch=3 n=36 v=0
4 On ch=3 n=60 v=75
0 On ch=3 n=58 v=68
0 On ch=3 n=48 v=77
0 On ch=3 n=67 v=66
0 On ch=3 n=64 v=65
152 Off ch=3 n=48 v=0
8 Off ch=3 n=64 v=0
32 On ch=3 n=36 v=69
4 Off ch=3 n=60 v=0
4 Off ch=3 n=67 v=0
0 Off ch=3 n=58 v=0
180 Off ch=3 n=36 v=0
4 On ch=3 n=60 v=73
4 On ch=3 n=67 v=63
4 On ch=3 n=58 v=64
0 On ch=3 n=48 v=78
0 On ch=3 n=64 v=67
156 Off ch=3 n=60 v=0
4 Off ch=3 n=48 v=0
16 Off ch=3 n=64 v=0
0 Off ch=3 n=58 v=0
0 On ch=3 n=36 v=78
4 Off ch=3 n=67 v=0
140 Off ch=3 n=36 v=0
56 On ch=3 n=65 v=75
0 On ch=3 n=57 v=79
0 On ch=3 n=60 v=75
0 On ch=3 n=53 v=66
4 Par ch=3 c=64 v=0
88 Par ch=3 c=64 v=127
100 Off ch=3 n=53 v=0
0 On ch=3 n=41 v=65
16 Off ch=3 n=60 v=0
8 Off ch=3 n=65 v=0
8 Off ch=3 n=57 v=0
160 On ch=3 n=60 v=77
4 On ch=3 n=57 v=76
4 Off ch=3 n=41 v=0
0 On ch=3 n=65 v=74
0 On ch=3 n=53 v=74
180 Off ch=3 n=53 v=0
0 On ch=3 n=41 v=68
4 Off ch=3 n=60 v=0
16 Off ch=3 n=65 v=0
4 Off ch=3 n=57 v=0
116 Par ch=3 c=64 v=0
52 Off ch=3 n=41 v=0
4 On ch=3 n=60 v=75
0 On ch=3 n=53 v=77
8 On ch=3 n=65 v=71
0 On ch=3 n=57 v=72
12 Par ch=3 c=64 v=127
160 Off ch=3 n=65 v=0
0 Off ch=3 n=60 v=0
8 Off ch=3 n=53 v=0
4 On ch=3 n=41 v=64
4 Off ch=3 n=57 v=0
192 Off ch=3 n=41 v=0
0 On ch=3 n=65 v=79
0 On ch=3 n=57 v=76
0 On ch=3 n=53 v=79
160 Off ch=3 n=65 v=0
8 Off ch=3 n=57 v=0
8 Off ch=3 n=53 v=0
12 On ch=3 n=64 v=79
0 On ch=3 n=57 v=64
0 On ch=3 n=41 v=72
36 Par ch=3 c=64 v=0
128 Off ch=3 n=57 v=0
0 Off ch=3 n=64 v=0
8 Off ch=3 n=41 v=0
20 On ch=3 n=63 v=74
0 On ch=3 n=60 v=69
0 On ch=3 n=53 v=88
0 On ch=3 n=57 v=63
28 Par ch=3 c=64 v=127
144 Off ch=3 n=53 v=0
16 Off ch=3 n=60 v=0
4 On ch=3 n=41 v=64
8 Off ch=3 n=57 v=0
16 Off ch=3 n=63 v=0
164 Off ch=3 n=41 v=0
4 On ch=3 n=53 v=77
0 On ch=3 n=63 v=72
0 On ch=3 n=57 v=75
0 On ch=3 n=60 v=77
176 Off ch=3 n=53 v=0
12 Off ch=3 n=60 v=0
4 On ch=3 n=41 v=74
8 Off ch=3 n=57 v=0
4 Off ch=3 n=63 v=0
172 Off ch=3 n=41 v=0
8 On ch=3 n=63 v=68
0 On ch=3 n=60 v=74
0 On ch=3 n=53 v=76
0 On ch=3 n=57 v=74
192 Off ch=3 n=53 v=0
0 Off ch=3 n=60 v=0
0 On ch=3 n=41 v=73
4 Off ch=3 n=57 v=0
4 Off ch=3 n=63 v=0
172 Off ch=3 n=41 v=0
12 On ch=3 n=63 v=65
0 On ch=3 n=60 v=76
0 On ch=3 n=53 v=80
0 On ch=3 n=57 v=77
148 Off ch=3 n=53 v=0
44 On ch=3 n=41 v=81
4 Off ch=3 n=60 v=0
4 Off ch=3 n=63 v=0
24 Off ch=3 n=57 v=0
36 Off ch=3 n=41 v=0
80 Par ch=3 c=64 v=0
44 On ch=3 n=58 v=76
0 On ch=3 n=46 v=77
0 On ch=3 n=62 v=75
0 On ch=3 n=65 v=75
44 Par ch=3 c=64 v=127
144 Off ch=3 n=46 v=0
4 On ch=3 n=34 v=75
4 Off ch=3 n=62 v=0
12 Off ch=3 n=65 v=0
0 Off ch=3 n=58 v=0
164 Off ch=3 n=34 v=0
12 On ch=3 n=58 v=79
0 On ch=3 n=65 v=69
0 On ch=3 n=46 v=81
0 On ch=3 n=62 v=77
188 Off ch=3 n=46 v=0
4 On ch=3 n=34 v=69
8 Off ch=3 n=62 v=0
16 Off ch=3 n=58 v=0
28 Off ch=3 n=65 v=0
52 Par ch=3 c=64 v=0
64 Off ch=3 n=34 v=0
24 On ch=3 n=58 v=79
0 On ch=3 n=62 v=79
0 On ch=3 n=45 v=77
0 On ch=3 n=65 v=71
4 Par ch=3 c=64 v=127
180 Off ch=3 n=62 v=0
0 Off ch=3 n=58 v=0
4 Off ch=3 n=45 v=0
0 On ch=3 n=33 v=66
20 Off ch=3 n=65 v=0
172 Off ch=3 n=33 v=0
0 On ch=3 n=58 v=77
0 On ch=3 n=62 v=76
0 On ch=3 n=45 v=76
0 On ch=3 n=65 v=67
168 Off ch=3 n=45 v=0
16 Off ch=3 n=62 v=0
4 Off ch=3 n=58 v=0
4 On ch=3 n=33 v=64
32 Off ch=3 n=65 v=0
48 Par ch=3 c=64 v=0
92 Par ch=3 c=64 v=127
8 Off ch=3 n=33 v=0
12 On ch=3 n=58 v=75
0 On ch=3 n=43 v=78
0 On ch=3 n=65 v=66
0 On ch=3 n=62 v=78
176 Off ch=3 n=62 v=0
8 Off ch=3 n=43 v=0
4 Off ch=3 n=58 v=0
4 On ch=3 n=31 v=69
4 Off ch=3 n=65 v=0
188 On ch=3 n=58 v=78
0 On ch=3 n=65 v=68
0 On ch=3 n=62 v=78
0 On ch=3 n=43 v=78
12 Off ch=3 n=31 v=0
164 Off ch=3 n=43 v=0
8 Off ch=3 n=62 v=0
8 Off ch=3 n=58 v=0
0 On ch=3 n=31 v=75
28 Off ch=3 n=65 v=0
100 Par ch=3 c=64 v=0
36 Off ch=3 n=31 v=0
28 On ch=3 n=41 v=88
0 On ch=3 n=58 v=77
0 On ch=3 n=65 v=69
0 On ch=3 n=62 v=76
36 Par ch=3 c=64 v=127
152 Off ch=3 n=62 v=0
4 On ch=3 n=29 v=66
4 Off ch=3 n=41 v=0
16 Off ch=3 n=58 v=0
4 Off ch=3 n=65 v=0
168 Off ch=3 n=29 v=0
0 On ch=3 n=58 v=76
0 On ch=3 n=65 v=74
0 On ch=3 n=41 v=76
0 On ch=3 n=62 v=78
116 Off ch=3 n=62 v=0
24 Off ch=3 n=65 v=0
36 Off ch=3 n=41 v=0
16 On ch=3 n=29 v=67
28 Off ch=3 n=58 v=0
40 Par ch=3 c=64 v=0
64 Off ch=3 n=29 v=0
40 Par ch=3 c=64 v=127
20 On ch=3 n=40 v=84
0 On ch=3 n=58 v=75
0 On ch=3 n=60 v=80
0 On ch=3 n=64 v=76
176 Off ch=3 n=60 v=0
4 Off ch=3 n=58 v=0
12 Off ch=3 n=64 v=0
0 Off ch=3 n=40 v=0
0 On ch=3 n=28 v=67
192 On ch=3 n=40 v=80
0 On ch=3 n=64 v=74
0 On ch=3 n=58 v=74
0 On ch=3 n=60 v=77
4 Off ch=3 n=28 v=0
168 Off ch=3 n=40 v=0
8 Off ch=3 n=60 v=0
0 Off ch=3 n=58 v=0
12 Off ch=3 n=64 v=0
0 On ch=3 n=28 v=63
192 Off ch=3 n=28 v=0
0 On ch=3 n=40 v=76
0 On ch=3 n=60 v=77
0 On ch=3 n=64 v=72
0 On ch=3 n=58 v=72
172 Off ch=3 n=40 v=0
20 On ch=3 n=28 v=65
4 Off ch=3 n=60 v=0
8 Off ch=3 n=58 v=0
8 Off ch=3 n=64 v=0
172 On ch=3 n=60 v=83
0 On ch=3 n=58 v=75
0 On ch=3 n=40 v=80
0 On ch=3 n=64 v=75
8 Off ch=3 n=28 v=0
160 Off ch=3 n=40 v=0
8 Off ch=3 n=60 v=0
8 Off ch=3 n=58 v=0
8 On ch=3 n=28 v=65
24 Off ch=3 n=64 v=0
44 Off ch=3 n=28 v=0
108 Par ch=3 c=64 v=0
20 On ch=3 n=65 v=67
0 On ch=3 n=53 v=80
0 On ch=3 n=57 v=74
0 On ch=3 n=60 v=75
52 Par ch=3 c=64 v=127
44 Off ch=3 n=53 v=0
16 Off ch=3 n=57 v=0
32 Off ch=3 n=65 v=0
4 Off ch=3 n=60 v=0
44 On ch=3 n=65 v=59
0 On ch=3 n=60 v=62
0 On ch=3 n=57 v=54
0 On ch=3 n=53 v=58
100 Off ch=3 n=57 v=0
16 Off ch=3 n=53 v=0
0 Off ch=3 n=60 v=0
0 Off ch=3 n=65 v=0
76 On ch=3 n=65 v=72
0 On ch=3 n=53 v=75
0 On ch=3 n=60 v=72
0 On ch=3 n=57 v=75
116 Off ch=3 n=53 v=0
16 Off ch=3 n=57 v=0
8 Off ch=3 n=60 v=0
4 Off ch=3 n=65 v=0
48 On ch=3 n=65 v=66
0 On ch=3 n=53 v=71
0 On ch=3 n=57 v=71
0 On ch=3 n=60 v=72
96 Off ch=3 n=53 v=0
16 Off ch=3 n=57 v=0
32 Off ch=3 n=65 v=0
4 Off ch=3 n=60 v=0
44 On ch=3 n=65 v=63
0 On ch=3 n=60 v=73
0 On ch=3 n=57 v=67
0 On ch=3 n=53 v=75
100 Off ch=3 n=57 v=0
16 Off ch=3 n=53 v=0
0 Off ch=3 n=60 v=0
0 Off ch=3 n=65 v=0
76 On ch=3 n=65 v=68
0 On ch=3 n=53 v=73
0 On ch=3 n=60 v=73
0 On ch=3 n=57 v=74
116 Off ch=3 n=53 v=0
16 Off ch=3 n=57 v=0
8 Off ch=3 n=60 v=0
4 Off ch=3 n=65 v=0
44 On ch=3 n=65 v=89
0 On ch=3 n=57 v=84
0 On ch=3 n=60 v=65
0 On ch=3 n=53 v=81
112 Off ch=3 n=65 v=0
4 Off ch=3 n=57 v=0
4 Off ch=3 n=53 v=0
8 Off ch=3 n=60 v=0
60 On ch=3 n=60 v=62
0 On ch=3 n=57 v=80
0 On ch=3 n=64 v=88
80 Off ch=3 n=64 v=0
24 Off ch=3 n=57 v=0
8 Off ch=3 n=60 v=0
40 Par ch=3 c=64 v=0
48 On ch=3 n=63 v=72
0 On ch=3 n=60 v=73
0 On ch=3 n=57 v=64
0 On ch=3 n=53 v=88
28 Par ch=3 c=64 v=127
160 Off ch=3 n=53 v=0
0 Off ch=3 n=60 v=0
4 On ch=3 n=41 v=72
8 Off ch=3 n=63 v=0
20 Off ch=3 n=57 v=0
160 Off ch=3 n=41 v=0
8 On ch=3 n=63 v=72
0 On ch=3 n=53 v=81
0 On ch=3 n=60 v=74
0 On ch=3 n=57 v=76
192 Off ch=3 n=53 v=0
0 On ch=3 n=41 v=76
8 Off ch=3 n=60 v=0
40 Off ch=3 n=63 v=0
4 Off ch=3 n=57 v=0
108 Off ch=3 n=41 v=0
32 On ch=3 n=53 v=88
0 On ch=3 n=63 v=75
0 On ch=3 n=57 v=77
0 On ch=3 n=60 v=83
124 Off ch=3 n=60 v=0
0 Off ch=3 n=57 v=0
16 Off ch=3 n=53 v=0
8 Off ch=3 n=63 v=0
40 On ch=3 n=53 v=81
0 On ch=3 n=63 v=63
0 On ch=3 n=57 v=64
0 On ch=3 n=60 v=63
96 Off ch=3 n=60 v=0
8 Off ch=3 n=53 v=0
12 Off ch=3 n=63 v=0
8 Off ch=3 n=57 v=0
68 On ch=3 n=63 v=80
0 On ch=3 n=57 v=84
0 On ch=3 n=53 v=89
0 On ch=3 n=60 v=80
152 Off ch=3 n=53 v=0
8 Off ch=3 n=57 v=0
4 Off ch=3 n=63 v=0
28 On ch=3 n=53 v=84
16 Off ch=3 n=60 v=0
116 Off ch=3 n=53 v=0
48 Par ch=3 c=64 v=0
12 On ch=3 n=58 v=81
0 On ch=3 n=65 v=78
0 On ch=3 n=46 v=90
0 On ch=3 n=62 v=80
104 Par ch=3 c=64 v=127
80 Off ch=3 n=62 v=0
8 On ch=3 n=34 v=67
4 Off ch=3 n=65 v=0
4 Off ch=3 n=46 v=0
0 Off ch=3 n=58 v=0
180 Off ch=3 n=34 v=0
8 On ch=3 n=58 v=81
0 On ch=3 n=65 v=67
0 On ch=3 n=62 v=80
0 On ch=3 n=46 v=80
100 Off ch=3 n=46 v=0
72 Off ch=3 n=62 v=0
4 Off ch=3 n=58 v=0
16 On ch=3 n=34 v=68
32 Off ch=3 n=65 v=0
128 Par ch=3 c=64 v=0
24 Off ch=3 n=34 v=0
4 On ch=3 n=58 v=80
0 On ch=3 n=45 v=87
0 On ch=3 n=65 v=76
0 On ch=3 n=62 v=79
60 Par ch=3 c=64 v=127
124 Off ch=3 n=62 v=0
8 Off ch=3 n=58 v=0
4 Off ch=3 n=65 v=0
0 On ch=3 n=33 v=58
8 Off ch=3 n=45 v=0
180 Off ch=3 n=33 v=0
4 On ch=3 n=65 v=74
0 On ch=3 n=58 v=77
0 On ch=3 n=45 v=81
0 On ch=3 n=62 v=78
192 On ch=3 n=33 v=64
4 Off ch=3 n=45 v=0
16 Off ch=3 n=62 v=0
20 Off ch=3 n=58 v=0
12 Off ch=3 n=65 v=0
80 Off ch=3 n=33 v=0
60 Par ch=3 c=64 v=0
4 On ch=3 n=58 v=81
0 On ch=3 n=65 v=77
0 On ch=3 n=62 v=80
0 On ch=3 n=43 v=83
84 Par ch=3 c=64 v=127
80 Off ch=3 n=62 v=0
24 Off ch=3 n=65 v=0
4 On ch=3 n=31 v=65
8 Off ch=3 n=43 v=0
4 Off ch=3 n=58 v=0
152 Off ch=3 n=31 v=0
24 On ch=3 n=58 v=78
0 On ch=3 n=43 v=76
0 On ch=3 n=65 v=76
0 On ch=3 n=62 v=79
192 On ch=3 n=31 v=75
4 Off ch=3 n=43 v=0
8 Off ch=3 n=62 v=0
12 Off ch=3 n=58 v=0
20 Off ch=3 n=65 v=0
108 Off ch=3 n=31 v=0
24 Par ch=3 c=64 v=0
12 On ch=3 n=65 v=74
0 On ch=3 n=58 v=80
0 On ch=3 n=41 v=81
0 On ch=3 n=62 v=81
152 Par ch=3 c=64 v=127
44 On ch=3 n=29 v=55
16 Off ch=3 n=62 v=0
20 Off ch=3 n=41 v=0
0 Off ch=3 n=58 v=0
4 Off ch=3 n=65 v=0
152 Off ch=3 n=29 v=0
0 On ch=3 n=58 v=79
0 On ch=3 n=65 v=74
0 On ch=3 n=41 v=74
0 On ch=3 n=62 v=81
176 Off ch=3 n=41 v=0
16 On ch=3 n=29 v=68
24 Off ch=3 n=62 v=0
12 Off ch=3 n=58 v=0
24 Off ch=3 n=65 v=0
68 Off ch=3 n=29 v=0
64 Par ch=3 c=64 v=0
0 On ch=3 n=58 v=79
0 On ch=3 n=64 v=79
0 On ch=3 n=40 v=77
0 On ch=3 n=60 v=77
120 Par ch=3 c=64 v=127
60 Off ch=3 n=64 v=0
12 On ch=3 n=28 v=54
4 Off ch=3 n=40 v=0
12 Off ch=3 n=60 v=0
8 Off ch=3 n=58 v=0
168 On ch=3 n=58 v=78
0 On ch=3 n=60 v=78
0 On ch=3 n=40 v=78
0 On ch=3 n=64 v=72
12 Off ch=3 n=28 v=0
20 Par ch=3 c=64 v=0
100 Off ch=3 n=40 v=0
8 Off ch=3 n=60 v=0
12 Off ch=3 n=64 v=0
4 Off ch=3 n=58 v=0
24 Par ch=3 c=64 v=127
12 On ch=3 n=28 v=62
176 Off ch=3 n=28 v=0
16 On ch=3 n=40 v=75
0 On ch=3 n=58 v=74
0 On ch=3 n=60 v=59
0 On ch=3 n=64 v=73
48 Par ch=3 c=64 v=0
100 Off ch=3 n=40 v=0
4 Par ch=3 c=64 v=127
16 Off ch=3 n=60 v=0
20 On ch=3 n=28 v=65
8 Off ch=3 n=58 v=0
8 Off ch=3 n=64 v=0
176 Off ch=3 n=28 v=0
4 On ch=3 n=40 v=71
0 On ch=3 n=64 v=77
0 On ch=3 n=58 v=77
0 On ch=3 n=60 v=77
184 Off ch=3 n=58 v=0
4 On ch=3 n=28 v=73
4 Off ch=3 n=40 v=0
4 Off ch=3 n=60 v=0
12 Off ch=3 n=64 v=0
128 Off ch=3 n=28 v=0
48 On ch=3 n=41 v=78
0 On ch=3 n=60 v=81
0 On ch=3 n=65 v=77
0 On ch=3 n=57 v=78
4 Par ch=3 c=64 v=0
120 Par ch=3 c=64 v=127
24 Off ch=3 n=41 v=0
40 On ch=3 n=41 v=80
24 Off ch=3 n=60 v=0
4 Off ch=3 n=57 v=0
4 Off ch=3 n=65 v=0
80 Off ch=3 n=41 v=0
80 On ch=3 n=60 v=81
0 On ch=3 n=65 v=75
0 On ch=3 n=57 v=77
0 On ch=3 n=41 v=84
84 Off ch=3 n=41 v=0
108 On ch=3 n=41 v=83
20 Off ch=3 n=60 v=0
12 Off ch=3 n=57 v=0
4 Off ch=3 n=65 v=0
56 Off ch=3 n=41 v=0
100 On ch=3 n=60 v=75
0 On ch=3 n=41 v=80
0 On ch=3 n=57 v=76
0 On ch=3 n=65 v=74
104 Off ch=3 n=41 v=0
88 On ch=3 n=41 v=78
4 Off ch=3 n=60 v=0
8 Off ch=3 n=57 v=0
8 Off ch=3 n=65 v=0
80 Off ch=3 n=41 v=0
92 On ch=3 n=41 v=79
0 On ch=3 n=60 v=72
0 On ch=3 n=57 v=77
0 On ch=3 n=65 v=78
44 Off ch=3 n=41 v=0
148 On ch=3 n=41 v=79
40 Off ch=3 n=60 v=0
4 Off ch=3 n=57 v=0
8 Off ch=3 n=65 v=0
8 Off ch=3 n=41 v=0
132 Par ch=3 c=64 v=0
0 On ch=3 n=41 v=83
0 On ch=3 n=60 v=77
0 On ch=3 n=63 v=69
0 On ch=3 n=57 v=79
0 On ch=3 n=65 v=72
32 Par ch=3 c=64 v=127
156 Off ch=3 n=41 v=0
4 On ch=3 n=29 v=68
16 Off ch=3 n=60 v=0
4 Off ch=3 n=63 v=0
8 Off ch=3 n=57 v=0
12 Off ch=3 n=65 v=0
148 Off ch=3 n=29 v=0
12 On ch=3 n=41 v=81
0 On ch=3 n=63 v=73
0 On ch=3 n=60 v=76
0 On ch=3 n=57 v=80
0 On ch=3 n=65 v=76
188 Off ch=3 n=41 v=0
0 On ch=3 n=29 v=75
24 Off ch=3 n=57 v=0
36 Off ch=3 n=29 v=0
20 Off ch=3 n=65 v=0
8 Off ch=3 n=60 v=0
12 Off ch=3 n=63 v=0
92 On ch=3 n=55 v=84
0 On ch=3 n=64 v=85
0 On ch=3 n=48 v=81
16 Par ch=3 c=64 v=0
96 Off ch=3 n=55 v=0
8 Par ch=3 c=64 v=127
20 Off ch=3 n=64 v=0
44 Off ch=3 n=48 v=0
0 On ch=3 n=36 v=73
0 On ch=3 n=65 v=86
0 On ch=3 n=57 v=83
144 Off ch=3 n=65 v=0
8 Off ch=3 n=57 v=0
8 Off ch=3 n=36 v=0
28 Par ch=3 c=64 v=0
4 On ch=3 n=48 v=82
0 On ch=3 n=60 v=83
0 On ch=3 n=64 v=75
0 On ch=3 n=67 v=85
84 Par ch=3 c=64 v=127
108 Off ch=3 n=48 v=0
0 On ch=3 n=36 v=80
84 Off ch=3 n=64 v=0
0 Off ch=3 n=60 v=0
4 Off ch=3 n=67 v=0
52 Off ch=3 n=36 v=0
56 On ch=3 n=67 v=80
0 On ch=3 n=48 v=81
0 On ch=3 n=60 v=80
0 On ch=3 n=64 v=79
192 On ch=3 n=36 v=80
32 Off ch=3 n=48 v=0
92 Off ch=3 n=36 v=0
64 On ch=3 n=48 v=81
0 On ch=3 n=36 v=76
112 Off ch=3 n=36 v=0
12 Off ch=3 n=48 v=0
68 On ch=3 n=48 v=76
0 On ch=3 n=36 v=68
8 Off ch=3 n=64 v=0
0 Off ch=3 n=60 v=0
16 Off ch=3 n=67 v=0
68 Off ch=3 n=36 v=0
4 Off ch=3 n=48 v=0
4 Par ch=3 c=64 v=0
88 On ch=3 n=60 v=90
0 On ch=3 n=67 v=90
0 On ch=3 n=64 v=88
0 On ch=3 n=48 v=79
0 On ch=3 n=36 v=77
16 Par ch=3 c=64 v=127
140 Off ch=3 n=67 v=0
4 Off ch=3 n=64 v=0
4 Off ch=3 n=60 v=0
28 On ch=3 n=62 v=97
0 On ch=3 n=69 v=95
0 On ch=3 n=65 v=93
88 Par ch=3 c=64 v=0
60 Off ch=3 n=69 v=0
8 Off ch=3 n=65 v=0
0 Off ch=3 n=62 v=0
36 On ch=3 n=64 v=97
0 On ch=3 n=67 v=93
0 On ch=3 n=70 v=92
336 Off ch=3 n=70 v=0
0 Off ch=3 n=64 v=0
8 Off ch=3 n=67 v=0
44 On ch=3 n=67 v=92
0 On ch=3 n=70 v=94
0 On ch=3 n=64 v=95
712 Off ch=3 n=70 v=0
8 Off ch=3 n=67 v=0
8 Off ch=3 n=64 v=0
20 Off ch=3 n=36 v=0
4 Off ch=3 n=48 v=0
20 Par ch=3 c=64 v=127
0 On ch=3 n=53 v=74
0 On ch=3 n=60 v=75
0 On ch=3 n=57 v=79
0 On ch=3 n=65 v=75
192 Off ch=3 n=53 v=0
0 On ch=3 n=41 v=65
16 Off ch=3 n=60 v=0
8 Off ch=3 n=65 v=0
8 Off ch=3 n=57 v=0
160 On ch=3 n=60 v=77
4 On ch=3 n=57 v=76
4 Off ch=3 n=41 v=0
0 On ch=3 n=53 v=74
0 On ch=3 n=65 v=74
180 Off ch=3 n=53 v=0
0 On ch=3 n=41 v=68
4 Off ch=3 n=60 v=0
16 Off ch=3 n=65 v=0
4 Off ch=3 n=57 v=0
168 Off ch=3 n=41 v=0
4 On ch=3 n=53 v=77
0 On ch=3 n=60 v=75
8 On ch=3 n=57 v=72
0 On ch=3 n=65 v=71
172 Off ch=3 n=65 v=0
0 Off ch=3 n=60 v=0
8 Off ch=3 n=53 v=0
4 On ch=3 n=41 v=64
4 Off ch=3 n=57 v=0
192 Off ch=3 n=41 v=0
0 On ch=3 n=53 v=79
0 On ch=3 n=60 v=76
0 On ch=3 n=57 v=76
0 On ch=3 n=65 v=72
176 Off ch=3 n=53 v=0
8 Off ch=3 n=60 v=0
4 On ch=3 n=41 v=72
28 Off ch=3 n=57 v=0
4 Off ch=3 n=65 v=0
140 Off ch=3 n=41 v=0
8 Par ch=3 c=64 v=0
16 On ch=3 n=52 v=80
0 On ch=3 n=60 v=71
0 On ch=3 n=55 v=73
0 On ch=3 n=64 v=73
72 Par ch=3 c=64 v=127
120 Off ch=3 n=64 v=0
0 On ch=3 n=48 v=77
4 Off ch=3 n=60 v=0
0 Off ch=3 n=52 v=0
4 Off ch=3 n=55 v=0
176 Off ch=3 n=48 v=0
0 On ch=3 n=60 v=75
4 On ch=3 n=64 v=72
4 On ch=3 n=55 v=77
0 On ch=3 n=52 v=81
176 Off ch=3 n=52 v=0
8 On ch=3 n=48 v=72
24 Off ch=3 n=64 v=0
0 Off ch=3 n=60 v=0
4 Off ch=3 n=55 v=0
160 Off ch=3 n=48 v=0
4 On ch=3 n=52 v=76
4 On ch=3 n=60 v=69
0 On ch=3 n=64 v=73
4 On ch=3 n=55 v=66
120 Off ch=3 n=55 v=0
36 Off ch=3 n=60 v=0
20 Off ch=3 n=64 v=0
8 On ch=3 n=48 v=74
8 Off ch=3 n=52 v=0
180 Off ch=3 n=48 v=0
0 On ch=3 n=60 v=76
4 On ch=3 n=67 v=77
4 On ch=3 n=52 v=81
20 Par ch=3 c=64 v=0
60 Par ch=3 c=64 v=127
72 Off ch=3 n=67 v=0
20 Off ch=3 n=52 v=0
16 On ch=3 n=69 v=83
0 On ch=3 n=53 v=86
112 Off ch=3 n=60 v=0
56 Off ch=3 n=69 v=0
20 Par ch=3 c=64 v=0
4 On ch=3 n=70 v=79
0 On ch=3 n=55 v=92
4 On ch=3 n=67 v=76
0 On ch=3 n=64 v=79
4 Off ch=3 n=53 v=0
60 Par ch=3 c=64 v=127
104 Off ch=3 n=55 v=0
12 Off ch=3 n=64 v=0
8 On ch=3 n=48 v=76
20 Off ch=3 n=67 v=0
24 Off ch=3 n=70 v=0
140 Off ch=3 n=48 v=0
4 On ch=3 n=65 v=80
0 On ch=3 n=67 v=80
4 On ch=3 n=70 v=56
0 On ch=3 n=55 v=90
188 Off ch=3 n=55 v=0
4 Off ch=3 n=65 v=0
4 On ch=3 n=48 v=76
8 Off ch=3 n=67 v=0
12 Off ch=3 n=70 v=0
156 Off ch=3 n=48 v=0
4 On ch=3 n=70 v=69
0 On ch=3 n=67 v=76
4 On ch=3 n=65 v=77
0 On ch=3 n=55 v=79
176 Off ch=3 n=55 v=0
12 Off ch=3 n=65 v=0
4 Off ch=3 n=67 v=0
0 On ch=3 n=48 v=74
12 Off ch=3 n=70 v=0
172 Off ch=3 n=48 v=0
16 On ch=3 n=70 v=66
0 On ch=3 n=67 v=78
0 On ch=3 n=55 v=84
0 On ch=3 n=65 v=75
176 Off ch=3 n=55 v=0
12 On ch=3 n=48 v=78
8 Off ch=3 n=65 v=0
48 Off ch=3 n=70 v=0
20 Off ch=3 n=67 v=0
100 Off ch=3 n=48 v=0
16 On ch=3 n=65 v=75
0 On ch=3 n=60 v=72
0 On ch=3 n=69 v=75
0 On ch=3 n=53 v=84
12 Par ch=3 c=64 v=0
72 Par ch=3 c=64 v=127
92 Off ch=3 n=53 v=0
12 Off ch=3 n=65 v=0
0 On ch=3 n=41 v=71
4 Off ch=3 n=60 v=0
4 Off ch=3 n=69 v=0
188 On ch=3 n=65 v=75
0 On ch=3 n=53 v=77
0 On ch=3 n=60 v=74
0 On ch=3 n=69 v=79
4 Off ch=3 n=41 v=0
176 Off ch=3 n=60 v=0
0 Off ch=3 n=53 v=0
4 Off ch=3 n=65 v=0
8 On ch=3 n=41 v=71
8 Off ch=3 n=69 v=0
188 Off ch=3 n=41 v=0
0 On ch=3 n=65 v=72
0 On ch=3 n=60 v=71
0 On ch=3 n=53 v=80
0 On ch=3 n=69 v=77
168 Off ch=3 n=53 v=0
8 Off ch=3 n=65 v=0
8 Off ch=3 n=60 v=0
4 Off ch=3 n=69 v=0
4 On ch=3 n=41 v=65
192 On ch=3 n=65 v=74
0 On ch=3 n=53 v=83
0 On ch=3 n=60 v=77
0 On ch=3 n=69 v=78
4 Off ch=3 n=41 v=0
176 Off ch=3 n=53 v=0
12 On ch=3 n=41 v=78
16 Off ch=3 n=60 v=0
16 Off ch=3 n=69 v=0
16 Off ch=3 n=65 v=0
64 Off ch=3 n=41 v=0
76 Par ch=3 c=64 v=0
4 On ch=3 n=70 v=72
0 On ch=3 n=62 v=76
0 On ch=3 n=65 v=78
0 On ch=3 n=46 v=83
128 Par ch=3 c=64 v=127
44 Off ch=3 n=65 v=0
8 Off ch=3 n=62 v=0
4 Off ch=3 n=70 v=0
8 On ch=3 n=34 v=53
20 Off ch=3 n=46 v=0
172 On ch=3 n=70 v=66
0 On ch=3 n=46 v=73
0 On ch=3 n=62 v=69
0 On ch=3 n=65 v=73
12 Off ch=3 n=34 v=0
164 Off ch=3 n=65 v=0
16 Off ch=3 n=62 v=0
0 Off ch=3 n=46 v=0
0 Off ch=3 n=70 v=0
0 On ch=3 n=34 v=66
196 On ch=3 n=62 v=77
0 On ch=3 n=70 v=69
0 On ch=3 n=46 v=76
0 On ch=3 n=65 v=78
8 Off ch=3 n=34 v=0
160 Off ch=3 n=65 v=0
20 Off ch=3 n=62 v=0
0 On ch=3 n=34 v=69
4 Off ch=3 n=46 v=0
8 Off ch=3 n=70 v=0
180 Off ch=3 n=34 v=0
4 On ch=3 n=70 v=71
0 On ch=3 n=46 v=79
0 On ch=3 n=62 v=75
0 On ch=3 n=65 v=77
172 Off ch=3 n=46 v=0
16 On ch=3 n=34 v=80
4 Off ch=3 n=70 v=0
8 Off ch=3 n=65 v=0
12 Off ch=3 n=62 v=0
16 Off ch=3 n=34 v=0
120 Par ch=3 c=64 v=0
32 On ch=3 n=53 v=83
0 On ch=3 n=60 v=79
0 On ch=3 n=65 v=75
0 On ch=3 n=69 v=80
56 Par ch=3 c=64 v=127
140 On ch=3 n=41 v=72
12 Off ch=3 n=65 v=0
0 Off ch=3 n=53 v=0
12 Off ch=3 n=69 v=0
4 Off ch=3 n=60 v=0
160 Off ch=3 n=41 v=0
4 On ch=3 n=60 v=77
0 On ch=3 n=65 v=72
0 On ch=3 n=53 v=81
0 On ch=3 n=69 v=78
164 Off ch=3 n=53 v=0
16 Off ch=3 n=69 v=0
4 Off ch=3 n=65 v=0
4 On ch=3 n=41 v=68
4 Off ch=3 n=60 v=0
184 Off ch=3 n=41 v=0
8 On ch=3 n=53 v=84
0 On ch=3 n=65 v=73
0 On ch=3 n=60 v=74
0 On ch=3 n=69 v=79
168 Off ch=3 n=53 v=0
20 Off ch=3 n=69 v=0
0 On ch=3 n=41 v=71
4 Off ch=3 n=60 v=0
4 Off ch=3 n=65 v=0
184 Off ch=3 n=41 v=0
4 On ch=3 n=65 v=74
0 On ch=3 n=69 v=76
0 On ch=3 n=60 v=75
0 On ch=3 n=53 v=84
100 Off ch=3 n=69 v=0
8 Off ch=3 n=65 v=0
56 Off ch=3 n=53 v=0
12 Off ch=3 n=60 v=0
12 On ch=3 n=41 v=75
176 Off ch=3 n=41 v=0
0 Par ch=3 c=64 v=0
20 On ch=3 n=60 v=74
0 On ch=3 n=58 v=78
0 On ch=3 n=48 v=90
0 On ch=3 n=67 v=68
0 On ch=3 n=64 v=65
56 Par ch=3 c=64 v=127
128 Off ch=3 n=64 v=0
0 Off ch=3 n=58 v=0
4 On ch=3 n=36 v=72
4 Off ch=3 n=67 v=0
0 Off ch=3 n=48 v=0
4 Off ch=3 n=60 v=0
184 On ch=3 n=60 v=75
0 On ch=3 n=58 v=74
0 On ch=3 n=67 v=66
0 On ch=3 n=48 v=80
0 On ch=3 n=64 v=72
4 Off ch=3 n=36 v=0
176 Off ch=3 n=64 v=0
8 Off ch=3 n=48 v=0
4 On ch=3 n=36 v=72
8 Off ch=3 n=60 v=0
4 Off ch=3 n=67 v=0
4 Off ch=3 n=58 v=0
172 Off ch=3 n=36 v=0
4 On ch=3 n=60 v=75
0 On ch=3 n=58 v=68
0 On ch=3 n=48 v=77
0 On ch=3 n=67 v=66
0 On ch=3 n=64 v=65
152 Off ch=3 n=48 v=0
8 Off ch=3 n=64 v=0
32 On ch=3 n=36 v=69
4 Off ch=3 n=60 v=0
4 Off ch=3 n=67 v=0
0 Off ch=3 n=58 v=0
180 Off ch=3 n=36 v=0
4 On ch=3 n=60 v=73
4 On ch=3 n=67 v=63
4 On ch=3 n=58 v=64
0 On ch=3 n=48 v=78
0 On ch=3 n=64 v=67
156 Off ch=3 n=60 v=0
4 Off ch=3 n=48 v=0
16 Off ch=3 n=64 v=0
0 Off ch=3 n=58 v=0
0 On ch=3 n=36 v=78
4 Off ch=3 n=67 v=0
140 Off ch=3 n=36 v=0
56 On ch=3 n=65 v=75
0 On ch=3 n=57 v=79
0 On ch=3 n=60 v=75
0 On ch=3 n=53 v=66
4 Par ch=3 c=64 v=0
88 Par ch=3 c=64 v=127
100 Off ch=3 n=53 v=0
0 On ch=3 n=41 v=65
16 Off ch=3 n=60 v=0
8 Off ch=3 n=65 v=0
8 Off ch=3 n=57 v=0
160 On ch=3 n=60 v=77
4 On ch=3 n=57 v=76
4 Off ch=3 n=41 v=0
0 On ch=3 n=65 v=74
0 On ch=3 n=53 v=74
180 Off ch=3 n=53 v=0
0 On ch=3 n=41 v=68
4 Off ch=3 n=60 v=0
16 Off ch=3 n=65 v=0
4 Off ch=3 n=57 v=0
116 Par ch=3 c=64 v=0
52 Off ch=3 n=41 v=0
4 On ch=3 n=60 v=75
0 On ch=3 n=53 v=77
8 On ch=3 n=65 v=71
0 On ch=3 n=57 v=72
12 Par ch=3 c=64 v=127
160 Off ch=3 n=65 v=0
0 Off ch=3 n=60 v=0
8 Off ch=3 n=53 v=0
4 On ch=3 n=41 v=64
4 Off ch=3 n=57 v=0
192 Off ch=3 n=41 v=0
0 On ch=3 n=65 v=79
0 On ch=3 n=57 v=76
0 On ch=3 n=53 v=79
160 Off ch=3 n=65 v=0
8 Off ch=3 n=57 v=0
8 Off ch=3 n=53 v=0
12 On ch=3 n=64 v=79
0 On ch=3 n=57 v=64
0 On ch=3 n=41 v=72
36 Par ch=3 c=64 v=0
128 Off ch=3 n=57 v=0
0 Off ch=3 n=64 v=0
8 Off ch=3 n=41 v=0
20 On ch=3 n=63 v=74
0 On ch=3 n=60 v=69
0 On ch=3 n=53 v=88
0 On ch=3 n=57 v=63
28 Par ch=3 c=64 v=127
144 Off ch=3 n=53 v=0
16 Off ch=3 n=60 v=0
4 On ch=3 n=41 v=64
8 Off ch=3 n=57 v=0
16 Off ch=3 n=63 v=0
164 Off ch=3 n=41 v=0
4 On ch=3 n=53 v=77
0 On ch=3 n=63 v=72
0 On ch=3 n=57 v=75
0 On ch=3 n=60 v=77
176 Off ch=3 n=53 v=0
12 Off ch=3 n=60 v=0
4 On ch=3 n=41 v=74
8 Off ch=3 n=57 v=0
4 Off ch=3 n=63 v=0
172 Off ch=3 n=41 v=0
8 On ch=3 n=63 v=68
0 On ch=3 n=60 v=74
0 On ch=3 n=53 v=76
0 On ch=3 n=57 v=74
192 Off ch=3 n=53 v=0
0 Off ch=3 n=60 v=0
0 On ch=3 n=41 v=73
4 Off ch=3 n=57 v=0
4 Off ch=3 n=63 v=0
172 Off ch=3 n=41 v=0
12 On ch=3 n=63 v=65
0 On ch=3 n=60 v=76
0 On ch=3 n=53 v=80
0 On ch=3 n=57 v=77
148 Off ch=3 n=53 v=0
44 On ch=3 n=41 v=81
4 Off ch=3 n=60 v=0
4 Off ch=3 n=63 v=0
24 Off ch=3 n=57 v=0
36 Off ch=3 n=41 v=0
80 Par ch=3 c=64 v=0
44 On ch=3 n=58 v=76
0 On ch=3 n=46 v=77
0 On ch=3 n=62 v=75
0 On ch=3 n=65 v=75
44 Par ch=3 c=64 v=127
144 Off ch=3 n=46 v=0
4 On ch=3 n=34 v=75
4 Off ch=3 n=62 v=0
12 Off ch=3 n=65 v=0
0 Off ch=3 n=58 v=0
164 Off ch=3 n=34 v=0
12 On ch=3 n=58 v=79
0 On ch=3 n=65 v=69
0 On ch=3 n=46 v=81
0 On ch=3 n=62 v=77
188 Off ch=3 n=46 v=0
4 On ch=3 n=34 v=69
8 Off ch=3 n=62 v=0
16 Off ch=3 n=58 v=0
28 Off ch=3 n=65 v=0
52 Par ch=3 c=64 v=0
64 Off ch=3 n=34 v=0
24 On ch=3 n=58 v=79
0 On ch=3 n=62 v=79
0 On ch=3 n=45 v=77
0 On ch=3 n=65 v=71
4 Par ch=3 c=64 v=127
180 Off ch=3 n=62 v=0
0 Off ch=3 n=58 v=0
4 Off ch=3 n=45 v=0
0 On ch=3 n=33 v=66
20 Off ch=3 n=65 v=0
172 Off ch=3 n=33 v=0
0 On ch=3 n=58 v=77
0 On ch=3 n=62 v=76
0 On ch=3 n=45 v=76
0 On ch=3 n=65 v=67
168 Off ch=3 n=45 v=0
16 Off ch=3 n=62 v=0
4 Off ch=3 n=58 v=0
4 On ch=3 n=33 v=64
32 Off ch=3 n=65 v=0
48 Par ch=3 c=64 v=0
92 Par ch=3 c=64 v=127
8 Off ch=3 n=33 v=0
12 On ch=3 n=58 v=75
0 On ch=3 n=43 v=78
0 On ch=3 n=65 v=66
0 On ch=3 n=62 v=78
176 Off ch=3 n=62 v=0
8 Off ch=3 n=43 v=0
4 Off ch=3 n=58 v=0
4 On ch=3 n=31 v=69
4 Off ch=3 n=65 v=0
188 On ch=3 n=58 v=78
0 On ch=3 n=65 v=68
0 On ch=3 n=62 v=78
0 On ch=3 n=43 v=78
12 Off ch=3 n=31 v=0
164 Off ch=3 n=43 v=0
8 Off ch=3 n=62 v=0
8 Off ch=3 n=58 v=0
0 On ch=3 n=31 v=75
28 Off ch=3 n=65 v=0
100 Par ch=3 c=64 v=0
36 Off ch=3 n=31 v=0
28 On ch=3 n=41 v=88
0 On ch=3 n=58 v=77
0 On ch=3 n=65 v=69
0 On ch=3 n=62 v=76
36 Par ch=3 c=64 v=127
152 Off ch=3 n=62 v=0
4 On ch=3 n=29 v=66
4 Off ch=3 n=41 v=0
16 Off ch=3 n=58 v=0
4 Off ch=3 n=65 v=0
168 Off ch=3 n=29 v=0
0 On ch=3 n=58 v=76
0 On ch=3 n=65 v=74
0 On ch=3 n=41 v=76
0 On ch=3 n=62 v=78
116 Off ch=3 n=62 v=0
24 Off ch=3 n=65 v=0
36 Off ch=3 n=41 v=0
16 On ch=3 n=29 v=67
28 Off ch=3 n=58 v=0
40 Par ch=3 c=64 v=0
64 Off ch=3 n=29 v=0
40 Par ch=3 c=64 v=127
20 On ch=3 n=40 v=84
0 On ch=3 n=58 v=75
0 On ch=3 n=60 v=80
0 On ch=3 n=64 v=76
176 Off ch=3 n=60 v=0
4 Off ch=3 n=58 v=0
12 Off ch=3 n=64 v=0
0 Off ch=3 n=40 v=0
0 On ch=3 n=28 v=67
192 On ch=3 n=40 v=80
0 On ch=3 n=64 v=74
0 On ch=3 n=58 v=74
0 On ch=3 n=60 v=77
4 Off ch=3 n=28 v=0
168 Off ch=3 n=40 v=0
8 Off ch=3 n=60 v=0
0 Off ch=3 n=58 v=0
12 Off ch=3 n=64 v=0
0 On ch=3 n=28 v=63
192 Off ch=3 n=28 v=0
0 On ch=3 n=40 v=76
0 On ch=3 n=60 v=77
0 On ch=3 n=64 v=72
0 On ch=3 n=58 v=72
172 Off ch=3 n=40 v=0
20 On ch=3 n=28 v=65
4 Off ch=3 n=60 v=0
8 Off ch=3 n=58 v=0
8 Off ch=3 n=64 v=0
172 On ch=3 n=60 v=83
0 On ch=3 n=58 v=75
0 On ch=3 n=40 v=80
0 On ch=3 n=64 v=75
8 Off ch=3 n=28 v=0
160 Off ch=3 n=40 v=0
8 Off ch=3 n=60 v=0
8 Off ch=3 n=58 v=0
8 On ch=3 n=28 v=65
24 Off ch=3 n=64 v=0
44 Off ch=3 n=28 v=0
108 Par ch=3 c=64 v=0
20 On ch=3 n=65 v=67
0 On ch=3 n=53 v=80
0 On ch=3 n=57 v=74
0 On ch=3 n=60 v=75
52 Par ch=3 c=64 v=127
44 Off ch=3 n=53 v=0
16 Off ch=3 n=57 v=0
32 Off ch=3 n=65 v=0
4 Off ch=3 n=60 v=0
44 On ch=3 n=65 v=59
0 On ch=3 n=60 v=62
0 On ch=3 n=57 v=54
0 On ch=3 n=53 v=58
100 Off ch=3 n=57 v=0
16 Off ch=3 n=53 v=0
0 Off ch=3 n=60 v=0
0 Off ch=3 n=65 v=0
76 On ch=3 n=65 v=72
0 On ch=3 n=53 v=75
0 On ch=3 n=60 v=72
0 On ch=3 n=57 v=75
116 Off ch=3 n=53 v=0
16 Off ch=3 n=57 v=0
8 Off ch=3 n=60 v=0
4 Off ch=3 n=65 v=0
48 On ch=3 n=65 v=66
0 On ch=3 n=53 v=71
0 On ch=3 n=57 v=71
0 On ch=3 n=60 v=72
96 Off ch=3 n=53 v=0
16 Off ch=3 n=57 v=0
32 Off ch=3 n=65 v=0
4 Off ch=3 n=60 v=0
44 On ch=3 n=65 v=63
0 On ch=3 n=60 v=73
0 On ch=3 n=57 v=67
0 On ch=3 n=53 v=75
100 Off ch=3 n=57 v=0
16 Off ch=3 n=53 v=0
0 Off ch=3 n=60 v=0
0 Off ch=3 n=65 v=0
76 On ch=3 n=65 v=68
0 On ch=3 n=53 v=73
0 On ch=3 n=60 v=73
0 On ch=3 n=57 v=74
116 Off ch=3 n=53 v=0
16 Off ch=3 n=57 v=0
8 Off ch=3 n=60 v=0
4 Off ch=3 n=65 v=0
44 On ch=3 n=65 v=89
0 On ch=3 n=57 v=84
0 On ch=3 n=60 v=65
0 On ch=3 n=53 v=81
112 Off ch=3 n=65 v=0
4 Off ch=3 n=57 v=0
4 Off ch=3 n=53 v=0
8 Off ch=3 n=60 v=0
60 On ch=3 n=60 v=62
0 On ch=3 n=57 v=80
0 On ch=3 n=64 v=88
80 Off ch=3 n=64 v=0
24 Off ch=3 n=57 v=0
8 Off ch=3 n=60 v=0
40 Par ch=3 c=64 v=0
48 On ch=3 n=63 v=72
0 On ch=3 n=60 v=73
0 On ch=3 n=57 v=64
0 On ch=3 n=53 v=88
28 Par ch=3 c=64 v=127
160 Off ch=3 n=53 v=0
0 Off ch=3 n=60 v=0
4 On ch=3 n=41 v=72
8 Off ch=3 n=63 v=0
20 Off ch=3 n=57 v=0
160 Off ch=3 n=41 v=0
8 On ch=3 n=63 v=72
0 On ch=3 n=53 v=81
0 On ch=3 n=60 v=74
0 On ch=3 n=57 v=76
192 Off ch=3 n=53 v=0
0 On ch=3 n=41 v=76
8 Off ch=3 n=60 v=0
40 Off ch=3 n=63 v=0
4 Off ch=3 n=57 v=0
108 Off ch=3 n=41 v=0
32 On ch=3 n=53 v=88
0 On ch=3 n=63 v=75
0 On ch=3 n=57 v=77
0 On ch=3 n=60 v=83
124 Off ch=3 n=60 v=0
0 Off ch=3 n=57 v=0
16 Off ch=3 n=53 v=0
8 Off ch=3 n=63 v=0
40 On ch=3 n=53 v=81
0 On ch=3 n=63 v=63
0 On ch=3 n=57 v=64
0 On ch=3 n=60 v=63
96 Off ch=3 n=60 v=0
8 Off ch=3 n=53 v=0
12 Off ch=3 n=63 v=0
8 Off ch=3 n=57 v=0
68 On ch=3 n=63 v=80
0 On ch=3 n=57 v=84
0 On ch=3 n=53 v=89
0 On ch=3 n=60 v=80
152 Off ch=3 n=53 v=0
8 Off ch=3 n=57 v=0
4 Off ch=3 n=63 v=0
28 On ch=3 n=53 v=84
16 Off ch=3 n=60 v=0
116 Off ch=3 n=53 v=0
48 Par ch=3 c=64 v=0
12 On ch=3 n=58 v=81
0 On ch=3 n=65 v=78
0 On ch=3 n=46 v=90
0 On ch=3 n=62 v=80
104 Par ch=3 c=64 v=127
80 Off ch=3 n=62 v=0
8 On ch=3 n=34 v=67
4 Off ch=3 n=65 v=0
4 Off ch=3 n=46 v=0
0 Off ch=3 n=58 v=0
180 Off ch=3 n=34 v=0
8 On ch=3 n=58 v=81
0 On ch=3 n=65 v=67
0 On ch=3 n=62 v=80
0 On ch=3 n=46 v=80
100 Off ch=3 n=46 v=0
72 Off ch=3 n=62 v=0
4 Off ch=3 n=58 v=0
16 On ch=3 n=34 v=68
32 Off ch=3 n=65 v=0
128 Par ch=3 c=64 v=0
24 Off ch=3 n=34 v=0
4 On ch=3 n=58 v=80
0 On ch=3 n=45 v=87
0 On ch=3 n=65 v=76
0 On ch=3 n=62 v=79
60 Par ch=3 c=64 v=127
124 Off ch=3 n=62 v=0
8 Off ch=3 n=58 v=0
4 Off ch=3 n=65 v=0
0 On ch=3 n=33 v=58
8 Off ch=3 n=45 v=0
180 Off ch=3 n=33 v=0
4 On ch=3 n=65 v=74
0 On ch=3 n=58 v=77
0 On ch=3 n=45 v=81
0 On ch=3 n=62 v=78
192 On ch=3 n=33 v=64
4 Off ch=3 n=45 v=0
16 Off ch=3 n=62 v=0
20 Off ch=3 n=58 v=0
12 Off ch=3 n=65 v=0
80 Off ch=3 n=33 v=0
60 Par ch=3 c=64 v=0
4 On ch=3 n=58 v=81
0 On ch=3 n=65 v=77
0 On ch=3 n=62 v=80
0 On ch=3 n=43 v=83
84 Par ch=3 c=64 v=127
80 Off ch=3 n=62 v=0
24 Off ch=3 n=65 v=0
4 On ch=3 n=31 v=65
8 Off ch=3 n=43 v=0
4 Off ch=3 n=58 v=0
152 Off ch=3 n=31 v=0
24 On ch=3 n=58 v=78
0 On ch=3 n=43 v=76
0 On ch=3 n=65 v=76
0 On ch=3 n=62 v=79
192 On ch=3 n=31 v=75
4 Off ch=3 n=43 v=0
8 Off ch=3 n=62 v=0
12 Off ch=3 n=58 v=0
20 Off ch=3 n=65 v=0
108 Off ch=3 n=31 v=0
24 Par ch=3 c=64 v=0
12 On ch=3 n=65 v=74
0 On ch=3 n=58 v=80
0 On ch=3 n=41 v=81
0 On ch=3 n=62 v=81
152 Par ch=3 c=64 v=127
44 On ch=3 n=29 v=55
16 Off ch=3 n=62 v=0
20 Off ch=3 n=41 v=0
0 Off ch=3 n=58 v=0
4 Off ch=3 n=65 v=0
152 Off ch=3 n=29 v=0
0 On ch=3 n=58 v=79
0 On ch=3 n=65 v=74
0 On ch=3 n=41 v=74
0 On ch=3 n=62 v=81
176 Off ch=3 n=41 v=0
16 On ch=3 n=29 v=68
24 Off ch=3 n=62 v=0
12 Off ch=3 n=58 v=0
24 Off ch=3 n=65 v=0
68 Off ch=3 n=29 v=0
64 Par ch=3 c=64 v=0
0 On ch=3 n=58 v=79
0 On ch=3 n=64 v=79
0 On ch=3 n=40 v=77
0 On ch=3 n=60 v=77
120 Par ch=3 c=64 v=127
60 Off ch=3 n=64 v=0
12 On ch=3 n=28 v=54
4 Off ch=3 n=40 v=0
12 Off ch=3 n=60 v=0
8 Off ch=3 n=58 v=0
168 On ch=3 n=58 v=78
0 On ch=3 n=60 v=78
0 On ch=3 n=40 v=78
0 On ch=3 n=64 v=72
12 Off ch=3 n=28 v=0
20 Par ch=3 c=64 v=0
100 Off ch=3 n=40 v=0
8 Off ch=3 n=60 v=0
12 Off ch=3 n=64 v=0
4 Off ch=3 n=58 v=0
24 Par ch=3 c=64 v=127
12 On ch=3 n=28 v=62
176 Off ch=3 n=28 v=0
16 On ch=3 n=40 v=75
0 On ch=3 n=58 v=74
0 On ch=3 n=60 v=59
0 On ch=3 n=64 v=73
48 Par ch=3 c=64 v=0
100 Off ch=3 n=40 v=0
4 Par ch=3 c=64 v=127
16 Off ch=3 n=60 v=0
20 On ch=3 n=28 v=65
8 Off ch=3 n=58 v=0
8 Off ch=3 n=64 v=0
176 Off ch=3 n=28 v=0
4 On ch=3 n=40 v=71
0 On ch=3 n=64 v=77
0 On ch=3 n=58 v=77
0 On ch=3 n=60 v=77
160 Off ch=3 n=40 v=0
4 Off ch=3 n=58 v=0
8 Off ch=3 n=64 v=0
4 Off ch=3 n=60 v=0
12 On ch=3 n=28 v=73
80 Off ch=3 n=28 v=0
116 On ch=3 n=41 v=78
0 On ch=3 n=60 v=81
0 On ch=3 n=65 v=77
0 On ch=3 n=57 v=78
4 Par ch=3 c=64 v=0
92 Off ch=3 n=41 v=0
28 Par ch=3 c=64 v=127
64 On ch=3 n=41 v=80
24 Off ch=3 n=60 v=0
4 Off ch=3 n=57 v=0
4 Off ch=3 n=65 v=0
72 Off ch=3 n=41 v=0
88 On ch=3 n=60 v=81
0 On ch=3 n=65 v=75
0 On ch=3 n=57 v=77
0 On ch=3 n=41 v=84
84 Off ch=3 n=41 v=0
108 On ch=3 n=41 v=83
20 Off ch=3 n=60 v=0
12 Off ch=3 n=57 v=0
4 Off ch=3 n=65 v=0
56 Off ch=3 n=41 v=0
100 On ch=3 n=60 v=75
0 On ch=3 n=41 v=80
0 On ch=3 n=57 v=76
0 On ch=3 n=65 v=74
104 Off ch=3 n=41 v=0
88 On ch=3 n=41 v=78
4 Off ch=3 n=60 v=0
8 Off ch=3 n=57 v=0
8 Off ch=3 n=65 v=0
80 Off ch=3 n=41 v=0
92 On ch=3 n=41 v=79
0 On ch=3 n=60 v=72
0 On ch=3 n=57 v=77
0 On ch=3 n=65 v=78
44 Off ch=3 n=41 v=0
148 On ch=3 n=41 v=79
40 Off ch=3 n=60 v=0
4 Off ch=3 n=57 v=0
8 Off ch=3 n=65 v=0
8 Off ch=3 n=41 v=0
132 Par ch=3 c=64 v=0
0 On ch=3 n=41 v=83
0 On ch=3 n=60 v=77
0 On ch=3 n=63 v=69
0 On ch=3 n=57 v=79
0 On ch=3 n=65 v=72
32 Par ch=3 c=64 v=127
156 Off ch=3 n=41 v=0
4 On ch=3 n=29 v=68
16 Off ch=3 n=60 v=0
4 Off ch=3 n=63 v=0
8 Off ch=3 n=57 v=0
12 Off ch=3 n=65 v=0
148 Off ch=3 n=29 v=0
12 On ch=3 n=41 v=81
0 On ch=3 n=63 v=73
0 On ch=3 n=60 v=76
0 On ch=3 n=57 v=80
0 On ch=3 n=65 v=76
188 Off ch=3 n=41 v=0
0 On ch=3 n=29 v=75
24 Off ch=3 n=57 v=0
36 Off ch=3 n=29 v=0
20 Off ch=3 n=65 v=0
8 Off ch=3 n=60 v=0
12 Off ch=3 n=63 v=0
92 On ch=3 n=55 v=84
0 On ch=3 n=64 v=85
0 On ch=3 n=48 v=81
16 Par ch=3 c=64 v=0
96 Off ch=3 n=55 v=0
8 Par ch=3 c=64 v=127
20 Off ch=3 n=64 v=0
44 Off ch=3 n=48 v=0
0 On ch=3 n=36 v=73
0 On ch=3 n=65 v=86
0 On ch=3 n=57 v=83
144 Off ch=3 n=65 v=0
8 Off ch=3 n=57 v=0
8 Off ch=3 n=36 v=0
28 Par ch=3 c=64 v=0
4 On ch=3 n=48 v=82
0 On ch=3 n=60 v=83
0 On ch=3 n=64 v=75
0 On ch=3 n=67 v=85
84 Par ch=3 c=64 v=127
108 Off ch=3 n=48 v=0
0 On ch=3 n=36 v=80
84 Off ch=3 n=64 v=0
0 Off ch=3 n=60 v=0
4 Off ch=3 n=67 v=0
52 Off ch=3 n=36 v=0
56 On ch=3 n=67 v=80
0 On ch=3 n=48 v=81
0 On ch=3 n=60 v=80
0 On ch=3 n=64 v=79
192 On ch=3 n=36 v=80
32 Off ch=3 n=48 v=0
92 Off ch=3 n=36 v=0
64 On ch=3 n=48 v=81
0 On ch=3 n=36 v=76
112 Off ch=3 n=36 v=0
12 Off ch=3 n=48 v=0
68 On ch=3 n=48 v=76
0 On ch=3 n=36 v=68
8 Off ch=3 n=64 v=0
0 Off ch=3 n=60 v=0
16 Off ch=3 n=67 v=0
68 Off ch=3 n=36 v=0
4 Off ch=3 n=48 v=0
4 Par ch=3 c=64 v=0
88 On ch=3 n=60 v=90
0 On ch=3 n=67 v=90
0 On ch=3 n=64 v=88
0 On ch=3 n=48 v=79
0 On ch=3 n=36 v=77
16 Par ch=3 c=64 v=127
140 Off ch=3 n=67 v=0
4 Off ch=3 n=64 v=0
4 Off ch=3 n=60 v=0
28 On ch=3 n=62 v=97
0 On ch=3 n=69 v=95
0 On ch=3 n=65 v=93
88 Par ch=3 c=64 v=0
60 Off ch=3 n=69 v=0
8 Off ch=3 n=65 v=0
0 Off ch=3 n=62 v=0
36 On ch=3 n=64 v=97
0 On ch=3 n=67 v=93
0 On ch=3 n=70 v=92
336 Off ch=3 n=70 v=0
0 Off ch=3 n=64 v=0
8 Off ch=3 n=67 v=0
44 On ch=3 n=67 v=92
0 On ch=3 n=70 v=94
0 On ch=3 n=64 v=95
712 Off ch=3 n=70 v=0
8 Off ch=3 n=67 v=0
8 Off ch=3 n=64 v=0
20 Off ch=3 n=36 v=0
4 Off ch=3 n=48 v=0
20 Par ch=3 c=64 v=127
0 On ch=3 n=53 v=79
0 On ch=3 n=60 v=75
0 On ch=3 n=57 v=79
0 On ch=3 n=65 v=75
188 Off ch=3 n=53 v=0
4 On ch=3 n=41 v=65
16 Off ch=3 n=60 v=0
8 Off ch=3 n=65 v=0
8 Off ch=3 n=57 v=0
160 On ch=3 n=60 v=77
4 On ch=3 n=57 v=76
4 Off ch=3 n=41 v=0
0 On ch=3 n=53 v=74
0 On ch=3 n=65 v=74
180 Off ch=3 n=53 v=0
0 On ch=3 n=41 v=68
4 Off ch=3 n=60 v=0
16 Off ch=3 n=65 v=0
4 Off ch=3 n=57 v=0
168 Off ch=3 n=41 v=0
4 On ch=3 n=53 v=77
0 On ch=3 n=60 v=75
8 On ch=3 n=57 v=72
0 On ch=3 n=65 v=71
172 Off ch=3 n=65 v=0
0 Off ch=3 n=60 v=0
8 Off ch=3 n=53 v=0
4 On ch=3 n=41 v=64
4 Off ch=3 n=57 v=0
192 Off ch=3 n=41 v=0
0 On ch=3 n=53 v=79
0 On ch=3 n=60 v=76
0 On ch=3 n=57 v=76
0 On ch=3 n=65 v=72
176 Off ch=3 n=53 v=0
8 Off ch=3 n=60 v=0
4 On ch=3 n=41 v=72
28 Off ch=3 n=57 v=0
4 Off ch=3 n=65 v=0
140 Off ch=3 n=41 v=0
8 Par ch=3 c=64 v=0
16 On ch=3 n=52 v=80
0 On ch=3 n=60 v=71
0 On ch=3 n=55 v=73
0 On ch=3 n=64 v=73
72 Par ch=3 c=64 v=127
120 Off ch=3 n=64 v=0
0 On ch=3 n=48 v=77
4 Off ch=3 n=60 v=0
0 Off ch=3 n=52 v=0
4 Off ch=3 n=55 v=0
176 Off ch=3 n=48 v=0
0 On ch=3 n=60 v=75
4 On ch=3 n=64 v=72
4 On ch=3 n=55 v=77
0 On ch=3 n=52 v=81
176 Off ch=3 n=52 v=0
8 On ch=3 n=48 v=72
24 Off ch=3 n=64 v=0
0 Off ch=3 n=60 v=0
4 Off ch=3 n=55 v=0
160 Off ch=3 n=48 v=0
4 On ch=3 n=52 v=76
4 On ch=3 n=60 v=69
0 On ch=3 n=64 v=73
4 On ch=3 n=55 v=66
120 Off ch=3 n=55 v=0
36 Off ch=3 n=60 v=0
20 Off ch=3 n=64 v=0
8 On ch=3 n=48 v=74
8 Off ch=3 n=52 v=0
180 Off ch=3 n=48 v=0
0 On ch=3 n=60 v=76
4 On ch=3 n=67 v=77
4 On ch=3 n=52 v=81
20 Par ch=3 c=64 v=0
60 Par ch=3 c=64 v=127
72 Off ch=3 n=67 v=0
20 Off ch=3 n=52 v=0
16 On ch=3 n=69 v=83
0 On ch=3 n=53 v=86
76 Off ch=3 n=69 v=0
36 Off ch=3 n=60 v=0
76 Par ch=3 c=64 v=0
4 On ch=3 n=70 v=79
0 On ch=3 n=55 v=80
4 On ch=3 n=67 v=76
0 On ch=3 n=64 v=79
4 Off ch=3 n=53 v=0
60 Par ch=3 c=64 v=127
104 Off ch=3 n=55 v=0
12 Off ch=3 n=64 v=0
8 On ch=3 n=48 v=76
20 Off ch=3 n=67 v=0
24 Off ch=3 n=70 v=0
140 Off ch=3 n=48 v=0
4 On ch=3 n=65 v=80
0 On ch=3 n=67 v=80
4 On ch=3 n=70 v=69
0 On ch=3 n=55 v=85
188 Off ch=3 n=55 v=0
4 Off ch=3 n=65 v=0
4 On ch=3 n=48 v=76
8 Off ch=3 n=67 v=0
12 Off ch=3 n=70 v=0
156 Off ch=3 n=48 v=0
4 On ch=3 n=70 v=69
0 On ch=3 n=67 v=76
4 On ch=3 n=65 v=77
0 On ch=3 n=55 v=79
176 Off ch=3 n=55 v=0
12 Off ch=3 n=65 v=0
4 Off ch=3 n=67 v=0
0 On ch=3 n=48 v=74
12 Off ch=3 n=70 v=0
172 Off ch=3 n=48 v=0
16 On ch=3 n=70 v=66
0 On ch=3 n=67 v=78
0 On ch=3 n=55 v=84
0 On ch=3 n=65 v=75
176 Off ch=3 n=55 v=0
12 On ch=3 n=48 v=78
8 Off ch=3 n=65 v=0
48 Off ch=3 n=70 v=0
20 Off ch=3 n=67 v=0
100 Off ch=3 n=48 v=0
16 On ch=3 n=65 v=75
0 On ch=3 n=60 v=72
0 On ch=3 n=69 v=75
0 On ch=3 n=53 v=84
12 Par ch=3 c=64 v=0
72 Par ch=3 c=64 v=127
92 Off ch=3 n=53 v=0
12 Off ch=3 n=65 v=0
0 On ch=3 n=41 v=71
4 Off ch=3 n=60 v=0
4 Off ch=3 n=69 v=0
188 On ch=3 n=65 v=75
0 On ch=3 n=53 v=77
0 On ch=3 n=60 v=74
0 On ch=3 n=69 v=79
4 Off ch=3 n=41 v=0
176 Off ch=3 n=60 v=0
0 Off ch=3 n=53 v=0
4 Off ch=3 n=65 v=0
8 On ch=3 n=41 v=71
8 Off ch=3 n=69 v=0
188 Off ch=3 n=41 v=0
0 On ch=3 n=65 v=72
0 On ch=3 n=60 v=71
0 On ch=3 n=53 v=80
0 On ch=3 n=69 v=77
168 Off ch=3 n=53 v=0
8 Off ch=3 n=65 v=0
8 Off ch=3 n=60 v=0
4 Off ch=3 n=69 v=0
4 On ch=3 n=41 v=65
192 On ch=3 n=65 v=74
0 On ch=3 n=53 v=83
0 On ch=3 n=60 v=77
0 On ch=3 n=69 v=78
4 Off ch=3 n=41 v=0
176 Off ch=3 n=53 v=0
12 On ch=3 n=41 v=78
16 Off ch=3 n=60 v=0
16 Off ch=3 n=69 v=0
16 Off ch=3 n=65 v=0
64 Off ch=3 n=41 v=0
76 Par ch=3 c=64 v=0
4 On ch=3 n=70 v=72
0 On ch=3 n=62 v=76
0 On ch=3 n=65 v=78
0 On ch=3 n=46 v=83
128 Par ch=3 c=64 v=127
44 Off ch=3 n=65 v=0
8 Off ch=3 n=62 v=0
4 Off ch=3 n=70 v=0
8 On ch=3 n=34 v=53
20 Off ch=3 n=46 v=0
172 On ch=3 n=70 v=66
0 On ch=3 n=46 v=73
0 On ch=3 n=62 v=69
0 On ch=3 n=65 v=73
12 Off ch=3 n=34 v=0
164 Off ch=3 n=65 v=0
16 Off ch=3 n=62 v=0
0 Off ch=3 n=46 v=0
0 Off ch=3 n=70 v=0
0 On ch=3 n=34 v=66
196 On ch=3 n=62 v=77
0 On ch=3 n=70 v=69
0 On ch=3 n=46 v=76
0 On ch=3 n=65 v=78
8 Off ch=3 n=34 v=0
160 Off ch=3 n=65 v=0
20 Off ch=3 n=62 v=0
0 On ch=3 n=34 v=69
4 Off ch=3 n=46 v=0
8 Off ch=3 n=70 v=0
180 Off ch=3 n=34 v=0
4 On ch=3 n=70 v=71
0 On ch=3 n=46 v=79
0 On ch=3 n=62 v=75
0 On ch=3 n=65 v=77
172 Off ch=3 n=46 v=0
16 On ch=3 n=34 v=80
4 Off ch=3 n=70 v=0
8 Off ch=3 n=65 v=0
12 Off ch=3 n=62 v=0
16 Off ch=3 n=34 v=0
120 Par ch=3 c=64 v=0
32 On ch=3 n=53 v=83
0 On ch=3 n=60 v=79
0 On ch=3 n=65 v=75
0 On ch=3 n=69 v=80
56 Par ch=3 c=64 v=127
140 On ch=3 n=41 v=72
12 Off ch=3 n=65 v=0
0 Off ch=3 n=53 v=0
12 Off ch=3 n=69 v=0
4 Off ch=3 n=60 v=0
160 Off ch=3 n=41 v=0
4 On ch=3 n=60 v=77
0 On ch=3 n=65 v=72
0 On ch=3 n=53 v=81
0 On ch=3 n=69 v=78
164 Off ch=3 n=53 v=0
16 Off ch=3 n=69 v=0
4 Off ch=3 n=65 v=0
4 On ch=3 n=41 v=68
4 Off ch=3 n=60 v=0
184 Off ch=3 n=41 v=0
8 On ch=3 n=53 v=81
0 On ch=3 n=65 v=73
0 On ch=3 n=60 v=74
0 On ch=3 n=69 v=79
168 Off ch=3 n=53 v=0
20 Off ch=3 n=69 v=0
0 On ch=3 n=41 v=71
4 Off ch=3 n=60 v=0
4 Off ch=3 n=65 v=0
184 Off ch=3 n=41 v=0
4 On ch=3 n=65 v=74
0 On ch=3 n=69 v=76
0 On ch=3 n=60 v=75
0 On ch=3 n=53 v=84
100 Off ch=3 n=69 v=0
8 Off ch=3 n=65 v=0
56 Off ch=3 n=53 v=0
12 Off ch=3 n=60 v=0
12 On ch=3 n=41 v=75
176 Off ch=3 n=41 v=0
0 Par ch=3 c=64 v=0
20 On ch=3 n=60 v=74
0 On ch=3 n=58 v=78
0 On ch=3 n=48 v=90
0 On ch=3 n=67 v=68
0 On ch=3 n=64 v=65
56 Par ch=3 c=64 v=127
128 Off ch=3 n=64 v=0
0 Off ch=3 n=58 v=0
4 On ch=3 n=36 v=72
4 Off ch=3 n=67 v=0
0 Off ch=3 n=48 v=0
4 Off ch=3 n=60 v=0
184 On ch=3 n=60 v=75
0 On ch=3 n=58 v=74
0 On ch=3 n=67 v=66
0 On ch=3 n=48 v=80
0 On ch=3 n=64 v=72
4 Off ch=3 n=36 v=0
176 Off ch=3 n=64 v=0
8 Off ch=3 n=48 v=0
4 On ch=3 n=36 v=72
8 Off ch=3 n=60 v=0
4 Off ch=3 n=67 v=0
4 Off ch=3 n=58 v=0
172 Off ch=3 n=36 v=0
4 On ch=3 n=60 v=75
0 On ch=3 n=58 v=68
0 On ch=3 n=48 v=77
0 On ch=3 n=67 v=66
0 On ch=3 n=64 v=65
152 Off ch=3 n=48 v=0
8 Off ch=3 n=64 v=0
32 On ch=3 n=36 v=69
4 Off ch=3 n=60 v=0
4 Off ch=3 n=67 v=0
0 Off ch=3 n=58 v=0
180 Off ch=3 n=36 v=0
4 On ch=3 n=60 v=73
4 On ch=3 n=67 v=63
4 On ch=3 n=58 v=64
0 On ch=3 n=48 v=78
0 On ch=3 n=64 v=67
156 Off ch=3 n=60 v=0
4 Off ch=3 n=48 v=0
16 Off ch=3 n=64 v=0
0 Off ch=3 n=58 v=0
0 On ch=3 n=36 v=78
4 Off ch=3 n=67 v=0
44 Off ch=3 n=36 v=0
152 On ch=3 n=65 v=75
0 On ch=3 n=57 v=79
0 On ch=3 n=60 v=75
0 On ch=3 n=53 v=79
4 Par ch=3 c=64 v=0
88 Par ch=3 c=64 v=127
96 Off ch=3 n=53 v=0
4 On ch=3 n=41 v=65
16 Off ch=3 n=60 v=0
8 Off ch=3 n=65 v=0
8 Off ch=3 n=57 v=0
160 On ch=3 n=60 v=77
4 On ch=3 n=57 v=76
4 Off ch=3 n=41 v=0
0 On ch=3 n=65 v=74
0 On ch=3 n=53 v=74
180 Off ch=3 n=53 v=0
0 On ch=3 n=41 v=68
4 Off ch=3 n=60 v=0
16 Off ch=3 n=65 v=0
4 Off ch=3 n=57 v=0
116 Par ch=3 c=64 v=0
52 Off ch=3 n=41 v=0
4 On ch=3 n=60 v=75
0 On ch=3 n=53 v=77
8 On ch=3 n=65 v=71
0 On ch=3 n=57 v=72
12 Par ch=3 c=64 v=127
160 Off ch=3 n=65 v=0
0 Off ch=3 n=60 v=0
8 Off ch=3 n=53 v=0
4 On ch=3 n=41 v=64
4 Off ch=3 n=57 v=0
192 Off ch=3 n=41 v=0
0 On ch=3 n=65 v=72
0 On ch=3 n=57 v=76
0 On ch=3 n=60 v=76
0 On ch=3 n=53 v=79
176 Off ch=3 n=53 v=0
8 Off ch=3 n=60 v=0
4 On ch=3 n=41 v=72
28 Off ch=3 n=57 v=0
4 Off ch=3 n=65 v=0
4 Par ch=3 c=64 v=0
136 Off ch=3 n=41 v=0
20 On ch=3 n=65 v=74
0 On ch=3 n=60 v=76
0 On ch=3 n=53 v=86
8 On ch=3 n=69 v=79
188 Off ch=3 n=53 v=0
4 On ch=3 n=41 v=69
4 Off ch=3 n=65 v=0
12 Off ch=3 n=69 v=0
8 Off ch=3 n=60 v=0
152 Off ch=3 n=41 v=0
12 On ch=3 n=69 v=74
0 On ch=3 n=53 v=75
0 On ch=3 n=65 v=71
0 On ch=3 n=60 v=75
148 Off ch=3 n=53 v=0
36 On ch=3 n=41 v=68
8 Off ch=3 n=65 v=0
4 Off ch=3 n=60 v=0
24 Off ch=3 n=69 v=0
24 Off ch=3 n=41 v=0
132 On ch=3 n=69 v=72
0 On ch=3 n=41 v=71
0 On ch=3 n=53 v=79
0 On ch=3 n=65 v=70
0 On ch=3 n=60 v=71
620 Off ch=3 n=69 v=0
4 Off ch=3 n=60 v=0
0 Off ch=3 n=41 v=0
4 Off ch=3 n=65 v=0
4 Off ch=3 n=53 v=0
144 On ch=3 n=53 v=90
0 On ch=3 n=60 v=80
0 On ch=3 n=65 v=78
0 On ch=3 n=57 v=80
84 Par ch=3 c=64 v=127
104 Off ch=3 n=53 v=0
0 On ch=3 n=41 v=71
24 Off ch=3 n=60 v=0
4 Off ch=3 n=65 v=0
8 Off ch=3 n=57 v=0
164 On ch=3 n=60 v=75
0 On ch=3 n=65 v=73
0 On ch=3 n=57 v=77
0 On ch=3 n=53 v=81
28 Off ch=3 n=41 v=0
128 Off ch=3 n=53 v=0
16 Off ch=3 n=60 v=0
16 Off ch=3 n=65 v=0
0 On ch=3 n=41 v=71
4 Off ch=3 n=57 v=0
188 On ch=3 n=60 v=77
0 On ch=3 n=65 v=71
0 On ch=3 n=57 v=77
0 On ch=3 n=53 v=84
4 Off ch=3 n=41 v=0
156 Off ch=3 n=53 v=0
4 Off ch=3 n=60 v=0
8 Off ch=3 n=65 v=0
4 Off ch=3 n=57 v=0
16 On ch=3 n=41 v=73
184 Off ch=3 n=41 v=0
8 On ch=3 n=60 v=78
0 On ch=3 n=65 v=75
0 On ch=3 n=57 v=78
0 On ch=3 n=53 v=83
172 Off ch=3 n=53 v=0
12 Off ch=3 n=60 v=0
8 On ch=3 n=41 v=76
8 Off ch=3 n=57 v=0
32 Off ch=3 n=65 v=0
36 Off ch=3 n=41 v=0
88 Par ch=3 c=64 v=0
24 On ch=3 n=51 v=86
0 On ch=3 n=55 v=86
0 On ch=3 n=63 v=72
0 On ch=3 n=58 v=77
108 Par ch=3 c=64 v=127
76 Off ch=3 n=58 v=0
4 Off ch=3 n=55 v=0
4 Off ch=3 n=63 v=0
0 Off ch=3 n=51 v=0
0 On ch=3 n=39 v=71
192 Off ch=3 n=39 v=0
0 On ch=3 n=58 v=78
0 On ch=3 n=63 v=71
0 On ch=3 n=55 v=74
0 On ch=3 n=51 v=83
168 Off ch=3 n=51 v=0
4 Off ch=3 n=58 v=0
4 Off ch=3 n=55 v=0
12 Off ch=3 n=63 v=0
4 On ch=3 n=39 v=64
188 Off ch=3 n=39 v=0
4 On ch=3 n=58 v=77
0 On ch=3 n=63 v=69
0 On ch=3 n=55 v=79
0 On ch=3 n=51 v=80
168 Off ch=3 n=51 v=0
8 Off ch=3 n=58 v=0
8 Off ch=3 n=55 v=0
0 Off ch=3 n=63 v=0
8 On ch=3 n=39 v=72
192 On ch=3 n=58 v=74
0 On ch=3 n=63 v=69
0 On ch=3 n=55 v=77
0 On ch=3 n=51 v=86
12 Off ch=3 n=39 v=0
164 Off ch=3 n=51 v=0
16 On ch=3 n=39 v=74
16 Off ch=3 n=63 v=0
16 Off ch=3 n=58 v=0
4 Off ch=3 n=55 v=0
128 Par ch=3 c=64 v=0
4 Off ch=3 n=39 v=0
24 On ch=3 n=58 v=77
0 On ch=3 n=46 v=83
0 On ch=3 n=65 v=69
0 On ch=3 n=62 v=76
76 Par ch=3 c=64 v=127
112 Off ch=3 n=62 v=0
0 Off ch=3 n=65 v=0
0 Off ch=3 n=58 v=0
4 On ch=3 n=34 v=64
4 Off ch=3 n=46 v=0
188 On ch=3 n=58 v=81
0 On ch=3 n=62 v=79
0 On ch=3 n=46 v=75
0 On ch=3 n=65 v=64
8 Off ch=3 n=34 v=0
172 Off ch=3 n=58 v=0
8 Off ch=3 n=65 v=0
0 Off ch=3 n=46 v=0
0 Off ch=3 n=62 v=0
4 On ch=3 n=34 v=67
192 Off ch=3 n=34 v=0
0 On ch=3 n=46 v=78
0 On ch=3 n=58 v=76
0 On ch=3 n=62 v=78
0 On ch=3 n=65 v=67
164 Off ch=3 n=62 v=0
0 Off ch=3 n=58 v=0
4 Off ch=3 n=46 v=0
24 Off ch=3 n=65 v=0
0 On ch=3 n=34 v=59
192 On ch=3 n=62 v=80
0 On ch=3 n=58 v=77
0 On ch=3 n=65 v=66
0 On ch=3 n=46 v=81
12 Off ch=3 n=34 v=0
156 Off ch=3 n=46 v=0
12 Off ch=3 n=58 v=0
12 On ch=3 n=34 v=73
20 Off ch=3 n=62 v=0
16 Off ch=3 n=65 v=0
116 Off ch=3 n=34 v=0
16 Par ch=3 c=64 v=0
24 On ch=3 n=53 v=86
0 On ch=3 n=60 v=77
0 On ch=3 n=57 v=73
0 On ch=3 n=65 v=68
16 Par ch=3 c=64 v=127
168 Off ch=3 n=60 v=0
4 Off ch=3 n=57 v=0
4 Off ch=3 n=65 v=0
0 On ch=3 n=41 v=69
4 Off ch=3 n=53 v=0
184 Off ch=3 n=41 v=0
4 On ch=3 n=60 v=74
0 On ch=3 n=53 v=81
0 On ch=3 n=65 v=68
0 On ch=3 n=57 v=73
164 Off ch=3 n=53 v=0
24 Off ch=3 n=60 v=0
4 On ch=3 n=41 v=75
8 Off ch=3 n=57 v=0
12 Off ch=3 n=65 v=0
164 Off ch=3 n=41 v=0
8 On ch=3 n=60 v=73
0 On ch=3 n=65 v=68
0 On ch=3 n=53 v=77
0 On ch=3 n=57 v=74
156 Off ch=3 n=53 v=0
8 Off ch=3 n=60 v=0
20 Off ch=3 n=57 v=0
8 On ch=3 n=41 v=61
4 Off ch=3 n=65 v=0
116 Off ch=3 n=41 v=0
72 On ch=3 n=60 v=77
0 On ch=3 n=65 v=73
0 On ch=3 n=53 v=78
0 On ch=3 n=57 v=73
184 Off ch=3 n=53 v=0
8 On ch=3 n=41 v=77
36 Off ch=3 n=60 v=0
12 Off ch=3 n=57 v=0
8 Off ch=3 n=65 v=0
80 Off ch=3 n=41 v=0
24 Par ch=3 c=64 v=0
36 On ch=3 n=53 v=90
0 On ch=3 n=60 v=80
0 On ch=3 n=65 v=78
0 On ch=3 n=57 v=80
84 Par ch=3 c=64 v=127
104 Off ch=3 n=53 v=0
0 On ch=3 n=41 v=71
24 Off ch=3 n=60 v=0
4 Off ch=3 n=65 v=0
8 Off ch=3 n=57 v=0
164 On ch=3 n=60 v=75
0 On ch=3 n=65 v=73
0 On ch=3 n=57 v=77
0 On ch=3 n=53 v=81
28 Off ch=3 n=41 v=0
128 Off ch=3 n=53 v=0
16 Off ch=3 n=60 v=0
16 Off ch=3 n=65 v=0
0 On ch=3 n=41 v=71
4 Off ch=3 n=57 v=0
188 On ch=3 n=60 v=77
0 On ch=3 n=65 v=71
0 On ch=3 n=57 v=77
0 On ch=3 n=53 v=84
4 Off ch=3 n=41 v=0
156 Off ch=3 n=53 v=0
4 Off ch=3 n=60 v=0
8 Off ch=3 n=65 v=0
4 Off ch=3 n=57 v=0
16 On ch=3 n=41 v=73
184 Off ch=3 n=41 v=0
8 On ch=3 n=60 v=78
0 On ch=3 n=65 v=75
0 On ch=3 n=57 v=78
0 On ch=3 n=53 v=83
172 Off ch=3 n=53 v=0
12 Off ch=3 n=60 v=0
8 On ch=3 n=41 v=76
8 Off ch=3 n=57 v=0
32 Off ch=3 n=65 v=0
36 Off ch=3 n=41 v=0
88 Par ch=3 c=64 v=0
24 On ch=3 n=51 v=86
0 On ch=3 n=55 v=86
0 On ch=3 n=63 v=72
0 On ch=3 n=58 v=77
108 Par ch=3 c=64 v=127
76 Off ch=3 n=58 v=0
4 Off ch=3 n=55 v=0
4 Off ch=3 n=63 v=0
0 Off ch=3 n=51 v=0
0 On ch=3 n=39 v=71
192 Off ch=3 n=39 v=0
0 On ch=3 n=58 v=78
0 On ch=3 n=63 v=71
0 On ch=3 n=55 v=74
0 On ch=3 n=51 v=83
168 Off ch=3 n=51 v=0
4 Off ch=3 n=58 v=0
4 Off ch=3 n=55 v=0
12 Off ch=3 n=63 v=0
4 On ch=3 n=39 v=64
188 Off ch=3 n=39 v=0
4 On ch=3 n=58 v=77
0 On ch=3 n=63 v=69
0 On ch=3 n=55 v=79
0 On ch=3 n=51 v=80
168 Off ch=3 n=51 v=0
8 Off ch=3 n=58 v=0
8 Off ch=3 n=55 v=0
0 Off ch=3 n=63 v=0
8 On ch=3 n=39 v=72
192 On ch=3 n=58 v=74
0 On ch=3 n=63 v=69
0 On ch=3 n=55 v=77
0 On ch=3 n=51 v=86
12 Off ch=3 n=39 v=0
164 Off ch=3 n=51 v=0
16 On ch=3 n=39 v=74
16 Off ch=3 n=63 v=0
16 Off ch=3 n=58 v=0
4 Off ch=3 n=55 v=0
128 Par ch=3 c=64 v=0
4 Off ch=3 n=39 v=0
24 On ch=3 n=58 v=77
0 On ch=3 n=46 v=83
0 On ch=3 n=65 v=69
0 On ch=3 n=62 v=76
76 Par ch=3 c=64 v=127
112 Off ch=3 n=62 v=0
0 Off ch=3 n=65 v=0
0 Off ch=3 n=58 v=0
4 On ch=3 n=34 v=64
4 Off ch=3 n=46 v=0
188 On ch=3 n=58 v=81
0 On ch=3 n=62 v=79
0 On ch=3 n=46 v=75
0 On ch=3 n=65 v=64
8 Off ch=3 n=34 v=0
172 Off ch=3 n=58 v=0
8 Off ch=3 n=65 v=0
0 Off ch=3 n=46 v=0
0 Off ch=3 n=62 v=0
4 On ch=3 n=34 v=67
192 Off ch=3 n=34 v=0
0 On ch=3 n=46 v=78
0 On ch=3 n=58 v=76
0 On ch=3 n=62 v=78
0 On ch=3 n=65 v=67
164 Off ch=3 n=62 v=0
0 Off ch=3 n=58 v=0
4 Off ch=3 n=46 v=0
24 Off ch=3 n=65 v=0
0 On ch=3 n=34 v=59
192 On ch=3 n=62 v=80
0 On ch=3 n=58 v=77
0 On ch=3 n=65 v=66
0 On ch=3 n=46 v=81
12 Off ch=3 n=34 v=0
156 Off ch=3 n=46 v=0
12 Off ch=3 n=58 v=0
12 On ch=3 n=34 v=73
20 Off ch=3 n=62 v=0
16 Off ch=3 n=65 v=0
116 Off ch=3 n=34 v=0
16 Par ch=3 c=64 v=0
24 On ch=3 n=53 v=86
0 On ch=3 n=60 v=77
0 On ch=3 n=57 v=73
0 On ch=3 n=65 v=68
16 Par ch=3 c=64 v=127
168 Off ch=3 n=60 v=0
4 Off ch=3 n=57 v=0
4 Off ch=3 n=65 v=0
0 On ch=3 n=41 v=69
4 Off ch=3 n=53 v=0
184 Off ch=3 n=41 v=0
4 On ch=3 n=60 v=74
0 On ch=3 n=53 v=81
0 On ch=3 n=65 v=68
0 On ch=3 n=57 v=73
164 Off ch=3 n=53 v=0
24 Off ch=3 n=60 v=0
4 On ch=3 n=41 v=75
8 Off ch=3 n=57 v=0
12 Off ch=3 n=65 v=0
164 Off ch=3 n=41 v=0
8 On ch=3 n=60 v=73
0 On ch=3 n=65 v=68
0 On ch=3 n=53 v=77
0 On ch=3 n=57 v=74
156 Off ch=3 n=53 v=0
8 Off ch=3 n=60 v=0
20 Off ch=3 n=57 v=0
8 On ch=3 n=41 v=61
4 Off ch=3 n=65 v=0
116 Off ch=3 n=41 v=0
72 On ch=3 n=60 v=77
0 On ch=3 n=65 v=73
0 On ch=3 n=53 v=78
0 On ch=3 n=57 v=73
184 Off ch=3 n=53 v=0
8 On ch=3 n=41 v=77
36 Off ch=3 n=60 v=0
12 Off ch=3 n=57 v=0
8 Off ch=3 n=65 v=0
80 Off ch=3 n=41 v=0
24 Par ch=3 c=64 v=0
36 On ch=3 n=53 v=90
0 On ch=3 n=60 v=80
0 On ch=3 n=65 v=78
0 On ch=3 n=57 v=80
84 Par ch=3 c=64 v=127
104 Off ch=3 n=53 v=0
0 On ch=3 n=41 v=71
24 Off ch=3 n=60 v=0
4 Off ch=3 n=65 v=0
8 Off ch=3 n=57 v=0
164 On ch=3 n=60 v=75
0 On ch=3 n=65 v=73
0 On ch=3 n=57 v=77
0 On ch=3 n=53 v=81
28 Off ch=3 n=41 v=0
128 Off ch=3 n=53 v=0
16 Off ch=3 n=60 v=0
16 Off ch=3 n=65 v=0
0 On ch=3 n=41 v=71
4 Off ch=3 n=57 v=0
188 On ch=3 n=60 v=77
0 On ch=3 n=65 v=71
0 On ch=3 n=57 v=77
0 On ch=3 n=53 v=84
4 Off ch=3 n=41 v=0
156 Off ch=3 n=53 v=0
4 Off ch=3 n=60 v=0
8 Off ch=3 n=65 v=0
4 Off ch=3 n=57 v=0
16 On ch=3 n=41 v=73
184 Off ch=3 n=41 v=0
8 On ch=3 n=60 v=78
0 On ch=3 n=65 v=75
0 On ch=3 n=57 v=78
0 On ch=3 n=53 v=83
172 Off ch=3 n=53 v=0
12 Off ch=3 n=60 v=0
8 On ch=3 n=41 v=76
8 Off ch=3 n=57 v=0
32 Off ch=3 n=65 v=0
36 Off ch=3 n=41 v=0
88 Par ch=3 c=64 v=0
24 On ch=3 n=51 v=86
0 On ch=3 n=55 v=86
0 On ch=3 n=63 v=72
0 On ch=3 n=58 v=77
108 Par ch=3 c=64 v=127
76 Off ch=3 n=58 v=0
4 Off ch=3 n=55 v=0
4 Off ch=3 n=63 v=0
0 Off ch=3 n=51 v=0
0 On ch=3 n=39 v=71
192 Off ch=3 n=39 v=0
0 On ch=3 n=58 v=78
0 On ch=3 n=63 v=71
0 On ch=3 n=55 v=74
0 On ch=3 n=51 v=83
168 Off ch=3 n=51 v=0
4 Off ch=3 n=58 v=0
4 Off ch=3 n=55 v=0
12 Off ch=3 n=63 v=0
4 On ch=3 n=39 v=64
188 Off ch=3 n=39 v=0
4 On ch=3 n=58 v=77
0 On ch=3 n=63 v=69
0 On ch=3 n=55 v=79
0 On ch=3 n=51 v=80
168 Off ch=3 n=51 v=0
8 Off ch=3 n=58 v=0
8 Off ch=3 n=55 v=0
0 Off ch=3 n=63 v=0
8 On ch=3 n=39 v=72
192 On ch=3 n=58 v=74
0 On ch=3 n=63 v=69
0 On ch=3 n=55 v=77
0 On ch=3 n=51 v=86
12 Off ch=3 n=39 v=0
164 Off ch=3 n=51 v=0
16 On ch=3 n=39 v=74
16 Off ch=3 n=63 v=0
16 Off ch=3 n=58 v=0
4 Off ch=3 n=55 v=0
128 Par ch=3 c=64 v=0
4 Off ch=3 n=39 v=0
24 On ch=3 n=58 v=77
0 On ch=3 n=46 v=83
0 On ch=3 n=65 v=69
0 On ch=3 n=62 v=76
76 Par ch=3 c=64 v=127
112 Off ch=3 n=62 v=0
0 Off ch=3 n=65 v=0
0 Off ch=3 n=58 v=0
4 On ch=3 n=34 v=64
4 Off ch=3 n=46 v=0
188 On ch=3 n=58 v=81
0 On ch=3 n=62 v=79
0 On ch=3 n=46 v=75
0 On ch=3 n=65 v=64
8 Off ch=3 n=34 v=0
172 Off ch=3 n=58 v=0
8 Off ch=3 n=65 v=0
0 Off ch=3 n=46 v=0
0 Off ch=3 n=62 v=0
4 On ch=3 n=34 v=67
192 Off ch=3 n=34 v=0
0 On ch=3 n=46 v=78
0 On ch=3 n=58 v=76
0 On ch=3 n=62 v=78
0 On ch=3 n=65 v=67
164 Off ch=3 n=62 v=0
0 Off ch=3 n=58 v=0
4 Off ch=3 n=46 v=0
24 Off ch=3 n=65 v=0
0 On ch=3 n=34 v=59
192 On ch=3 n=62 v=80
0 On ch=3 n=58 v=77
0 On ch=3 n=65 v=66
0 On ch=3 n=46 v=81
12 Off ch=3 n=34 v=0
156 Off ch=3 n=46 v=0
12 Off ch=3 n=58 v=0
12 On ch=3 n=34 v=73
20 Off ch=3 n=62 v=0
16 Off ch=3 n=65 v=0
116 Off ch=3 n=34 v=0
16 Par ch=3 c=64 v=0
24 On ch=3 n=53 v=86
0 On ch=3 n=60 v=77
0 On ch=3 n=57 v=73
0 On ch=3 n=65 v=68
16 Par ch=3 c=64 v=127
168 Off ch=3 n=60 v=0
4 Off ch=3 n=57 v=0
4 Off ch=3 n=65 v=0
0 On ch=3 n=41 v=69
4 Off ch=3 n=53 v=0
184 Off ch=3 n=41 v=0
4 On ch=3 n=60 v=74
0 On ch=3 n=53 v=81
0 On ch=3 n=65 v=68
0 On ch=3 n=57 v=73
164 Off ch=3 n=53 v=0
24 Off ch=3 n=60 v=0
4 On ch=3 n=41 v=75
8 Off ch=3 n=57 v=0
12 Off ch=3 n=65 v=0
164 Off ch=3 n=41 v=0
8 On ch=3 n=60 v=73
0 On ch=3 n=65 v=68
0 On ch=3 n=53 v=77
0 On ch=3 n=57 v=74
156 Off ch=3 n=53 v=0
8 Off ch=3 n=60 v=0
20 Off ch=3 n=57 v=0
8 On ch=3 n=41 v=61
4 Off ch=3 n=65 v=0
116 Off ch=3 n=41 v=0
72 On ch=3 n=60 v=77
0 On ch=3 n=65 v=73
0 On ch=3 n=53 v=78
0 On ch=3 n=57 v=73
184 Off ch=3 n=53 v=0
8 On ch=3 n=41 v=77
36 Off ch=3 n=60 v=0
12 Off ch=3 n=57 v=0
8 Off ch=3 n=65 v=0
80 Off ch=3 n=41 v=0
24 Par ch=3 c=64 v=0
36 On ch=3 n=53 v=90
0 On ch=3 n=60 v=80
0 On ch=3 n=65 v=78
0 On ch=3 n=57 v=80
84 Par ch=3 c=64 v=127
104 Off ch=3 n=53 v=0
0 On ch=3 n=41 v=71
24 Off ch=3 n=60 v=0
4 Off ch=3 n=65 v=0
8 Off ch=3 n=57 v=0
164 On ch=3 n=60 v=75
0 On ch=3 n=65 v=73
0 On ch=3 n=57 v=77
0 On ch=3 n=53 v=81
28 Off ch=3 n=41 v=0
128 Off ch=3 n=53 v=0
16 Off ch=3 n=60 v=0
16 Off ch=3 n=65 v=0
0 On ch=3 n=41 v=71
4 Off ch=3 n=57 v=0
188 On ch=3 n=60 v=77
0 On ch=3 n=65 v=71
0 On ch=3 n=57 v=77
0 On ch=3 n=53 v=84
4 Off ch=3 n=41 v=0
156 Off ch=3 n=53 v=0
4 Off ch=3 n=60 v=0
8 Off ch=3 n=65 v=0
4 Off ch=3 n=57 v=0
16 On ch=3 n=41 v=73
184 Off ch=3 n=41 v=0
8 On ch=3 n=60 v=78
0 On ch=3 n=65 v=75
0 On ch=3 n=57 v=78
0 On ch=3 n=53 v=83
172 Off ch=3 n=53 v=0
12 Off ch=3 n=60 v=0
8 On ch=3 n=41 v=76
8 Off ch=3 n=57 v=0
32 Off ch=3 n=65 v=0
36 Off ch=3 n=41 v=0
88 Par ch=3 c=64 v=0
24 On ch=3 n=51 v=86
0 On ch=3 n=55 v=86
0 On ch=3 n=63 v=72
0 On ch=3 n=58 v=77
108 Par ch=3 c=64 v=127
76 Off ch=3 n=58 v=0
4 Off ch=3 n=55 v=0
4 Off ch=3 n=63 v=0
0 Off ch=3 n=51 v=0
0 On ch=3 n=39 v=71
192 Off ch=3 n=39 v=0
0 On ch=3 n=58 v=78
0 On ch=3 n=63 v=71
0 On ch=3 n=55 v=74
0 On ch=3 n=51 v=83
168 Off ch=3 n=51 v=0
4 Off ch=3 n=58 v=0
4 Off ch=3 n=55 v=0
12 Off ch=3 n=63 v=0
4 On ch=3 n=39 v=64
188 Off ch=3 n=39 v=0
4 On ch=3 n=58 v=77
0 On ch=3 n=63 v=69
0 On ch=3 n=55 v=79
0 On ch=3 n=51 v=80
168 Off ch=3 n=51 v=0
8 Off ch=3 n=58 v=0
8 Off ch=3 n=55 v=0
0 Off ch=3 n=63 v=0
8 On ch=3 n=39 v=72
192 On ch=3 n=58 v=74
0 On ch=3 n=63 v=69
0 On ch=3 n=55 v=77
0 On ch=3 n=51 v=86
12 Off ch=3 n=39 v=0
164 Off ch=3 n=51 v=0
16 On ch=3 n=39 v=74
16 Off ch=3 n=63 v=0
16 Off ch=3 n=58 v=0
4 Off ch=3 n=55 v=0
128 Par ch=3 c=64 v=0
4 Off ch=3 n=39 v=0
24 On ch=3 n=58 v=77
0 On ch=3 n=46 v=83
0 On ch=3 n=65 v=69
0 On ch=3 n=62 v=76
76 Par ch=3 c=64 v=127
112 Off ch=3 n=62 v=0
0 Off ch=3 n=65 v=0
0 Off ch=3 n=58 v=0
4 On ch=3 n=34 v=64
4 Off ch=3 n=46 v=0
188 On ch=3 n=58 v=81
0 On ch=3 n=62 v=79
0 On ch=3 n=46 v=75
0 On ch=3 n=65 v=64
8 Off ch=3 n=34 v=0
172 Off ch=3 n=58 v=0
8 Off ch=3 n=65 v=0
0 Off ch=3 n=46 v=0
0 Off ch=3 n=62 v=0
4 On ch=3 n=34 v=67
192 Off ch=3 n=34 v=0
0 On ch=3 n=46 v=78
0 On ch=3 n=58 v=76
0 On ch=3 n=62 v=78
0 On ch=3 n=65 v=67
164 Off ch=3 n=62 v=0
0 Off ch=3 n=58 v=0
4 Off ch=3 n=46 v=0
24 Off ch=3 n=65 v=0
0 On ch=3 n=34 v=59
192 On ch=3 n=62 v=80
0 On ch=3 n=58 v=77
0 On ch=3 n=65 v=66
0 On ch=3 n=46 v=81
12 Off ch=3 n=34 v=0
156 Off ch=3 n=46 v=0
12 Off ch=3 n=58 v=0
12 On ch=3 n=34 v=73
20 Off ch=3 n=62 v=0
16 Off ch=3 n=65 v=0
116 Off ch=3 n=34 v=0
16 Par ch=3 c=64 v=0
24 On ch=3 n=53 v=86
0 On ch=3 n=60 v=77
0 On ch=3 n=57 v=73
0 On ch=3 n=65 v=68
16 Par ch=3 c=64 v=127
168 Off ch=3 n=60 v=0
4 Off ch=3 n=57 v=0
4 Off ch=3 n=65 v=0
0 On ch=3 n=41 v=69
4 Off ch=3 n=53 v=0
184 Off ch=3 n=41 v=0
4 On ch=3 n=60 v=74
0 On ch=3 n=53 v=81
0 On ch=3 n=65 v=68
0 On ch=3 n=57 v=73
164 Off ch=3 n=53 v=0
24 Off ch=3 n=60 v=0
4 On ch=3 n=41 v=75
8 Off ch=3 n=57 v=0
12 Off ch=3 n=65 v=0
164 Off ch=3 n=41 v=0
8 On ch=3 n=60 v=73
0 On ch=3 n=65 v=68
0 On ch=3 n=53 v=77
0 On ch=3 n=57 v=74
156 Off ch=3 n=53 v=0
8 Off ch=3 n=60 v=0
20 Off ch=3 n=57 v=0
8 On ch=3 n=41 v=61
4 Off ch=3 n=65 v=0
116 Off ch=3 n=41 v=0
72 On ch=3 n=60 v=72
0 On ch=3 n=65 v=72
0 On ch=3 n=53 v=72
0 On ch=3 n=57 v=72
184 Off ch=3 n=53 v=0
8 On ch=3 n=41 v=71
36 Off ch=3 n=60 v=0
12 Off ch=3 n=57 v=0
8 Off ch=3 n=65 v=0
80 Off ch=3 n=41 v=0
24 Par ch=3 c=64 v=0
36 On ch=3 n=53 v=71
0 On ch=3 n=60 v=71
0 On ch=3 n=65 v=71
0 On ch=3 n=57 v=71
84 Par ch=3 c=64 v=127
104 Off ch=3 n=53 v=0
0 On ch=3 n=41 v=70
24 Off ch=3 n=60 v=0
4 Off ch=3 n=65 v=0
8 Off ch=3 n=57 v=0
164 On ch=3 n=60 v=69
0 On ch=3 n=65 v=69
0 On ch=3 n=57 v=69
0 On ch=3 n=53 v=69
28 Off ch=3 n=41 v=0
128 Off ch=3 n=53 v=0
16 Off ch=3 n=60 v=0
16 Off ch=3 n=65 v=0
0 On ch=3 n=41 v=69
4 Off ch=3 n=57 v=0
188 On ch=3 n=60 v=68
0 On ch=3 n=65 v=68
0 On ch=3 n=57 v=68
0 On ch=3 n=53 v=68
4 Off ch=3 n=41 v=0
156 Off ch=3 n=53 v=0
4 Off ch=3 n=60 v=0
8 Off ch=3 n=65 v=0
4 Off ch=3 n=57 v=0
16 On ch=3 n=41 v=67
184 Off ch=3 n=41 v=0
8 On ch=3 n=60 v=66
0 On ch=3 n=65 v=66
0 On ch=3 n=57 v=66
0 On ch=3 n=53 v=66
172 Off ch=3 n=53 v=0
12 Off ch=3 n=60 v=0
8 On ch=3 n=41 v=66
8 Off ch=3 n=57 v=0
32 Off ch=3 n=65 v=0
36 Off ch=3 n=41 v=0
88 Par ch=3 c=64 v=0
24 On ch=3 n=51 v=65
0 On ch=3 n=55 v=65
0 On ch=3 n=63 v=65
0 On ch=3 n=58 v=65
108 Par ch=3 c=64 v=127
76 Off ch=3 n=58 v=0
4 Off ch=3 n=55 v=0
4 Off ch=3 n=63 v=0
0 Off ch=3 n=51 v=0
0 On ch=3 n=39 v=64
192 Off ch=3 n=39 v=0
0 On ch=3 n=58 v=63
0 On ch=3 n=63 v=63
0 On ch=3 n=55 v=63
0 On ch=3 n=51 v=63
168 Off ch=3 n=51 v=0
4 Off ch=3 n=58 v=0
4 Off ch=3 n=55 v=0
12 Off ch=3 n=63 v=0
4 On ch=3 n=39 v=63
188 Off ch=3 n=39 v=0
4 On ch=3 n=58 v=62
0 On ch=3 n=63 v=62
0 On ch=3 n=55 v=62
0 On ch=3 n=51 v=62
168 Off ch=3 n=51 v=0
8 Off ch=3 n=58 v=0
8 Off ch=3 n=55 v=0
0 Off ch=3 n=63 v=0
8 On ch=3 n=39 v=61
192 On ch=3 n=58 v=60
0 On ch=3 n=63 v=60
0 On ch=3 n=55 v=60
0 On ch=3 n=51 v=60
12 Off ch=3 n=39 v=0
164 Off ch=3 n=51 v=0
16 On ch=3 n=39 v=60
16 Off ch=3 n=63 v=0
16 Off ch=3 n=58 v=0
4 Off ch=3 n=55 v=0
128 Par ch=3 c=64 v=0
4 Off ch=3 n=39 v=0
24 On ch=3 n=58 v=59
0 On ch=3 n=46 v=59
0 On ch=3 n=65 v=59
0 On ch=3 n=62 v=59
76 Par ch=3 c=64 v=127
112 Off ch=3 n=62 v=0
0 Off ch=3 n=65 v=0
0 Off ch=3 n=58 v=0
4 On ch=3 n=34 v=58
4 Off ch=3 n=46 v=0
188 On ch=3 n=58 v=57
0 On ch=3 n=62 v=57
0 On ch=3 n=46 v=57
0 On ch=3 n=65 v=57
8 Off ch=3 n=34 v=0
172 Off ch=3 n=58 v=0
8 Off ch=3 n=65 v=0
0 Off ch=3 n=46 v=0
0 Off ch=3 n=62 v=0
4 On ch=3 n=34 v=57
192 Off ch=3 n=34 v=0
0 On ch=3 n=46 v=56
0 On ch=3 n=58 v=56
0 On ch=3 n=62 v=56
0 On ch=3 n=65 v=56
164 Off ch=3 n=62 v=0
0 Off ch=3 n=58 v=0
4 Off ch=3 n=46 v=0
24 Off ch=3 n=65 v=0
0 On ch=3 n=34 v=55
192 On ch=3 n=62 v=54
0 On ch=3 n=58 v=54
0 On ch=3 n=65 v=54
0 On ch=3 n=46 v=54
12 Off ch=3 n=34 v=0
156 Off ch=3 n=46 v=0
12 Off ch=3 n=58 v=0
12 On ch=3 n=34 v=54
20 Off ch=3 n=62 v=0
16 Off ch=3 n=65 v=0
116 Off ch=3 n=34 v=0
16 Par ch=3 c=64 v=0
24 On ch=3 n=53 v=53
0 On ch=3 n=60 v=53
0 On ch=3 n=57 v=53
0 On ch=3 n=65 v=53
16 Par ch=3 c=64 v=127
168 Off ch=3 n=60 v=0
4 Off ch=3 n=57 v=0
4 Off ch=3 n=65 v=0
0 On ch=3 n=41 v=52
4 Off ch=3 n=53 v=0
184 Off ch=3 n=41 v=0
4 On ch=3 n=60 v=51
0 On ch=3 n=53 v=51
0 On ch=3 n=65 v=51
0 On ch=3 n=57 v=51
164 Off ch=3 n=53 v=0
24 Off ch=3 n=60 v=0
4 On ch=3 n=41 v=51
8 Off ch=3 n=57 v=0
12 Off ch=3 n=65 v=0
164 Off ch=3 n=41 v=0
8 On ch=3 n=60 v=50
0 On ch=3 n=65 v=50
0 On ch=3 n=53 v=50
0 On ch=3 n=57 v=50
156 Off ch=3 n=53 v=0
8 Off ch=3 n=60 v=0
20 Off ch=3 n=57 v=0
8 On ch=3 n=41 v=49
4 Off ch=3 n=65 v=0
116 Off ch=3 n=41 v=0
72 On ch=3 n=60 v=48
0 On ch=3 n=65 v=48
0 On ch=3 n=53 v=48
0 On ch=3 n=57 v=48
184 Off ch=3 n=53 v=0
8 On ch=3 n=41 v=48
36 Off ch=3 n=60 v=0
12 Off ch=3 n=57 v=0
8 Off ch=3 n=65 v=0
80 Off ch=3 n=41 v=0
24 Par ch=3 c=64 v=0
36 On ch=3 n=53 v=47
0 On ch=3 n=60 v=47
0 On ch=3 n=65 v=47
0 On ch=3 n=57 v=47
84 Par ch=3 c=64 v=127
104 Off ch=3 n=53 v=0
0 On ch=3 n=41 v=46
24 Off ch=3 n=60 v=0
4 Off ch=3 n=65 v=0
8 Off ch=3 n=57 v=0
164 On ch=3 n=60 v=45
0 On ch=3 n=65 v=45
0 On ch=3 n=57 v=45
0 On ch=3 n=53 v=45
28 Off ch=3 n=41 v=0
128 Off ch=3 n=53 v=0
16 Off ch=3 n=60 v=0
16 Off ch=3 n=65 v=0
0 On ch=3 n=41 v=45
4 Off ch=3 n=57 v=0
188 On ch=3 n=60 v=44
0 On ch=3 n=65 v=44
0 On ch=3 n=57 v=44
0 On ch=3 n=53 v=44
4 Off ch=3 n=41 v=0
156 Off ch=3 n=53 v=0
4 Off ch=3 n=60 v=0
8 Off ch=3 n=65 v=0
4 Off ch=3 n=57 v=0
16 On ch=3 n=41 v=43
184 Off ch=3 n=41 v=0
8 On ch=3 n=60 v=43
0 On ch=3 n=65 v=43
0 On ch=3 n=57 v=43
0 On ch=3 n=53 v=43
172 Off ch=3 n=53 v=0
12 Off ch=3 n=60 v=0
8 On ch=3 n=41 v=42
8 Off ch=3 n=57 v=0
32 Off ch=3 n=65 v=0
36 Off ch=3 n=41 v=0
88 Par ch=3 c=64 v=0
24 On ch=3 n=51 v=41
0 On ch=3 n=55 v=41
0 On ch=3 n=63 v=41
0 On ch=3 n=58 v=41
108 Par ch=3 c=64 v=127
76 Off ch=3 n=58 v=0
4 Off ch=3 n=55 v=0
4 Off ch=3 n=63 v=0
0 Off ch=3 n=51 v=0
0 On ch=3 n=39 v=40
192 Off ch=3 n=39 v=0
0 On ch=3 n=58 v=40
0 On ch=3 n=63 v=40
0 On ch=3 n=55 v=40
0 On ch=3 n=51 v=40
168 Off ch=3 n=51 v=0
4 Off ch=3 n=58 v=0
4 Off ch=3 n=55 v=0
12 Off ch=3 n=63 v=0
4 On ch=3 n=39 v=39
188 Off ch=3 n=39 v=0
4 On ch=3 n=58 v=38
0 On ch=3 n=63 v=38
0 On ch=3 n=55 v=38
0 On ch=3 n=51 v=38
168 Off ch=3 n=51 v=0
8 Off ch=3 n=58 v=0
8 Off ch=3 n=55 v=0
0 Off ch=3 n=63 v=0
8 On ch=3 n=39 v=37
192 On ch=3 n=58 v=37
0 On ch=3 n=63 v=37
0 On ch=3 n=55 v=37
0 On ch=3 n=51 v=37
12 Off ch=3 n=39 v=0
164 Off ch=3 n=51 v=0
16 On ch=3 n=39 v=36
16 Off ch=3 n=63 v=0
16 Off ch=3 n=58 v=0
4 Off ch=3 n=55 v=0
128 Par ch=3 c=64 v=0
4 Off ch=3 n=39 v=0
24 On ch=3 n=58 v=35
0 On ch=3 n=46 v=35
0 On ch=3 n=65 v=35
0 On ch=3 n=62 v=35
76 Par ch=3 c=64 v=127
112 Off ch=3 n=62 v=0
0 Off ch=3 n=65 v=0
0 Off ch=3 n=58 v=0
4 On ch=3 n=34 v=34
4 Off ch=3 n=46 v=0
188 On ch=3 n=58 v=34
0 On ch=3 n=62 v=34
0 On ch=3 n=46 v=34
0 On ch=3 n=65 v=34
8 Off ch=3 n=34 v=0
172 Off ch=3 n=58 v=0
8 Off ch=3 n=65 v=0
0 Off ch=3 n=46 v=0
0 Off ch=3 n=62 v=0
4 On ch=3 n=34 v=33
192 Off ch=3 n=34 v=0
0 On ch=3 n=46 v=32
0 On ch=3 n=58 v=32
0 On ch=3 n=62 v=32
0 On ch=3 n=65 v=32
164 Off ch=3 n=62 v=0
0 Off ch=3 n=58 v=0
4 Off ch=3 n=46 v=0
24 Off ch=3 n=65 v=0
0 On ch=3 n=34 v=31
192 On ch=3 n=62 v=31
0 On ch=3 n=58 v=31
0 On ch=3 n=65 v=31
0 On ch=3 n=46 v=31
12 Off ch=3 n=34 v=0
156 Off ch=3 n=46 v=0
12 Off ch=3 n=58 v=0
12 On ch=3 n=34 v=30
20 Off ch=3 n=62 v=0
16 Off ch=3 n=65 v=0
116 Off ch=3 n=34 v=0
16 Par ch=3 c=64 v=0
24 On ch=3 n=53 v=29
0 On ch=3 n=60 v=29
0 On ch=3 n=57 v=29
0 On ch=3 n=65 v=29
16 Par ch=3 c=64 v=127
168 Off ch=3 n=60 v=0
4 Off ch=3 n=57 v=0
4 Off ch=3 n=65 v=0
0 On ch=3 n=41 v=28
4 Off ch=3 n=53 v=0
184 Off ch=3 n=41 v=0
4 On ch=3 n=60 v=28
0 On ch=3 n=53 v=28
0 On ch=3 n=65 v=28
0 On ch=3 n=57 v=28
164 Off ch=3 n=53 v=0
24 Off ch=3 n=60 v=0
4 On ch=3 n=41 v=27
8 Off ch=3 n=57 v=0
12 Off ch=3 n=65 v=0
164 Off ch=3 n=41 v=0
8 On ch=3 n=60 v=26
0 On ch=3 n=65 v=26
0 On ch=3 n=53 v=26
0 On ch=3 n=57 v=26
156 Off ch=3 n=53 v=0
8 Off ch=3 n=60 v=0
20 Off ch=3 n=57 v=0
8 On ch=3 n=41 v=25
4 Off ch=3 n=65 v=0
116 Off ch=3 n=41 v=0
72 On ch=3 n=60 v=25
0 On ch=3 n=65 v=25
0 On ch=3 n=53 v=25
0 On ch=3 n=57 v=25
184 Off ch=3 n=53 v=0
8 On ch=3 n=41 v=24
36 Off ch=3 n=60 v=0
12 Off ch=3 n=57 v=0
8 Off ch=3 n=65 v=0
80 Off ch=3 n=41 v=0
24 Par ch=3 c=64 v=0
36 On ch=3 n=53 v=23
0 On ch=3 n=60 v=23
0 On ch=3 n=65 v=23
0 On ch=3 n=57 v=23
84 Par ch=3 c=64 v=127
104 Off ch=3 n=53 v=0
0 On ch=3 n=41 v=23
24 Off ch=3 n=60 v=0
4 Off ch=3 n=65 v=0
8 Off ch=3 n=57 v=0
164 On ch=3 n=60 v=22
0 On ch=3 n=65 v=22
0 On ch=3 n=57 v=22
0 On ch=3 n=53 v=22
28 Off ch=3 n=41 v=0
128 Off ch=3 n=53 v=0
16 Off ch=3 n=60 v=0
16 Off ch=3 n=65 v=0
0 On ch=3 n=41 v=21
4 Off ch=3 n=57 v=0
188 On ch=3 n=60 v=20
0 On ch=3 n=65 v=20
0 On ch=3 n=57 v=20
0 On ch=3 n=53 v=20
4 Off ch=3 n=41 v=0
156 Off ch=3 n=53 v=0
4 Off ch=3 n=60 v=0
8 Off ch=3 n=65 v=0
4 Off ch=3 n=57 v=0
16 On ch=3 n=41 v=20
184 Off ch=3 n=41 v=0
8 On ch=3 n=60 v=19
0 On ch=3 n=65 v=19
0 On ch=3 n=57 v=19
0 On ch=3 n=53 v=19
172 Off ch=3 n=53 v=0
12 Off ch=3 n=60 v=0
8 On ch=3 n=41 v=18
8 Off ch=3 n=57 v=0
32 Off ch=3 n=65 v=0
36 Off ch=3 n=41 v=0
88 Par ch=3 c=64 v=0
24 On ch=3 n=51 v=17
0 On ch=3 n=55 v=17
0 On ch=3 n=63 v=17
0 On ch=3 n=58 v=17
108 Par ch=3 c=64 v=127
76 Off ch=3 n=58 v=0
4 Off ch=3 n=55 v=0
4 Off ch=3 n=63 v=0
0 Off ch=3 n=51 v=0
0 On ch=3 n=39 v=17
192 Off ch=3 n=39 v=0
0 On ch=3 n=58 v=16
0 On ch=3 n=63 v=16
0 On ch=3 n=55 v=16
0 On ch=3 n=51 v=16
168 Off ch=3 n=51 v=0
4 Off ch=3 n=58 v=0
4 Off ch=3 n=55 v=0
12 Off ch=3 n=63 v=0
4 On ch=3 n=39 v=15
188 Off ch=3 n=39 v=0
4 On ch=3 n=58 v=14
0 On ch=3 n=63 v=14
0 On ch=3 n=55 v=14
0 On ch=3 n=51 v=14
168 Off ch=3 n=51 v=0
8 Off ch=3 n=58 v=0
8 Off ch=3 n=55 v=0
0 Off ch=3 n=63 v=0
8 On ch=3 n=39 v=14
192 On ch=3 n=58 v=13
0 On ch=3 n=63 v=13
0 On ch=3 n=55 v=13
0 On ch=3 n=51 v=13
12 Off ch=3 n=39 v=0
164 Off ch=3 n=51 v=0
16 On ch=3 n=39 v=12
16 Off ch=3 n=63 v=0
16 Off ch=3 n=58 v=0
4 Off ch=3 n=55 v=0
128 Par ch=3 c=64 v=0
4 Off ch=3 n=39 v=0
24 On ch=3 n=58 v=11
0 On ch=3 n=46 v=11
0 On ch=3 n=65 v=11
0 On ch=3 n=62 v=11
76 Par ch=3 c=64 v=127
112 Off ch=3 n=62 v=0
0 Off ch=3 n=65 v=0
0 Off ch=3 n=58 v=0
4 On ch=3 n=34 v=11
4 Off ch=3 n=46 v=0
188 On ch=3 n=58 v=10
0 On ch=3 n=62 v=10
0 On ch=3 n=46 v=10
0 On ch=3 n=65 v=10
8 Off ch=3 n=34 v=0
172 Off ch=3 n=58 v=0
8 Off ch=3 n=65 v=0
0 Off ch=3 n=46 v=0
0 Off ch=3 n=62 v=0
4 On ch=3 n=34 v=9
192 Off ch=3 n=34 v=0
0 On ch=3 n=46 v=8
0 On ch=3 n=58 v=8
0 On ch=3 n=62 v=8
0 On ch=3 n=65 v=8
164 Off ch=3 n=62 v=0
0 Off ch=3 n=58 v=0
4 Off ch=3 n=46 v=0
24 Off ch=3 n=65 v=0
0 On ch=3 n=34 v=8
192 On ch=3 n=62 v=7
0 On ch=3 n=58 v=7
0 On ch=3 n=65 v=7
0 On ch=3 n=46 v=7
12 Off ch=3 n=34 v=0
156 Off ch=3 n=46 v=0
12 Off ch=3 n=58 v=0
12 On ch=3 n=34 v=6
20 Off ch=3 n=62 v=0
16 Off ch=3 n=65 v=0
116 Off ch=3 n=34 v=0
16 Par ch=3 c=64 v=0
24 On ch=3 n=53 v=5
0 On ch=3 n=60 v=5
0 On ch=3 n=57 v=5
0 On ch=3 n=65 v=5
16 Par ch=3 c=64 v=127
168 Off ch=3 n=60 v=0
4 Off ch=3 n=57 v=0
4 Off ch=3 n=65 v=0
0 On ch=3 n=41 v=5
4 Off ch=3 n=53 v=0
184 Off ch=3 n=41 v=0
4 On ch=3 n=60 v=4
0 On ch=3 n=53 v=4
0 On ch=3 n=65 v=4
0 On ch=3 n=57 v=4
164 Off ch=3 n=53 v=0
24 Off ch=3 n=60 v=0
4 On ch=3 n=41 v=3
8 Off ch=3 n=57 v=0
12 Off ch=3 n=65 v=0
164 Off ch=3 n=41 v=0
8 On ch=3 n=60 v=2
0 On ch=3 n=65 v=2
0 On ch=3 n=53 v=2
0 On ch=3 n=57 v=2
156 Off ch=3 n=53 v=0
8 Off ch=3 n=60 v=0
20 Off ch=3 n=57 v=0
8 On ch=3 n=41 v=2
4 Off ch=3 n=65 v=0
116 Off ch=3 n=41 v=0
72 On ch=3 n=60 v=1
0 On ch=3 n=65 v=1
0 On ch=3 n=53 v=1
0 On ch=3 n=57 v=1
184 Off ch=3 n=53 v=0
8 On ch=3 n=41 v=1
36 Off ch=3 n=60 v=0
12 Off ch=3 n=57 v=0
8 Off ch=3 n=65 v=0
80 Off ch=3 n=41 v=0
24 Par ch=3 c=64 v=0
32 Meta TrkEnd
TrkEnd
MTrk
TimestampType=Delta
0 Meta TrkName "BASS DRUM"
0 Par ch=10 c=7 v=125
0 PrCh ch=10 p=127
26112 On ch=10 n=36 v=69
96 Off ch=10 n=36 v=0
1440 On ch=10 n=36 v=80
96 Off ch=10 n=36 v=0
288 On ch=10 n=36 v=72
96 Off ch=10 n=36 v=0
288 On ch=10 n=36 v=87
96 Off ch=10 n=36 v=0
288 On ch=10 n=36 v=77
96 Off ch=10 n=36 v=0
288 On ch=10 n=36 v=80
96 Off ch=10 n=36 v=0
288 On ch=10 n=36 v=72
96 Off ch=10 n=36 v=0
288 On ch=10 n=36 v=87
96 Off ch=10 n=36 v=0
288 On ch=10 n=36 v=77
96 Off ch=10 n=36 v=0
288 On ch=10 n=36 v=80
96 Off ch=10 n=36 v=0
288 On ch=10 n=36 v=72
96 Off ch=10 n=36 v=0
288 On ch=10 n=36 v=87
96 Off ch=10 n=36 v=0
288 On ch=10 n=36 v=77
96 Off ch=10 n=36 v=0
288 On ch=10 n=36 v=80
96 Off ch=10 n=36 v=0
288 On ch=10 n=36 v=72
96 Off ch=10 n=36 v=0
288 On ch=10 n=36 v=50
96 Off ch=10 n=36 v=0
288 On ch=10 n=36 v=50
96 Off ch=10 n=36 v=0
288 On ch=10 n=36 v=87
96 Off ch=10 n=36 v=0
288 On ch=10 n=36 v=72
96 Off ch=10 n=36 v=0
288 On ch=10 n=36 v=82
96 Off ch=10 n=36 v=0
288 On ch=10 n=36 v=72
96 Off ch=10 n=36 v=0
288 On ch=10 n=36 v=80
96 Off ch=10 n=36 v=0
288 On ch=10 n=36 v=72
96 Off ch=10 n=36 v=0
288 On ch=10 n=36 v=87
96 Off ch=10 n=36 v=0
288 On ch=10 n=36 v=77
96 Off ch=10 n=36 v=0
288 On ch=10 n=36 v=80
96 Off ch=10 n=36 v=0
288 On ch=10 n=36 v=72
96 Off ch=10 n=36 v=0
288 On ch=10 n=36 v=87
96 Off ch=10 n=36 v=0
288 On ch=10 n=36 v=77
96 Off ch=10 n=36 v=0
288 On ch=10 n=36 v=80
96 Off ch=10 n=36 v=0
288 On ch=10 n=36 v=72
96 Off ch=10 n=36 v=0
288 On ch=10 n=36 v=87
96 Off ch=10 n=36 v=0
288 On ch=10 n=36 v=77
96 Off ch=10 n=36 v=0
288 On ch=10 n=36 v=80
96 Off ch=10 n=36 v=0
288 On ch=10 n=36 v=72
96 Off ch=10 n=36 v=0
288 On ch=10 n=36 v=76
96 Off ch=10 n=36 v=0
288 On ch=10 n=36 v=50
96 Off ch=10 n=36 v=0
288 On ch=10 n=36 v=88
96 Off ch=10 n=36 v=0
288 On ch=10 n=36 v=76
96 Off ch=10 n=36 v=0
288 On ch=10 n=36 v=88
96 Off ch=10 n=36 v=0
288 On ch=10 n=36 v=77
96 Off ch=10 n=36 v=0
288 On ch=10 n=36 v=81
96 Off ch=10 n=36 v=0
672 On ch=10 n=36 v=88
96 Off ch=10 n=36 v=0
1440 On ch=10 n=36 v=80
96 Off ch=10 n=36 v=0
288 On ch=10 n=36 v=72
96 Off ch=10 n=36 v=0
288 On ch=10 n=36 v=72
96 Off ch=10 n=36 v=0
96 On ch=10 n=36 v=52
96 Off ch=10 n=36 v=0
96 On ch=10 n=36 v=72
96 Off ch=10 n=36 v=0
96 On ch=10 n=36 v=50
96 Off ch=10 n=36 v=0
96 On ch=10 n=36 v=80
96 Off ch=10 n=36 v=0
288 On ch=10 n=36 v=72
96 Off ch=10 n=36 v=0
288 On ch=10 n=36 v=72
96 Off ch=10 n=36 v=0
96 On ch=10 n=36 v=52
96 Off ch=10 n=36 v=0
96 On ch=10 n=36 v=72
96 Off ch=10 n=36 v=0
96 On ch=10 n=36 v=50
96 Off ch=10 n=36 v=0
96 On ch=10 n=36 v=80
96 Off ch=10 n=36 v=0
288 On ch=10 n=36 v=72
96 Off ch=10 n=36 v=0
288 On ch=10 n=36 v=72
96 Off ch=10 n=36 v=0
96 On ch=10 n=36 v=52
96 Off ch=10 n=36 v=0
96 On ch=10 n=36 v=72
96 Off ch=10 n=36 v=0
96 On ch=10 n=36 v=50
96 Off ch=10 n=36 v=0
96 On ch=10 n=36 v=80
96 Off ch=10 n=36 v=0
288 On ch=10 n=36 v=72
96 Off ch=10 n=36 v=0
288 On ch=10 n=36 v=72
96 Off ch=10 n=36 v=0
288 On ch=10 n=36 v=72
96 Off ch=10 n=36 v=0
288 On ch=10 n=36 v=80
96 Off ch=10 n=36 v=0
288 On ch=10 n=36 v=72
96 Off ch=10 n=36 v=0
288 On ch=10 n=36 v=72
96 Off ch=10 n=36 v=0
288 On ch=10 n=36 v=72
96 Off ch=10 n=36 v=0
288 On ch=10 n=36 v=80
96 Off ch=10 n=36 v=0
96 On ch=10 n=36 v=50
96 Off ch=10 n=36 v=0
96 On ch=10 n=36 v=72
96 Off ch=10 n=36 v=0
96 On ch=10 n=36 v=50
96 Off ch=10 n=36 v=0
96 On ch=10 n=36 v=72
96 Off ch=10 n=36 v=0
288 On ch=10 n=36 v=72
96 Off ch=10 n=36 v=0
288 On ch=10 n=36 v=80
96 Off ch=10 n=36 v=0
96 On ch=10 n=36 v=61
96 Off ch=10 n=36 v=0
96 On ch=10 n=36 v=72
96 Off ch=10 n=36 v=0
288 On ch=10 n=36 v=72
96 Off ch=10 n=36 v=0
288 On ch=10 n=36 v=72
96 Off ch=10 n=36 v=0
288 On ch=10 n=36 v=80
96 Off ch=10 n=36 v=0
96 On ch=10 n=36 v=50
96 Off ch=10 n=36 v=0
96 On ch=10 n=36 v=72
96 Off ch=10 n=36 v=0
96 On ch=10 n=36 v=60
96 Off ch=10 n=36 v=0
96 On ch=10 n=36 v=72
96 Off ch=10 n=36 v=0
288 On ch=10 n=36 v=52
96 Off ch=10 n=36 v=0
96 On ch=10 n=36 v=30
96 Off ch=10 n=36 v=0
96 On ch=10 n=36 v=72
96 Off ch=10 n=36 v=0
288 On ch=10 n=36 v=60
96 Off ch=10 n=36 v=0
288 On ch=10 n=36 v=48
96 Off ch=10 n=36 v=0
288 On ch=10 n=36 v=44
96 Off ch=10 n=36 v=0
288 On ch=10 n=36 v=80
96 Off ch=10 n=36 v=0
288 On ch=10 n=36 v=72
96 Off ch=10 n=36 v=0
288 On ch=10 n=36 v=87
96 Off ch=10 n=36 v=0
288 On ch=10 n=36 v=77
96 Off ch=10 n=36 v=0
288 On ch=10 n=36 v=80
96 Off ch=10 n=36 v=0
288 On ch=10 n=36 v=72
96 Off ch=10 n=36 v=0
288 On ch=10 n=36 v=87
96 Off ch=10 n=36 v=0
288 On ch=10 n=36 v=77
96 Off ch=10 n=36 v=0
288 On ch=10 n=36 v=80
96 Off ch=10 n=36 v=0
288 On ch=10 n=36 v=72
96 Off ch=10 n=36 v=0
288 On ch=10 n=36 v=87
96 Off ch=10 n=36 v=0
288 On ch=10 n=36 v=77
96 Off ch=10 n=36 v=0
288 On ch=10 n=36 v=80
96 Off ch=10 n=36 v=0
288 On ch=10 n=36 v=72
96 Off ch=10 n=36 v=0
288 On ch=10 n=36 v=50
96 Off ch=10 n=36 v=0
288 On ch=10 n=36 v=50
96 Off ch=10 n=36 v=0
288 On ch=10 n=36 v=87
96 Off ch=10 n=36 v=0
288 On ch=10 n=36 v=72
96 Off ch=10 n=36 v=0
288 On ch=10 n=36 v=82
96 Off ch=10 n=36 v=0
288 On ch=10 n=36 v=72
96 Off ch=10 n=36 v=0
288 On ch=10 n=36 v=80
96 Off ch=10 n=36 v=0
288 On ch=10 n=36 v=72
96 Off ch=10 n=36 v=0
288 On ch=10 n=36 v=87
96 Off ch=10 n=36 v=0
288 On ch=10 n=36 v=77
96 Off ch=10 n=36 v=0
288 On ch=10 n=36 v=80
96 Off ch=10 n=36 v=0
288 On ch=10 n=36 v=72
96 Off ch=10 n=36 v=0
288 On ch=10 n=36 v=87
96 Off ch=10 n=36 v=0
288 On ch=10 n=36 v=77
96 Off ch=10 n=36 v=0
288 On ch=10 n=36 v=80
96 Off ch=10 n=36 v=0
288 On ch=10 n=36 v=72
96 Off ch=10 n=36 v=0
288 On ch=10 n=36 v=87
96 Off ch=10 n=36 v=0
288 On ch=10 n=36 v=77
96 Off ch=10 n=36 v=0
288 On ch=10 n=36 v=80
96 Off ch=10 n=36 v=0
288 On ch=10 n=36 v=72
96 Off ch=10 n=36 v=0
288 On ch=10 n=36 v=76
96 Off ch=10 n=36 v=0
288 On ch=10 n=36 v=50
96 Off ch=10 n=36 v=0
288 On ch=10 n=36 v=88
96 Off ch=10 n=36 v=0
288 On ch=10 n=36 v=76
96 Off ch=10 n=36 v=0
288 On ch=10 n=36 v=88
96 Off ch=10 n=36 v=0
288 On ch=10 n=36 v=77
96 Off ch=10 n=36 v=0
288 On ch=10 n=36 v=81
96 Off ch=10 n=36 v=0
672 On ch=10 n=36 v=88
96 Off ch=10 n=36 v=0
1440 On ch=10 n=36 v=80
96 Off ch=10 n=36 v=0
288 On ch=10 n=36 v=72
96 Off ch=10 n=36 v=0
288 On ch=10 n=36 v=72
96 Off ch=10 n=36 v=0
96 On ch=10 n=36 v=52
96 Off ch=10 n=36 v=0
96 On ch=10 n=36 v=72
96 Off ch=10 n=36 v=0
96 On ch=10 n=36 v=50
96 Off ch=10 n=36 v=0
96 On ch=10 n=36 v=80
96 Off ch=10 n=36 v=0
288 On ch=10 n=36 v=72
96 Off ch=10 n=36 v=0
288 On ch=10 n=36 v=72
96 Off ch=10 n=36 v=0
96 On ch=10 n=36 v=52
96 Off ch=10 n=36 v=0
96 On ch=10 n=36 v=72
96 Off ch=10 n=36 v=0
96 On ch=10 n=36 v=50
96 Off ch=10 n=36 v=0
96 On ch=10 n=36 v=80
96 Off ch=10 n=36 v=0
288 On ch=10 n=36 v=72
96 Off ch=10 n=36 v=0
288 On ch=10 n=36 v=72
96 Off ch=10 n=36 v=0
96 On ch=10 n=36 v=52
96 Off ch=10 n=36 v=0
96 On ch=10 n=36 v=72
96 Off ch=10 n=36 v=0
96 On ch=10 n=36 v=50
96 Off ch=10 n=36 v=0
96 On ch=10 n=36 v=80
96 Off ch=10 n=36 v=0
288 On ch=10 n=36 v=72
96 Off ch=10 n=36 v=0
288 On ch=10 n=36 v=72
96 Off ch=10 n=36 v=0
288 On ch=10 n=36 v=72
96 Off ch=10 n=36 v=0
288 On ch=10 n=36 v=80
96 Off ch=10 n=36 v=0
288 On ch=10 n=36 v=72
96 Off ch=10 n=36 v=0
288 On ch=10 n=36 v=72
96 Off ch=10 n=36 v=0
288 On ch=10 n=36 v=72
96 Off ch=10 n=36 v=0
288 On ch=10 n=36 v=80
96 Off ch=10 n=36 v=0
96 On ch=10 n=36 v=50
96 Off ch=10 n=36 v=0
96 On ch=10 n=36 v=72
96 Off ch=10 n=36 v=0
96 On ch=10 n=36 v=50
96 Off ch=10 n=36 v=0
96 On ch=10 n=36 v=72
96 Off ch=10 n=36 v=0
288 On ch=10 n=36 v=72
96 Off ch=10 n=36 v=0
288 On ch=10 n=36 v=80
96 Off ch=10 n=36 v=0
96 On ch=10 n=36 v=61
96 Off ch=10 n=36 v=0
96 On ch=10 n=36 v=72
96 Off ch=10 n=36 v=0
288 On ch=10 n=36 v=72
96 Off ch=10 n=36 v=0
288 On ch=10 n=36 v=72
96 Off ch=10 n=36 v=0
288 On ch=10 n=36 v=80
96 Off ch=10 n=36 v=0
96 On ch=10 n=36 v=44
96 Off ch=10 n=36 v=0
96 On ch=10 n=36 v=72
96 Off ch=10 n=36 v=0
96 On ch=10 n=36 v=40
96 Off ch=10 n=36 v=0
96 On ch=10 n=36 v=30
96 Off ch=10 n=36 v=0
288 On ch=10 n=36 v=30
96 Off ch=10 n=36 v=0
288 On ch=10 n=36 v=30
96 Off ch=10 n=36 v=0
288 On ch=10 n=36 v=30
96 Off ch=10 n=36 v=0
288 On ch=10 n=36 v=30
96 Off ch=10 n=36 v=0
672 On ch=10 n=36 v=80
96 Off ch=10 n=36 v=0
288 On ch=10 n=36 v=53
96 Off ch=10 n=36 v=0
288 On ch=10 n=36 v=88
96 Off ch=10 n=36 v=0
288 On ch=10 n=36 v=56
96 Off ch=10 n=36 v=0
288 On ch=10 n=36 v=80
96 Off ch=10 n=36 v=0
288 On ch=10 n=36 v=53
96 Off ch=10 n=36 v=0
288 On ch=10 n=36 v=88
96 Off ch=10 n=36 v=0
288 On ch=10 n=36 v=56
96 Off ch=10 n=36 v=0
288 On ch=10 n=36 v=80
96 Off ch=10 n=36 v=0
288 On ch=10 n=36 v=53
96 Off ch=10 n=36 v=0
288 On ch=10 n=36 v=88
96 Off ch=10 n=36 v=0
288 On ch=10 n=36 v=56
96 Off ch=10 n=36 v=0
288 On ch=10 n=36 v=80
96 Off ch=10 n=36 v=0
288 On ch=10 n=36 v=53
96 Off ch=10 n=36 v=0
288 On ch=10 n=36 v=88
96 Off ch=10 n=36 v=0
288 On ch=10 n=36 v=56
96 Off ch=10 n=36 v=0
288 On ch=10 n=36 v=80
96 Off ch=10 n=36 v=0
288 On ch=10 n=36 v=53
96 Off ch=10 n=36 v=0
288 On ch=10 n=36 v=88
96 Off ch=10 n=36 v=0
288 On ch=10 n=36 v=56
96 Off ch=10 n=36 v=0
288 On ch=10 n=36 v=80
96 Off ch=10 n=36 v=0
288 On ch=10 n=36 v=53
96 Off ch=10 n=36 v=0
288 On ch=10 n=36 v=88
96 Off ch=10 n=36 v=0
288 On ch=10 n=36 v=56
96 Off ch=10 n=36 v=0
288 On ch=10 n=36 v=80
96 Off ch=10 n=36 v=0
288 On ch=10 n=36 v=53
96 Off ch=10 n=36 v=0
288 On ch=10 n=36 v=88
96 Off ch=10 n=36 v=0
288 On ch=10 n=36 v=56
96 Off ch=10 n=36 v=0
288 On ch=10 n=36 v=80
96 Off ch=10 n=36 v=0
288 On ch=10 n=36 v=53
96 Off ch=10 n=36 v=0
288 On ch=10 n=36 v=88
96 Off ch=10 n=36 v=0
288 On ch=10 n=36 v=56
96 Off ch=10 n=36 v=0
288 On ch=10 n=36 v=80
96 Off ch=10 n=36 v=0
288 On ch=10 n=36 v=53
96 Off ch=10 n=36 v=0
288 On ch=10 n=36 v=88
96 Off ch=10 n=36 v=0
288 On ch=10 n=36 v=56
96 Off ch=10 n=36 v=0
288 On ch=10 n=36 v=80
96 Off ch=10 n=36 v=0
288 On ch=10 n=36 v=53
96 Off ch=10 n=36 v=0
288 On ch=10 n=36 v=88
96 Off ch=10 n=36 v=0
288 On ch=10 n=36 v=56
96 Off ch=10 n=36 v=0
288 On ch=10 n=36 v=80
96 Off ch=10 n=36 v=0
288 On ch=10 n=36 v=53
96 Off ch=10 n=36 v=0
288 On ch=10 n=36 v=88
96 Off ch=10 n=36 v=0
288 On ch=10 n=36 v=56
96 Off ch=10 n=36 v=0
288 On ch=10 n=36 v=80
96 Off ch=10 n=36 v=0
288 On ch=10 n=36 v=53
96 Off ch=10 n=36 v=0
288 On ch=10 n=36 v=88
96 Off ch=10 n=36 v=0
288 On ch=10 n=36 v=56
96 Off ch=10 n=36 v=0
288 On ch=10 n=36 v=80
96 Off ch=10 n=36 v=0
288 On ch=10 n=36 v=53
96 Off ch=10 n=36 v=0
288 On ch=10 n=36 v=88
96 Off ch=10 n=36 v=0
288 On ch=10 n=36 v=56
96 Off ch=10 n=36 v=0
288 On ch=10 n=36 v=80
96 Off ch=10 n=36 v=0
288 On ch=10 n=36 v=53
96 Off ch=10 n=36 v=0
288 On ch=10 n=36 v=88
96 Off ch=10 n=36 v=0
288 On ch=10 n=36 v=56
96 Off ch=10 n=36 v=0
288 On ch=10 n=36 v=80
96 Off ch=10 n=36 v=0
288 On ch=10 n=36 v=53
96 Off ch=10 n=36 v=0
288 On ch=10 n=36 v=88
96 Off ch=10 n=36 v=0
288 On ch=10 n=36 v=56
96 Off ch=10 n=36 v=0
288 On ch=10 n=36 v=75
96 Off ch=10 n=36 v=0
288 On ch=10 n=36 v=74
96 Off ch=10 n=36 v=0
288 On ch=10 n=36 v=72
96 Off ch=10 n=36 v=0
288 On ch=10 n=36 v=71
96 Off ch=10 n=36 v=0
288 On ch=10 n=36 v=69
96 Off ch=10 n=36 v=0
288 On ch=10 n=36 v=68
96 Off ch=10 n=36 v=0
288 On ch=10 n=36 v=66
96 Off ch=10 n=36 v=0
288 On ch=10 n=36 v=65
96 Off ch=10 n=36 v=0
288 On ch=10 n=36 v=63
96 Off ch=10 n=36 v=0
288 On ch=10 n=36 v=62
96 Off ch=10 n=36 v=0
288 On ch=10 n=36 v=60
96 Off ch=10 n=36 v=0
288 On ch=10 n=36 v=59
96 Off ch=10 n=36 v=0
288 On ch=10 n=36 v=58
96 Off ch=10 n=36 v=0
288 On ch=10 n=36 v=56
96 Off ch=10 n=36 v=0
288 On ch=10 n=36 v=55
96 Off ch=10 n=36 v=0
288 On ch=10 n=36 v=53
96 Off ch=10 n=36 v=0
288 On ch=10 n=36 v=52
96 Off ch=10 n=36 v=0
288 On ch=10 n=36 v=50
96 Off ch=10 n=36 v=0
288 On ch=10 n=36 v=49
96 Off ch=10 n=36 v=0
288 On ch=10 n=36 v=47
96 Off ch=10 n=36 v=0
288 On ch=10 n=36 v=46
96 Off ch=10 n=36 v=0
288 On ch=10 n=36 v=44
96 Off ch=10 n=36 v=0
288 On ch=10 n=36 v=43
96 Off ch=10 n=36 v=0
288 On ch=10 n=36 v=41
96 Off ch=10 n=36 v=0
288 On ch=10 n=36 v=40
96 Off ch=10 n=36 v=0
288 On ch=10 n=36 v=38
96 Off ch=10 n=36 v=0
288 On ch=10 n=36 v=37
96 Off ch=10 n=36 v=0
288 On ch=10 n=36 v=35
96 Off ch=10 n=36 v=0
288 On ch=10 n=36 v=34
96 Off ch=10 n=36 v=0
288 On ch=10 n=36 v=33
96 Off ch=10 n=36 v=0
288 On ch=10 n=36 v=31
96 Off ch=10 n=36 v=0
288 On ch=10 n=36 v=30
96 Off ch=10 n=36 v=0
288 On ch=10 n=36 v=28
96 Off ch=10 n=36 v=0
288 On ch=10 n=36 v=27
96 Off ch=10 n=36 v=0
288 On ch=10 n=36 v=25
96 Off ch=10 n=36 v=0
288 On ch=10 n=36 v=24
96 Off ch=10 n=36 v=0
288 On ch=10 n=36 v=22
96 Off ch=10 n=36 v=0
288 On ch=10 n=36 v=21
96 Off ch=10 n=36 v=0
288 On ch=10 n=36 v=19
96 Off ch=10 n=36 v=0
288 On ch=10 n=36 v=18
96 Off ch=10 n=36 v=0
288 On ch=10 n=36 v=16
96 Off ch=10 n=36 v=0
288 On ch=10 n=36 v=15
96 Off ch=10 n=36 v=0
288 On ch=10 n=36 v=13
96 Off ch=10 n=36 v=0
288 On ch=10 n=36 v=12
96 Off ch=10 n=36 v=0
288 On ch=10 n=36 v=11
96 Off ch=10 n=36 v=0
288 On ch=10 n=36 v=9
96 Off ch=10 n=36 v=0
288 On ch=10 n=36 v=8
96 Off ch=10 n=36 v=0
288 On ch=10 n=36 v=6
96 Off ch=10 n=36 v=0
288 On ch=10 n=36 v=5
96 Off ch=10 n=36 v=0
288 On ch=10 n=36 v=3
96 Off ch=10 n=36 v=0
288 On ch=10 n=36 v=2
96 Off ch=10 n=36 v=0
288 On ch=10 n=36 v=1
96 Off ch=10 n=36 v=0
288 Meta TrkEnd
TrkEnd
MTrk
TimestampType=Delta
0 Meta TrkName "SNARE DRUM"
26496 On ch=10 n=38 v=56
96 Off ch=10 n=38 v=0
864 On ch=10 n=38 v=48
96 Off ch=10 n=38 v=0
480 On ch=10 n=38 v=72
96 Off ch=10 n=38 v=0
672 On ch=10 n=38 v=72
96 Off ch=10 n=38 v=0
672 On ch=10 n=38 v=72
96 Off ch=10 n=38 v=0
672 On ch=10 n=38 v=72
96 Off ch=10 n=38 v=0
672 On ch=10 n=38 v=72
96 Off ch=10 n=38 v=0
672 On ch=10 n=38 v=72
96 Off ch=10 n=38 v=0
672 On ch=10 n=38 v=72
96 Off ch=10 n=38 v=0
480 On ch=10 n=38 v=40
96 Off ch=10 n=38 v=0
96 On ch=10 n=38 v=76
96 Off ch=10 n=38 v=0
48 On ch=10 n=38 v=48
48 Off ch=10 n=38 v=0
0 On ch=10 n=38 v=84
48 Off ch=10 n=38 v=0
528 On ch=10 n=38 v=72
96 Off ch=10 n=38 v=0
672 On ch=10 n=38 v=72
96 Off ch=10 n=38 v=0
672 On ch=10 n=38 v=72
96 Off ch=10 n=38 v=0
672 On ch=10 n=38 v=72
96 Off ch=10 n=38 v=0
672 On ch=10 n=38 v=72
96 Off ch=10 n=38 v=0
672 On ch=10 n=38 v=72
96 Off ch=10 n=38 v=0
672 On ch=10 n=38 v=72
96 Off ch=10 n=38 v=0
672 On ch=10 n=38 v=72
96 Off ch=10 n=38 v=0
672 On ch=10 n=38 v=72
96 Off ch=10 n=38 v=0
480 On ch=10 n=38 v=40
96 Off ch=10 n=38 v=0
864 On ch=10 n=38 v=72
96 Off ch=10 n=38 v=0
672 On ch=10 n=38 v=72
96 Off ch=10 n=38 v=0
2016 On ch=10 n=38 v=32
96 Off ch=10 n=38 v=0
864 On ch=10 n=38 v=48
96 Off ch=10 n=38 v=0
672 On ch=10 n=38 v=50
96 Off ch=10 n=38 v=0
672 On ch=10 n=38 v=48
96 Off ch=10 n=38 v=0
672 On ch=10 n=38 v=50
96 Off ch=10 n=38 v=0
672 On ch=10 n=38 v=48
96 Off ch=10 n=38 v=0
672 On ch=10 n=38 v=50
96 Off ch=10 n=38 v=0
672 On ch=10 n=38 v=48
96 Off ch=10 n=38 v=0
288 On ch=10 n=38 v=30
64 Off ch=10 n=38 v=0
0 On ch=10 n=38 v=30
32 Off ch=10 n=38 v=0
32 On ch=10 n=38 v=30
32 Off ch=10 n=38 v=0
32 On ch=10 n=38 v=30
32 Off ch=10 n=38 v=0
928 On ch=10 n=38 v=48
96 Off ch=10 n=38 v=0
672 On ch=10 n=38 v=50
96 Off ch=10 n=38 v=0
672 On ch=10 n=38 v=48
96 Off ch=10 n=38 v=0
672 On ch=10 n=38 v=50
96 Off ch=10 n=38 v=0
672 On ch=10 n=38 v=48
96 Off ch=10 n=38 v=0
672 On ch=10 n=38 v=50
96 Off ch=10 n=38 v=0
672 On ch=10 n=38 v=48
96 Off ch=10 n=38 v=0
1440 On ch=10 n=38 v=56
96 Off ch=10 n=38 v=0
1440 On ch=10 n=38 v=72
96 Off ch=10 n=38 v=0
672 On ch=10 n=38 v=72
96 Off ch=10 n=38 v=0
672 On ch=10 n=38 v=72
96 Off ch=10 n=38 v=0
672 On ch=10 n=38 v=72
96 Off ch=10 n=38 v=0
672 On ch=10 n=38 v=72
96 Off ch=10 n=38 v=0
672 On ch=10 n=38 v=72
96 Off ch=10 n=38 v=0
672 On ch=10 n=38 v=72
96 Off ch=10 n=38 v=0
480 On ch=10 n=38 v=30
96 Off ch=10 n=38 v=0
96 On ch=10 n=38 v=30
96 Off ch=10 n=38 v=0
96 On ch=10 n=38 v=30
96 Off ch=10 n=38 v=0
480 On ch=10 n=38 v=72
96 Off ch=10 n=38 v=0
672 On ch=10 n=38 v=72
96 Off ch=10 n=38 v=0
672 On ch=10 n=38 v=72
96 Off ch=10 n=38 v=0
672 On ch=10 n=38 v=72
96 Off ch=10 n=38 v=0
672 On ch=10 n=38 v=72
96 Off ch=10 n=38 v=0
672 On ch=10 n=38 v=72
96 Off ch=10 n=38 v=0
672 On ch=10 n=38 v=72
96 Off ch=10 n=38 v=0
672 On ch=10 n=38 v=72
96 Off ch=10 n=38 v=0
672 On ch=10 n=38 v=72
96 Off ch=10 n=38 v=0
480 On ch=10 n=38 v=40
96 Off ch=10 n=38 v=0
864 On ch=10 n=38 v=72
96 Off ch=10 n=38 v=0
672 On ch=10 n=38 v=72
96 Off ch=10 n=38 v=0
2976 On ch=10 n=38 v=48
96 Off ch=10 n=38 v=0
672 On ch=10 n=38 v=50
96 Off ch=10 n=38 v=0
672 On ch=10 n=38 v=48
96 Off ch=10 n=38 v=0
672 On ch=10 n=38 v=50
96 Off ch=10 n=38 v=0
672 On ch=10 n=38 v=48
96 Off ch=10 n=38 v=0
672 On ch=10 n=38 v=50
96 Off ch=10 n=38 v=0
672 On ch=10 n=38 v=48
96 Off ch=10 n=38 v=0
288 On ch=10 n=38 v=30
64 Off ch=10 n=38 v=0
0 On ch=10 n=38 v=30
32 Off ch=10 n=38 v=0
32 On ch=10 n=38 v=30
32 Off ch=10 n=38 v=0
32 On ch=10 n=38 v=30
32 Off ch=10 n=38 v=0
928 On ch=10 n=38 v=48
96 Off ch=10 n=38 v=0
672 On ch=10 n=38 v=50
96 Off ch=10 n=38 v=0
672 On ch=10 n=38 v=48
96 Off ch=10 n=38 v=0
672 On ch=10 n=38 v=50
96 Off ch=10 n=38 v=0
672 On ch=10 n=38 v=48
96 Off ch=10 n=38 v=0
672 On ch=10 n=38 v=50
96 Off ch=10 n=38 v=0
672 On ch=10 n=38 v=48
96 Off ch=10 n=38 v=0
2976 On ch=10 n=38 v=62
96 Off ch=10 n=38 v=0
672 On ch=10 n=38 v=56
96 Off ch=10 n=38 v=0
672 On ch=10 n=38 v=62
96 Off ch=10 n=38 v=0
672 On ch=10 n=38 v=56
96 Off ch=10 n=38 v=0
672 On ch=10 n=38 v=62
96 Off ch=10 n=38 v=0
672 On ch=10 n=38 v=56
96 Off ch=10 n=38 v=0
672 On ch=10 n=38 v=62
96 Off ch=10 n=38 v=0
480 On ch=10 n=38 v=67
96 Off ch=10 n=38 v=0
96 On ch=10 n=38 v=58
96 Off ch=10 n=38 v=0
0 On ch=10 n=38 v=56
96 Off ch=10 n=38 v=0
0 On ch=10 n=38 v=58
96 Off ch=10 n=38 v=0
480 On ch=10 n=38 v=62
96 Off ch=10 n=38 v=0
672 On ch=10 n=38 v=56
96 Off ch=10 n=38 v=0
672 On ch=10 n=38 v=62
96 Off ch=10 n=38 v=0
672 On ch=10 n=38 v=56
96 Off ch=10 n=38 v=0
672 On ch=10 n=38 v=62
96 Off ch=10 n=38 v=0
672 On ch=10 n=38 v=56
96 Off ch=10 n=38 v=0
672 On ch=10 n=38 v=62
96 Off ch=10 n=38 v=0
480 On ch=10 n=38 v=67
96 Off ch=10 n=38 v=0
96 On ch=10 n=38 v=58
96 Off ch=10 n=38 v=0
0 On ch=10 n=38 v=56
96 Off ch=10 n=38 v=0
0 On ch=10 n=38 v=58
96 Off ch=10 n=38 v=0
480 On ch=10 n=38 v=62
96 Off ch=10 n=38 v=0
672 On ch=10 n=38 v=56
96 Off ch=10 n=38 v=0
672 On ch=10 n=38 v=62
96 Off ch=10 n=38 v=0
672 On ch=10 n=38 v=56
96 Off ch=10 n=38 v=0
672 On ch=10 n=38 v=62
96 Off ch=10 n=38 v=0
672 On ch=10 n=38 v=56
96 Off ch=10 n=38 v=0
672 On ch=10 n=38 v=62
96 Off ch=10 n=38 v=0
480 On ch=10 n=38 v=67
96 Off ch=10 n=38 v=0
96 On ch=10 n=38 v=58
96 Off ch=10 n=38 v=0
0 On ch=10 n=38 v=56
96 Off ch=10 n=38 v=0
0 On ch=10 n=38 v=58
96 Off ch=10 n=38 v=0
480 On ch=10 n=38 v=62
96 Off ch=10 n=38 v=0
672 On ch=10 n=38 v=56
96 Off ch=10 n=38 v=0
672 On ch=10 n=38 v=62
96 Off ch=10 n=38 v=0
672 On ch=10 n=38 v=56
96 Off ch=10 n=38 v=0
672 On ch=10 n=38 v=62
96 Off ch=10 n=38 v=0
672 On ch=10 n=38 v=56
96 Off ch=10 n=38 v=0
672 On ch=10 n=38 v=62
96 Off ch=10 n=38 v=0
480 On ch=10 n=38 v=61
96 Off ch=10 n=38 v=0
96 On ch=10 n=38 v=60
96 Off ch=10 n=38 v=0
0 On ch=10 n=38 v=60
96 Off ch=10 n=38 v=0
0 On ch=10 n=38 v=59
96 Off ch=10 n=38 v=0
480 On ch=10 n=38 v=58
96 Off ch=10 n=38 v=0
672 On ch=10 n=38 v=55
96 Off ch=10 n=38 v=0
672 On ch=10 n=38 v=53
96 Off ch=10 n=38 v=0
672 On ch=10 n=38 v=50
96 Off ch=10 n=38 v=0
672 On ch=10 n=38 v=48
96 Off ch=10 n=38 v=0
672 On ch=10 n=38 v=45
96 Off ch=10 n=38 v=0
672 On ch=10 n=38 v=43
96 Off ch=10 n=38 v=0
480 On ch=10 n=38 v=41
96 Off ch=10 n=38 v=0
96 On ch=10 n=38 v=40
96 Off ch=10 n=38 v=0
0 On ch=10 n=38 v=40
96 Off ch=10 n=38 v=0
0 On ch=10 n=38 v=40
96 Off ch=10 n=38 v=0
480 On ch=10 n=38 v=38
96 Off ch=10 n=38 v=0
672 On ch=10 n=38 v=35
96 Off ch=10 n=38 v=0
672 On ch=10 n=38 v=33
96 Off ch=10 n=38 v=0
672 On ch=10 n=38 v=31
96 Off ch=10 n=38 v=0
672 On ch=10 n=38 v=28
96 Off ch=10 n=38 v=0
672 On ch=10 n=38 v=26
96 Off ch=10 n=38 v=0
672 On ch=10 n=38 v=23
96 Off ch=10 n=38 v=0
480 On ch=10 n=38 v=21
96 Off ch=10 n=38 v=0
96 On ch=10 n=38 v=21
96 Off ch=10 n=38 v=0
0 On ch=10 n=38 v=20
96 Off ch=10 n=38 v=0
0 On ch=10 n=38 v=20
96 Off ch=10 n=38 v=0
480 On ch=10 n=38 v=18
96 Off ch=10 n=38 v=0
672 On ch=10 n=38 v=16
96 Off ch=10 n=38 v=0
672 On ch=10 n=38 v=13
96 Off ch=10 n=38 v=0
672 On ch=10 n=38 v=11
96 Off ch=10 n=38 v=0
672 On ch=10 n=38 v=8
96 Off ch=10 n=38 v=0
672 On ch=10 n=38 v=6
96 Off ch=10 n=38 v=0
672 On ch=10 n=38 v=3
96 Off ch=10 n=38 v=0
480 On ch=10 n=38 v=2
96 Off ch=10 n=38 v=0
96 On ch=10 n=38 v=1
96 Off ch=10 n=38 v=0
0 On ch=10 n=38 v=1
96 Off ch=10 n=38 v=0
0 On ch=10 n=38 v=1
96 Off ch=10 n=38 v=0
96 Meta TrkEnd
TrkEnd
MTrk
TimestampType=Delta
0 Meta TrkName "CLOSED H.H"
45312 On ch=10 n=42 v=50
96 Off ch=10 n=42 v=0
96 On ch=10 n=42 v=50
96 Off ch=10 n=42 v=0
96 On ch=10 n=42 v=50
96 Off ch=10 n=42 v=0
96 On ch=10 n=42 v=50
96 Off ch=10 n=42 v=0
96 On ch=10 n=42 v=50
96 Off ch=10 n=42 v=0
96 On ch=10 n=42 v=50
96 Off ch=10 n=42 v=0
96 On ch=10 n=42 v=50
96 Off ch=10 n=42 v=0
96 On ch=10 n=42 v=50
96 Off ch=10 n=42 v=0
96 On ch=10 n=42 v=50
96 Off ch=10 n=42 v=0
96 On ch=10 n=42 v=50
96 Off ch=10 n=42 v=0
96 On ch=10 n=42 v=50
96 Off ch=10 n=42 v=0
96 On ch=10 n=42 v=50
96 Off ch=10 n=42 v=0
96 On ch=10 n=42 v=50
96 Off ch=10 n=42 v=0
96 On ch=10 n=42 v=50
96 Off ch=10 n=42 v=0
96 On ch=10 n=42 v=50
96 Off ch=10 n=42 v=0
96 On ch=10 n=42 v=50
96 Off ch=10 n=42 v=0
96 On ch=10 n=42 v=50
96 Off ch=10 n=42 v=0
96 On ch=10 n=42 v=50
96 Off ch=10 n=42 v=0
96 On ch=10 n=42 v=50
96 Off ch=10 n=42 v=0
96 On ch=10 n=42 v=50
96 Off ch=10 n=42 v=0
96 On ch=10 n=42 v=50
96 Off ch=10 n=42 v=0
96 On ch=10 n=42 v=50
96 Off ch=10 n=42 v=0
96 On ch=10 n=42 v=50
96 Off ch=10 n=42 v=0
96 On ch=10 n=42 v=50
96 Off ch=10 n=42 v=0
96 On ch=10 n=42 v=50
96 Off ch=10 n=42 v=0
96 On ch=10 n=42 v=50
96 Off ch=10 n=42 v=0
96 On ch=10 n=42 v=50
96 Off ch=10 n=42 v=0
96 On ch=10 n=46 v=30
96 Off ch=10 n=46 v=0
864 On ch=10 n=42 v=50
96 Off ch=10 n=42 v=0
96 On ch=10 n=42 v=50
96 Off ch=10 n=42 v=0
96 On ch=10 n=42 v=50
96 Off ch=10 n=42 v=0
96 On ch=10 n=42 v=50
96 Off ch=10 n=42 v=0
96 On ch=10 n=42 v=50
96 Off ch=10 n=42 v=0
96 On ch=10 n=42 v=50
96 Off ch=10 n=42 v=0
96 On ch=10 n=42 v=50
96 Off ch=10 n=42 v=0
96 On ch=10 n=42 v=50
96 Off ch=10 n=42 v=0
96 On ch=10 n=42 v=50
96 Off ch=10 n=42 v=0
96 On ch=10 n=42 v=50
96 Off ch=10 n=42 v=0
96 On ch=10 n=42 v=50
96 Off ch=10 n=42 v=0
96 On ch=10 n=42 v=50
96 Off ch=10 n=42 v=0
96 On ch=10 n=42 v=50
96 Off ch=10 n=42 v=0
96 On ch=10 n=42 v=50
96 Off ch=10 n=42 v=0
96 On ch=10 n=42 v=50
96 Off ch=10 n=42 v=0
96 On ch=10 n=42 v=50
96 Off ch=10 n=42 v=0
96 On ch=10 n=42 v=50
96 Off ch=10 n=42 v=0
96 On ch=10 n=42 v=50
96 Off ch=10 n=42 v=0
96 On ch=10 n=42 v=50
96 Off ch=10 n=42 v=0
96 On ch=10 n=42 v=50
96 Off ch=10 n=42 v=0
96 On ch=10 n=42 v=50
96 Off ch=10 n=42 v=0
96 On ch=10 n=42 v=50
96 Off ch=10 n=42 v=0
96 On ch=10 n=42 v=50
96 Off ch=10 n=42 v=0
96 On ch=10 n=42 v=50
96 Off ch=10 n=42 v=0
96 On ch=10 n=42 v=50
96 Off ch=10 n=42 v=0
96 On ch=10 n=42 v=50
96 Off ch=10 n=42 v=0
96 On ch=10 n=44 v=32
96 Off ch=10 n=44 v=0
96 On ch=10 n=44 v=50
96 Off ch=10 n=44 v=0
96 On ch=10 n=46 v=30
96 Off ch=10 n=46 v=0
19872 On ch=10 n=42 v=50
96 Off ch=10 n=42 v=0
96 On ch=10 n=42 v=50
96 Off ch=10 n=42 v=0
96 On ch=10 n=42 v=50
96 Off ch=10 n=42 v=0
96 On ch=10 n=42 v=50
96 Off ch=10 n=42 v=0
96 On ch=10 n=42 v=50
96 Off ch=10 n=42 v=0
96 On ch=10 n=42 v=50
96 Off ch=10 n=42 v=0
96 On ch=10 n=42 v=50
96 Off ch=10 n=42 v=0
96 On ch=10 n=42 v=50
96 Off ch=10 n=42 v=0
96 On ch=10 n=42 v=50
96 Off ch=10 n=42 v=0
96 On ch=10 n=42 v=50
96 Off ch=10 n=42 v=0
96 On ch=10 n=42 v=50
96 Off ch=10 n=42 v=0
96 On ch=10 n=42 v=50
96 Off ch=10 n=42 v=0
96 On ch=10 n=42 v=50
96 Off ch=10 n=42 v=0
96 On ch=10 n=46 v=30
96 Off ch=10 n=46 v=0
480 On ch=10 n=42 v=50
96 Off ch=10 n=42 v=0
96 On ch=10 n=42 v=50
96 Off ch=10 n=42 v=0
96 On ch=10 n=42 v=50
96 Off ch=10 n=42 v=0
96 On ch=10 n=42 v=50
96 Off ch=10 n=42 v=0
96 On ch=10 n=42 v=50
96 Off ch=10 n=42 v=0
96 On ch=10 n=42 v=50
96 Off ch=10 n=42 v=0
96 On ch=10 n=42 v=50
96 Off ch=10 n=42 v=0
96 On ch=10 n=42 v=50
96 Off ch=10 n=42 v=0
96 On ch=10 n=42 v=50
96 Off ch=10 n=42 v=0
96 On ch=10 n=42 v=50
96 Off ch=10 n=42 v=0
96 On ch=10 n=42 v=50
96 Off ch=10 n=42 v=0
96 On ch=10 n=46 v=30
96 Off ch=10 n=46 v=0
864 On ch=10 n=42 v=50
96 Off ch=10 n=42 v=0
96 On ch=10 n=42 v=50
96 Off ch=10 n=42 v=0
96 On ch=10 n=42 v=50
96 Off ch=10 n=42 v=0
96 On ch=10 n=42 v=50
96 Off ch=10 n=42 v=0
96 On ch=10 n=42 v=50
96 Off ch=10 n=42 v=0
96 On ch=10 n=42 v=50
96 Off ch=10 n=42 v=0
96 On ch=10 n=42 v=50
96 Off ch=10 n=42 v=0
96 On ch=10 n=42 v=50
96 Off ch=10 n=42 v=0
96 On ch=10 n=42 v=50
96 Off ch=10 n=42 v=0
96 On ch=10 n=42 v=50
96 Off ch=10 n=42 v=0
96 On ch=10 n=42 v=50
96 Off ch=10 n=42 v=0
96 On ch=10 n=42 v=50
96 Off ch=10 n=42 v=0
96 On ch=10 n=46 v=30
96 Off ch=10 n=46 v=0
672 On ch=10 n=42 v=50
96 Off ch=10 n=42 v=0
96 On ch=10 n=42 v=50
96 Off ch=10 n=42 v=0
96 On ch=10 n=42 v=50
96 Off ch=10 n=42 v=0
96 On ch=10 n=42 v=50
96 Off ch=10 n=42 v=0
96 On ch=10 n=42 v=50
96 Off ch=10 n=42 v=0
96 On ch=10 n=42 v=50
96 Off ch=10 n=42 v=0
96 On ch=10 n=42 v=50
96 Off ch=10 n=42 v=0
96 On ch=10 n=42 v=50
96 Off ch=10 n=42 v=0
96 On ch=10 n=42 v=50
96 Off ch=10 n=42 v=0
96 On ch=10 n=42 v=50
96 Off ch=10 n=42 v=0
96 On ch=10 n=46 v=30
96 Off ch=10 n=46 v=0
1056 On ch=10 n=42 v=30
96 Off ch=10 n=42 v=0
1056 On ch=10 n=42 v=50
96 Off ch=10 n=42 v=0
43296 Meta TrkEnd
TrkEnd
MTrk
TimestampType=Delta
0 Meta TrkName "TAMBOURIN"
14208 On ch=10 n=54 v=102
96 Off ch=10 n=54 v=0
672 On ch=10 n=54 v=102
96 Off ch=10 n=54 v=0
672 On ch=10 n=54 v=102
96 Off ch=10 n=54 v=0
672 On ch=10 n=54 v=102
96 Off ch=10 n=54 v=0
672 On ch=10 n=54 v=102
96 Off ch=10 n=54 v=0
672 On ch=10 n=54 v=102
96 Off ch=10 n=54 v=0
672 On ch=10 n=54 v=102
96 Off ch=10 n=54 v=0
672 On ch=10 n=54 v=102
96 Off ch=10 n=54 v=0
672 On ch=10 n=54 v=102
96 Off ch=10 n=54 v=0
672 On ch=10 n=54 v=102
96 Off ch=10 n=54 v=0
672 On ch=10 n=54 v=102
96 Off ch=10 n=54 v=0
672 On ch=10 n=54 v=102
96 Off ch=10 n=54 v=0
672 On ch=10 n=54 v=102
96 Off ch=10 n=54 v=0
672 On ch=10 n=54 v=102
96 Off ch=10 n=54 v=0
672 On ch=10 n=54 v=102
96 Off ch=10 n=54 v=0
96 On ch=10 n=54 v=46
96 Off ch=10 n=54 v=0
96 On ch=10 n=54 v=102
96 Off ch=10 n=54 v=0
96 On ch=10 n=54 v=46
96 Off ch=10 n=54 v=0
96 On ch=10 n=54 v=102
96 Off ch=10 n=54 v=0
96 On ch=10 n=54 v=46
96 Off ch=10 n=54 v=0
96 On ch=10 n=54 v=87
192 Off ch=10 n=54 v=0
19008 On ch=10 n=54 v=66
96 Off ch=10 n=54 v=0
0 On ch=10 n=54 v=36
96 Off ch=10 n=54 v=0
0 On ch=10 n=54 v=58
96 Off ch=10 n=54 v=0
0 On ch=10 n=54 v=36
96 Off ch=10 n=54 v=0
0 On ch=10 n=54 v=106
96 Off ch=10 n=54 v=0
0 On ch=10 n=54 v=36
96 Off ch=10 n=54 v=0
0 On ch=10 n=54 v=58
96 Off ch=10 n=54 v=0
0 On ch=10 n=54 v=36
96 Off ch=10 n=54 v=0
0 On ch=10 n=54 v=70
96 Off ch=10 n=54 v=0
0 On ch=10 n=54 v=36
96 Off ch=10 n=54 v=0
0 On ch=10 n=54 v=58
96 Off ch=10 n=54 v=0
0 On ch=10 n=54 v=36
96 Off ch=10 n=54 v=0
0 On ch=10 n=54 v=102
96 Off ch=10 n=54 v=0
0 On ch=10 n=54 v=36
96 Off ch=10 n=54 v=0
0 On ch=10 n=54 v=58
96 Off ch=10 n=54 v=0
0 On ch=10 n=54 v=36
96 Off ch=10 n=54 v=0
0 On ch=10 n=54 v=66
96 Off ch=10 n=54 v=0
0 On ch=10 n=54 v=36
96 Off ch=10 n=54 v=0
0 On ch=10 n=54 v=58
96 Off ch=10 n=54 v=0
0 On ch=10 n=54 v=36
96 Off ch=10 n=54 v=0
0 On ch=10 n=54 v=106
96 Off ch=10 n=54 v=0
0 On ch=10 n=54 v=36
96 Off ch=10 n=54 v=0
0 On ch=10 n=54 v=58
96 Off ch=10 n=54 v=0
0 On ch=10 n=54 v=36
96 Off ch=10 n=54 v=0
0 On ch=10 n=54 v=70
96 Off ch=10 n=54 v=0
0 On ch=10 n=54 v=36
96 Off ch=10 n=54 v=0
0 On ch=10 n=54 v=58
96 Off ch=10 n=54 v=0
0 On ch=10 n=54 v=36
96 Off ch=10 n=54 v=0
0 On ch=10 n=54 v=102
96 Off ch=10 n=54 v=0
0 On ch=10 n=54 v=36
96 Off ch=10 n=54 v=0
0 On ch=10 n=54 v=58
96 Off ch=10 n=54 v=0
0 On ch=10 n=54 v=36
96 Off ch=10 n=54 v=0
0 On ch=10 n=54 v=66
96 Off ch=10 n=54 v=0
0 On ch=10 n=54 v=36
96 Off ch=10 n=54 v=0
0 On ch=10 n=54 v=58
96 Off ch=10 n=54 v=0
0 On ch=10 n=54 v=36
96 Off ch=10 n=54 v=0
0 On ch=10 n=54 v=106
96 Off ch=10 n=54 v=0
0 On ch=10 n=54 v=36
96 Off ch=10 n=54 v=0
0 On ch=10 n=54 v=58
96 Off ch=10 n=54 v=0
0 On ch=10 n=54 v=36
96 Off ch=10 n=54 v=0
0 On ch=10 n=54 v=70
96 Off ch=10 n=54 v=0
0 On ch=10 n=54 v=36
96 Off ch=10 n=54 v=0
0 On ch=10 n=54 v=58
96 Off ch=10 n=54 v=0
0 On ch=10 n=54 v=36
96 Off ch=10 n=54 v=0
0 On ch=10 n=54 v=102
96 Off ch=10 n=54 v=0
0 On ch=10 n=54 v=36
96 Off ch=10 n=54 v=0
0 On ch=10 n=54 v=58
96 Off ch=10 n=54 v=0
0 On ch=10 n=54 v=36
96 Off ch=10 n=54 v=0
0 On ch=10 n=54 v=66
96 Off ch=10 n=54 v=0
0 On ch=10 n=54 v=36
96 Off ch=10 n=54 v=0
0 On ch=10 n=54 v=58
96 Off ch=10 n=54 v=0
0 On ch=10 n=54 v=36
96 Off ch=10 n=54 v=0
0 On ch=10 n=54 v=106
96 Off ch=10 n=54 v=0
0 On ch=10 n=54 v=36
96 Off ch=10 n=54 v=0
0 On ch=10 n=54 v=58
96 Off ch=10 n=54 v=0
0 On ch=10 n=54 v=36
96 Off ch=10 n=54 v=0
0 On ch=10 n=54 v=70
96 Off ch=10 n=54 v=0
0 On ch=10 n=54 v=36
96 Off ch=10 n=54 v=0
0 On ch=10 n=54 v=58
96 Off ch=10 n=54 v=0
0 On ch=10 n=54 v=36
96 Off ch=10 n=54 v=0
0 On ch=10 n=54 v=102
96 Off ch=10 n=54 v=0
0 On ch=10 n=54 v=36
96 Off ch=10 n=54 v=0
0 On ch=10 n=54 v=58
96 Off ch=10 n=54 v=0
0 On ch=10 n=54 v=36
96 Off ch=10 n=54 v=0
0 On ch=10 n=54 v=66
96 Off ch=10 n=54 v=0
0 On ch=10 n=54 v=36
96 Off ch=10 n=54 v=0
0 On ch=10 n=54 v=58
96 Off ch=10 n=54 v=0
0 On ch=10 n=54 v=36
96 Off ch=10 n=54 v=0
0 On ch=10 n=54 v=106
96 Off ch=10 n=54 v=0
0 On ch=10 n=54 v=36
96 Off ch=10 n=54 v=0
0 On ch=10 n=54 v=58
96 Off ch=10 n=54 v=0
0 On ch=10 n=54 v=36
96 Off ch=10 n=54 v=0
0 On ch=10 n=54 v=70
96 Off ch=10 n=54 v=0
0 On ch=10 n=54 v=36
96 Off ch=10 n=54 v=0
0 On ch=10 n=54 v=58
96 Off ch=10 n=54 v=0
0 On ch=10 n=54 v=36
96 Off ch=10 n=54 v=0
0 On ch=10 n=54 v=102
96 Off ch=10 n=54 v=0
0 On ch=10 n=54 v=36
96 Off ch=10 n=54 v=0
0 On ch=10 n=54 v=58
96 Off ch=10 n=54 v=0
0 On ch=10 n=54 v=36
96 Off ch=10 n=54 v=0
0 On ch=10 n=54 v=66
96 Off ch=10 n=54 v=0
0 On ch=10 n=54 v=36
96 Off ch=10 n=54 v=0
0 On ch=10 n=54 v=58
96 Off ch=10 n=54 v=0
0 On ch=10 n=54 v=36
96 Off ch=10 n=54 v=0
0 On ch=10 n=54 v=106
96 Off ch=10 n=54 v=0
0 On ch=10 n=54 v=36
96 Off ch=10 n=54 v=0
0 On ch=10 n=54 v=58
96 Off ch=10 n=54 v=0
0 On ch=10 n=54 v=36
96 Off ch=10 n=54 v=0
0 On ch=10 n=54 v=70
96 Off ch=10 n=54 v=0
0 On ch=10 n=54 v=36
96 Off ch=10 n=54 v=0
0 On ch=10 n=54 v=58
96 Off ch=10 n=54 v=0
0 On ch=10 n=54 v=36
96 Off ch=10 n=54 v=0
0 On ch=10 n=54 v=102
96 Off ch=10 n=54 v=0
0 On ch=10 n=54 v=36
96 Off ch=10 n=54 v=0
0 On ch=10 n=54 v=58
96 Off ch=10 n=54 v=0
0 On ch=10 n=54 v=36
96 Off ch=10 n=54 v=0
0 On ch=10 n=54 v=66
96 Off ch=10 n=54 v=0
0 On ch=10 n=54 v=36
96 Off ch=10 n=54 v=0
0 On ch=10 n=54 v=58
96 Off ch=10 n=54 v=0
0 On ch=10 n=54 v=36
96 Off ch=10 n=54 v=0
0 On ch=10 n=54 v=106
96 Off ch=10 n=54 v=0
0 On ch=10 n=54 v=36
96 Off ch=10 n=54 v=0
0 On ch=10 n=54 v=58
96 Off ch=10 n=54 v=0
0 On ch=10 n=54 v=36
96 Off ch=10 n=54 v=0
0 On ch=10 n=54 v=70
96 Off ch=10 n=54 v=0
0 On ch=10 n=54 v=36
96 Off ch=10 n=54 v=0
0 On ch=10 n=54 v=58
96 Off ch=10 n=54 v=0
0 On ch=10 n=54 v=36
96 Off ch=10 n=54 v=0
0 On ch=10 n=54 v=102
96 Off ch=10 n=54 v=0
0 On ch=10 n=54 v=36
96 Off ch=10 n=54 v=0
0 On ch=10 n=54 v=58
96 Off ch=10 n=54 v=0
0 On ch=10 n=54 v=36
96 Off ch=10 n=54 v=0
0 On ch=10 n=54 v=66
96 Off ch=10 n=54 v=0
0 On ch=10 n=54 v=36
96 Off ch=10 n=54 v=0
0 On ch=10 n=54 v=58
96 Off ch=10 n=54 v=0
0 On ch=10 n=54 v=36
96 Off ch=10 n=54 v=0
0 On ch=10 n=54 v=112
96 Off ch=10 n=54 v=0
0 On ch=10 n=54 v=36
96 Off ch=10 n=54 v=0
0 On ch=10 n=54 v=88
96 Off ch=10 n=54 v=0
0 On ch=10 n=54 v=36
96 Off ch=10 n=54 v=0
0 On ch=10 n=54 v=96
96 Off ch=10 n=54 v=0
0 On ch=10 n=54 v=36
96 Off ch=10 n=54 v=0
0 On ch=10 n=54 v=58
96 Off ch=10 n=54 v=0
0 On ch=10 n=54 v=36
96 Off ch=10 n=54 v=0
0 On ch=10 n=54 v=112
96 Off ch=10 n=54 v=0
0 On ch=10 n=54 v=36
96 Off ch=10 n=54 v=0
0 On ch=10 n=54 v=108
96 Off ch=10 n=54 v=0
0 On ch=10 n=54 v=36
96 Off ch=10 n=54 v=0
0 On ch=10 n=54 v=96
96 Off ch=10 n=54 v=0
19104 On ch=10 n=54 v=66
96 Off ch=10 n=54 v=0
0 On ch=10 n=54 v=36
96 Off ch=10 n=54 v=0
0 On ch=10 n=54 v=58
96 Off ch=10 n=54 v=0
0 On ch=10 n=54 v=36
96 Off ch=10 n=54 v=0
0 On ch=10 n=54 v=106
96 Off ch=10 n=54 v=0
0 On ch=10 n=54 v=36
96 Off ch=10 n=54 v=0
0 On ch=10 n=54 v=58
96 Off ch=10 n=54 v=0
0 On ch=10 n=54 v=36
96 Off ch=10 n=54 v=0
0 On ch=10 n=54 v=70
96 Off ch=10 n=54 v=0
0 On ch=10 n=54 v=36
96 Off ch=10 n=54 v=0
0 On ch=10 n=54 v=58
96 Off ch=10 n=54 v=0
0 On ch=10 n=54 v=36
96 Off ch=10 n=54 v=0
0 On ch=10 n=54 v=102
96 Off ch=10 n=54 v=0
0 On ch=10 n=54 v=36
96 Off ch=10 n=54 v=0
0 On ch=10 n=54 v=58
96 Off ch=10 n=54 v=0
0 On ch=10 n=54 v=36
96 Off ch=10 n=54 v=0
0 On ch=10 n=54 v=66
96 Off ch=10 n=54 v=0
0 On ch=10 n=54 v=36
96 Off ch=10 n=54 v=0
0 On ch=10 n=54 v=58
96 Off ch=10 n=54 v=0
0 On ch=10 n=54 v=36
96 Off ch=10 n=54 v=0
0 On ch=10 n=54 v=106
96 Off ch=10 n=54 v=0
0 On ch=10 n=54 v=36
96 Off ch=10 n=54 v=0
0 On ch=10 n=54 v=58
96 Off ch=10 n=54 v=0
0 On ch=10 n=54 v=36
96 Off ch=10 n=54 v=0
0 On ch=10 n=54 v=70
96 Off ch=10 n=54 v=0
0 On ch=10 n=54 v=36
96 Off ch=10 n=54 v=0
0 On ch=10 n=54 v=58
96 Off ch=10 n=54 v=0
0 On ch=10 n=54 v=36
96 Off ch=10 n=54 v=0
0 On ch=10 n=54 v=102
96 Off ch=10 n=54 v=0
0 On ch=10 n=54 v=36
96 Off ch=10 n=54 v=0
0 On ch=10 n=54 v=58
96 Off ch=10 n=54 v=0
0 On ch=10 n=54 v=36
96 Off ch=10 n=54 v=0
0 On ch=10 n=54 v=66
96 Off ch=10 n=54 v=0
0 On ch=10 n=54 v=36
96 Off ch=10 n=54 v=0
0 On ch=10 n=54 v=58
96 Off ch=10 n=54 v=0
0 On ch=10 n=54 v=36
96 Off ch=10 n=54 v=0
0 On ch=10 n=54 v=106
96 Off ch=10 n=54 v=0
0 On ch=10 n=54 v=36
96 Off ch=10 n=54 v=0
0 On ch=10 n=54 v=58
96 Off ch=10 n=54 v=0
0 On ch=10 n=54 v=36
96 Off ch=10 n=54 v=0
0 On ch=10 n=54 v=70
96 Off ch=10 n=54 v=0
0 On ch=10 n=54 v=36
96 Off ch=10 n=54 v=0
0 On ch=10 n=54 v=58
96 Off ch=10 n=54 v=0
0 On ch=10 n=54 v=36
96 Off ch=10 n=54 v=0
0 On ch=10 n=54 v=102
96 Off ch=10 n=54 v=0
0 On ch=10 n=54 v=36
96 Off ch=10 n=54 v=0
0 On ch=10 n=54 v=58
96 Off ch=10 n=54 v=0
0 On ch=10 n=54 v=36
96 Off ch=10 n=54 v=0
0 On ch=10 n=54 v=66
96 Off ch=10 n=54 v=0
0 On ch=10 n=54 v=36
96 Off ch=10 n=54 v=0
0 On ch=10 n=54 v=58
96 Off ch=10 n=54 v=0
0 On ch=10 n=54 v=36
96 Off ch=10 n=54 v=0
0 On ch=10 n=54 v=106
96 Off ch=10 n=54 v=0
0 On ch=10 n=54 v=36
96 Off ch=10 n=54 v=0
0 On ch=10 n=54 v=58
96 Off ch=10 n=54 v=0
0 On ch=10 n=54 v=36
96 Off ch=10 n=54 v=0
0 On ch=10 n=54 v=70
96 Off ch=10 n=54 v=0
0 On ch=10 n=54 v=36
96 Off ch=10 n=54 v=0
0 On ch=10 n=54 v=58
96 Off ch=10 n=54 v=0
0 On ch=10 n=54 v=36
96 Off ch=10 n=54 v=0
0 On ch=10 n=54 v=102
96 Off ch=10 n=54 v=0
0 On ch=10 n=54 v=36
96 Off ch=10 n=54 v=0
0 On ch=10 n=54 v=58
96 Off ch=10 n=54 v=0
0 On ch=10 n=54 v=36
96 Off ch=10 n=54 v=0
0 On ch=10 n=54 v=66
96 Off ch=10 n=54 v=0
0 On ch=10 n=54 v=36
96 Off ch=10 n=54 v=0
0 On ch=10 n=54 v=58
96 Off ch=10 n=54 v=0
0 On ch=10 n=54 v=36
96 Off ch=10 n=54 v=0
0 On ch=10 n=54 v=106
96 Off ch=10 n=54 v=0
0 On ch=10 n=54 v=36
96 Off ch=10 n=54 v=0
0 On ch=10 n=54 v=58
96 Off ch=10 n=54 v=0
0 On ch=10 n=54 v=36
96 Off ch=10 n=54 v=0
0 On ch=10 n=54 v=70
96 Off ch=10 n=54 v=0
0 On ch=10 n=54 v=36
96 Off ch=10 n=54 v=0
0 On ch=10 n=54 v=58
96 Off ch=10 n=54 v=0
0 On ch=10 n=54 v=36
96 Off ch=10 n=54 v=0
0 On ch=10 n=54 v=102
96 Off ch=10 n=54 v=0
0 On ch=10 n=54 v=36
96 Off ch=10 n=54 v=0
0 On ch=10 n=54 v=58
96 Off ch=10 n=54 v=0
0 On ch=10 n=54 v=36
96 Off ch=10 n=54 v=0
0 On ch=10 n=54 v=66
96 Off ch=10 n=54 v=0
0 On ch=10 n=54 v=36
96 Off ch=10 n=54 v=0
0 On ch=10 n=54 v=58
96 Off ch=10 n=54 v=0
0 On ch=10 n=54 v=36
96 Off ch=10 n=54 v=0
0 On ch=10 n=54 v=106
96 Off ch=10 n=54 v=0
0 On ch=10 n=54 v=36
96 Off ch=10 n=54 v=0
0 On ch=10 n=54 v=58
96 Off ch=10 n=54 v=0
0 On ch=10 n=54 v=36
96 Off ch=10 n=54 v=0
0 On ch=10 n=54 v=70
96 Off ch=10 n=54 v=0
0 On ch=10 n=54 v=36
96 Off ch=10 n=54 v=0
0 On ch=10 n=54 v=58
96 Off ch=10 n=54 v=0
0 On ch=10 n=54 v=36
96 Off ch=10 n=54 v=0
0 On ch=10 n=54 v=102
96 Off ch=10 n=54 v=0
0 On ch=10 n=54 v=36
96 Off ch=10 n=54 v=0
0 On ch=10 n=54 v=58
96 Off ch=10 n=54 v=0
0 On ch=10 n=54 v=36
96 Off ch=10 n=54 v=0
0 On ch=10 n=54 v=66
96 Off ch=10 n=54 v=0
0 On ch=10 n=54 v=36
96 Off ch=10 n=54 v=0
0 On ch=10 n=54 v=58
96 Off ch=10 n=54 v=0
0 On ch=10 n=54 v=36
96 Off ch=10 n=54 v=0
0 On ch=10 n=54 v=106
96 Off ch=10 n=54 v=0
0 On ch=10 n=54 v=36
96 Off ch=10 n=54 v=0
0 On ch=10 n=54 v=58
96 Off ch=10 n=54 v=0
0 On ch=10 n=54 v=36
96 Off ch=10 n=54 v=0
0 On ch=10 n=54 v=70
96 Off ch=10 n=54 v=0
0 On ch=10 n=54 v=36
96 Off ch=10 n=54 v=0
0 On ch=10 n=54 v=58
96 Off ch=10 n=54 v=0
0 On ch=10 n=54 v=36
96 Off ch=10 n=54 v=0
0 On ch=10 n=54 v=102
96 Off ch=10 n=54 v=0
0 On ch=10 n=54 v=36
96 Off ch=10 n=54 v=0
0 On ch=10 n=54 v=58
96 Off ch=10 n=54 v=0
0 On ch=10 n=54 v=36
96 Off ch=10 n=54 v=0
0 On ch=10 n=54 v=88
96 Off ch=10 n=54 v=0
0 On ch=10 n=54 v=36
96 Off ch=10 n=54 v=0
0 On ch=10 n=54 v=84
96 Off ch=10 n=54 v=0
0 On ch=10 n=54 v=36
96 Off ch=10 n=54 v=0
0 On ch=10 n=54 v=112
96 Off ch=10 n=54 v=0
0 On ch=10 n=54 v=36
96 Off ch=10 n=54 v=0
0 On ch=10 n=54 v=92
96 Off ch=10 n=54 v=0
0 On ch=10 n=54 v=36
96 Off ch=10 n=54 v=0
0 On ch=10 n=54 v=88
96 Off ch=10 n=54 v=0
0 On ch=10 n=54 v=36
96 Off ch=10 n=54 v=0
0 On ch=10 n=54 v=88
96 Off ch=10 n=54 v=0
0 On ch=10 n=54 v=36
96 Off ch=10 n=54 v=0
0 On ch=10 n=54 v=104
96 Off ch=10 n=54 v=0
0 On ch=10 n=54 v=36
96 Off ch=10 n=54 v=0
0 On ch=10 n=54 v=100
96 Off ch=10 n=54 v=0
0 On ch=10 n=54 v=36
96 Off ch=10 n=54 v=0
0 On ch=10 n=54 v=99
96 Off ch=10 n=54 v=0
0 On ch=10 n=54 v=46
96 Off ch=10 n=54 v=0
0 On ch=10 n=54 v=93
96 Off ch=10 n=54 v=0
0 On ch=10 n=54 v=46
96 Off ch=10 n=54 v=0
0 On ch=10 n=54 v=86
96 Off ch=10 n=54 v=0
0 On ch=10 n=54 v=46
96 Off ch=10 n=54 v=0
0 On ch=10 n=54 v=102
96 Off ch=10 n=54 v=0
0 On ch=10 n=54 v=46
96 Off ch=10 n=54 v=0
0 On ch=10 n=54 v=96
96 Off ch=10 n=54 v=0
672 On ch=10 n=54 v=76
96 Off ch=10 n=54 v=0
0 On ch=10 n=54 v=46
96 Off ch=10 n=54 v=0
0 On ch=10 n=54 v=64
96 Off ch=10 n=54 v=0
0 On ch=10 n=54 v=46
96 Off ch=10 n=54 v=0
0 On ch=10 n=54 v=108
96 Off ch=10 n=54 v=0
0 On ch=10 n=54 v=46
96 Off ch=10 n=54 v=0
0 On ch=10 n=54 v=60
96 Off ch=10 n=54 v=0
0 On ch=10 n=54 v=46
96 Off ch=10 n=54 v=0
0 On ch=10 n=54 v=76
96 Off ch=10 n=54 v=0
0 On ch=10 n=54 v=46
96 Off ch=10 n=54 v=0
0 On ch=10 n=54 v=64
96 Off ch=10 n=54 v=0
0 On ch=10 n=54 v=46
96 Off ch=10 n=54 v=0
0 On ch=10 n=54 v=112
96 Off ch=10 n=54 v=0
0 On ch=10 n=54 v=46
96 Off ch=10 n=54 v=0
0 On ch=10 n=54 v=60
96 Off ch=10 n=54 v=0
0 On ch=10 n=54 v=46
96 Off ch=10 n=54 v=0
0 On ch=10 n=54 v=76
96 Off ch=10 n=54 v=0
0 On ch=10 n=54 v=46
96 Off ch=10 n=54 v=0
0 On ch=10 n=54 v=64
96 Off ch=10 n=54 v=0
0 On ch=10 n=54 v=46
96 Off ch=10 n=54 v=0
0 On ch=10 n=54 v=108
96 Off ch=10 n=54 v=0
0 On ch=10 n=54 v=46
96 Off ch=10 n=54 v=0
0 On ch=10 n=54 v=60
96 Off ch=10 n=54 v=0
0 On ch=10 n=54 v=46
96 Off ch=10 n=54 v=0
0 On ch=10 n=54 v=76
96 Off ch=10 n=54 v=0
0 On ch=10 n=54 v=46
96 Off ch=10 n=54 v=0
0 On ch=10 n=54 v=64
96 Off ch=10 n=54 v=0
0 On ch=10 n=54 v=46
96 Off ch=10 n=54 v=0
0 On ch=10 n=54 v=112
96 Off ch=10 n=54 v=0
0 On ch=10 n=54 v=46
96 Off ch=10 n=54 v=0
0 On ch=10 n=54 v=60
96 Off ch=10 n=54 v=0
0 On ch=10 n=54 v=46
96 Off ch=10 n=54 v=0
0 On ch=10 n=54 v=76
96 Off ch=10 n=54 v=0
0 On ch=10 n=54 v=46
96 Off ch=10 n=54 v=0
0 On ch=10 n=54 v=64
96 Off ch=10 n=54 v=0
0 On ch=10 n=54 v=46
96 Off ch=10 n=54 v=0
0 On ch=10 n=54 v=108
96 Off ch=10 n=54 v=0
0 On ch=10 n=54 v=46
96 Off ch=10 n=54 v=0
0 On ch=10 n=54 v=60
96 Off ch=10 n=54 v=0
0 On ch=10 n=54 v=46
96 Off ch=10 n=54 v=0
0 On ch=10 n=54 v=76
96 Off ch=10 n=54 v=0
0 On ch=10 n=54 v=46
96 Off ch=10 n=54 v=0
0 On ch=10 n=54 v=64
96 Off ch=10 n=54 v=0
0 On ch=10 n=54 v=46
96 Off ch=10 n=54 v=0
0 On ch=10 n=54 v=112
96 Off ch=10 n=54 v=0
0 On ch=10 n=54 v=46
96 Off ch=10 n=54 v=0
0 On ch=10 n=54 v=60
96 Off ch=10 n=54 v=0
0 On ch=10 n=54 v=46
96 Off ch=10 n=54 v=0
0 On ch=10 n=54 v=76
96 Off ch=10 n=54 v=0
0 On ch=10 n=54 v=46
96 Off ch=10 n=54 v=0
0 On ch=10 n=54 v=64
96 Off ch=10 n=54 v=0
0 On ch=10 n=54 v=46
96 Off ch=10 n=54 v=0
0 On ch=10 n=54 v=108
96 Off ch=10 n=54 v=0
0 On ch=10 n=54 v=46
96 Off ch=10 n=54 v=0
0 On ch=10 n=54 v=60
96 Off ch=10 n=54 v=0
0 On ch=10 n=54 v=46
96 Off ch=10 n=54 v=0
0 On ch=10 n=54 v=76
96 Off ch=10 n=54 v=0
0 On ch=10 n=54 v=46
96 Off ch=10 n=54 v=0
0 On ch=10 n=54 v=64
96 Off ch=10 n=54 v=0
0 On ch=10 n=54 v=46
96 Off ch=10 n=54 v=0
0 On ch=10 n=54 v=112
96 Off ch=10 n=54 v=0
0 On ch=10 n=54 v=46
96 Off ch=10 n=54 v=0
0 On ch=10 n=54 v=60
96 Off ch=10 n=54 v=0
0 On ch=10 n=54 v=46
96 Off ch=10 n=54 v=0
0 On ch=10 n=54 v=76
96 Off ch=10 n=54 v=0
0 On ch=10 n=54 v=46
96 Off ch=10 n=54 v=0
0 On ch=10 n=54 v=64
96 Off ch=10 n=54 v=0
0 On ch=10 n=54 v=46
96 Off ch=10 n=54 v=0
0 On ch=10 n=54 v=108
96 Off ch=10 n=54 v=0
0 On ch=10 n=54 v=46
96 Off ch=10 n=54 v=0
0 On ch=10 n=54 v=60
96 Off ch=10 n=54 v=0
0 On ch=10 n=54 v=46
96 Off ch=10 n=54 v=0
0 On ch=10 n=54 v=76
96 Off ch=10 n=54 v=0
0 On ch=10 n=54 v=46
96 Off ch=10 n=54 v=0
0 On ch=10 n=54 v=64
96 Off ch=10 n=54 v=0
0 On ch=10 n=54 v=46
96 Off ch=10 n=54 v=0
0 On ch=10 n=54 v=112
96 Off ch=10 n=54 v=0
0 On ch=10 n=54 v=46
96 Off ch=10 n=54 v=0
0 On ch=10 n=54 v=60
96 Off ch=10 n=54 v=0
0 On ch=10 n=54 v=46
96 Off ch=10 n=54 v=0
0 On ch=10 n=54 v=76
96 Off ch=10 n=54 v=0
0 On ch=10 n=54 v=46
96 Off ch=10 n=54 v=0
0 On ch=10 n=54 v=64
96 Off ch=10 n=54 v=0
0 On ch=10 n=54 v=46
96 Off ch=10 n=54 v=0
0 On ch=10 n=54 v=108
96 Off ch=10 n=54 v=0
0 On ch=10 n=54 v=46
96 Off ch=10 n=54 v=0
0 On ch=10 n=54 v=60
96 Off ch=10 n=54 v=0
0 On ch=10 n=54 v=46
96 Off ch=10 n=54 v=0
0 On ch=10 n=54 v=76
96 Off ch=10 n=54 v=0
0 On ch=10 n=54 v=46
96 Off ch=10 n=54 v=0
0 On ch=10 n=54 v=64
96 Off ch=10 n=54 v=0
0 On ch=10 n=54 v=46
96 Off ch=10 n=54 v=0
0 On ch=10 n=54 v=112
96 Off ch=10 n=54 v=0
0 On ch=10 n=54 v=46
96 Off ch=10 n=54 v=0
0 On ch=10 n=54 v=60
96 Off ch=10 n=54 v=0
0 On ch=10 n=54 v=46
96 Off ch=10 n=54 v=0
0 On ch=10 n=54 v=76
96 Off ch=10 n=54 v=0
0 On ch=10 n=54 v=46
96 Off ch=10 n=54 v=0
0 On ch=10 n=54 v=64
96 Off ch=10 n=54 v=0
0 On ch=10 n=54 v=46
96 Off ch=10 n=54 v=0
0 On ch=10 n=54 v=108
96 Off ch=10 n=54 v=0
0 On ch=10 n=54 v=46
96 Off ch=10 n=54 v=0
0 On ch=10 n=54 v=60
96 Off ch=10 n=54 v=0
0 On ch=10 n=54 v=46
96 Off ch=10 n=54 v=0
0 On ch=10 n=54 v=76
96 Off ch=10 n=54 v=0
0 On ch=10 n=54 v=46
96 Off ch=10 n=54 v=0
0 On ch=10 n=54 v=64
96 Off ch=10 n=54 v=0
0 On ch=10 n=54 v=46
96 Off ch=10 n=54 v=0
0 On ch=10 n=54 v=112
96 Off ch=10 n=54 v=0
0 On ch=10 n=54 v=46
96 Off ch=10 n=54 v=0
0 On ch=10 n=54 v=60
96 Off ch=10 n=54 v=0
0 On ch=10 n=54 v=46
96 Off ch=10 n=54 v=0
0 On ch=10 n=54 v=76
96 Off ch=10 n=54 v=0
0 On ch=10 n=54 v=46
96 Off ch=10 n=54 v=0
0 On ch=10 n=54 v=64
96 Off ch=10 n=54 v=0
0 On ch=10 n=54 v=46
96 Off ch=10 n=54 v=0
0 On ch=10 n=54 v=108
96 Off ch=10 n=54 v=0
0 On ch=10 n=54 v=46
96 Off ch=10 n=54 v=0
0 On ch=10 n=54 v=60
96 Off ch=10 n=54 v=0
0 On ch=10 n=54 v=46
96 Off ch=10 n=54 v=0
0 On ch=10 n=54 v=76
96 Off ch=10 n=54 v=0
0 On ch=10 n=54 v=46
96 Off ch=10 n=54 v=0
0 On ch=10 n=54 v=64
96 Off ch=10 n=54 v=0
0 On ch=10 n=54 v=46
96 Off ch=10 n=54 v=0
0 On ch=10 n=54 v=112
96 Off ch=10 n=54 v=0
0 On ch=10 n=54 v=46
96 Off ch=10 n=54 v=0
0 On ch=10 n=54 v=60
96 Off ch=10 n=54 v=0
0 On ch=10 n=54 v=46
96 Off ch=10 n=54 v=0
0 On ch=10 n=54 v=76
96 Off ch=10 n=54 v=0
0 On ch=10 n=54 v=46
96 Off ch=10 n=54 v=0
0 On ch=10 n=54 v=64
96 Off ch=10 n=54 v=0
0 On ch=10 n=54 v=46
96 Off ch=10 n=54 v=0
0 On ch=10 n=54 v=108
96 Off ch=10 n=54 v=0
0 On ch=10 n=54 v=46
96 Off ch=10 n=54 v=0
0 On ch=10 n=54 v=60
96 Off ch=10 n=54 v=0
0 On ch=10 n=54 v=46
96 Off ch=10 n=54 v=0
0 On ch=10 n=54 v=76
96 Off ch=10 n=54 v=0
0 On ch=10 n=54 v=46
96 Off ch=10 n=54 v=0
0 On ch=10 n=54 v=64
96 Off ch=10 n=54 v=0
0 On ch=10 n=54 v=46
96 Off ch=10 n=54 v=0
0 On ch=10 n=54 v=112
96 Off ch=10 n=54 v=0
0 On ch=10 n=54 v=46
96 Off ch=10 n=54 v=0
0 On ch=10 n=54 v=60
96 Off ch=10 n=54 v=0
0 On ch=10 n=54 v=46
96 Off ch=10 n=54 v=0
0 On ch=10 n=54 v=76
96 Off ch=10 n=54 v=0
0 On ch=10 n=54 v=46
96 Off ch=10 n=54 v=0
0 On ch=10 n=54 v=64
96 Off ch=10 n=54 v=0
0 On ch=10 n=54 v=46
96 Off ch=10 n=54 v=0
0 On ch=10 n=54 v=108
96 Off ch=10 n=54 v=0
0 On ch=10 n=54 v=46
96 Off ch=10 n=54 v=0
0 On ch=10 n=54 v=60
96 Off ch=10 n=54 v=0
0 On ch=10 n=54 v=46
96 Off ch=10 n=54 v=0
0 On ch=10 n=54 v=76
96 Off ch=10 n=54 v=0
0 On ch=10 n=54 v=46
96 Off ch=10 n=54 v=0
0 On ch=10 n=54 v=64
96 Off ch=10 n=54 v=0
0 On ch=10 n=54 v=46
96 Off ch=10 n=54 v=0
0 On ch=10 n=54 v=112
96 Off ch=10 n=54 v=0
0 On ch=10 n=54 v=46
96 Off ch=10 n=54 v=0
0 On ch=10 n=54 v=60
96 Off ch=10 n=54 v=0
0 On ch=10 n=54 v=46
96 Off ch=10 n=54 v=0
0 On ch=10 n=54 v=76
96 Off ch=10 n=54 v=0
0 On ch=10 n=54 v=46
96 Off ch=10 n=54 v=0
0 On ch=10 n=54 v=64
96 Off ch=10 n=54 v=0
0 On ch=10 n=54 v=46
96 Off ch=10 n=54 v=0
0 On ch=10 n=54 v=108
96 Off ch=10 n=54 v=0
0 On ch=10 n=54 v=46
96 Off ch=10 n=54 v=0
0 On ch=10 n=54 v=60
96 Off ch=10 n=54 v=0
0 On ch=10 n=54 v=46
96 Off ch=10 n=54 v=0
0 On ch=10 n=54 v=76
96 Off ch=10 n=54 v=0
0 On ch=10 n=54 v=46
96 Off ch=10 n=54 v=0
0 On ch=10 n=54 v=64
96 Off ch=10 n=54 v=0
0 On ch=10 n=54 v=46
96 Off ch=10 n=54 v=0
0 On ch=10 n=54 v=112
96 Off ch=10 n=54 v=0
0 On ch=10 n=54 v=46
96 Off ch=10 n=54 v=0
0 On ch=10 n=54 v=60
96 Off ch=10 n=54 v=0
0 On ch=10 n=54 v=46
96 Off ch=10 n=54 v=0
0 On ch=10 n=54 v=76
96 Off ch=10 n=54 v=0
0 On ch=10 n=54 v=46
96 Off ch=10 n=54 v=0
0 On ch=10 n=54 v=64
96 Off ch=10 n=54 v=0
0 On ch=10 n=54 v=46
96 Off ch=10 n=54 v=0
0 On ch=10 n=54 v=108
96 Off ch=10 n=54 v=0
0 On ch=10 n=54 v=46
96 Off ch=10 n=54 v=0
0 On ch=10 n=54 v=60
96 Off ch=10 n=54 v=0
0 On ch=10 n=54 v=46
96 Off ch=10 n=54 v=0
0 On ch=10 n=54 v=76
96 Off ch=10 n=54 v=0
0 On ch=10 n=54 v=46
96 Off ch=10 n=54 v=0
0 On ch=10 n=54 v=64
96 Off ch=10 n=54 v=0
0 On ch=10 n=54 v=46
96 Off ch=10 n=54 v=0
0 On ch=10 n=54 v=112
96 Off ch=10 n=54 v=0
0 On ch=10 n=54 v=46
96 Off ch=10 n=54 v=0
0 On ch=10 n=54 v=60
96 Off ch=10 n=54 v=0
0 On ch=10 n=54 v=46
96 Off ch=10 n=54 v=0
0 On ch=10 n=54 v=76
96 Off ch=10 n=54 v=0
0 On ch=10 n=54 v=77
96 Off ch=10 n=54 v=0
0 On ch=10 n=54 v=76
96 Off ch=10 n=54 v=0
0 On ch=10 n=54 v=76
96 Off ch=10 n=54 v=0
0 On ch=10 n=54 v=76
96 Off ch=10 n=54 v=0
0 On ch=10 n=54 v=76
96 Off ch=10 n=54 v=0
0 On ch=10 n=54 v=75
96 Off ch=10 n=54 v=0
0 On ch=10 n=54 v=75
96 Off ch=10 n=54 v=0
0 On ch=10 n=54 v=75
96 Off ch=10 n=54 v=0
0 On ch=10 n=54 v=74
96 Off ch=10 n=54 v=0
0 On ch=10 n=54 v=74
96 Off ch=10 n=54 v=0
0 On ch=10 n=54 v=74
96 Off ch=10 n=54 v=0
0 On ch=10 n=54 v=74
96 Off ch=10 n=54 v=0
0 On ch=10 n=54 v=73
96 Off ch=10 n=54 v=0
0 On ch=10 n=54 v=73
96 Off ch=10 n=54 v=0
0 On ch=10 n=54 v=65
96 Off ch=10 n=54 v=0
0 On ch=10 n=54 v=65
96 Off ch=10 n=54 v=0
0 On ch=10 n=54 v=64
96 Off ch=10 n=54 v=0
0 On ch=10 n=54 v=64
96 Off ch=10 n=54 v=0
0 On ch=10 n=54 v=64
96 Off ch=10 n=54 v=0
0 On ch=10 n=54 v=64
96 Off ch=10 n=54 v=0
0 On ch=10 n=54 v=63
96 Off ch=10 n=54 v=0
0 On ch=10 n=54 v=63
96 Off ch=10 n=54 v=0
0 On ch=10 n=54 v=63
96 Off ch=10 n=54 v=0
0 On ch=10 n=54 v=63
96 Off ch=10 n=54 v=0
0 On ch=10 n=54 v=62
96 Off ch=10 n=54 v=0
0 On ch=10 n=54 v=62
96 Off ch=10 n=54 v=0
0 On ch=10 n=54 v=62
96 Off ch=10 n=54 v=0
0 On ch=10 n=54 v=62
96 Off ch=10 n=54 v=0
0 On ch=10 n=54 v=61
96 Off ch=10 n=54 v=0
0 On ch=10 n=54 v=61
96 Off ch=10 n=54 v=0
0 On ch=10 n=54 v=61
96 Off ch=10 n=54 v=0
0 On ch=10 n=54 v=61
96 Off ch=10 n=54 v=0
0 On ch=10 n=54 v=60
96 Off ch=10 n=54 v=0
0 On ch=10 n=54 v=60
96 Off ch=10 n=54 v=0
0 On ch=10 n=54 v=60
96 Off ch=10 n=54 v=0
0 On ch=10 n=54 v=59
96 Off ch=10 n=54 v=0
0 On ch=10 n=54 v=59
96 Off ch=10 n=54 v=0
0 On ch=10 n=54 v=59
96 Off ch=10 n=54 v=0
0 On ch=10 n=54 v=59
96 Off ch=10 n=54 v=0
0 On ch=10 n=54 v=58
96 Off ch=10 n=54 v=0
0 On ch=10 n=54 v=58
96 Off ch=10 n=54 v=0
0 On ch=10 n=54 v=58
96 Off ch=10 n=54 v=0
0 On ch=10 n=54 v=58
96 Off ch=10 n=54 v=0
0 On ch=10 n=54 v=57
96 Off ch=10 n=54 v=0
0 On ch=10 n=54 v=57
96 Off ch=10 n=54 v=0
0 On ch=10 n=54 v=57
96 Off ch=10 n=54 v=0
0 On ch=10 n=54 v=57
96 Off ch=10 n=54 v=0
0 On ch=10 n=54 v=56
96 Off ch=10 n=54 v=0
0 On ch=10 n=54 v=56
96 Off ch=10 n=54 v=0
0 On ch=10 n=54 v=56
96 Off ch=10 n=54 v=0
0 On ch=10 n=54 v=56
96 Off ch=10 n=54 v=0
0 On ch=10 n=54 v=55
96 Off ch=10 n=54 v=0
0 On ch=10 n=54 v=55
96 Off ch=10 n=54 v=0
0 On ch=10 n=54 v=55
96 Off ch=10 n=54 v=0
0 On ch=10 n=54 v=55
96 Off ch=10 n=54 v=0
0 On ch=10 n=54 v=54
96 Off ch=10 n=54 v=0
0 On ch=10 n=54 v=54
96 Off ch=10 n=54 v=0
0 On ch=10 n=54 v=54
96 Off ch=10 n=54 v=0
0 On ch=10 n=54 v=54
96 Off ch=10 n=54 v=0
0 On ch=10 n=54 v=53
96 Off ch=10 n=54 v=0
0 On ch=10 n=54 v=53
96 Off ch=10 n=54 v=0
0 On ch=10 n=54 v=53
96 Off ch=10 n=54 v=0
0 On ch=10 n=54 v=52
96 Off ch=10 n=54 v=0
0 On ch=10 n=54 v=52
96 Off ch=10 n=54 v=0
0 On ch=10 n=54 v=52
96 Off ch=10 n=54 v=0
0 On ch=10 n=54 v=52
96 Off ch=10 n=54 v=0
0 On ch=10 n=54 v=51
96 Off ch=10 n=54 v=0
0 On ch=10 n=54 v=51
96 Off ch=10 n=54 v=0
0 On ch=10 n=54 v=51
96 Off ch=10 n=54 v=0
0 On ch=10 n=54 v=51
96 Off ch=10 n=54 v=0
0 On ch=10 n=54 v=50
96 Off ch=10 n=54 v=0
0 On ch=10 n=54 v=50
96 Off ch=10 n=54 v=0
0 On ch=10 n=54 v=50
96 Off ch=10 n=54 v=0
0 On ch=10 n=54 v=50
96 Off ch=10 n=54 v=0
0 On ch=10 n=54 v=49
96 Off ch=10 n=54 v=0
0 On ch=10 n=54 v=49
96 Off ch=10 n=54 v=0
0 On ch=10 n=54 v=49
96 Off ch=10 n=54 v=0
0 On ch=10 n=54 v=49
96 Off ch=10 n=54 v=0
0 On ch=10 n=54 v=48
96 Off ch=10 n=54 v=0
0 On ch=10 n=54 v=48
96 Off ch=10 n=54 v=0
0 On ch=10 n=54 v=48
96 Off ch=10 n=54 v=0
0 On ch=10 n=54 v=48
96 Off ch=10 n=54 v=0
0 On ch=10 n=54 v=47
96 Off ch=10 n=54 v=0
0 On ch=10 n=54 v=47
96 Off ch=10 n=54 v=0
0 On ch=10 n=54 v=47
96 Off ch=10 n=54 v=0
0 On ch=10 n=54 v=46
96 Off ch=10 n=54 v=0
0 On ch=10 n=54 v=46
96 Off ch=10 n=54 v=0
0 On ch=10 n=54 v=46
96 Off ch=10 n=54 v=0
0 On ch=10 n=54 v=46
96 Off ch=10 n=54 v=0
0 On ch=10 n=54 v=45
96 Off ch=10 n=54 v=0
0 On ch=10 n=54 v=45
96 Off ch=10 n=54 v=0
0 On ch=10 n=54 v=45
96 Off ch=10 n=54 v=0
0 On ch=10 n=54 v=45
96 Off ch=10 n=54 v=0
0 On ch=10 n=54 v=44
96 Off ch=10 n=54 v=0
0 On ch=10 n=54 v=44
96 Off ch=10 n=54 v=0
0 On ch=10 n=54 v=44
96 Off ch=10 n=54 v=0
0 On ch=10 n=54 v=44
96 Off ch=10 n=54 v=0
0 On ch=10 n=54 v=43
96 Off ch=10 n=54 v=0
0 On ch=10 n=54 v=43
96 Off ch=10 n=54 v=0
0 On ch=10 n=54 v=43
96 Off ch=10 n=54 v=0
0 On ch=10 n=54 v=43
96 Off ch=10 n=54 v=0
0 On ch=10 n=54 v=42
96 Off ch=10 n=54 v=0
0 On ch=10 n=54 v=42
96 Off ch=10 n=54 v=0
0 On ch=10 n=54 v=42
96 Off ch=10 n=54 v=0
0 On ch=10 n=54 v=42
96 Off ch=10 n=54 v=0
0 On ch=10 n=54 v=41
96 Off ch=10 n=54 v=0
0 On ch=10 n=54 v=41
96 Off ch=10 n=54 v=0
0 On ch=10 n=54 v=41
96 Off ch=10 n=54 v=0
0 On ch=10 n=54 v=40
96 Off ch=10 n=54 v=0
0 On ch=10 n=54 v=40
96 Off ch=10 n=54 v=0
0 On ch=10 n=54 v=40
96 Off ch=10 n=54 v=0
0 On ch=10 n=54 v=40
96 Off ch=10 n=54 v=0
0 On ch=10 n=54 v=39
96 Off ch=10 n=54 v=0
0 On ch=10 n=54 v=39
96 Off ch=10 n=54 v=0
0 On ch=10 n=54 v=39
96 Off ch=10 n=54 v=0
0 On ch=10 n=54 v=39
96 Off ch=10 n=54 v=0
0 On ch=10 n=54 v=38
96 Off ch=10 n=54 v=0
0 On ch=10 n=54 v=38
96 Off ch=10 n=54 v=0
0 On ch=10 n=54 v=38
96 Off ch=10 n=54 v=0
0 On ch=10 n=54 v=38
96 Off ch=10 n=54 v=0
0 On ch=10 n=54 v=37
96 Off ch=10 n=54 v=0
0 On ch=10 n=54 v=37
96 Off ch=10 n=54 v=0
0 On ch=10 n=54 v=37
96 Off ch=10 n=54 v=0
0 On ch=10 n=54 v=37
96 Off ch=10 n=54 v=0
0 On ch=10 n=54 v=36
96 Off ch=10 n=54 v=0
0 On ch=10 n=54 v=36
96 Off ch=10 n=54 v=0
0 On ch=10 n=54 v=36
96 Off ch=10 n=54 v=0
0 On ch=10 n=54 v=36
96 Off ch=10 n=54 v=0
0 On ch=10 n=54 v=35
96 Off ch=10 n=54 v=0
0 On ch=10 n=54 v=35
96 Off ch=10 n=54 v=0
0 On ch=10 n=54 v=35
96 Off ch=10 n=54 v=0
0 On ch=10 n=54 v=35
96 Off ch=10 n=54 v=0
0 On ch=10 n=54 v=34
96 Off ch=10 n=54 v=0
0 On ch=10 n=54 v=34
96 Off ch=10 n=54 v=0
0 On ch=10 n=54 v=34
96 Off ch=10 n=54 v=0
0 On ch=10 n=54 v=33
96 Off ch=10 n=54 v=0
0 On ch=10 n=54 v=33
96 Off ch=10 n=54 v=0
0 On ch=10 n=54 v=33
96 Off ch=10 n=54 v=0
0 On ch=10 n=54 v=33
96 Off ch=10 n=54 v=0
0 On ch=10 n=54 v=32
96 Off ch=10 n=54 v=0
0 On ch=10 n=54 v=32
96 Off ch=10 n=54 v=0
0 On ch=10 n=54 v=32
96 Off ch=10 n=54 v=0
0 On ch=10 n=54 v=32
96 Off ch=10 n=54 v=0
0 On ch=10 n=54 v=31
96 Off ch=10 n=54 v=0
0 On ch=10 n=54 v=31
96 Off ch=10 n=54 v=0
0 On ch=10 n=54 v=31
96 Off ch=10 n=54 v=0
0 On ch=10 n=54 v=31
96 Off ch=10 n=54 v=0
0 On ch=10 n=54 v=30
96 Off ch=10 n=54 v=0
0 On ch=10 n=54 v=30
96 Off ch=10 n=54 v=0
0 On ch=10 n=54 v=30
96 Off ch=10 n=54 v=0
0 On ch=10 n=54 v=30
96 Off ch=10 n=54 v=0
0 On ch=10 n=54 v=29
96 Off ch=10 n=54 v=0
0 On ch=10 n=54 v=29
96 Off ch=10 n=54 v=0
0 On ch=10 n=54 v=29
96 Off ch=10 n=54 v=0
0 On ch=10 n=54 v=29
96 Off ch=10 n=54 v=0
0 On ch=10 n=54 v=28
96 Off ch=10 n=54 v=0
0 On ch=10 n=54 v=28
96 Off ch=10 n=54 v=0
0 On ch=10 n=54 v=28
96 Off ch=10 n=54 v=0
0 On ch=10 n=54 v=27
96 Off ch=10 n=54 v=0
0 On ch=10 n=54 v=27
96 Off ch=10 n=54 v=0
0 On ch=10 n=54 v=27
96 Off ch=10 n=54 v=0
0 On ch=10 n=54 v=27
96 Off ch=10 n=54 v=0
0 On ch=10 n=54 v=26
96 Off ch=10 n=54 v=0
0 On ch=10 n=54 v=26
96 Off ch=10 n=54 v=0
0 On ch=10 n=54 v=26
96 Off ch=10 n=54 v=0
0 On ch=10 n=54 v=26
96 Off ch=10 n=54 v=0
0 On ch=10 n=54 v=25
96 Off ch=10 n=54 v=0
0 On ch=10 n=54 v=25
96 Off ch=10 n=54 v=0
0 On ch=10 n=54 v=25
96 Off ch=10 n=54 v=0
0 On ch=10 n=54 v=25
96 Off ch=10 n=54 v=0
0 On ch=10 n=54 v=24
96 Off ch=10 n=54 v=0
0 On ch=10 n=54 v=24
96 Off ch=10 n=54 v=0
0 On ch=10 n=54 v=24
96 Off ch=10 n=54 v=0
0 On ch=10 n=54 v=24
96 Off ch=10 n=54 v=0
0 On ch=10 n=54 v=23
96 Off ch=10 n=54 v=0
0 On ch=10 n=54 v=23
96 Off ch=10 n=54 v=0
0 On ch=10 n=54 v=23
96 Off ch=10 n=54 v=0
0 On ch=10 n=54 v=23
96 Off ch=10 n=54 v=0
0 On ch=10 n=54 v=22
96 Off ch=10 n=54 v=0
0 On ch=10 n=54 v=22
96 Off ch=10 n=54 v=0
0 On ch=10 n=54 v=22
96 Off ch=10 n=54 v=0
0 On ch=10 n=54 v=21
96 Off ch=10 n=54 v=0
0 On ch=10 n=54 v=21
96 Off ch=10 n=54 v=0
0 On ch=10 n=54 v=21
96 Off ch=10 n=54 v=0
0 On ch=10 n=54 v=21
96 Off ch=10 n=54 v=0
0 On ch=10 n=54 v=20
96 Off ch=10 n=54 v=0
0 On ch=10 n=54 v=20
96 Off ch=10 n=54 v=0
0 On ch=10 n=54 v=20
96 Off ch=10 n=54 v=0
0 On ch=10 n=54 v=20
96 Off ch=10 n=54 v=0
0 On ch=10 n=54 v=19
96 Off ch=10 n=54 v=0
0 On ch=10 n=54 v=19
96 Off ch=10 n=54 v=0
0 On ch=10 n=54 v=19
96 Off ch=10 n=54 v=0
0 On ch=10 n=54 v=19
96 Off ch=10 n=54 v=0
0 On ch=10 n=54 v=18
96 Off ch=10 n=54 v=0
0 On ch=10 n=54 v=18
96 Off ch=10 n=54 v=0
0 On ch=10 n=54 v=18
96 Off ch=10 n=54 v=0
0 On ch=10 n=54 v=18
96 Off ch=10 n=54 v=0
0 On ch=10 n=54 v=17
96 Off ch=10 n=54 v=0
0 On ch=10 n=54 v=17
96 Off ch=10 n=54 v=0
0 On ch=10 n=54 v=17
96 Off ch=10 n=54 v=0
0 On ch=10 n=54 v=17
96 Off ch=10 n=54 v=0
0 On ch=10 n=54 v=16
96 Off ch=10 n=54 v=0
0 On ch=10 n=54 v=16
96 Off ch=10 n=54 v=0
0 On ch=10 n=54 v=16
96 Off ch=10 n=54 v=0
0 On ch=10 n=54 v=16
96 Off ch=10 n=54 v=0
0 On ch=10 n=54 v=16
96 Off ch=10 n=54 v=0
0 On ch=10 n=54 v=16
96 Off ch=10 n=54 v=0
0 On ch=10 n=54 v=16
96 Off ch=10 n=54 v=0
0 On ch=10 n=54 v=16
96 Off ch=10 n=54 v=0
0 On ch=10 n=54 v=16
96 Off ch=10 n=54 v=0
0 On ch=10 n=54 v=16
96 Off ch=10 n=54 v=0
0 On ch=10 n=54 v=16
96 Off ch=10 n=54 v=0
0 On ch=10 n=54 v=16
96 Off ch=10 n=54 v=0
0 On ch=10 n=54 v=16
96 Off ch=10 n=54 v=0
0 On ch=10 n=54 v=16
96 Off ch=10 n=54 v=0
0 On ch=10 n=54 v=16
96 Off ch=10 n=54 v=0
0 On ch=10 n=54 v=16
96 Off ch=10 n=54 v=0
0 On ch=10 n=54 v=16
96 Off ch=10 n=54 v=0
0 On ch=10 n=54 v=16
96 Off ch=10 n=54 v=0
0 On ch=10 n=54 v=16
96 Off ch=10 n=54 v=0
0 On ch=10 n=54 v=16
96 Off ch=10 n=54 v=0
0 On ch=10 n=54 v=16
96 Off ch=10 n=54 v=0
0 On ch=10 n=54 v=16
96 Off ch=10 n=54 v=0
0 On ch=10 n=54 v=16
96 Off ch=10 n=54 v=0
0 On ch=10 n=54 v=16
96 Off ch=10 n=54 v=0
0 On ch=10 n=54 v=16
96 Off ch=10 n=54 v=0
0 On ch=10 n=54 v=16
96 Off ch=10 n=54 v=0
0 On ch=10 n=54 v=16
96 Off ch=10 n=54 v=0
0 On ch=10 n=54 v=16
96 Off ch=10 n=54 v=0
0 On ch=10 n=54 v=16
96 Off ch=10 n=54 v=0
0 On ch=10 n=54 v=16
96 Off ch=10 n=54 v=0
0 On ch=10 n=54 v=16
96 Off ch=10 n=54 v=0
0 On ch=10 n=54 v=16
96 Off ch=10 n=54 v=0
0 On ch=10 n=54 v=16
96 Off ch=10 n=54 v=0
0 On ch=10 n=54 v=16
96 Off ch=10 n=54 v=0
0 On ch=10 n=54 v=16
96 Off ch=10 n=54 v=0
0 On ch=10 n=54 v=16
96 Off ch=10 n=54 v=0
0 On ch=10 n=54 v=16
96 Off ch=10 n=54 v=0
0 On ch=10 n=54 v=16
96 Off ch=10 n=54 v=0
0 On ch=10 n=54 v=16
96 Off ch=10 n=54 v=0
0 On ch=10 n=54 v=16
96 Off ch=10 n=54 v=0
0 On ch=10 n=54 v=16
96 Off ch=10 n=54 v=0
0 On ch=10 n=54 v=16
96 Off ch=10 n=54 v=0
0 On ch=10 n=54 v=16
96 Off ch=10 n=54 v=0
0 On ch=10 n=54 v=16
96 Off ch=10 n=54 v=0
0 On ch=10 n=54 v=16
96 Off ch=10 n=54 v=0
0 On ch=10 n=54 v=16
96 Off ch=10 n=54 v=0
0 On ch=10 n=54 v=16
96 Off ch=10 n=54 v=0
0 On ch=10 n=54 v=16
96 Off ch=10 n=54 v=0
0 On ch=10 n=54 v=16
96 Off ch=10 n=54 v=0
0 On ch=10 n=54 v=16
96 Off ch=10 n=54 v=0
0 On ch=10 n=54 v=16
96 Off ch=10 n=54 v=0
0 On ch=10 n=54 v=16
96 Off ch=10 n=54 v=0
0 On ch=10 n=54 v=16
96 Off ch=10 n=54 v=0
0 On ch=10 n=54 v=16
96 Off ch=10 n=54 v=0
0 Meta TrkEnd
TrkEnd
MTrk
TimestampType=Delta
0 Meta TrkName "RIDE CYMB"
26112 On ch=10 n=51 v=80
96 Off ch=10 n=51 v=0
96 On ch=10 n=51 v=78
96 Off ch=10 n=51 v=0
96 On ch=10 n=51 v=73
96 Off ch=10 n=51 v=0
1056 On ch=10 n=51 v=50
96 Off ch=10 n=51 v=0
96 On ch=10 n=51 v=50
96 Off ch=10 n=51 v=0
96 On ch=10 n=51 v=50
96 Off ch=10 n=51 v=0
96 On ch=10 n=51 v=50
96 Off ch=10 n=51 v=0
96 On ch=10 n=51 v=50
96 Off ch=10 n=51 v=0
96 On ch=10 n=51 v=50
96 Off ch=10 n=51 v=0
96 On ch=10 n=51 v=50
96 Off ch=10 n=51 v=0
96 On ch=10 n=51 v=50
96 Off ch=10 n=51 v=0
96 On ch=10 n=51 v=50
96 Off ch=10 n=51 v=0
96 On ch=10 n=51 v=50
96 Off ch=10 n=51 v=0
96 On ch=10 n=51 v=50
96 Off ch=10 n=51 v=0
96 On ch=10 n=51 v=50
96 Off ch=10 n=51 v=0
96 On ch=10 n=51 v=50
96 Off ch=10 n=51 v=0
96 On ch=10 n=51 v=50
96 Off ch=10 n=51 v=0
96 On ch=10 n=51 v=50
96 Off ch=10 n=51 v=0
96 On ch=10 n=51 v=50
96 Off ch=10 n=51 v=0
96 On ch=10 n=51 v=50
96 Off ch=10 n=51 v=0
96 On ch=10 n=51 v=50
96 Off ch=10 n=51 v=0
96 On ch=10 n=51 v=50
96 Off ch=10 n=51 v=0
96 On ch=10 n=51 v=50
96 Off ch=10 n=51 v=0
96 On ch=10 n=51 v=50
96 Off ch=10 n=51 v=0
96 On ch=10 n=51 v=50
96 Off ch=10 n=51 v=0
96 On ch=10 n=51 v=50
96 Off ch=10 n=51 v=0
96 On ch=10 n=51 v=50
96 Off ch=10 n=51 v=0
96 On ch=10 n=51 v=50
96 Off ch=10 n=51 v=0
96 On ch=10 n=51 v=50
96 Off ch=10 n=51 v=0
96 On ch=10 n=51 v=50
96 Off ch=10 n=51 v=0
96 On ch=10 n=51 v=50
96 Off ch=10 n=51 v=0
96 On ch=10 n=51 v=50
96 Off ch=10 n=51 v=0
96 On ch=10 n=51 v=50
96 Off ch=10 n=51 v=0
480 On ch=10 n=51 v=68
96 Off ch=10 n=51 v=0
96 On ch=10 n=51 v=48
96 Off ch=10 n=51 v=0
96 On ch=10 n=51 v=44
96 Off ch=10 n=51 v=0
96 On ch=10 n=51 v=50
96 Off ch=10 n=51 v=0
96 On ch=10 n=51 v=50
96 Off ch=10 n=51 v=0
96 On ch=10 n=51 v=50
96 Off ch=10 n=51 v=0
96 On ch=10 n=51 v=50
96 Off ch=10 n=51 v=0
96 On ch=10 n=51 v=50
96 Off ch=10 n=51 v=0
96 On ch=10 n=51 v=50
96 Off ch=10 n=51 v=0
96 On ch=10 n=51 v=50
96 Off ch=10 n=51 v=0
96 On ch=10 n=51 v=50
96 Off ch=10 n=51 v=0
96 On ch=10 n=51 v=50
96 Off ch=10 n=51 v=0
96 On ch=10 n=51 v=50
96 Off ch=10 n=51 v=0
96 On ch=10 n=51 v=50
96 Off ch=10 n=51 v=0
96 On ch=10 n=51 v=50
96 Off ch=10 n=51 v=0
96 On ch=10 n=51 v=50
96 Off ch=10 n=51 v=0
96 On ch=10 n=51 v=50
96 Off ch=10 n=51 v=0
96 On ch=10 n=51 v=50
96 Off ch=10 n=51 v=0
96 On ch=10 n=51 v=50
96 Off ch=10 n=51 v=0
96 On ch=10 n=51 v=50
96 Off ch=10 n=51 v=0
96 On ch=10 n=51 v=50
96 Off ch=10 n=51 v=0
96 On ch=10 n=51 v=50
96 Off ch=10 n=51 v=0
96 On ch=10 n=51 v=50
96 Off ch=10 n=51 v=0
96 On ch=10 n=51 v=50
96 Off ch=10 n=51 v=0
96 On ch=10 n=51 v=50
96 Off ch=10 n=51 v=0
96 On ch=10 n=51 v=50
96 Off ch=10 n=51 v=0
96 On ch=10 n=51 v=50
96 Off ch=10 n=51 v=0
96 On ch=10 n=51 v=50
96 Off ch=10 n=51 v=0
96 On ch=10 n=51 v=50
96 Off ch=10 n=51 v=0
96 On ch=10 n=51 v=50
96 Off ch=10 n=51 v=0
96 On ch=10 n=51 v=50
96 Off ch=10 n=51 v=0
96 On ch=10 n=51 v=50
96 Off ch=10 n=51 v=0
96 On ch=10 n=51 v=50
96 Off ch=10 n=51 v=0
96 On ch=10 n=51 v=50
96 Off ch=10 n=51 v=0
96 On ch=10 n=51 v=50
96 Off ch=10 n=51 v=0
96 On ch=10 n=51 v=50
96 Off ch=10 n=51 v=0
96 On ch=10 n=51 v=50
96 Off ch=10 n=51 v=0
96 On ch=10 n=51 v=64
96 Off ch=10 n=51 v=0
480 On ch=10 n=51 v=50
96 Off ch=10 n=51 v=0
96 On ch=10 n=51 v=50
96 Off ch=10 n=51 v=0
96 On ch=10 n=51 v=50
96 Off ch=10 n=51 v=0
96 On ch=10 n=51 v=50
96 Off ch=10 n=51 v=0
96 On ch=10 n=51 v=50
96 Off ch=10 n=51 v=0
96 On ch=10 n=51 v=50
96 Off ch=10 n=51 v=0
96 On ch=10 n=51 v=50
96 Off ch=10 n=51 v=0
96 On ch=10 n=51 v=50
96 Off ch=10 n=51 v=0
96 On ch=10 n=51 v=71
96 Off ch=10 n=51 v=0
672 On ch=10 n=51 v=77
96 Off ch=10 n=51 v=0
13728 On ch=10 n=51 v=60
96 Off ch=10 n=51 v=0
96 On ch=10 n=51 v=60
96 Off ch=10 n=51 v=0
96 On ch=10 n=51 v=68
96 Off ch=10 n=51 v=0
96 On ch=10 n=51 v=64
96 Off ch=10 n=51 v=0
96 On ch=10 n=51 v=64
96 Off ch=10 n=51 v=0
672 On ch=10 n=51 v=50
96 Off ch=10 n=51 v=0
96 On ch=10 n=51 v=50
96 Off ch=10 n=51 v=0
96 On ch=10 n=51 v=50
96 Off ch=10 n=51 v=0
96 On ch=10 n=51 v=50
96 Off ch=10 n=51 v=0
96 On ch=10 n=51 v=50
96 Off ch=10 n=51 v=0
96 On ch=10 n=51 v=50
96 Off ch=10 n=51 v=0
96 On ch=10 n=51 v=50
96 Off ch=10 n=51 v=0
96 On ch=10 n=51 v=50
96 Off ch=10 n=51 v=0
96 On ch=10 n=51 v=50
96 Off ch=10 n=51 v=0
96 On ch=10 n=51 v=50
96 Off ch=10 n=51 v=0
96 On ch=10 n=51 v=50
96 Off ch=10 n=51 v=0
96 On ch=10 n=51 v=50
96 Off ch=10 n=51 v=0
96 On ch=10 n=51 v=50
96 Off ch=10 n=51 v=0
96 On ch=10 n=51 v=50
96 Off ch=10 n=51 v=0
96 On ch=10 n=51 v=50
96 Off ch=10 n=51 v=0
96 On ch=10 n=51 v=50
96 Off ch=10 n=51 v=0
96 On ch=10 n=51 v=50
96 Off ch=10 n=51 v=0
96 On ch=10 n=51 v=50
96 Off ch=10 n=51 v=0
96 On ch=10 n=51 v=50
96 Off ch=10 n=51 v=0
96 On ch=10 n=51 v=50
96 Off ch=10 n=51 v=0
96 On ch=10 n=51 v=50
96 Off ch=10 n=51 v=0
96 On ch=10 n=51 v=50
96 Off ch=10 n=51 v=0
96 On ch=10 n=51 v=50
96 Off ch=10 n=51 v=0
96 On ch=10 n=51 v=50
96 Off ch=10 n=51 v=0
96 On ch=10 n=51 v=50
96 Off ch=10 n=51 v=0
96 On ch=10 n=51 v=50
96 Off ch=10 n=51 v=0
96 On ch=10 n=51 v=50
96 Off ch=10 n=51 v=0
96 On ch=10 n=51 v=50
96 Off ch=10 n=51 v=0
96 On ch=10 n=51 v=50
96 Off ch=10 n=51 v=0
96 On ch=10 n=51 v=50
96 Off ch=10 n=51 v=0
480 On ch=10 n=51 v=68
96 Off ch=10 n=51 v=0
96 On ch=10 n=51 v=48
96 Off ch=10 n=51 v=0
96 On ch=10 n=51 v=44
96 Off ch=10 n=51 v=0
96 On ch=10 n=51 v=50
96 Off ch=10 n=51 v=0
96 On ch=10 n=51 v=50
96 Off ch=10 n=51 v=0
96 On ch=10 n=51 v=50
96 Off ch=10 n=51 v=0
96 On ch=10 n=51 v=50
96 Off ch=10 n=51 v=0
96 On ch=10 n=51 v=50
96 Off ch=10 n=51 v=0
96 On ch=10 n=51 v=50
96 Off ch=10 n=51 v=0
96 On ch=10 n=51 v=50
96 Off ch=10 n=51 v=0
96 On ch=10 n=51 v=50
96 Off ch=10 n=51 v=0
96 On ch=10 n=51 v=50
96 Off ch=10 n=51 v=0
96 On ch=10 n=51 v=50
96 Off ch=10 n=51 v=0
96 On ch=10 n=51 v=50
96 Off ch=10 n=51 v=0
96 On ch=10 n=51 v=50
96 Off ch=10 n=51 v=0
96 On ch=10 n=51 v=50
96 Off ch=10 n=51 v=0
96 On ch=10 n=51 v=50
96 Off ch=10 n=51 v=0
96 On ch=10 n=51 v=50
96 Off ch=10 n=51 v=0
96 On ch=10 n=51 v=50
96 Off ch=10 n=51 v=0
96 On ch=10 n=51 v=50
96 Off ch=10 n=51 v=0
96 On ch=10 n=51 v=50
96 Off ch=10 n=51 v=0
96 On ch=10 n=51 v=50
96 Off ch=10 n=51 v=0
96 On ch=10 n=51 v=50
96 Off ch=10 n=51 v=0
96 On ch=10 n=51 v=50
96 Off ch=10 n=51 v=0
96 On ch=10 n=51 v=50
96 Off ch=10 n=51 v=0
96 On ch=10 n=51 v=50
96 Off ch=10 n=51 v=0
96 On ch=10 n=51 v=50
96 Off ch=10 n=51 v=0
96 On ch=10 n=51 v=50
96 Off ch=10 n=51 v=0
96 On ch=10 n=51 v=50
96 Off ch=10 n=51 v=0
96 On ch=10 n=51 v=50
96 Off ch=10 n=51 v=0
96 On ch=10 n=51 v=50
96 Off ch=10 n=51 v=0
96 On ch=10 n=51 v=50
96 Off ch=10 n=51 v=0
96 On ch=10 n=51 v=50
96 Off ch=10 n=51 v=0
96 On ch=10 n=51 v=50
96 Off ch=10 n=51 v=0
96 On ch=10 n=51 v=50
96 Off ch=10 n=51 v=0
96 On ch=10 n=51 v=50
96 Off ch=10 n=51 v=0
96 On ch=10 n=51 v=50
96 Off ch=10 n=51 v=0
96 On ch=10 n=51 v=64
96 Off ch=10 n=51 v=0
480 On ch=10 n=51 v=50
96 Off ch=10 n=51 v=0
96 On ch=10 n=51 v=50
96 Off ch=10 n=51 v=0
96 On ch=10 n=51 v=50
96 Off ch=10 n=51 v=0
96 On ch=10 n=51 v=50
96 Off ch=10 n=51 v=0
96 On ch=10 n=51 v=50
96 Off ch=10 n=51 v=0
96 On ch=10 n=51 v=50
96 Off ch=10 n=51 v=0
96 On ch=10 n=51 v=50
96 Off ch=10 n=51 v=0
96 On ch=10 n=51 v=50
96 Off ch=10 n=51 v=0
96 On ch=10 n=51 v=71
96 Off ch=10 n=51 v=0
672 On ch=10 n=51 v=77
96 Off ch=10 n=51 v=0
1440 On ch=10 n=51 v=50
96 Off ch=10 n=51 v=0
12192 On ch=10 n=51 v=50
96 Off ch=10 n=51 v=0
672 On ch=10 n=51 v=50
96 Off ch=10 n=51 v=0
672 On ch=10 n=51 v=80
96 Off ch=10 n=51 v=0
96 On ch=10 n=51 v=50
96 Off ch=10 n=51 v=0
96 On ch=10 n=51 v=50
96 Off ch=10 n=51 v=0
96 On ch=10 n=51 v=50
96 Off ch=10 n=51 v=0
96 On ch=10 n=51 v=50
96 Off ch=10 n=51 v=0
96 On ch=10 n=51 v=50
96 Off ch=10 n=51 v=0
96 On ch=10 n=51 v=50
96 Off ch=10 n=51 v=0
96 On ch=10 n=51 v=50
96 Off ch=10 n=51 v=0
96 On ch=10 n=51 v=50
96 Off ch=10 n=51 v=0
96 On ch=10 n=51 v=50
96 Off ch=10 n=51 v=0
96 On ch=10 n=51 v=50
96 Off ch=10 n=51 v=0
96 On ch=10 n=51 v=50
96 Off ch=10 n=51 v=0
96 On ch=10 n=51 v=50
96 Off ch=10 n=51 v=0
96 On ch=10 n=51 v=50
96 Off ch=10 n=51 v=0
96 On ch=10 n=51 v=50
96 Off ch=10 n=51 v=0
96 On ch=10 n=51 v=50
96 Off ch=10 n=51 v=0
96 On ch=10 n=51 v=50
96 Off ch=10 n=51 v=0
96 On ch=10 n=51 v=50
96 Off ch=10 n=51 v=0
96 On ch=10 n=51 v=50
96 Off ch=10 n=51 v=0
96 On ch=10 n=51 v=50
96 Off ch=10 n=51 v=0
96 On ch=10 n=51 v=50
96 Off ch=10 n=51 v=0
96 On ch=10 n=51 v=50
96 Off ch=10 n=51 v=0
96 On ch=10 n=51 v=50
96 Off ch=10 n=51 v=0
96 On ch=10 n=51 v=50
96 Off ch=10 n=51 v=0
96 On ch=10 n=51 v=50
96 Off ch=10 n=51 v=0
96 On ch=10 n=51 v=50
96 Off ch=10 n=51 v=0
96 On ch=10 n=51 v=50
96 Off ch=10 n=51 v=0
96 On ch=10 n=51 v=50
96 Off ch=10 n=51 v=0
96 On ch=10 n=51 v=50
96 Off ch=10 n=51 v=0
96 On ch=10 n=51 v=50
96 Off ch=10 n=51 v=0
480 On ch=10 n=51 v=80
96 Off ch=10 n=51 v=0
96 On ch=10 n=51 v=50
96 Off ch=10 n=51 v=0
96 On ch=10 n=51 v=50
96 Off ch=10 n=51 v=0
96 On ch=10 n=51 v=50
96 Off ch=10 n=51 v=0
96 On ch=10 n=51 v=50
96 Off ch=10 n=51 v=0
96 On ch=10 n=51 v=50
96 Off ch=10 n=51 v=0
96 On ch=10 n=51 v=50
96 Off ch=10 n=51 v=0
96 On ch=10 n=51 v=50
96 Off ch=10 n=51 v=0
96 On ch=10 n=51 v=50
96 Off ch=10 n=51 v=0
96 On ch=10 n=51 v=50
96 Off ch=10 n=51 v=0
96 On ch=10 n=51 v=50
96 Off ch=10 n=51 v=0
96 On ch=10 n=51 v=50
96 Off ch=10 n=51 v=0
96 On ch=10 n=51 v=50
96 Off ch=10 n=51 v=0
96 On ch=10 n=51 v=50
96 Off ch=10 n=51 v=0
96 On ch=10 n=51 v=50
96 Off ch=10 n=51 v=0
96 On ch=10 n=51 v=50
96 Off ch=10 n=51 v=0
96 On ch=10 n=51 v=50
96 Off ch=10 n=51 v=0
96 On ch=10 n=51 v=50
96 Off ch=10 n=51 v=0
96 On ch=10 n=51 v=50
96 Off ch=10 n=51 v=0
96 On ch=10 n=51 v=50
96 Off ch=10 n=51 v=0
96 On ch=10 n=51 v=50
96 Off ch=10 n=51 v=0
96 On ch=10 n=51 v=50
96 Off ch=10 n=51 v=0
96 On ch=10 n=51 v=50
96 Off ch=10 n=51 v=0
96 On ch=10 n=51 v=50
96 Off ch=10 n=51 v=0
96 On ch=10 n=51 v=50
96 Off ch=10 n=51 v=0
96 On ch=10 n=51 v=50
96 Off ch=10 n=51 v=0
96 On ch=10 n=51 v=50
96 Off ch=10 n=51 v=0
96 On ch=10 n=51 v=50
96 Off ch=10 n=51 v=0
96 On ch=10 n=51 v=50
96 Off ch=10 n=51 v=0
96 On ch=10 n=51 v=50
96 Off ch=10 n=51 v=0
480 On ch=10 n=51 v=80
96 Off ch=10 n=51 v=0
96 On ch=10 n=51 v=50
96 Off ch=10 n=51 v=0
96 On ch=10 n=51 v=50
96 Off ch=10 n=51 v=0
96 On ch=10 n=51 v=50
96 Off ch=10 n=51 v=0
96 On ch=10 n=51 v=50
96 Off ch=10 n=51 v=0
96 On ch=10 n=51 v=50
96 Off ch=10 n=51 v=0
96 On ch=10 n=51 v=50
96 Off ch=10 n=51 v=0
96 On ch=10 n=51 v=50
96 Off ch=10 n=51 v=0
96 On ch=10 n=51 v=50
96 Off ch=10 n=51 v=0
96 On ch=10 n=51 v=50
96 Off ch=10 n=51 v=0
96 On ch=10 n=51 v=50
96 Off ch=10 n=51 v=0
96 On ch=10 n=51 v=50
96 Off ch=10 n=51 v=0
96 On ch=10 n=51 v=50
96 Off ch=10 n=51 v=0
96 On ch=10 n=51 v=50
96 Off ch=10 n=51 v=0
96 On ch=10 n=51 v=50
96 Off ch=10 n=51 v=0
96 On ch=10 n=51 v=50
96 Off ch=10 n=51 v=0
96 On ch=10 n=51 v=50
96 Off ch=10 n=51 v=0
96 On ch=10 n=51 v=50
96 Off ch=10 n=51 v=0
96 On ch=10 n=51 v=50
96 Off ch=10 n=51 v=0
96 On ch=10 n=51 v=50
96 Off ch=10 n=51 v=0
96 On ch=10 n=51 v=50
96 Off ch=10 n=51 v=0
96 On ch=10 n=51 v=50
96 Off ch=10 n=51 v=0
96 On ch=10 n=51 v=50
96 Off ch=10 n=51 v=0
96 On ch=10 n=51 v=50
96 Off ch=10 n=51 v=0
96 On ch=10 n=51 v=50
96 Off ch=10 n=51 v=0
96 On ch=10 n=51 v=50
96 Off ch=10 n=51 v=0
96 On ch=10 n=51 v=50
96 Off ch=10 n=51 v=0
96 On ch=10 n=51 v=50
96 Off ch=10 n=51 v=0
96 On ch=10 n=51 v=50
96 Off ch=10 n=51 v=0
96 On ch=10 n=51 v=50
96 Off ch=10 n=51 v=0
480 On ch=10 n=51 v=80
96 Off ch=10 n=51 v=0
96 On ch=10 n=51 v=50
96 Off ch=10 n=51 v=0
96 On ch=10 n=51 v=50
96 Off ch=10 n=51 v=0
96 On ch=10 n=51 v=50
96 Off ch=10 n=51 v=0
96 On ch=10 n=51 v=50
96 Off ch=10 n=51 v=0
96 On ch=10 n=51 v=50
96 Off ch=10 n=51 v=0
96 On ch=10 n=51 v=50
96 Off ch=10 n=51 v=0
96 On ch=10 n=51 v=50
96 Off ch=10 n=51 v=0
96 On ch=10 n=51 v=50
96 Off ch=10 n=51 v=0
96 On ch=10 n=51 v=50
96 Off ch=10 n=51 v=0
96 On ch=10 n=51 v=50
96 Off ch=10 n=51 v=0
96 On ch=10 n=51 v=50
96 Off ch=10 n=51 v=0
96 On ch=10 n=51 v=50
96 Off ch=10 n=51 v=0
96 On ch=10 n=51 v=50
96 Off ch=10 n=51 v=0
96 On ch=10 n=51 v=50
96 Off ch=10 n=51 v=0
96 On ch=10 n=51 v=50
96 Off ch=10 n=51 v=0
96 On ch=10 n=51 v=50
96 Off ch=10 n=51 v=0
96 On ch=10 n=51 v=50
96 Off ch=10 n=51 v=0
96 On ch=10 n=51 v=50
96 Off ch=10 n=51 v=0
96 On ch=10 n=51 v=50
96 Off ch=10 n=51 v=0
96 On ch=10 n=51 v=50
96 Off ch=10 n=51 v=0
96 On ch=10 n=51 v=50
96 Off ch=10 n=51 v=0
96 On ch=10 n=51 v=50
96 Off ch=10 n=51 v=0
96 On ch=10 n=51 v=50
96 Off ch=10 n=51 v=0
96 On ch=10 n=51 v=50
96 Off ch=10 n=51 v=0
96 On ch=10 n=51 v=50
96 Off ch=10 n=51 v=0
96 On ch=10 n=51 v=46
96 Off ch=10 n=51 v=0
96 On ch=10 n=51 v=45
96 Off ch=10 n=51 v=0
96 On ch=10 n=51 v=45
96 Off ch=10 n=51 v=0
96 On ch=10 n=51 v=44
96 Off ch=10 n=51 v=0
480 On ch=10 n=51 v=43
96 Off ch=10 n=51 v=0
96 On ch=10 n=51 v=43
96 Off ch=10 n=51 v=0
96 On ch=10 n=51 v=42
96 Off ch=10 n=51 v=0
96 On ch=10 n=51 v=42
96 Off ch=10 n=51 v=0
96 On ch=10 n=51 v=41
96 Off ch=10 n=51 v=0
96 On ch=10 n=51 v=41
96 Off ch=10 n=51 v=0
96 On ch=10 n=51 v=40
96 Off ch=10 n=51 v=0
96 On ch=10 n=51 v=40
96 Off ch=10 n=51 v=0
96 On ch=10 n=51 v=39
96 Off ch=10 n=51 v=0
96 On ch=10 n=51 v=39
96 Off ch=10 n=51 v=0
96 On ch=10 n=51 v=38
96 Off ch=10 n=51 v=0
96 On ch=10 n=51 v=38
96 Off ch=10 n=51 v=0
96 On ch=10 n=51 v=37
96 Off ch=10 n=51 v=0
96 On ch=10 n=51 v=37
96 Off ch=10 n=51 v=0
96 On ch=10 n=51 v=36
96 Off ch=10 n=51 v=0
96 On ch=10 n=51 v=36
96 Off ch=10 n=51 v=0
96 On ch=10 n=51 v=35
96 Off ch=10 n=51 v=0
96 On ch=10 n=51 v=35
96 Off ch=10 n=51 v=0
96 On ch=10 n=51 v=35
96 Off ch=10 n=51 v=0
96 On ch=10 n=51 v=34
96 Off ch=10 n=51 v=0
96 On ch=10 n=51 v=34
96 Off ch=10 n=51 v=0
96 On ch=10 n=51 v=33
96 Off ch=10 n=51 v=0
96 On ch=10 n=51 v=33
96 Off ch=10 n=51 v=0
96 On ch=10 n=51 v=32
96 Off ch=10 n=51 v=0
96 On ch=10 n=51 v=32
96 Off ch=10 n=51 v=0
96 On ch=10 n=51 v=31
96 Off ch=10 n=51 v=0
96 On ch=10 n=51 v=31
96 Off ch=10 n=51 v=0
96 On ch=10 n=51 v=30
96 Off ch=10 n=51 v=0
96 On ch=10 n=51 v=30
96 Off ch=10 n=51 v=0
96 On ch=10 n=51 v=29
96 Off ch=10 n=51 v=0
480 On ch=10 n=51 v=28
96 Off ch=10 n=51 v=0
96 On ch=10 n=51 v=27
96 Off ch=10 n=51 v=0
96 On ch=10 n=51 v=27
96 Off ch=10 n=51 v=0
96 On ch=10 n=51 v=27
96 Off ch=10 n=51 v=0
96 On ch=10 n=51 v=26
96 Off ch=10 n=51 v=0
96 On ch=10 n=51 v=26
96 Off ch=10 n=51 v=0
96 On ch=10 n=51 v=25
96 Off ch=10 n=51 v=0
96 On ch=10 n=51 v=25
96 Off ch=10 n=51 v=0
96 On ch=10 n=51 v=24
96 Off ch=10 n=51 v=0
96 On ch=10 n=51 v=24
96 Off ch=10 n=51 v=0
96 On ch=10 n=51 v=23
96 Off ch=10 n=51 v=0
96 On ch=10 n=51 v=23
96 Off ch=10 n=51 v=0
96 On ch=10 n=51 v=22
96 Off ch=10 n=51 v=0
96 On ch=10 n=51 v=22
96 Off ch=10 n=51 v=0
96 On ch=10 n=51 v=21
96 Off ch=10 n=51 v=0
96 On ch=10 n=51 v=21
96 Off ch=10 n=51 v=0
96 On ch=10 n=51 v=20
96 Off ch=10 n=51 v=0
96 On ch=10 n=51 v=20
96 Off ch=10 n=51 v=0
96 On ch=10 n=51 v=19
96 Off ch=10 n=51 v=0
96 On ch=10 n=51 v=19
96 Off ch=10 n=51 v=0
96 On ch=10 n=51 v=19
96 Off ch=10 n=51 v=0
96 On ch=10 n=51 v=18
96 Off ch=10 n=51 v=0
96 On ch=10 n=51 v=18
96 Off ch=10 n=51 v=0
96 On ch=10 n=51 v=17
96 Off ch=10 n=51 v=0
96 On ch=10 n=51 v=17
96 Off ch=10 n=51 v=0
96 On ch=10 n=51 v=16
96 Off ch=10 n=51 v=0
96 On ch=10 n=51 v=16
96 Off ch=10 n=51 v=0
96 On ch=10 n=51 v=15
96 Off ch=10 n=51 v=0
96 On ch=10 n=51 v=15
96 Off ch=10 n=51 v=0
96 On ch=10 n=51 v=14
96 Off ch=10 n=51 v=0
480 On ch=10 n=51 v=13
96 Off ch=10 n=51 v=0
96 On ch=10 n=51 v=12
96 Off ch=10 n=51 v=0
96 On ch=10 n=51 v=12
96 Off ch=10 n=51 v=0
96 On ch=10 n=51 v=11
96 Off ch=10 n=51 v=0
96 On ch=10 n=51 v=11
96 Off ch=10 n=51 v=0
96 On ch=10 n=51 v=11
96 Off ch=10 n=51 v=0
96 On ch=10 n=51 v=10
96 Off ch=10 n=51 v=0
96 On ch=10 n=51 v=10
96 Off ch=10 n=51 v=0
96 On ch=10 n=51 v=9
96 Off ch=10 n=51 v=0
96 On ch=10 n=51 v=9
96 Off ch=10 n=51 v=0
96 On ch=10 n=51 v=8
96 Off ch=10 n=51 v=0
96 On ch=10 n=51 v=8
96 Off ch=10 n=51 v=0
96 On ch=10 n=51 v=7
96 Off ch=10 n=51 v=0
96 On ch=10 n=51 v=7
96 Off ch=10 n=51 v=0
96 On ch=10 n=51 v=6
96 Off ch=10 n=51 v=0
96 On ch=10 n=51 v=6
96 Off ch=10 n=51 v=0
96 On ch=10 n=51 v=5
96 Off ch=10 n=51 v=0
96 On ch=10 n=51 v=5
96 Off ch=10 n=51 v=0
96 On ch=10 n=51 v=4
96 Off ch=10 n=51 v=0
96 On ch=10 n=51 v=4
96 Off ch=10 n=51 v=0
96 On ch=10 n=51 v=4
96 Off ch=10 n=51 v=0
96 On ch=10 n=51 v=3
96 Off ch=10 n=51 v=0
96 On ch=10 n=51 v=3
96 Off ch=10 n=51 v=0
96 On ch=10 n=51 v=2
96 Off ch=10 n=51 v=0
96 On ch=10 n=51 v=2
96 Off ch=10 n=51 v=0
96 On ch=10 n=51 v=1
96 Off ch=10 n=51 v=0
96 On ch=10 n=51 v=1
96 Off ch=10 n=51 v=0
96 On ch=10 n=51 v=1
96 Off ch=10 n=51 v=0
96 On ch=10 n=51 v=1
96 Off ch=10 n=51 v=0
96 On ch=10 n=51 v=1
96 Off ch=10 n=51 v=0
480 Meta TrkEnd
TrkEnd
MTrk
TimestampType=Delta
0 Meta TrkName "TOMS"
24864 On ch=10 n=48 v=63
96 Off ch=10 n=48 v=0
0 On ch=10 n=48 v=52
96 Off ch=10 n=48 v=0
0 On ch=10 n=48 v=72
96 Off ch=10 n=48 v=0
0 On ch=10 n=48 v=88
96 Off ch=10 n=48 v=0
96 On ch=10 n=45 v=50
0 On ch=10 n=48 v=78
96 Off ch=10 n=48 v=0
0 Off ch=10 n=45 v=0
96 On ch=10 n=45 v=50
0 On ch=10 n=48 v=81
96 Off ch=10 n=48 v=0
0 Off ch=10 n=45 v=0
96 On ch=10 n=41 v=64
64 Off ch=10 n=41 v=0
0 On ch=10 n=41 v=52
32 Off ch=10 n=41 v=0
32 On ch=10 n=41 v=68
32 Off ch=10 n=41 v=0
32 On ch=10 n=41 v=88
32 Off ch=10 n=41 v=0
160 On ch=10 n=41 v=71
96 Off ch=10 n=41 v=0
288 On ch=10 n=48 v=50
0 On ch=10 n=45 v=50
96 Off ch=10 n=45 v=0
0 Off ch=10 n=48 v=0
96 On ch=10 n=48 v=89
96 Off ch=10 n=48 v=0
0 On ch=10 n=45 v=74
96 Off ch=10 n=45 v=0
96 On ch=10 n=48 v=88
96 Off ch=10 n=48 v=0
0 On ch=10 n=45 v=79
96 Off ch=10 n=45 v=0
0 On ch=10 n=45 v=73
96 Off ch=10 n=45 v=0
0 On ch=10 n=45 v=72
96 Off ch=10 n=45 v=0
0 On ch=10 n=45 v=80
96 Off ch=10 n=45 v=0
0 On ch=10 n=41 v=64
96 Off ch=10 n=41 v=0
5664 On ch=10 n=45 v=88
96 Off ch=10 n=45 v=0
7584 On ch=10 n=45 v=88
96 Off ch=10 n=45 v=0
96 On ch=10 n=45 v=80
64 Off ch=10 n=45 v=0
0 On ch=10 n=45 v=64
32 Off ch=10 n=45 v=0
32 On ch=10 n=45 v=75
32 Off ch=10 n=45 v=0
32 On ch=10 n=41 v=97
96 Off ch=10 n=41 v=0
1824 On ch=10 n=45 v=72
96 Off ch=10 n=45 v=0
0 On ch=10 n=45 v=60
96 Off ch=10 n=45 v=0
0 On ch=10 n=45 v=79
96 Off ch=10 n=45 v=0
0 On ch=10 n=45 v=72
96 Off ch=10 n=45 v=0
0 On ch=10 n=41 v=71
96 Off ch=10 n=41 v=0
1056 On ch=10 n=45 v=86
96 Off ch=10 n=45 v=0
96 On ch=10 n=45 v=83
64 Off ch=10 n=45 v=0
0 On ch=10 n=45 v=69
32 Off ch=10 n=45 v=0
32 On ch=10 n=45 v=68
32 Off ch=10 n=45 v=0
32 On ch=10 n=45 v=55
0 On ch=10 n=41 v=61
32 Off ch=10 n=45 v=0
64 Off ch=10 n=41 v=0
5472 On ch=10 n=45 v=30
64 Off ch=10 n=45 v=0
0 On ch=10 n=45 v=30
32 Off ch=10 n=45 v=0
32 On ch=10 n=45 v=30
0 On ch=10 n=45 v=50
1 Off ch=10 n=45 v=0
31 Off ch=10 n=45 v=0
32 On ch=10 n=45 v=30
32 Off ch=10 n=45 v=0
160 On ch=10 n=45 v=50
64 Off ch=10 n=45 v=0
0 On ch=10 n=45 v=50
32 Off ch=10 n=45 v=0
32 On ch=10 n=45 v=50
32 Off ch=10 n=45 v=0
32 On ch=10 n=41 v=30
0 On ch=10 n=45 v=40
32 Off ch=10 n=45 v=0
64 Off ch=10 n=41 v=0
96 On ch=10 n=45 v=50
0 On ch=10 n=41 v=30
96 Off ch=10 n=41 v=0
0 Off ch=10 n=45 v=0
5472 On ch=10 n=45 v=64
96 Off ch=10 n=45 v=0
0 On ch=10 n=45 v=57
96 Off ch=10 n=45 v=0
0 On ch=10 n=45 v=65
0 On ch=10 n=45 v=64
1 Off ch=10 n=45 v=0
95 Off ch=10 n=45 v=0
0 On ch=10 n=45 v=60
96 Off ch=10 n=45 v=0
0 On ch=10 n=45 v=64
0 On ch=10 n=45 v=64
1 Off ch=10 n=45 v=0
95 Off ch=10 n=45 v=0
0 On ch=10 n=45 v=30
96 Off ch=10 n=45 v=0
0 On ch=10 n=45 v=50
0 On ch=10 n=41 v=65
96 Off ch=10 n=41 v=0
0 Off ch=10 n=45 v=0
864 On ch=10 n=45 v=80
96 Off ch=10 n=45 v=0
96 On ch=10 n=45 v=74
64 Off ch=10 n=45 v=0
0 On ch=10 n=45 v=62
32 Off ch=10 n=45 v=0
32 On ch=10 n=45 v=71
32 Off ch=10 n=45 v=0
32 On ch=10 n=41 v=69
0 On ch=10 n=45 v=66
32 Off ch=10 n=45 v=0
64 Off ch=10 n=41 v=0
5664 On ch=10 n=45 v=88
96 Off ch=10 n=45 v=0
96 On ch=10 n=45 v=72
96 Off ch=10 n=45 v=0
48 On ch=10 n=45 v=60
48 Off ch=10 n=45 v=0
0 On ch=10 n=45 v=78
48 Off ch=10 n=45 v=0
7248 On ch=10 n=45 v=88
96 Off ch=10 n=45 v=0
96 On ch=10 n=45 v=80
64 Off ch=10 n=45 v=0
0 On ch=10 n=45 v=64
32 Off ch=10 n=45 v=0
32 On ch=10 n=45 v=75
32 Off ch=10 n=45 v=0
32 On ch=10 n=41 v=97
96 Off ch=10 n=41 v=0
1824 On ch=10 n=45 v=72
96 Off ch=10 n=45 v=0
0 On ch=10 n=45 v=60
96 Off ch=10 n=45 v=0
0 On ch=10 n=45 v=79
96 Off ch=10 n=45 v=0
0 On ch=10 n=45 v=72
96 Off ch=10 n=45 v=0
0 On ch=10 n=41 v=71
96 Off ch=10 n=41 v=0
1056 On ch=10 n=48 v=30
0 On ch=10 n=45 v=86
96 Off ch=10 n=45 v=0
0 Off ch=10 n=48 v=0
96 On ch=10 n=45 v=83
96 Off ch=10 n=45 v=0
96 On ch=10 n=45 v=55
0 On ch=10 n=41 v=61
96 Off ch=10 n=41 v=0
0 Off ch=10 n=45 v=0
2784 On ch=10 n=45 v=72
64 Off ch=10 n=45 v=0
0 On ch=10 n=45 v=63
32 Off ch=10 n=45 v=0
32 On ch=10 n=45 v=65
32 Off ch=10 n=45 v=0
32 On ch=10 n=45 v=78
32 Off ch=10 n=45 v=0
2464 On ch=10 n=45 v=30
64 Off ch=10 n=45 v=0
0 On ch=10 n=45 v=30
32 Off ch=10 n=45 v=0
32 On ch=10 n=45 v=30
0 On ch=10 n=45 v=50
1 Off ch=10 n=45 v=0
31 Off ch=10 n=45 v=0
32 On ch=10 n=45 v=30
32 Off ch=10 n=45 v=0
160 On ch=10 n=45 v=50
64 Off ch=10 n=45 v=0
0 On ch=10 n=45 v=50
32 Off ch=10 n=45 v=0
32 On ch=10 n=45 v=50
32 Off ch=10 n=45 v=0
32 On ch=10 n=41 v=30
0 On ch=10 n=45 v=40
32 Off ch=10 n=45 v=0
64 Off ch=10 n=41 v=0
96 On ch=10 n=45 v=50
0 On ch=10 n=41 v=30
96 Off ch=10 n=41 v=0
0 Off ch=10 n=45 v=0
2400 On ch=10 n=48 v=83
64 Off ch=10 n=48 v=0
0 On ch=10 n=48 v=68
32 Off ch=10 n=48 v=0
32 On ch=10 n=48 v=84
32 Off ch=10 n=48 v=0
32 On ch=10 n=48 v=100
32 Off ch=10 n=48 v=0
32 On ch=10 n=48 v=68
32 Off ch=10 n=48 v=0
32 On ch=10 n=48 v=80
32 Off ch=10 n=48 v=0
32 On ch=10 n=45 v=50
0 On ch=10 n=48 v=80
32 Off ch=10 n=48 v=0
64 Off ch=10 n=45 v=0
96 On ch=10 n=45 v=61
96 Off ch=10 n=45 v=0
1824 On ch=10 n=48 v=50
96 Off ch=10 n=48 v=0
96 On ch=10 n=48 v=68
64 Off ch=10 n=48 v=0
0 On ch=10 n=48 v=58
32 Off ch=10 n=48 v=0
32 On ch=10 n=48 v=64
32 Off ch=10 n=48 v=0
32 On ch=10 n=45 v=76
96 Off ch=10 n=45 v=0
96 On ch=10 n=45 v=72
96 Off ch=10 n=45 v=0
96 On ch=10 n=45 v=60
64 Off ch=10 n=45 v=0
0 On ch=10 n=45 v=50
32 Off ch=10 n=45 v=0
32 On ch=10 n=45 v=60
32 Off ch=10 n=45 v=0
32 On ch=10 n=45 v=59
0 On ch=10 n=45 v=50
1 Off ch=10 n=45 v=0
31 Off ch=10 n=45 v=0
160 On ch=10 n=45 v=72
96 Off ch=10 n=45 v=0
96 On ch=10 n=45 v=50
0 On ch=10 n=45 v=68
1 Off ch=10 n=45 v=0
95 Off ch=10 n=45 v=0
0 On ch=10 n=45 v=65
96 Off ch=10 n=45 v=0
96 On ch=10 n=45 v=50
0 On ch=10 n=45 v=61
1 Off ch=10 n=45 v=0
95 Off ch=10 n=45 v=0
0 On ch=10 n=45 v=68
96 Off ch=10 n=45 v=0
96 On ch=10 n=45 v=50
0 On ch=10 n=41 v=93
96 Off ch=10 n=41 v=0
0 Off ch=10 n=45 v=0
672 On ch=10 n=41 v=50
96 Off ch=10 n=41 v=0
5472 On ch=10 n=45 v=50
96 Off ch=10 n=45 v=0
96 On ch=10 n=48 v=50
96 Off ch=10 n=48 v=0
0 On ch=10 n=45 v=50
96 Off ch=10 n=45 v=0
0 On ch=10 n=41 v=50
96 Off ch=10 n=41 v=0
96 On ch=10 n=41 v=50
96 Off ch=10 n=41 v=0
5472 On ch=10 n=45 v=50
96 Off ch=10 n=45 v=0
96 On ch=10 n=48 v=50
96 Off ch=10 n=48 v=0
0 On ch=10 n=45 v=50
96 Off ch=10 n=45 v=0
0 On ch=10 n=41 v=50
96 Off ch=10 n=41 v=0
96 On ch=10 n=41 v=50
96 Off ch=10 n=41 v=0
5472 On ch=10 n=45 v=50
96 Off ch=10 n=45 v=0
96 On ch=10 n=48 v=50
96 Off ch=10 n=48 v=0
0 On ch=10 n=45 v=50
96 Off ch=10 n=45 v=0
0 On ch=10 n=41 v=50
96 Off ch=10 n=41 v=0
96 On ch=10 n=41 v=50
96 Off ch=10 n=41 v=0
5472 On ch=10 n=45 v=46
96 Off ch=10 n=45 v=0
96 On ch=10 n=48 v=46
96 Off ch=10 n=48 v=0
0 On ch=10 n=45 v=45
96 Off ch=10 n=45 v=0
0 On ch=10 n=41 v=45
96 Off ch=10 n=41 v=0
96 On ch=10 n=41 v=45
96 Off ch=10 n=41 v=0
5472 On ch=10 n=45 v=31
96 Off ch=10 n=45 v=0
96 On ch=10 n=48 v=30
96 Off ch=10 n=48 v=0
0 On ch=10 n=45 v=30
96 Off ch=10 n=45 v=0
0 On ch=10 n=41 v=30
96 Off ch=10 n=41 v=0
96 On ch=10 n=41 v=30
96 Off ch=10 n=41 v=0
5472 On ch=10 n=45 v=16
96 Off ch=10 n=45 v=0
96 On ch=10 n=48 v=15
96 Off ch=10 n=48 v=0
0 On ch=10 n=45 v=15
96 Off ch=10 n=45 v=0
0 On ch=10 n=41 v=15
96 Off ch=10 n=41 v=0
96 On ch=10 n=41 v=14
96 Off ch=10 n=41 v=0
5472 On ch=10 n=45 v=1
96 Off ch=10 n=45 v=0
96 On ch=10 n=48 v=1
96 Off ch=10 n=48 v=0
0 On ch=10 n=45 v=1
96 Off ch=10 n=45 v=0
0 On ch=10 n=41 v=1
96 Off ch=10 n=41 v=0
96 Meta TrkEnd
TrkEnd
MTrk
TimestampType=Delta
0 Meta TrkName "GS/RESET"
0 SysEx f0 42 12 40 00 7f 00 41 f7 b0 00
6144 Meta TrkEnd
TrkEnd