MFile 1 11 384
MTrk
0 Tempo 810810
0 TimeSig 4/4 24 8
44544 TimeSig 2/4 24 8
45312 TimeSig 4/4 24 8
76032 TimeSig 2/4 24 8
76800 TimeSig 4/4 24 8
133632 Meta TrkEnd
TrkEnd
MTrk
0 Meta TrkName "MELODY"
2 Par ch=1 c=7 v=125
2 PrCh ch=1 p=1
770 PrCh ch=1 p=1
770 Par ch=1 c=7 v=125
1158 On ch=1 n=72 v=67
1536 Off ch=1 n=72 v=0
1542 On ch=1 n=69 v=66
1962 ChPr ch=1 v=0
2062 ChPr ch=1 v=1
2074 ChPr ch=1 v=2
2174 ChPr ch=1 v=1
2182 ChPr ch=1 v=0
2186 ChPr ch=1 v=0
2336 Off ch=1 n=69 v=0
2502 On ch=1 n=69 v=64
2694 On ch=1 n=72 v=66
2704 Off ch=1 n=69 v=0
2886 On ch=1 n=74 v=64
2888 Off ch=1 n=72 v=0
3074 On ch=1 n=67 v=62
3076 Off ch=1 n=74 v=0
3122 ChPr ch=1 v=0
3154 ChPr ch=1 v=0
3860 Off ch=1 n=67 v=0
4226 On ch=1 n=67 v=73
4418 On ch=1 n=69 v=79
4420 Off ch=1 n=67 v=0
4580 Off ch=1 n=69 v=0
4610 On ch=1 n=70 v=63
4916 Off ch=1 n=70 v=0
4994 On ch=1 n=77 v=69
5492 Off ch=1 n=77 v=0
5570 On ch=1 n=77 v=67
5760 Off ch=1 n=77 v=0
5762 On ch=1 n=76 v=62
5954 On ch=1 n=72 v=62
5956 Off ch=1 n=76 v=0
6124 Off ch=1 n=72 v=0
6146 On ch=1 n=74 v=78
6338 On ch=1 n=72 v=63
6352 Off ch=1 n=74 v=0
6434 On ch=1 n=70 v=63
6460 Off ch=1 n=72 v=0
6516 Off ch=1 n=70 v=0
6530 On ch=1 n=69 v=66
6574 ChPr ch=1 v=0
6590 ChPr ch=1 v=1
6710 ChPr ch=1 v=0
6782 ChPr ch=1 v=0
7316 Off ch=1 n=69 v=0
7490 On ch=1 n=72 v=76
7660 Off ch=1 n=72 v=0
7682 On ch=1 n=74 v=74
7796 Off ch=1 n=74 v=0
7874 On ch=1 n=74 v=79
8136 Off ch=1 n=74 v=0
8258 On ch=1 n=74 v=64
8400 Off ch=1 n=74 v=0
8450 On ch=1 n=79 v=64
8540 Off ch=1 n=79 v=0
8550 On ch=1 n=77 v=73
8720 Off ch=1 n=77 v=0
8742 On ch=1 n=76 v=72
8932 Off ch=1 n=76 v=0
8934 On ch=1 n=77 v=64
9016 Off ch=1 n=77 v=0
9030 On ch=1 n=74 v=63
9208 Off ch=1 n=74 v=0
9218 On ch=1 n=72 v=79
9788 Off ch=1 n=72 v=0
9986 On ch=1 n=65 v=63
10178 On ch=1 n=67 v=70
10180 Off ch=1 n=65 v=0
10360 Off ch=1 n=67 v=0
10370 On ch=1 n=69 v=70
10744 Off ch=1 n=69 v=0
10754 On ch=1 n=74 v=74
10790 ChPr ch=1 v=0
10810 ChPr ch=1 v=0
10940 Off ch=1 n=74 v=0
10946 On ch=1 n=72 v=66
11304 Off ch=1 n=72 v=0
11334 On ch=1 n=72 v=68
11524 Off ch=1 n=72 v=0
11526 On ch=1 n=70 v=65
11684 Off ch=1 n=70 v=0
11710 On ch=1 n=69 v=65
12040 Off ch=1 n=69 v=0
12098 On ch=1 n=64 v=74
12314 ChPr ch=1 v=0
12342 ChPr ch=1 v=0
12446 ChPr ch=1 v=0
12482 On ch=1 n=65 v=69
12488 Off ch=1 n=64 v=0
12766 ChPr ch=1 v=0
13264 Off ch=1 n=65 v=0
13446 On ch=1 n=72 v=67
13824 Off ch=1 n=72 v=0
13830 On ch=1 n=69 v=66
14250 ChPr ch=1 v=0
14350 ChPr ch=1 v=1
14362 ChPr ch=1 v=2
14462 ChPr ch=1 v=1
14470 ChPr ch=1 v=0
14474 ChPr ch=1 v=0
14624 Off ch=1 n=69 v=0
14790 On ch=1 n=69 v=64
14982 On ch=1 n=72 v=66
14992 Off ch=1 n=69 v=0
15174 On ch=1 n=74 v=64
15176 Off ch=1 n=72 v=0
15362 On ch=1 n=67 v=62
15364 Off ch=1 n=74 v=0
15410 ChPr ch=1 v=0
15442 ChPr ch=1 v=0
16148 Off ch=1 n=67 v=0
16514 On ch=1 n=67 v=73
16706 On ch=1 n=69 v=79
16708 Off ch=1 n=67 v=0
16868 Off ch=1 n=69 v=0
16898 On ch=1 n=70 v=63
17204 Off ch=1 n=70 v=0
17282 On ch=1 n=77 v=69
17780 Off ch=1 n=77 v=0
17858 On ch=1 n=77 v=67
18048 Off ch=1 n=77 v=0
18050 On ch=1 n=76 v=62
18242 On ch=1 n=72 v=62
18244 Off ch=1 n=76 v=0
18412 Off ch=1 n=72 v=0
18434 On ch=1 n=74 v=78
18626 On ch=1 n=72 v=63
18640 Off ch=1 n=74 v=0
18722 On ch=1 n=70 v=63
18748 Off ch=1 n=72 v=0
18804 Off ch=1 n=70 v=0
18818 On ch=1 n=69 v=66
18862 ChPr ch=1 v=0
18878 ChPr ch=1 v=1
18998 ChPr ch=1 v=0
19070 ChPr ch=1 v=0
19604 Off ch=1 n=69 v=0
19778 On ch=1 n=72 v=76
19948 Off ch=1 n=72 v=0
19970 On ch=1 n=74 v=74
20040 Off ch=1 n=74 v=0
20070 On ch=1 n=74 v=79
20264 Off ch=1 n=74 v=0
20546 On ch=1 n=74 v=64
20688 Off ch=1 n=74 v=0
20738 On ch=1 n=79 v=64
20828 Off ch=1 n=79 v=0
20838 On ch=1 n=77 v=73
21008 Off ch=1 n=77 v=0
21030 On ch=1 n=76 v=72
21220 Off ch=1 n=76 v=0
21222 On ch=1 n=77 v=64
21304 Off ch=1 n=77 v=0
21318 On ch=1 n=74 v=63
21496 Off ch=1 n=74 v=0
21506 On ch=1 n=72 v=79
22076 Off ch=1 n=72 v=0
22274 On ch=1 n=65 v=63
22466 On ch=1 n=67 v=70
22468 Off ch=1 n=65 v=0
22648 Off ch=1 n=67 v=0
22658 On ch=1 n=69 v=70
23032 Off ch=1 n=69 v=0
23042 On ch=1 n=74 v=74
23078 ChPr ch=1 v=0
23098 ChPr ch=1 v=0
23228 Off ch=1 n=74 v=0
23234 On ch=1 n=72 v=66
23592 Off ch=1 n=72 v=0
23622 On ch=1 n=72 v=68
23812 Off ch=1 n=72 v=0
23814 On ch=1 n=70 v=65
23972 Off ch=1 n=70 v=0
23998 On ch=1 n=69 v=65
24328 Off ch=1 n=69 v=0
24386 On ch=1 n=64 v=74
24602 ChPr ch=1 v=0
24630 ChPr ch=1 v=0
24734 ChPr ch=1 v=0
24770 On ch=1 n=65 v=69
24776 Off ch=1 n=64 v=0
25054 ChPr ch=1 v=0
25552 Off ch=1 n=65 v=0
26406 On ch=1 n=65 v=66
26498 On ch=1 n=77 v=65
26516 Off ch=1 n=65 v=0
26594 On ch=1 n=75 v=65
26612 Off ch=1 n=77 v=0
26748 Off ch=1 n=75 v=0
26786 On ch=1 n=74 v=75
27072 Off ch=1 n=74 v=0
27078 On ch=1 n=72 v=78
27208 Off ch=1 n=72 v=0
27270 On ch=1 n=72 v=72
27436 Off ch=1 n=72 v=0
27462 On ch=1 n=70 v=66
27554 On ch=1 n=74 v=65
27572 Off ch=1 n=70 v=0
27972 Off ch=1 n=74 v=0
28042 On ch=1 n=77 v=77
28204 Off ch=1 n=77 v=0
28226 On ch=1 n=74 v=76
28760 Off ch=1 n=74 v=0
28802 On ch=1 n=77 v=63
28984 Off ch=1 n=77 v=0
28994 On ch=1 n=70 v=66
29452 Off ch=1 n=70 v=0
29566 On ch=1 n=77 v=63
29752 Off ch=1 n=77 v=0
29762 On ch=1 n=74 v=78
30144 Off ch=1 n=74 v=0
30146 On ch=1 n=72 v=70
30334 On ch=1 n=70 v=66
30340 Off ch=1 n=72 v=0
30520 Off ch=1 n=70 v=0
30530 On ch=1 n=72 v=73
31100 Off ch=1 n=72 v=0
31110 On ch=1 n=74 v=65
31268 Off ch=1 n=74 v=0
31298 On ch=1 n=72 v=69
31812 Off ch=1 n=72 v=0
31870 On ch=1 n=70 v=66
32048 Off ch=1 n=70 v=0
32066 On ch=1 n=69 v=78
32420 Off ch=1 n=69 v=0
32454 On ch=1 n=67 v=66
32546 On ch=1 n=65 v=64
32552 Off ch=1 n=67 v=0
32610 ChPr ch=1 v=0
32614 ChPr ch=1 v=1
32622 ChPr ch=1 v=3
32626 ChPr ch=1 v=4
32642 ChPr ch=1 v=3
32654 ChPr ch=1 v=2
32682 ChPr ch=1 v=3
32686 ChPr ch=1 v=4
32698 ChPr ch=1 v=5
32766 ChPr ch=1 v=6
32802 ChPr ch=1 v=7
32814 ChPr ch=1 v=8
32818 ChPr ch=1 v=9
32830 ChPr ch=1 v=10
32846 ChPr ch=1 v=11
32854 ChPr ch=1 v=12
32866 ChPr ch=1 v=13
32870 ChPr ch=1 v=14
32882 ChPr ch=1 v=15
32890 ChPr ch=1 v=16
32898 ChPr ch=1 v=17
32902 ChPr ch=1 v=18
32910 ChPr ch=1 v=19
32914 ChPr ch=1 v=20
32922 ChPr ch=1 v=21
32926 ChPr ch=1 v=23
32934 ChPr ch=1 v=24
32942 ChPr ch=1 v=26
32954 ChPr ch=1 v=27
32966 ChPr ch=1 v=26
32974 ChPr ch=1 v=23
32982 ChPr ch=1 v=19
32986 ChPr ch=1 v=14
32994 ChPr ch=1 v=9
33002 ChPr ch=1 v=5
33006 ChPr ch=1 v=1
33014 ChPr ch=1 v=0
33018 ChPr ch=1 v=0
33024 Off ch=1 n=65 v=0
34086 On ch=1 n=65 v=65
34182 On ch=1 n=77 v=77
34188 Off ch=1 n=65 v=0
34242 ChPr ch=1 v=0
34250 ChPr ch=1 v=1
34274 ChPr ch=1 v=0
34282 ChPr ch=1 v=0
34352 Off ch=1 n=77 v=0
34374 On ch=1 n=74 v=64
34532 Off ch=1 n=74 v=0
34562 On ch=1 n=74 v=65
34752 Off ch=1 n=74 v=0
34758 On ch=1 n=72 v=76
34888 Off ch=1 n=72 v=0
34946 On ch=1 n=72 v=68
35124 Off ch=1 n=72 v=0
35138 On ch=1 n=70 v=64
35276 Off ch=1 n=70 v=0
35326 On ch=1 n=74 v=74
35708 Off ch=1 n=74 v=0
35714 On ch=1 n=77 v=64
35884 Off ch=1 n=77 v=0
35906 On ch=1 n=74 v=65
36452 Off ch=1 n=74 v=0
36474 On ch=1 n=77 v=64
36660 Off ch=1 n=77 v=0
36674 On ch=1 n=70 v=64
37152 Off ch=1 n=70 v=0
37254 On ch=1 n=77 v=75
37420 Off ch=1 n=77 v=0
37438 On ch=1 n=74 v=68
37818 On ch=1 n=72 v=66
37824 Off ch=1 n=74 v=0
38014 On ch=1 n=70 v=63
38020 Off ch=1 n=72 v=0
38210 On ch=1 n=72 v=63
38216 Off ch=1 n=70 v=0
38704 Off ch=1 n=72 v=0
38790 On ch=1 n=74 v=75
38932 Off ch=1 n=74 v=0
38978 On ch=1 n=72 v=74
39340 Off ch=1 n=72 v=0
39362 On ch=1 n=70 v=63
39744 Off ch=1 n=70 v=0
39842 On ch=1 n=69 v=76
40116 Off ch=1 n=69 v=0
40126 On ch=1 n=67 v=66
40216 Off ch=1 n=67 v=0
40222 On ch=1 n=65 v=66
40250 ChPr ch=1 v=0
40258 ChPr ch=1 v=1
40282 ChPr ch=1 v=0
40358 ChPr ch=1 v=0
40402 ChPr ch=1 v=0
40744 Off ch=1 n=65 v=0
40898 On ch=1 n=65 v=78
41056 Off ch=1 n=65 v=0
41090 On ch=1 n=72 v=66
41276 Off ch=1 n=72 v=0
41282 On ch=1 n=74 v=67
41436 Off ch=1 n=74 v=0
41474 On ch=1 n=75 v=77
41836 Off ch=1 n=75 v=0
41858 On ch=1 n=75 v=77
42084 Off ch=1 n=75 v=0
42246 On ch=1 n=76 v=76
42412 Off ch=1 n=76 v=0
42434 On ch=1 n=77 v=64
42588 Off ch=1 n=77 v=0
42622 On ch=1 n=79 v=66
42932 Off ch=1 n=79 v=0
43010 On ch=1 n=79 v=79
43114 ChPr ch=1 v=0
43130 ChPr ch=1 v=0
43142 ChPr ch=1 v=1
43146 ChPr ch=1 v=2
43186 ChPr ch=1 v=3
43206 ChPr ch=1 v=4
43222 ChPr ch=1 v=5
43250 ChPr ch=1 v=6
43266 ChPr ch=1 v=7
43366 ChPr ch=1 v=6
43382 ChPr ch=1 v=5
43386 ChPr ch=1 v=4
43394 ChPr ch=1 v=3
43470 ChPr ch=1 v=2
43474 ChPr ch=1 v=1
43482 ChPr ch=1 v=0
43490 ChPr ch=1 v=0
43740 Off ch=1 n=79 v=0
44934 On ch=1 n=74 v=67
45312 Off ch=1 n=74 v=0
45318 On ch=1 n=69 v=66
45738 ChPr ch=1 v=0
45838 ChPr ch=1 v=1
45850 ChPr ch=1 v=2
45950 ChPr ch=1 v=1
45958 ChPr ch=1 v=0
45962 ChPr ch=1 v=0
46112 Off ch=1 n=69 v=0
46278 On ch=1 n=69 v=64
46470 On ch=1 n=72 v=66
46480 Off ch=1 n=69 v=0
46662 On ch=1 n=74 v=64
46664 Off ch=1 n=72 v=0
46850 On ch=1 n=67 v=62
46852 Off ch=1 n=74 v=0
46898 ChPr ch=1 v=0
46930 ChPr ch=1 v=0
47636 Off ch=1 n=67 v=0
48002 On ch=1 n=67 v=73
48194 On ch=1 n=69 v=79
48196 Off ch=1 n=67 v=0
48356 Off ch=1 n=69 v=0
48386 On ch=1 n=70 v=63
48692 Off ch=1 n=70 v=0
48770 On ch=1 n=77 v=69
49268 Off ch=1 n=77 v=0
49346 On ch=1 n=77 v=67
49536 Off ch=1 n=77 v=0
49538 On ch=1 n=76 v=62
49730 On ch=1 n=72 v=62
49732 Off ch=1 n=76 v=0
49900 Off ch=1 n=72 v=0
49922 On ch=1 n=74 v=78
50114 On ch=1 n=72 v=63
50128 Off ch=1 n=74 v=0
50210 On ch=1 n=70 v=63
50236 Off ch=1 n=72 v=0
50292 Off ch=1 n=70 v=0
50306 On ch=1 n=69 v=66
50350 ChPr ch=1 v=0
50366 ChPr ch=1 v=1
50486 ChPr ch=1 v=0
50558 ChPr ch=1 v=0
51092 Off ch=1 n=69 v=0
51266 On ch=1 n=72 v=76
51436 Off ch=1 n=72 v=0
51458 On ch=1 n=74 v=74
51524 Off ch=1 n=74 v=0
51554 On ch=1 n=74 v=79
51764 Off ch=1 n=74 v=0
52034 On ch=1 n=74 v=64
52176 Off ch=1 n=74 v=0
52226 On ch=1 n=79 v=64
52316 Off ch=1 n=79 v=0
52326 On ch=1 n=77 v=73
52496 Off ch=1 n=77 v=0
52518 On ch=1 n=76 v=72
52708 Off ch=1 n=76 v=0
52710 On ch=1 n=77 v=64
52792 Off ch=1 n=77 v=0
52806 On ch=1 n=74 v=63
52984 Off ch=1 n=74 v=0
52994 On ch=1 n=72 v=79
53564 Off ch=1 n=72 v=0
53762 On ch=1 n=65 v=63
53954 On ch=1 n=67 v=70
53956 Off ch=1 n=65 v=0
54136 Off ch=1 n=67 v=0
54146 On ch=1 n=69 v=70
54520 Off ch=1 n=69 v=0
54530 On ch=1 n=74 v=74
54566 ChPr ch=1 v=0
54586 ChPr ch=1 v=0
54716 Off ch=1 n=74 v=0
54722 On ch=1 n=72 v=66
55080 Off ch=1 n=72 v=0
55110 On ch=1 n=72 v=68
55300 Off ch=1 n=72 v=0
55302 On ch=1 n=70 v=65
55460 Off ch=1 n=70 v=0
55486 On ch=1 n=69 v=65
55816 Off ch=1 n=69 v=0
55874 On ch=1 n=64 v=74
56090 ChPr ch=1 v=0
56118 ChPr ch=1 v=0
56222 ChPr ch=1 v=0
56258 On ch=1 n=65 v=69
56264 Off ch=1 n=64 v=0
56542 ChPr ch=1 v=0
57040 Off ch=1 n=65 v=0
57894 On ch=1 n=65 v=66
57986 On ch=1 n=77 v=65
58004 Off ch=1 n=65 v=0
58082 On ch=1 n=75 v=65
58100 Off ch=1 n=77 v=0
58236 Off ch=1 n=75 v=0
58274 On ch=1 n=74 v=75
58560 Off ch=1 n=74 v=0
58566 On ch=1 n=72 v=78
58696 Off ch=1 n=72 v=0
58758 On ch=1 n=72 v=72
58924 Off ch=1 n=72 v=0
58950 On ch=1 n=70 v=66
59042 On ch=1 n=74 v=65
59060 Off ch=1 n=70 v=0
59460 Off ch=1 n=74 v=0
59530 On ch=1 n=77 v=77
59692 Off ch=1 n=77 v=0
59714 On ch=1 n=74 v=76
60248 Off ch=1 n=74 v=0
60290 On ch=1 n=77 v=63
60472 Off ch=1 n=77 v=0
60482 On ch=1 n=70 v=66
60940 Off ch=1 n=70 v=0
61054 On ch=1 n=77 v=63
61240 Off ch=1 n=77 v=0
61250 On ch=1 n=74 v=78
61632 Off ch=1 n=74 v=0
61634 On ch=1 n=72 v=70
61822 On ch=1 n=70 v=66
61828 Off ch=1 n=72 v=0
62008 Off ch=1 n=70 v=0
62018 On ch=1 n=72 v=73
62588 Off ch=1 n=72 v=0
62598 On ch=1 n=74 v=65
62756 Off ch=1 n=74 v=0
62786 On ch=1 n=72 v=69
63300 Off ch=1 n=72 v=0
63358 On ch=1 n=70 v=66
63536 Off ch=1 n=70 v=0
63554 On ch=1 n=69 v=78
63908 Off ch=1 n=69 v=0
63942 On ch=1 n=67 v=66
64034 On ch=1 n=65 v=64
64040 Off ch=1 n=67 v=0
64098 ChPr ch=1 v=0
64102 ChPr ch=1 v=1
64110 ChPr ch=1 v=3
64114 ChPr ch=1 v=4
64130 ChPr ch=1 v=3
64142 ChPr ch=1 v=2
64170 ChPr ch=1 v=3
64174 ChPr ch=1 v=4
64186 ChPr ch=1 v=5
64254 ChPr ch=1 v=6
64290 ChPr ch=1 v=7
64302 ChPr ch=1 v=8
64306 ChPr ch=1 v=9
64318 ChPr ch=1 v=10
64334 ChPr ch=1 v=11
64342 ChPr ch=1 v=12
64354 ChPr ch=1 v=13
64358 ChPr ch=1 v=14
64370 ChPr ch=1 v=15
64378 ChPr ch=1 v=16
64386 ChPr ch=1 v=17
64390 ChPr ch=1 v=18
64398 ChPr ch=1 v=19
64402 ChPr ch=1 v=20
64410 ChPr ch=1 v=21
64414 ChPr ch=1 v=23
64422 ChPr ch=1 v=24
64430 ChPr ch=1 v=26
64442 ChPr ch=1 v=27
64454 ChPr ch=1 v=26
64462 ChPr ch=1 v=23
64470 ChPr ch=1 v=19
64474 ChPr ch=1 v=14
64482 ChPr ch=1 v=9
64490 ChPr ch=1 v=5
64494 ChPr ch=1 v=1
64502 ChPr ch=1 v=0
64506 ChPr ch=1 v=0
64512 Off ch=1 n=65 v=0
65574 On ch=1 n=65 v=65
65670 On ch=1 n=77 v=77
65676 Off ch=1 n=65 v=0
65730 ChPr ch=1 v=0
65738 ChPr ch=1 v=1
65762 ChPr ch=1 v=0
65770 ChPr ch=1 v=0
65840 Off ch=1 n=77 v=0
65862 On ch=1 n=79 v=64
65960 Off ch=1 n=79 v=0
65962 On ch=1 n=82 v=65
66204 Off ch=1 n=82 v=0
66246 On ch=1 n=77 v=76
66376 Off ch=1 n=77 v=0
66434 On ch=1 n=79 v=68
66612 Off ch=1 n=79 v=0
66626 On ch=1 n=77 v=64
66764 Off ch=1 n=77 v=0
66814 On ch=1 n=74 v=74
67196 Off ch=1 n=74 v=0
67202 On ch=1 n=77 v=64
67372 Off ch=1 n=77 v=0
67394 On ch=1 n=74 v=65
67940 Off ch=1 n=74 v=0
67962 On ch=1 n=77 v=64
68148 Off ch=1 n=77 v=0
68162 On ch=1 n=70 v=64
68640 Off ch=1 n=70 v=0
68742 On ch=1 n=77 v=75
68908 Off ch=1 n=77 v=0
68926 On ch=1 n=74 v=68
69306 On ch=1 n=72 v=66
69312 Off ch=1 n=74 v=0
69502 On ch=1 n=70 v=63
69508 Off ch=1 n=72 v=0
69698 On ch=1 n=72 v=63
69704 Off ch=1 n=70 v=0
70192 Off ch=1 n=72 v=0
70278 On ch=1 n=74 v=75
70420 Off ch=1 n=74 v=0
70466 On ch=1 n=72 v=74
70828 Off ch=1 n=72 v=0
70850 On ch=1 n=70 v=63
71232 Off ch=1 n=70 v=0
71330 On ch=1 n=69 v=76
71604 Off ch=1 n=69 v=0
71614 On ch=1 n=67 v=66
71704 Off ch=1 n=67 v=0
71710 On ch=1 n=65 v=66
71738 ChPr ch=1 v=0
71746 ChPr ch=1 v=1
71770 ChPr ch=1 v=0
71846 ChPr ch=1 v=0
71890 ChPr ch=1 v=0
72232 Off ch=1 n=65 v=0
72386 On ch=1 n=65 v=78
72544 Off ch=1 n=65 v=0
72578 On ch=1 n=72 v=66
72764 Off ch=1 n=72 v=0
72770 On ch=1 n=74 v=67
72924 Off ch=1 n=74 v=0
72962 On ch=1 n=75 v=77
73324 Off ch=1 n=75 v=0
73346 On ch=1 n=75 v=77
73572 Off ch=1 n=75 v=0
73734 On ch=1 n=76 v=76
73900 Off ch=1 n=76 v=0
73922 On ch=1 n=77 v=64
74076 Off ch=1 n=77 v=0
74110 On ch=1 n=79 v=66
74420 Off ch=1 n=79 v=0
74498 On ch=1 n=79 v=79
74602 ChPr ch=1 v=0
74618 ChPr ch=1 v=0
74630 ChPr ch=1 v=1
74634 ChPr ch=1 v=2
74674 ChPr ch=1 v=3
74694 ChPr ch=1 v=4
74710 ChPr ch=1 v=5
74738 ChPr ch=1 v=6
74754 ChPr ch=1 v=7
74854 ChPr ch=1 v=6
74870 ChPr ch=1 v=5
74874 ChPr ch=1 v=4
74882 ChPr ch=1 v=3
74958 ChPr ch=1 v=2
74962 ChPr ch=1 v=1
74970 ChPr ch=1 v=0
74978 ChPr ch=1 v=0
75228 Off ch=1 n=79 v=0
76422 On ch=1 n=72 v=67
76514 On ch=1 n=74 v=64
76544 Off ch=1 n=72 v=0
76772 Off ch=1 n=74 v=0
76802 On ch=1 n=77 v=64
76898 On ch=1 n=72 v=64
76900 Off ch=1 n=77 v=0
76994 On ch=1 n=74 v=64
76996 Off ch=1 n=72 v=0
77090 On ch=1 n=67 v=64
77092 Off ch=1 n=74 v=0
77188 Off ch=1 n=67 v=0
77190 On ch=1 n=69 v=66
77226 ChPr ch=1 v=0
77326 ChPr ch=1 v=1
77338 ChPr ch=1 v=2
77438 ChPr ch=1 v=1
77446 ChPr ch=1 v=0
77450 ChPr ch=1 v=0
77680 Off ch=1 n=69 v=0
77766 On ch=1 n=69 v=64
77958 On ch=1 n=72 v=66
77968 Off ch=1 n=69 v=0
78150 On ch=1 n=74 v=64
78152 Off ch=1 n=72 v=0
78338 On ch=1 n=67 v=62
78340 Off ch=1 n=74 v=0
78386 ChPr ch=1 v=0
78418 ChPr ch=1 v=0
79124 Off ch=1 n=67 v=0
79490 On ch=1 n=67 v=73
79682 On ch=1 n=69 v=79
79684 Off ch=1 n=67 v=0
79844 Off ch=1 n=69 v=0
79874 On ch=1 n=70 v=63
80180 Off ch=1 n=70 v=0
80258 On ch=1 n=77 v=69
80756 Off ch=1 n=77 v=0
80834 On ch=1 n=77 v=67
81024 Off ch=1 n=77 v=0
81026 On ch=1 n=76 v=62
81218 On ch=1 n=72 v=62
81220 Off ch=1 n=76 v=0
81388 Off ch=1 n=72 v=0
81410 On ch=1 n=74 v=78
81602 On ch=1 n=72 v=63
81616 Off ch=1 n=74 v=0
81698 On ch=1 n=70 v=63
81724 Off ch=1 n=72 v=0
81780 Off ch=1 n=70 v=0
81794 On ch=1 n=69 v=66
81838 ChPr ch=1 v=0
81854 ChPr ch=1 v=1
81974 ChPr ch=1 v=0
82046 ChPr ch=1 v=0
82580 Off ch=1 n=69 v=0
82754 On ch=1 n=72 v=76
82924 Off ch=1 n=72 v=0
82946 On ch=1 n=74 v=74
83060 Off ch=1 n=74 v=0
83138 On ch=1 n=74 v=79
83400 Off ch=1 n=74 v=0
83522 On ch=1 n=74 v=64
83664 Off ch=1 n=74 v=0
83714 On ch=1 n=79 v=64
83804 Off ch=1 n=79 v=0
83814 On ch=1 n=77 v=73
83984 Off ch=1 n=77 v=0
84006 On ch=1 n=76 v=72
84196 Off ch=1 n=76 v=0
84198 On ch=1 n=77 v=64
84280 Off ch=1 n=77 v=0
84294 On ch=1 n=74 v=63
84472 Off ch=1 n=74 v=0
84482 On ch=1 n=72 v=79
85052 Off ch=1 n=72 v=0
85250 On ch=1 n=65 v=63
85442 On ch=1 n=67 v=70
85444 Off ch=1 n=65 v=0
85624 Off ch=1 n=67 v=0
85634 On ch=1 n=69 v=70
86008 Off ch=1 n=69 v=0
86018 On ch=1 n=74 v=74
86054 ChPr ch=1 v=0
86074 ChPr ch=1 v=0
86204 Off ch=1 n=74 v=0
86210 On ch=1 n=72 v=66
86568 Off ch=1 n=72 v=0
86598 On ch=1 n=72 v=68
86788 Off ch=1 n=72 v=0
86790 On ch=1 n=70 v=65
86948 Off ch=1 n=70 v=0
86974 On ch=1 n=69 v=65
87304 Off ch=1 n=69 v=0
87362 On ch=1 n=64 v=74
87578 ChPr ch=1 v=0
87606 ChPr ch=1 v=0
87710 ChPr ch=1 v=0
87746 On ch=1 n=65 v=69
87752 Off ch=1 n=64 v=0
87924 Off ch=1 n=65 v=0
87946 On ch=1 n=68 v=89
88116 Off ch=1 n=68 v=0
88134 On ch=1 n=69 v=82
88182 ChPr ch=1 v=0
88186 ChPr ch=1 v=1
88194 ChPr ch=1 v=2
88218 ChPr ch=1 v=1
88226 ChPr ch=1 v=0
88234 ChPr ch=1 v=0
88264 Off ch=1 n=69 v=0
88326 On ch=1 n=71 v=95
88358 ChPr ch=1 v=1
88362 ChPr ch=1 v=4
88370 ChPr ch=1 v=7
88378 ChPr ch=1 v=8
88394 ChPr ch=1 v=7
88402 ChPr ch=1 v=6
88410 ChPr ch=1 v=5
88414 ChPr ch=1 v=4
88422 ChPr ch=1 v=2
88430 ChPr ch=1 v=1
88434 ChPr ch=1 v=0
88442 ChPr ch=1 v=0
88504 Off ch=1 n=71 v=0
88514 On ch=1 n=72 v=79
88542 ChPr ch=1 v=0
88550 ChPr ch=1 v=1
88558 ChPr ch=1 v=2
88570 ChPr ch=1 v=1
88578 ChPr ch=1 v=0
88582 ChPr ch=1 v=0
88652 Off ch=1 n=72 v=0
88710 On ch=1 n=76 v=85
88738 ChPr ch=1 v=0
88742 ChPr ch=1 v=1
88774 ChPr ch=1 v=0
88782 ChPr ch=1 v=0
88786 ChPr ch=1 v=0
88888 Off ch=1 n=76 v=0
88894 On ch=1 n=77 v=88
88922 ChPr ch=1 v=0
88930 ChPr ch=1 v=0
88962 ChPr ch=1 v=0
89016 Off ch=1 n=77 v=0
89094 On ch=1 n=80 v=84
89252 Off ch=1 n=80 v=0
89278 On ch=1 n=81 v=78
89416 Off ch=1 n=81 v=0
89478 On ch=1 n=83 v=88
89502 ChPr ch=1 v=0
89510 ChPr ch=1 v=2
89514 ChPr ch=1 v=4
89522 ChPr ch=1 v=5
89526 ChPr ch=1 v=6
89542 ChPr ch=1 v=5
89546 ChPr ch=1 v=3
89554 ChPr ch=1 v=1
89562 ChPr ch=1 v=0
89566 ChPr ch=1 v=0
89662 On ch=1 n=84 v=79
89664 Off ch=1 n=83 v=0
89820 Off ch=1 n=84 v=0
89866 On ch=1 n=89 v=87
89886 ChPr ch=1 v=0
89894 ChPr ch=1 v=2
89910 ChPr ch=1 v=0
89918 ChPr ch=1 v=0
90468 Off ch=1 n=89 v=0
90626 On ch=1 n=65 v=80
90638 ChPr ch=1 v=0
90646 ChPr ch=1 v=3
90654 ChPr ch=1 v=5
90658 ChPr ch=1 v=6
90670 ChPr ch=1 v=5
90678 ChPr ch=1 v=3
90682 ChPr ch=1 v=1
90690 ChPr ch=1 v=0
90698 ChPr ch=1 v=0
91288 Off ch=1 n=65 v=0
91394 On ch=1 n=69 v=83
91728 Off ch=1 n=69 v=0
91778 On ch=1 n=72 v=83
91802 ChPr ch=1 v=0
91806 ChPr ch=1 v=1
91814 ChPr ch=1 v=2
91846 ChPr ch=1 v=1
91850 ChPr ch=1 v=0
91858 ChPr ch=1 v=0
91932 Off ch=1 n=72 v=0
92162 On ch=1 n=79 v=86
92258 On ch=1 n=77 v=74
92276 Off ch=1 n=79 v=0
92354 On ch=1 n=79 v=80
92364 Off ch=1 n=77 v=0
92544 Off ch=1 n=79 v=0
92550 On ch=1 n=77 v=88
92578 ChPr ch=1 v=0
92586 ChPr ch=1 v=1
92594 ChPr ch=1 v=2
92598 ChPr ch=1 v=3
92622 ChPr ch=1 v=2
92630 ChPr ch=1 v=1
92638 ChPr ch=1 v=0
92706 ChPr ch=1 v=0
92718 ChPr ch=1 v=0
93340 Off ch=1 n=77 v=0
93698 On ch=1 n=79 v=86
93794 On ch=1 n=77 v=73
93812 Off ch=1 n=79 v=0
93898 On ch=1 n=79 v=82
93900 Off ch=1 n=77 v=0
94076 Off ch=1 n=79 v=0
94086 On ch=1 n=77 v=89
94118 ChPr ch=1 v=0
94126 ChPr ch=1 v=2
94130 ChPr ch=1 v=4
94138 ChPr ch=1 v=5
94150 ChPr ch=1 v=4
94158 ChPr ch=1 v=2
94162 ChPr ch=1 v=1
94170 ChPr ch=1 v=0
94206 ChPr ch=1 v=0
94214 ChPr ch=1 v=0
94768 Off ch=1 n=77 v=0
94850 On ch=1 n=74 v=83
95124 Off ch=1 n=74 v=0
95230 On ch=1 n=72 v=85
96484 Off ch=1 n=72 v=0
96770 On ch=1 n=65 v=80
96782 ChPr ch=1 v=0
96790 ChPr ch=1 v=3
96798 ChPr ch=1 v=5
96802 ChPr ch=1 v=6
96814 ChPr ch=1 v=5
96822 ChPr ch=1 v=3
96826 ChPr ch=1 v=1
96834 ChPr ch=1 v=0
96842 ChPr ch=1 v=0
97432 Off ch=1 n=65 v=0
97538 On ch=1 n=69 v=83
97872 Off ch=1 n=69 v=0
97922 On ch=1 n=72 v=83
97946 ChPr ch=1 v=0
97950 ChPr ch=1 v=1
97958 ChPr ch=1 v=2
97990 ChPr ch=1 v=1
97994 ChPr ch=1 v=0
98002 ChPr ch=1 v=0
98076 Off ch=1 n=72 v=0
98306 On ch=1 n=79 v=86
98402 On ch=1 n=77 v=74
98420 Off ch=1 n=79 v=0
98498 On ch=1 n=79 v=80
98508 Off ch=1 n=77 v=0
98688 Off ch=1 n=79 v=0
98694 On ch=1 n=77 v=88
98722 ChPr ch=1 v=0
98730 ChPr ch=1 v=1
98738 ChPr ch=1 v=2
98742 ChPr ch=1 v=3
98766 ChPr ch=1 v=2
98774 ChPr ch=1 v=1
98782 ChPr ch=1 v=0
98850 ChPr ch=1 v=0
98862 ChPr ch=1 v=0
99484 Off ch=1 n=77 v=0
99842 On ch=1 n=79 v=86
99938 On ch=1 n=77 v=73
99956 Off ch=1 n=79 v=0
100042 On ch=1 n=79 v=82
100044 Off ch=1 n=77 v=0
100220 Off ch=1 n=79 v=0
100230 On ch=1 n=77 v=89
100262 ChPr ch=1 v=0
100270 ChPr ch=1 v=2
100274 ChPr ch=1 v=4
100282 ChPr ch=1 v=5
100294 ChPr ch=1 v=4
100302 ChPr ch=1 v=2
100306 ChPr ch=1 v=1
100314 ChPr ch=1 v=0
100350 ChPr ch=1 v=0
100358 ChPr ch=1 v=0
100912 Off ch=1 n=77 v=0
100994 On ch=1 n=74 v=83
101268 Off ch=1 n=74 v=0
101374 On ch=1 n=72 v=85
102628 Off ch=1 n=72 v=0
102914 On ch=1 n=65 v=80
102926 ChPr ch=1 v=0
102934 ChPr ch=1 v=3
102942 ChPr ch=1 v=5
102946 ChPr ch=1 v=6
102958 ChPr ch=1 v=5
102966 ChPr ch=1 v=3
102970 ChPr ch=1 v=1
102978 ChPr ch=1 v=0
102986 ChPr ch=1 v=0
103576 Off ch=1 n=65 v=0
103682 On ch=1 n=69 v=83
104016 Off ch=1 n=69 v=0
104066 On ch=1 n=72 v=83
104090 ChPr ch=1 v=0
104094 ChPr ch=1 v=1
104102 ChPr ch=1 v=2
104134 ChPr ch=1 v=1
104138 ChPr ch=1 v=0
104146 ChPr ch=1 v=0
104220 Off ch=1 n=72 v=0
104450 On ch=1 n=79 v=86
104546 On ch=1 n=77 v=74
104564 Off ch=1 n=79 v=0
104642 On ch=1 n=79 v=80
104652 Off ch=1 n=77 v=0
104832 Off ch=1 n=79 v=0
104838 On ch=1 n=77 v=88
104866 ChPr ch=1 v=0
104874 ChPr ch=1 v=1
104882 ChPr ch=1 v=2
104886 ChPr ch=1 v=3
104910 ChPr ch=1 v=2
104918 ChPr ch=1 v=1
104926 ChPr ch=1 v=0
104994 ChPr ch=1 v=0
105006 ChPr ch=1 v=0
105628 Off ch=1 n=77 v=0
105986 On ch=1 n=79 v=86
106082 On ch=1 n=77 v=73
106100 Off ch=1 n=79 v=0
106186 On ch=1 n=79 v=82
106188 Off ch=1 n=77 v=0
106364 Off ch=1 n=79 v=0
106374 On ch=1 n=77 v=89
106406 ChPr ch=1 v=0
106414 ChPr ch=1 v=2
106418 ChPr ch=1 v=4
106426 ChPr ch=1 v=5
106438 ChPr ch=1 v=4
106446 ChPr ch=1 v=2
106450 ChPr ch=1 v=1
106458 ChPr ch=1 v=0
106494 ChPr ch=1 v=0
106502 ChPr ch=1 v=0
107056 Off ch=1 n=77 v=0
107138 On ch=1 n=74 v=83
107412 Off ch=1 n=74 v=0
107518 On ch=1 n=72 v=85
108772 Off ch=1 n=72 v=0
109058 On ch=1 n=65 v=80
109070 ChPr ch=1 v=0
109078 ChPr ch=1 v=3
109086 ChPr ch=1 v=5
109090 ChPr ch=1 v=6
109102 ChPr ch=1 v=5
109110 ChPr ch=1 v=3
109114 ChPr ch=1 v=1
109122 ChPr ch=1 v=0
109130 ChPr ch=1 v=0
109720 Off ch=1 n=65 v=0
109826 On ch=1 n=69 v=83
110160 Off ch=1 n=69 v=0
110210 On ch=1 n=72 v=83
110234 ChPr ch=1 v=0
110238 ChPr ch=1 v=1
110246 ChPr ch=1 v=2
110278 ChPr ch=1 v=1
110282 ChPr ch=1 v=0
110290 ChPr ch=1 v=0
110364 Off ch=1 n=72 v=0
110594 On ch=1 n=79 v=86
110690 On ch=1 n=77 v=74
110708 Off ch=1 n=79 v=0
110786 On ch=1 n=79 v=80
110796 Off ch=1 n=77 v=0
110976 Off ch=1 n=79 v=0
110982 On ch=1 n=77 v=88
111010 ChPr ch=1 v=0
111018 ChPr ch=1 v=1
111026 ChPr ch=1 v=2
111030 ChPr ch=1 v=3
111054 ChPr ch=1 v=2
111062 ChPr ch=1 v=1
111070 ChPr ch=1 v=0
111138 ChPr ch=1 v=0
111150 ChPr ch=1 v=0
111772 Off ch=1 n=77 v=0
112130 On ch=1 n=79 v=86
112226 On ch=1 n=77 v=73
112244 Off ch=1 n=79 v=0
112330 On ch=1 n=79 v=82
112332 Off ch=1 n=77 v=0
112508 Off ch=1 n=79 v=0
112518 On ch=1 n=77 v=89
112550 ChPr ch=1 v=0
112558 ChPr ch=1 v=2
112562 ChPr ch=1 v=4
112570 ChPr ch=1 v=5
112582 ChPr ch=1 v=4
112590 ChPr ch=1 v=2
112594 ChPr ch=1 v=1
112602 ChPr ch=1 v=0
112638 ChPr ch=1 v=0
112646 ChPr ch=1 v=0
113200 Off ch=1 n=77 v=0
113282 On ch=1 n=74 v=83
113556 Off ch=1 n=74 v=0
113662 On ch=1 n=72 v=85
114916 Off ch=1 n=72 v=0
115202 On ch=1 n=65 v=72
115214 ChPr ch=1 v=0
115222 ChPr ch=1 v=3
115230 ChPr ch=1 v=5
115234 ChPr ch=1 v=6
115246 ChPr ch=1 v=5
115254 ChPr ch=1 v=3
115258 ChPr ch=1 v=1
115266 ChPr ch=1 v=0
115274 ChPr ch=1 v=0
115864 Off ch=1 n=65 v=0
115970 On ch=1 n=69 v=68
116304 Off ch=1 n=69 v=0
116354 On ch=1 n=72 v=67
116378 ChPr ch=1 v=0
116382 ChPr ch=1 v=1
116390 ChPr ch=1 v=2
116422 ChPr ch=1 v=1
116426 ChPr ch=1 v=0
116434 ChPr ch=1 v=0
116508 Off ch=1 n=72 v=0
116738 On ch=1 n=79 v=65
116834 On ch=1 n=77 v=65
116852 Off ch=1 n=79 v=0
116930 On ch=1 n=79 v=64
116940 Off ch=1 n=77 v=0
117120 Off ch=1 n=79 v=0
117126 On ch=1 n=77 v=63
117154 ChPr ch=1 v=0
117162 ChPr ch=1 v=1
117170 ChPr ch=1 v=2
117174 ChPr ch=1 v=3
117198 ChPr ch=1 v=2
117206 ChPr ch=1 v=1
117214 ChPr ch=1 v=0
117282 ChPr ch=1 v=0
117294 ChPr ch=1 v=0
117916 Off ch=1 n=77 v=0
118274 On ch=1 n=79 v=59
118370 On ch=1 n=77 v=58
118388 Off ch=1 n=79 v=0
118474 On ch=1 n=79 v=58
118476 Off ch=1 n=77 v=0
118652 Off ch=1 n=79 v=0
118662 On ch=1 n=77 v=57
118694 ChPr ch=1 v=0
118702 ChPr ch=1 v=2
118706 ChPr ch=1 v=4
118714 ChPr ch=1 v=5
118726 ChPr ch=1 v=4
118734 ChPr ch=1 v=2
118738 ChPr ch=1 v=1
118746 ChPr ch=1 v=0
118782 ChPr ch=1 v=0
118790 ChPr ch=1 v=0
119344 Off ch=1 n=77 v=0
119426 On ch=1 n=74 v=54
119700 Off ch=1 n=74 v=0
119806 On ch=1 n=72 v=52
121060 Off ch=1 n=72 v=0
121346 On ch=1 n=65 v=45
121358 ChPr ch=1 v=0
121366 ChPr ch=1 v=3
121374 ChPr ch=1 v=5
121378 ChPr ch=1 v=6
121390 ChPr ch=1 v=5
121398 ChPr ch=1 v=3
121402 ChPr ch=1 v=1
121410 ChPr ch=1 v=0
121418 ChPr ch=1 v=0
122008 Off ch=1 n=65 v=0
122114 On ch=1 n=69 v=42
122448 Off ch=1 n=69 v=0
122498 On ch=1 n=72 v=41
122522 ChPr ch=1 v=0
122526 ChPr ch=1 v=1
122534 ChPr ch=1 v=2
122566 ChPr ch=1 v=1
122570 ChPr ch=1 v=0
122578 ChPr ch=1 v=0
122652 Off ch=1 n=72 v=0
122882 On ch=1 n=79 v=39
122978 On ch=1 n=77 v=39
122996 Off ch=1 n=79 v=0
123074 On ch=1 n=79 v=38
123084 Off ch=1 n=77 v=0
123264 Off ch=1 n=79 v=0
123270 On ch=1 n=77 v=37
123298 ChPr ch=1 v=0
123306 ChPr ch=1 v=1
123314 ChPr ch=1 v=2
123318 ChPr ch=1 v=3
123342 ChPr ch=1 v=2
123350 ChPr ch=1 v=1
123358 ChPr ch=1 v=0
123426 ChPr ch=1 v=0
123438 ChPr ch=1 v=0
124060 Off ch=1 n=77 v=0
124418 On ch=1 n=79 v=32
124514 On ch=1 n=77 v=32
124532 Off ch=1 n=79 v=0
124618 On ch=1 n=79 v=32
124620 Off ch=1 n=77 v=0
124796 Off ch=1 n=79 v=0
124806 On ch=1 n=77 v=31
124838 ChPr ch=1 v=0
124846 ChPr ch=1 v=2
124850 ChPr ch=1 v=4
124858 ChPr ch=1 v=5
124870 ChPr ch=1 v=4
124878 ChPr ch=1 v=2
124882 ChPr ch=1 v=1
124890 ChPr ch=1 v=0
124926 ChPr ch=1 v=0
124934 ChPr ch=1 v=0
125488 Off ch=1 n=77 v=0
125570 On ch=1 n=74 v=28
125844 Off ch=1 n=74 v=0
125950 On ch=1 n=72 v=26
127204 Off ch=1 n=72 v=0
127490 On ch=1 n=65 v=19
127502 ChPr ch=1 v=0
127510 ChPr ch=1 v=3
127518 ChPr ch=1 v=5
127522 ChPr ch=1 v=6
127534 ChPr ch=1 v=5
127542 ChPr ch=1 v=3
127546 ChPr ch=1 v=1
127554 ChPr ch=1 v=0
127562 ChPr ch=1 v=0
128152 Off ch=1 n=65 v=0
128258 On ch=1 n=69 v=16
128592 Off ch=1 n=69 v=0
128642 On ch=1 n=72 v=15
128666 ChPr ch=1 v=0
128670 ChPr ch=1 v=1
128678 ChPr ch=1 v=2
128710 ChPr ch=1 v=1
128714 ChPr ch=1 v=0
128722 ChPr ch=1 v=0
128796 Off ch=1 n=72 v=0
129026 On ch=1 n=79 v=13
129122 On ch=1 n=77 v=13
129140 Off ch=1 n=79 v=0
129218 On ch=1 n=79 v=12
129228 Off ch=1 n=77 v=0
129408 Off ch=1 n=79 v=0
129414 On ch=1 n=77 v=11
129442 ChPr ch=1 v=0
129450 ChPr ch=1 v=1
129458 ChPr ch=1 v=2
129462 ChPr ch=1 v=3
129486 ChPr ch=1 v=2
129494 ChPr ch=1 v=1
129502 ChPr ch=1 v=0
129570 ChPr ch=1 v=0
129582 ChPr ch=1 v=0
130204 Off ch=1 n=77 v=0
130562 On ch=1 n=79 v=6
130658 On ch=1 n=77 v=6
130676 Off ch=1 n=79 v=0
130762 On ch=1 n=79 v=6
130764 Off ch=1 n=77 v=0
130940 Off ch=1 n=79 v=0
130950 On ch=1 n=77 v=5
130982 ChPr ch=1 v=0
130990 ChPr ch=1 v=2
130994 ChPr ch=1 v=4
131002 ChPr ch=1 v=5
131014 ChPr ch=1 v=4
131022 ChPr ch=1 v=2
131026 ChPr ch=1 v=1
131034 ChPr ch=1 v=0
131070 ChPr ch=1 v=0
131078 ChPr ch=1 v=0
131632 Off ch=1 n=77 v=0
131714 On ch=1 n=74 v=2
131988 Off ch=1 n=74 v=0
132094 On ch=1 n=72 v=1
133348 Off ch=1 n=72 v=0
133632 Meta TrkEnd
TrkEnd
MTrk
0 Meta TrkName "ACOU BASS"
0 Par ch=2 c=7 v=117
0 PrCh ch=2 p=32
1536 Par ch=2 c=7 v=117
1536 PrCh ch=2 p=32
27648 On ch=2 n=58 v=74
27992 Off ch=2 n=58 v=0
28032 On ch=2 n=58 v=65
28392 Off ch=2 n=58 v=0
28420 On ch=2 n=57 v=75
28780 Off ch=2 n=57 v=0
28804 On ch=2 n=57 v=61
29156 Off ch=2 n=57 v=0
29184 On ch=2 n=55 v=70
29552 Off ch=2 n=55 v=0
29572 On ch=2 n=55 v=65
29928 Off ch=2 n=55 v=0
29952 On ch=2 n=53 v=71
30696 Off ch=2 n=53 v=0
30724 On ch=2 n=52 v=62
31084 Off ch=2 n=52 v=0
31108 On ch=2 n=55 v=62
31448 Off ch=2 n=55 v=0
31484 On ch=2 n=60 v=66
31832 Off ch=2 n=60 v=0
31872 On ch=2 n=60 v=62
32236 Off ch=2 n=60 v=0
32256 On ch=2 n=53 v=70
32392 Off ch=2 n=53 v=0
32444 On ch=2 n=53 v=63
32592 Off ch=2 n=53 v=0
32640 On ch=2 n=53 v=64
32792 Off ch=2 n=53 v=0
32828 On ch=2 n=53 v=61
32988 Off ch=2 n=53 v=0
33024 On ch=2 n=53 v=63
33164 Off ch=2 n=53 v=0
33216 On ch=2 n=53 v=60
33356 Off ch=2 n=53 v=0
33408 On ch=2 n=53 v=68
33560 Off ch=2 n=53 v=0
33592 On ch=2 n=53 v=67
33744 Off ch=2 n=53 v=0
33788 On ch=2 n=53 v=71
33896 Off ch=2 n=53 v=0
33988 On ch=2 n=53 v=70
34112 Off ch=2 n=53 v=0
34176 On ch=2 n=53 v=71
34292 Off ch=2 n=53 v=0
34368 On ch=2 n=53 v=76
34512 Off ch=2 n=53 v=0
34560 On ch=2 n=53 v=79
34688 Off ch=2 n=53 v=0
34748 On ch=2 n=53 v=70
34884 Off ch=2 n=53 v=0
34944 On ch=2 n=53 v=85
35084 Off ch=2 n=53 v=0
35132 On ch=2 n=53 v=66
35292 Off ch=2 n=53 v=0
35328 On ch=2 n=58 v=79
35468 Off ch=2 n=58 v=0
35520 On ch=2 n=58 v=79
35664 Off ch=2 n=58 v=0
35712 On ch=2 n=58 v=77
35856 Off ch=2 n=58 v=0
35904 On ch=2 n=58 v=73
36076 Off ch=2 n=58 v=0
36100 On ch=2 n=57 v=76
36436 Off ch=2 n=57 v=0
36484 On ch=2 n=57 v=76
36852 Off ch=2 n=57 v=0
36864 On ch=2 n=55 v=82
37204 Off ch=2 n=55 v=0
37248 On ch=2 n=55 v=68
37616 Off ch=2 n=55 v=0
37636 On ch=2 n=53 v=80
37988 Off ch=2 n=53 v=0
38016 On ch=2 n=53 v=66
38380 Off ch=2 n=53 v=0
38400 On ch=2 n=52 v=80
38952 Off ch=2 n=52 v=0
38976 On ch=2 n=55 v=79
39148 Off ch=2 n=55 v=0
39176 On ch=2 n=60 v=63
39536 Off ch=2 n=60 v=0
39556 On ch=2 n=55 v=86
39912 Off ch=2 n=55 v=0
39936 On ch=2 n=53 v=72
40456 Off ch=2 n=53 v=0
40512 On ch=2 n=53 v=90
40668 Off ch=2 n=53 v=0
40708 On ch=2 n=53 v=92
41392 Off ch=2 n=53 v=0
41472 On ch=2 n=53 v=92
41608 Off ch=2 n=53 v=0
41664 On ch=2 n=53 v=76
41836 Off ch=2 n=53 v=0
41856 On ch=2 n=53 v=71
42016 Off ch=2 n=53 v=0
42048 On ch=2 n=53 v=72
42204 Off ch=2 n=53 v=0
42244 On ch=2 n=60 v=66
42388 Off ch=2 n=60 v=0
42436 On ch=2 n=60 v=65
42576 Off ch=2 n=60 v=0
42624 On ch=2 n=60 v=74
42768 Off ch=2 n=60 v=0
42816 On ch=2 n=60 v=72
42964 Off ch=2 n=60 v=0
43008 On ch=2 n=60 v=74
43136 Off ch=2 n=60 v=0
43200 On ch=2 n=60 v=67
43316 Off ch=2 n=60 v=0
43384 On ch=2 n=60 v=74
43512 Off ch=2 n=60 v=0
43576 On ch=2 n=60 v=81
43672 Off ch=2 n=60 v=0
43772 On ch=2 n=48 v=93
43776 Pb ch=2 v=8194
43784 Pb ch=2 v=10087
43792 Pb ch=2 v=11982
43800 Pb ch=2 v=14070
43804 Pb ch=2 v=15709
43812 Pb ch=2 v=16383
44920 Pb ch=2 v=16255
44924 Pb ch=2 v=16159
44932 Pb ch=2 v=16030
44940 Pb ch=2 v=15934
44944 Pb ch=2 v=15805
44952 Pb ch=2 v=15709
44960 Pb ch=2 v=15516
44964 Pb ch=2 v=15355
44972 Pb ch=2 v=15163
44980 Pb ch=2 v=14938
44984 Pb ch=2 v=14777
44992 Pb ch=2 v=14552
45000 Pb ch=2 v=14295
45004 Pb ch=2 v=14070
45012 Pb ch=2 v=13846
45020 Pb ch=2 v=13556
45024 Pb ch=2 v=13332
45032 Pb ch=2 v=13042
45040 Pb ch=2 v=12753
45044 Pb ch=2 v=12432
45052 Pb ch=2 v=12047
45060 Pb ch=2 v=11725
45068 Pb ch=2 v=11243
45072 Pb ch=2 v=10858
45080 Pb ch=2 v=10408
45088 Pb ch=2 v=9862
45092 Pb ch=2 v=9348
45100 Pb ch=2 v=8770
45104 Off ch=2 n=48 v=0
45108 Pb ch=2 v=8416
45116 Pb ch=2 v=8256
45120 Pb ch=2 v=8192
45312 On ch=2 n=53 v=92
45684 Off ch=2 n=53 v=0
45704 On ch=2 n=53 v=73
46000 Off ch=2 n=53 v=0
46088 On ch=2 n=53 v=85
46208 Off ch=2 n=53 v=0
46280 On ch=2 n=53 v=75
46400 Off ch=2 n=53 v=0
46468 On ch=2 n=53 v=75
46600 Off ch=2 n=53 v=0
46660 On ch=2 n=53 v=82
46840 Off ch=2 n=53 v=0
46852 On ch=2 n=48 v=82
47404 Off ch=2 n=48 v=0
47424 On ch=2 n=43 v=69
47608 Off ch=2 n=43 v=0
47616 On ch=2 n=48 v=74
48176 Off ch=2 n=48 v=0
48192 On ch=2 n=43 v=69
48372 Off ch=2 n=43 v=0
48384 On ch=2 n=48 v=65
48940 Off ch=2 n=48 v=0
48960 On ch=2 n=52 v=68
49140 Off ch=2 n=52 v=0
49156 On ch=2 n=55 v=70
49328 Off ch=2 n=55 v=0
49344 On ch=2 n=48 v=63
49516 Off ch=2 n=48 v=0
49540 On ch=2 n=50 v=65
49708 Off ch=2 n=50 v=0
49732 On ch=2 n=52 v=67
49908 Off ch=2 n=52 v=0
49924 On ch=2 n=53 v=79
50480 Off ch=2 n=53 v=0
50496 On ch=2 n=57 v=82
50676 Off ch=2 n=57 v=0
50692 On ch=2 n=60 v=66
51044 Off ch=2 n=60 v=0
51064 On ch=2 n=53 v=68
51436 Off ch=2 n=53 v=0
51452 On ch=2 n=46 v=75
52212 Off ch=2 n=46 v=0
52224 On ch=2 n=53 v=88
52588 Off ch=2 n=53 v=0
52608 On ch=2 n=58 v=61
52784 Off ch=2 n=58 v=0
52800 On ch=2 n=60 v=62
52972 Off ch=2 n=60 v=0
52992 On ch=2 n=53 v=71
53148 Off ch=2 n=53 v=0
53180 On ch=2 n=53 v=64
53336 Off ch=2 n=53 v=0
53376 On ch=2 n=53 v=59
53552 Off ch=2 n=53 v=0
53568 On ch=2 n=57 v=62
53748 Off ch=2 n=57 v=0
53764 On ch=2 n=60 v=80
54120 Off ch=2 n=60 v=0
54144 On ch=2 n=53 v=73
54500 Off ch=2 n=53 v=0
54528 On ch=2 n=60 v=70
55080 Off ch=2 n=60 v=0
55108 On ch=2 n=55 v=92
55280 Off ch=2 n=55 v=0
55300 On ch=2 n=60 v=86
55652 Off ch=2 n=60 v=0
55680 On ch=2 n=55 v=85
56008 Off ch=2 n=55 v=0
56068 On ch=2 n=53 v=86
56220 Off ch=2 n=53 v=0
56256 On ch=2 n=53 v=70
56396 Off ch=2 n=53 v=0
56448 On ch=2 n=53 v=65
56576 Off ch=2 n=53 v=0
56640 On ch=2 n=53 v=72
56800 Off ch=2 n=53 v=0
56832 On ch=2 n=53 v=78
56984 Off ch=2 n=53 v=0
57020 On ch=2 n=53 v=67
57156 Off ch=2 n=53 v=0
57216 On ch=2 n=53 v=60
57380 Off ch=2 n=53 v=0
57408 On ch=2 n=53 v=75
57576 Off ch=2 n=53 v=0
57600 On ch=2 n=41 v=78
57756 Off ch=2 n=41 v=0
57792 On ch=2 n=41 v=69
57940 Off ch=2 n=41 v=0
57984 On ch=2 n=41 v=64
58128 Off ch=2 n=41 v=0
58172 On ch=2 n=41 v=66
58320 Off ch=2 n=41 v=0
58368 On ch=2 n=41 v=66
58516 Off ch=2 n=41 v=0
58556 On ch=2 n=41 v=66
58708 Off ch=2 n=41 v=0
58744 On ch=2 n=43 v=70
58920 Off ch=2 n=43 v=0
58940 On ch=2 n=45 v=78
59092 Off ch=2 n=45 v=0
59136 On ch=2 n=46 v=78
59480 Off ch=2 n=46 v=0
59520 On ch=2 n=46 v=69
59880 Off ch=2 n=46 v=0
59908 On ch=2 n=45 v=79
60268 Off ch=2 n=45 v=0
60292 On ch=2 n=45 v=65
60644 Off ch=2 n=45 v=0
60672 On ch=2 n=43 v=74
61040 Off ch=2 n=43 v=0
61060 On ch=2 n=43 v=69
61416 Off ch=2 n=43 v=0
61440 On ch=2 n=41 v=75
62184 Off ch=2 n=41 v=0
62212 On ch=2 n=40 v=66
62572 Off ch=2 n=40 v=0
62596 On ch=2 n=43 v=66
62936 Off ch=2 n=43 v=0
62972 On ch=2 n=48 v=70
63320 Off ch=2 n=48 v=0
63360 On ch=2 n=48 v=66
63724 Off ch=2 n=48 v=0
63744 On ch=2 n=41 v=74
63880 Off ch=2 n=41 v=0
63932 On ch=2 n=41 v=67
64080 Off ch=2 n=41 v=0
64128 On ch=2 n=41 v=68
64280 Off ch=2 n=41 v=0
64316 On ch=2 n=41 v=65
64476 Off ch=2 n=41 v=0
64512 On ch=2 n=41 v=67
64652 Off ch=2 n=41 v=0
64704 On ch=2 n=41 v=64
64844 Off ch=2 n=41 v=0
64896 On ch=2 n=41 v=72
65048 Off ch=2 n=41 v=0
65080 On ch=2 n=41 v=71
65232 Off ch=2 n=41 v=0
65276 On ch=2 n=41 v=75
65384 Off ch=2 n=41 v=0
65476 On ch=2 n=41 v=74
65600 Off ch=2 n=41 v=0
65664 On ch=2 n=41 v=75
65780 Off ch=2 n=41 v=0
65856 On ch=2 n=41 v=80
66000 Off ch=2 n=41 v=0
66048 On ch=2 n=41 v=83
66176 Off ch=2 n=41 v=0
66236 On ch=2 n=41 v=74
66372 Off ch=2 n=41 v=0
66432 On ch=2 n=41 v=89
66572 Off ch=2 n=41 v=0
66620 On ch=2 n=41 v=70
66780 Off ch=2 n=41 v=0
66816 On ch=2 n=46 v=83
66956 Off ch=2 n=46 v=0
67008 On ch=2 n=46 v=83
67152 Off ch=2 n=46 v=0
67200 On ch=2 n=46 v=81
67344 Off ch=2 n=46 v=0
67392 On ch=2 n=46 v=77
67564 Off ch=2 n=46 v=0
67588 On ch=2 n=45 v=80
67924 Off ch=2 n=45 v=0
67972 On ch=2 n=45 v=80
68340 Off ch=2 n=45 v=0
68352 On ch=2 n=43 v=86
68692 Off ch=2 n=43 v=0
68736 On ch=2 n=43 v=72
69104 Off ch=2 n=43 v=0
69124 On ch=2 n=41 v=84
69476 Off ch=2 n=41 v=0
69504 On ch=2 n=41 v=70
69868 Off ch=2 n=41 v=0
69888 On ch=2 n=40 v=84
70440 Off ch=2 n=40 v=0
70464 On ch=2 n=43 v=83
70636 Off ch=2 n=43 v=0
70664 On ch=2 n=48 v=67
71024 Off ch=2 n=48 v=0
71044 On ch=2 n=43 v=90
71400 Off ch=2 n=43 v=0
71424 On ch=2 n=41 v=76
71944 Off ch=2 n=41 v=0
72000 On ch=2 n=41 v=94
72156 Off ch=2 n=41 v=0
72196 On ch=2 n=41 v=96
72880 Off ch=2 n=41 v=0
72960 On ch=2 n=41 v=96
73096 Off ch=2 n=41 v=0
73152 On ch=2 n=41 v=80
73324 Off ch=2 n=41 v=0
73344 On ch=2 n=41 v=75
73504 Off ch=2 n=41 v=0
73536 On ch=2 n=41 v=76
73692 Off ch=2 n=41 v=0
73732 On ch=2 n=48 v=70
73876 Off ch=2 n=48 v=0
73924 On ch=2 n=48 v=69
74064 Off ch=2 n=48 v=0
74112 On ch=2 n=48 v=78
74256 Off ch=2 n=48 v=0
74304 On ch=2 n=48 v=76
74452 Off ch=2 n=48 v=0
74496 On ch=2 n=48 v=78
74624 Off ch=2 n=48 v=0
74688 On ch=2 n=48 v=71
74804 Off ch=2 n=48 v=0
74872 On ch=2 n=48 v=78
75000 Off ch=2 n=48 v=0
75064 On ch=2 n=48 v=85
75160 Off ch=2 n=48 v=0
75260 On ch=2 n=36 v=97
75264 Pb ch=2 v=8194
75272 Pb ch=2 v=10087
75280 Pb ch=2 v=11982
75288 Pb ch=2 v=14070
75292 Pb ch=2 v=15709
75300 Pb ch=2 v=16383
76408 Pb ch=2 v=16255
76412 Pb ch=2 v=16159
76420 Pb ch=2 v=16030
76428 Pb ch=2 v=15934
76432 Pb ch=2 v=15805
76440 Pb ch=2 v=15709
76448 Pb ch=2 v=15516
76452 Pb ch=2 v=15355
76460 Pb ch=2 v=15163
76468 Pb ch=2 v=14938
76472 Pb ch=2 v=14777
76480 Pb ch=2 v=14552
76488 Pb ch=2 v=14295
76492 Pb ch=2 v=14070
76500 Pb ch=2 v=13846
76508 Pb ch=2 v=13556
76512 Pb ch=2 v=13332
76520 Pb ch=2 v=13042
76528 Pb ch=2 v=12753
76532 Pb ch=2 v=12432
76540 Pb ch=2 v=12047
76548 Pb ch=2 v=11725
76556 Pb ch=2 v=11243
76560 Pb ch=2 v=10858
76568 Pb ch=2 v=10408
76576 Pb ch=2 v=9862
76580 Pb ch=2 v=9348
76588 Pb ch=2 v=8770
76592 Off ch=2 n=36 v=0
76596 Pb ch=2 v=8416
76604 Pb ch=2 v=8256
76608 Pb ch=2 v=8192
76800 On ch=2 n=41 v=99
77320 Off ch=2 n=41 v=0
77380 On ch=2 n=41 v=88
77560 Off ch=2 n=41 v=0
77572 On ch=2 n=45 v=97
77936 Off ch=2 n=45 v=0
77956 On ch=2 n=46 v=72
78308 Off ch=2 n=46 v=0
78336 On ch=2 n=48 v=80
78896 Off ch=2 n=48 v=0
78916 On ch=2 n=43 v=78
79092 Off ch=2 n=43 v=0
79108 On ch=2 n=48 v=94
79480 Off ch=2 n=48 v=0
79492 On ch=2 n=43 v=79
79832 Off ch=2 n=43 v=0
79872 On ch=2 n=48 v=97
80412 Off ch=2 n=48 v=0
80448 On ch=2 n=48 v=90
80604 Off ch=2 n=48 v=0
80644 On ch=2 n=48 v=85
80824 Off ch=2 n=48 v=0
80828 On ch=2 n=46 v=69
81008 Off ch=2 n=46 v=0
81020 On ch=2 n=45 v=71
81204 Off ch=2 n=45 v=0
81212 On ch=2 n=43 v=70
81396 Off ch=2 n=43 v=0
81408 On ch=2 n=41 v=72
81964 Off ch=2 n=41 v=0
81984 On ch=2 n=48 v=70
82160 Off ch=2 n=48 v=0
82176 On ch=2 n=53 v=64
82540 Off ch=2 n=53 v=0
82556 On ch=2 n=48 v=90
82900 Off ch=2 n=48 v=0
82936 On ch=2 n=46 v=70
83504 Off ch=2 n=46 v=0
83528 On ch=2 n=41 v=69
83700 Off ch=2 n=41 v=0
83716 On ch=2 n=46 v=79
84084 Off ch=2 n=46 v=0
84100 On ch=2 n=41 v=70
84436 Off ch=2 n=41 v=0
84480 On ch=2 n=41 v=92
85036 Off ch=2 n=41 v=0
85056 On ch=2 n=48 v=73
85232 Off ch=2 n=48 v=0
85252 On ch=2 n=41 v=76
85620 Off ch=2 n=41 v=0
85632 On ch=2 n=48 v=87
85972 Off ch=2 n=48 v=0
86020 On ch=2 n=48 v=89
86572 Off ch=2 n=48 v=0
86596 On ch=2 n=43 v=80
86764 Off ch=2 n=43 v=0
86788 On ch=2 n=48 v=97
87124 Off ch=2 n=48 v=0
87172 On ch=2 n=48 v=97
87496 Off ch=2 n=48 v=0
87556 On ch=2 n=41 v=92
87656 Off ch=2 n=41 v=0
87744 On ch=2 n=41 v=92
87808 Off ch=2 n=41 v=0
87936 On ch=2 n=41 v=99
88020 Off ch=2 n=41 v=0
88128 On ch=2 n=41 v=94
88204 Off ch=2 n=41 v=0
88320 On ch=2 n=41 v=104
88384 Off ch=2 n=41 v=0
88512 On ch=2 n=41 v=97
88568 Off ch=2 n=41 v=0
88704 On ch=2 n=41 v=99
88776 Off ch=2 n=41 v=0
88896 On ch=2 n=41 v=97
88960 Off ch=2 n=41 v=0
89088 On ch=2 n=41 v=104
89148 Off ch=2 n=41 v=0
89280 On ch=2 n=41 v=101
89336 Off ch=2 n=41 v=0
89468 On ch=2 n=41 v=97
89528 Off ch=2 n=41 v=0
89660 On ch=2 n=41 v=97
89740 Off ch=2 n=41 v=0
89856 On ch=2 n=41 v=110
90584 Off ch=2 n=41 v=0
90624 On ch=2 n=53 v=101
90768 Off ch=2 n=53 v=0
90816 On ch=2 n=53 v=97
90960 Off ch=2 n=53 v=0
91008 On ch=2 n=53 v=101
91152 Off ch=2 n=53 v=0
91200 On ch=2 n=53 v=94
91344 Off ch=2 n=53 v=0
91392 On ch=2 n=53 v=101
91536 Off ch=2 n=53 v=0
91584 On ch=2 n=53 v=97
91728 Off ch=2 n=53 v=0
91776 On ch=2 n=53 v=94
91920 Off ch=2 n=53 v=0
91968 On ch=2 n=53 v=97
92112 Off ch=2 n=53 v=0
92160 On ch=2 n=51 v=84
92304 Off ch=2 n=51 v=0
92352 On ch=2 n=51 v=96
92496 Off ch=2 n=51 v=0
92544 On ch=2 n=51 v=100
92688 Off ch=2 n=51 v=0
92736 On ch=2 n=51 v=96
92880 Off ch=2 n=51 v=0
92928 On ch=2 n=51 v=100
93072 Off ch=2 n=51 v=0
93116 On ch=2 n=51 v=100
93260 Off ch=2 n=51 v=0
93308 On ch=2 n=51 v=100
93452 Off ch=2 n=51 v=0
93500 On ch=2 n=51 v=104
93616 Pb ch=2 v=8481
93620 Pb ch=2 v=7517
93628 Pb ch=2 v=6906
93636 Pb ch=2 v=6521
93640 Pb ch=2 v=6200
93648 Pb ch=2 v=5878
93656 Pb ch=2 v=5718
93664 Pb ch=2 v=5654
93668 Pb ch=2 v=5814
93676 Pb ch=2 v=6746
93680 Off ch=2 n=51 v=0
93684 Pb ch=2 v=7549
93688 Pb ch=2 v=7967
93696 Pb ch=2 v=8127
93696 On ch=2 n=46 v=92
93704 Pb ch=2 v=8192
93840 Off ch=2 n=46 v=0
93888 On ch=2 n=46 v=92
94032 Off ch=2 n=46 v=0
94080 On ch=2 n=46 v=100
94224 Off ch=2 n=46 v=0
94268 On ch=2 n=46 v=100
94412 Off ch=2 n=46 v=0
94464 On ch=2 n=46 v=104
94608 Off ch=2 n=46 v=0
94656 On ch=2 n=46 v=100
94800 Off ch=2 n=46 v=0
94848 On ch=2 n=46 v=92
94992 Off ch=2 n=46 v=0
95036 On ch=2 n=46 v=92
95164 Pb ch=2 v=8481
95168 Pb ch=2 v=7324
95176 Pb ch=2 v=6682
95180 Off ch=2 n=46 v=0
95184 Pb ch=2 v=5975
95188 Pb ch=2 v=5364
95196 Pb ch=2 v=4883
95204 Pb ch=2 v=4626
95212 Pb ch=2 v=4497
95216 Pb ch=2 v=4433
95216 On ch=2 n=53 v=85
95224 Pb ch=2 v=4561
95232 Pb ch=2 v=5011
95240 Pb ch=2 v=5718
95248 Pb ch=2 v=6746
95252 Pb ch=2 v=7549
95260 Pb ch=2 v=7967
95268 Pb ch=2 v=8127
95272 Pb ch=2 v=8192
95400 Off ch=2 n=53 v=0
95416 On ch=2 n=53 v=83
95560 Off ch=2 n=53 v=0
95616 On ch=2 n=53 v=97
95760 Off ch=2 n=53 v=0
95808 On ch=2 n=53 v=99
95952 Off ch=2 n=53 v=0
96000 On ch=2 n=53 v=101
96144 Off ch=2 n=53 v=0
96192 On ch=2 n=53 v=104
96336 Off ch=2 n=53 v=0
96384 On ch=2 n=53 v=110
96528 Off ch=2 n=53 v=0
96576 On ch=2 n=53 v=110
96720 Off ch=2 n=53 v=0
96768 On ch=2 n=53 v=101
96912 Off ch=2 n=53 v=0
96960 On ch=2 n=53 v=97
97104 Off ch=2 n=53 v=0
97152 On ch=2 n=53 v=101
97296 Off ch=2 n=53 v=0
97344 On ch=2 n=53 v=94
97488 Off ch=2 n=53 v=0
97536 On ch=2 n=53 v=101
97680 Off ch=2 n=53 v=0
97728 On ch=2 n=53 v=97
97872 Off ch=2 n=53 v=0
97920 On ch=2 n=53 v=94
98064 Off ch=2 n=53 v=0
98112 On ch=2 n=53 v=97
98256 Off ch=2 n=53 v=0
98304 On ch=2 n=51 v=84
98448 Off ch=2 n=51 v=0
98496 On ch=2 n=51 v=96
98640 Off ch=2 n=51 v=0
98688 On ch=2 n=51 v=100
98832 Off ch=2 n=51 v=0
98880 On ch=2 n=51 v=96
99024 Off ch=2 n=51 v=0
99072 On ch=2 n=51 v=100
99216 Off ch=2 n=51 v=0
99260 On ch=2 n=51 v=100
99404 Off ch=2 n=51 v=0
99452 On ch=2 n=51 v=100
99596 Off ch=2 n=51 v=0
99644 On ch=2 n=51 v=104
99760 Pb ch=2 v=8481
99764 Pb ch=2 v=7517
99772 Pb ch=2 v=6906
99780 Pb ch=2 v=6521
99784 Pb ch=2 v=6200
99792 Pb ch=2 v=5878
99800 Pb ch=2 v=5718
99808 Pb ch=2 v=5654
99812 Pb ch=2 v=5814
99820 Pb ch=2 v=6746
99824 Off ch=2 n=51 v=0
99828 Pb ch=2 v=7549
99832 Pb ch=2 v=7967
99840 Pb ch=2 v=8127
99840 On ch=2 n=46 v=92
99848 Pb ch=2 v=8192
99984 Off ch=2 n=46 v=0
100032 On ch=2 n=46 v=92
100176 Off ch=2 n=46 v=0
100224 On ch=2 n=46 v=100
100368 Off ch=2 n=46 v=0
100412 On ch=2 n=46 v=100
100556 Off ch=2 n=46 v=0
100608 On ch=2 n=46 v=104
100752 Off ch=2 n=46 v=0
100800 On ch=2 n=46 v=100
100944 Off ch=2 n=46 v=0
100992 On ch=2 n=46 v=92
101136 Off ch=2 n=46 v=0
101180 On ch=2 n=46 v=92
101308 Pb ch=2 v=8481
101312 Pb ch=2 v=7324
101320 Pb ch=2 v=6682
101324 Off ch=2 n=46 v=0
101328 Pb ch=2 v=5975
101332 Pb ch=2 v=5364
101340 Pb ch=2 v=4883
101348 Pb ch=2 v=4626
101356 Pb ch=2 v=4497
101360 Pb ch=2 v=4433
101360 On ch=2 n=53 v=85
101368 Pb ch=2 v=4561
101376 Pb ch=2 v=5011
101384 Pb ch=2 v=5718
101392 Pb ch=2 v=6746
101396 Pb ch=2 v=7549
101404 Pb ch=2 v=7967
101412 Pb ch=2 v=8127
101416 Pb ch=2 v=8192
101544 Off ch=2 n=53 v=0
101560 On ch=2 n=53 v=83
101704 Off ch=2 n=53 v=0
101760 On ch=2 n=53 v=97
101904 Off ch=2 n=53 v=0
101952 On ch=2 n=53 v=99
102096 Off ch=2 n=53 v=0
102144 On ch=2 n=53 v=101
102288 Off ch=2 n=53 v=0
102336 On ch=2 n=53 v=104
102480 Off ch=2 n=53 v=0
102528 On ch=2 n=53 v=110
102672 Off ch=2 n=53 v=0
102720 On ch=2 n=53 v=110
102864 Off ch=2 n=53 v=0
102912 On ch=2 n=53 v=101
103056 Off ch=2 n=53 v=0
103104 On ch=2 n=53 v=97
103248 Off ch=2 n=53 v=0
103296 On ch=2 n=53 v=101
103440 Off ch=2 n=53 v=0
103488 On ch=2 n=53 v=94
103632 Off ch=2 n=53 v=0
103680 On ch=2 n=53 v=101
103824 Off ch=2 n=53 v=0
103872 On ch=2 n=53 v=97
104016 Off ch=2 n=53 v=0
104064 On ch=2 n=53 v=94
104208 Off ch=2 n=53 v=0
104256 On ch=2 n=53 v=97
104400 Off ch=2 n=53 v=0
104448 On ch=2 n=51 v=84
104592 Off ch=2 n=51 v=0
104640 On ch=2 n=51 v=96
104784 Off ch=2 n=51 v=0
104832 On ch=2 n=51 v=100
104976 Off ch=2 n=51 v=0
105024 On ch=2 n=51 v=96
105168 Off ch=2 n=51 v=0
105216 On ch=2 n=51 v=100
105360 Off ch=2 n=51 v=0
105404 On ch=2 n=51 v=100
105548 Off ch=2 n=51 v=0
105596 On ch=2 n=51 v=100
105740 Off ch=2 n=51 v=0
105788 On ch=2 n=51 v=104
105904 Pb ch=2 v=8481
105908 Pb ch=2 v=7517
105916 Pb ch=2 v=6906
105924 Pb ch=2 v=6521
105928 Pb ch=2 v=6200
105936 Pb ch=2 v=5878
105944 Pb ch=2 v=5718
105952 Pb ch=2 v=5654
105956 Pb ch=2 v=5814
105964 Pb ch=2 v=6746
105968 Off ch=2 n=51 v=0
105972 Pb ch=2 v=7549
105976 Pb ch=2 v=7967
105984 Pb ch=2 v=8127
105984 On ch=2 n=46 v=92
105992 Pb ch=2 v=8192
106128 Off ch=2 n=46 v=0
106176 On ch=2 n=46 v=92
106320 Off ch=2 n=46 v=0
106368 On ch=2 n=46 v=100
106512 Off ch=2 n=46 v=0
106556 On ch=2 n=46 v=100
106700 Off ch=2 n=46 v=0
106752 On ch=2 n=46 v=104
106896 Off ch=2 n=46 v=0
106944 On ch=2 n=46 v=100
107088 Off ch=2 n=46 v=0
107136 On ch=2 n=46 v=92
107280 Off ch=2 n=46 v=0
107324 On ch=2 n=46 v=92
107452 Pb ch=2 v=8481
107456 Pb ch=2 v=7324
107464 Pb ch=2 v=6682
107468 Off ch=2 n=46 v=0
107472 Pb ch=2 v=5975
107476 Pb ch=2 v=5364
107484 Pb ch=2 v=4883
107492 Pb ch=2 v=4626
107500 Pb ch=2 v=4497
107504 Pb ch=2 v=4433
107504 On ch=2 n=53 v=85
107512 Pb ch=2 v=4561
107520 Pb ch=2 v=5011
107528 Pb ch=2 v=5718
107536 Pb ch=2 v=6746
107540 Pb ch=2 v=7549
107548 Pb ch=2 v=7967
107556 Pb ch=2 v=8127
107560 Pb ch=2 v=8192
107688 Off ch=2 n=53 v=0
107704 On ch=2 n=53 v=83
107848 Off ch=2 n=53 v=0
107904 On ch=2 n=53 v=97
108048 Off ch=2 n=53 v=0
108096 On ch=2 n=53 v=99
108240 Off ch=2 n=53 v=0
108288 On ch=2 n=53 v=101
108432 Off ch=2 n=53 v=0
108480 On ch=2 n=53 v=104
108624 Off ch=2 n=53 v=0
108672 On ch=2 n=53 v=110
108816 Off ch=2 n=53 v=0
108864 On ch=2 n=53 v=110
109008 Off ch=2 n=53 v=0
109056 On ch=2 n=53 v=101
109200 Off ch=2 n=53 v=0
109248 On ch=2 n=53 v=97
109392 Off ch=2 n=53 v=0
109440 On ch=2 n=53 v=101
109584 Off ch=2 n=53 v=0
109632 On ch=2 n=53 v=94
109776 Off ch=2 n=53 v=0
109824 On ch=2 n=53 v=101
109968 Off ch=2 n=53 v=0
110016 On ch=2 n=53 v=97
110160 Off ch=2 n=53 v=0
110208 On ch=2 n=53 v=94
110352 Off ch=2 n=53 v=0
110400 On ch=2 n=53 v=97
110544 Off ch=2 n=53 v=0
110592 On ch=2 n=51 v=84
110736 Off ch=2 n=51 v=0
110784 On ch=2 n=51 v=96
110928 Off ch=2 n=51 v=0
110976 On ch=2 n=51 v=100
111120 Off ch=2 n=51 v=0
111168 On ch=2 n=51 v=96
111312 Off ch=2 n=51 v=0
111360 On ch=2 n=51 v=100
111504 Off ch=2 n=51 v=0
111548 On ch=2 n=51 v=100
111692 Off ch=2 n=51 v=0
111740 On ch=2 n=51 v=100
111884 Off ch=2 n=51 v=0
111932 On ch=2 n=51 v=104
112048 Pb ch=2 v=8481
112052 Pb ch=2 v=7517
112060 Pb ch=2 v=6906
112068 Pb ch=2 v=6521
112072 Pb ch=2 v=6200
112080 Pb ch=2 v=5878
112088 Pb ch=2 v=5718
112096 Pb ch=2 v=5654
112100 Pb ch=2 v=5814
112108 Pb ch=2 v=6746
112112 Off ch=2 n=51 v=0
112116 Pb ch=2 v=7549
112120 Pb ch=2 v=7967
112128 Pb ch=2 v=8127
112128 On ch=2 n=46 v=92
112136 Pb ch=2 v=8192
112272 Off ch=2 n=46 v=0
112320 On ch=2 n=46 v=92
112464 Off ch=2 n=46 v=0
112512 On ch=2 n=46 v=100
112656 Off ch=2 n=46 v=0
112700 On ch=2 n=46 v=100
112844 Off ch=2 n=46 v=0
112896 On ch=2 n=46 v=104
113040 Off ch=2 n=46 v=0
113088 On ch=2 n=46 v=100
113232 Off ch=2 n=46 v=0
113280 On ch=2 n=46 v=92
113424 Off ch=2 n=46 v=0
113468 On ch=2 n=46 v=92
113596 Pb ch=2 v=8481
113600 Pb ch=2 v=7324
113608 Pb ch=2 v=6682
113612 Off ch=2 n=46 v=0
113616 Pb ch=2 v=5975
113620 Pb ch=2 v=5364
113628 Pb ch=2 v=4883
113636 Pb ch=2 v=4626
113644 Pb ch=2 v=4497
113648 Pb ch=2 v=4433
113648 On ch=2 n=53 v=85
113656 Pb ch=2 v=4561
113664 Pb ch=2 v=5011
113672 Pb ch=2 v=5718
113680 Pb ch=2 v=6746
113684 Pb ch=2 v=7549
113692 Pb ch=2 v=7967
113700 Pb ch=2 v=8127
113704 Pb ch=2 v=8192
113832 Off ch=2 n=53 v=0
113848 On ch=2 n=53 v=83
113992 Off ch=2 n=53 v=0
114048 On ch=2 n=53 v=97
114192 Off ch=2 n=53 v=0
114240 On ch=2 n=53 v=95
114384 Off ch=2 n=53 v=0
114432 On ch=2 n=53 v=95
114576 Off ch=2 n=53 v=0
114624 On ch=2 n=53 v=94
114768 Off ch=2 n=53 v=0
114816 On ch=2 n=53 v=93
114960 Off ch=2 n=53 v=0
115008 On ch=2 n=53 v=92
115152 Off ch=2 n=53 v=0
115200 On ch=2 n=53 v=91
115344 Off ch=2 n=53 v=0
115392 On ch=2 n=53 v=90
115536 Off ch=2 n=53 v=0
115584 On ch=2 n=53 v=89
115728 Off ch=2 n=53 v=0
115776 On ch=2 n=53 v=88
115920 Off ch=2 n=53 v=0
115968 On ch=2 n=53 v=87
116112 Off ch=2 n=53 v=0
116160 On ch=2 n=53 v=86
116304 Off ch=2 n=53 v=0
116352 On ch=2 n=53 v=85
116496 Off ch=2 n=53 v=0
116544 On ch=2 n=53 v=84
116688 Off ch=2 n=53 v=0
116736 On ch=2 n=51 v=83
116880 Off ch=2 n=51 v=0
116928 On ch=2 n=51 v=82
117072 Off ch=2 n=51 v=0
117120 On ch=2 n=51 v=81
117264 Off ch=2 n=51 v=0
117312 On ch=2 n=51 v=80
117456 Off ch=2 n=51 v=0
117504 On ch=2 n=51 v=79
117648 Off ch=2 n=51 v=0
117692 On ch=2 n=51 v=78
117836 Off ch=2 n=51 v=0
117884 On ch=2 n=51 v=77
118028 Off ch=2 n=51 v=0
118076 On ch=2 n=51 v=76
118192 Pb ch=2 v=8481
118196 Pb ch=2 v=7517
118204 Pb ch=2 v=6906
118212 Pb ch=2 v=6521
118216 Pb ch=2 v=6200
118224 Pb ch=2 v=5878
118232 Pb ch=2 v=5718
118240 Pb ch=2 v=5654
118244 Pb ch=2 v=5814
118252 Pb ch=2 v=6746
118256 Off ch=2 n=51 v=0
118260 Pb ch=2 v=7549
118264 Pb ch=2 v=7967
118272 Pb ch=2 v=8127
118272 On ch=2 n=46 v=75
118280 Pb ch=2 v=8192
118416 Off ch=2 n=46 v=0
118464 On ch=2 n=46 v=74
118608 Off ch=2 n=46 v=0
118656 On ch=2 n=46 v=74
118800 Off ch=2 n=46 v=0
118844 On ch=2 n=46 v=73
118988 Off ch=2 n=46 v=0
119040 On ch=2 n=46 v=72
119184 Off ch=2 n=46 v=0
119232 On ch=2 n=46 v=71
119376 Off ch=2 n=46 v=0
119424 On ch=2 n=46 v=70
119568 Off ch=2 n=46 v=0
119612 On ch=2 n=46 v=69
119740 Pb ch=2 v=8481
119744 Pb ch=2 v=7324
119752 Pb ch=2 v=6682
119756 Off ch=2 n=46 v=0
119760 Pb ch=2 v=5975
119764 Pb ch=2 v=5364
119772 Pb ch=2 v=4883
119780 Pb ch=2 v=4626
119788 Pb ch=2 v=4497
119792 Pb ch=2 v=4433
119792 On ch=2 n=53 v=68
119800 Pb ch=2 v=4561
119808 Pb ch=2 v=5011
119816 Pb ch=2 v=5718
119824 Pb ch=2 v=6746
119828 Pb ch=2 v=7549
119836 Pb ch=2 v=7967
119844 Pb ch=2 v=8127
119848 Pb ch=2 v=8192
119976 Off ch=2 n=53 v=0
119992 On ch=2 n=53 v=67
120136 Off ch=2 n=53 v=0
120192 On ch=2 n=53 v=66
120336 Off ch=2 n=53 v=0
120384 On ch=2 n=53 v=65
120528 Off ch=2 n=53 v=0
120576 On ch=2 n=53 v=64
120720 Off ch=2 n=53 v=0
120768 On ch=2 n=53 v=63
120912 Off ch=2 n=53 v=0
120960 On ch=2 n=53 v=62
121104 Off ch=2 n=53 v=0
121152 On ch=2 n=53 v=61
121296 Off ch=2 n=53 v=0
121344 On ch=2 n=53 v=60
121488 Off ch=2 n=53 v=0
121536 On ch=2 n=53 v=59
121680 Off ch=2 n=53 v=0
121728 On ch=2 n=53 v=58
121872 Off ch=2 n=53 v=0
121920 On ch=2 n=53 v=57
122064 Off ch=2 n=53 v=0
122112 On ch=2 n=53 v=56
122256 Off ch=2 n=53 v=0
122304 On ch=2 n=53 v=55
122448 Off ch=2 n=53 v=0
122496 On ch=2 n=53 v=54
122640 Off ch=2 n=53 v=0
122688 On ch=2 n=53 v=53
122832 Off ch=2 n=53 v=0
122880 On ch=2 n=51 v=53
123024 Off ch=2 n=51 v=0
123072 On ch=2 n=51 v=52
123216 Off ch=2 n=51 v=0
123264 On ch=2 n=51 v=51
123408 Off ch=2 n=51 v=0
123456 On ch=2 n=51 v=50
123600 Off ch=2 n=51 v=0
123648 On ch=2 n=51 v=49
123792 Off ch=2 n=51 v=0
123836 On ch=2 n=51 v=48
123980 Off ch=2 n=51 v=0
124028 On ch=2 n=51 v=47
124172 Off ch=2 n=51 v=0
124220 On ch=2 n=51 v=46
124336 Pb ch=2 v=8481
124340 Pb ch=2 v=7517
124348 Pb ch=2 v=6906
124356 Pb ch=2 v=6521
124360 Pb ch=2 v=6200
124368 Pb ch=2 v=5878
124376 Pb ch=2 v=5718
124384 Pb ch=2 v=5654
124388 Pb ch=2 v=5814
124396 Pb ch=2 v=6746
124400 Off ch=2 n=51 v=0
124404 Pb ch=2 v=7549
124408 Pb ch=2 v=7967
124416 Pb ch=2 v=8127
124416 On ch=2 n=46 v=45
124424 Pb ch=2 v=8192
124560 Off ch=2 n=46 v=0
124608 On ch=2 n=46 v=44
124752 Off ch=2 n=46 v=0
124800 On ch=2 n=46 v=43
124944 Off ch=2 n=46 v=0
124988 On ch=2 n=46 v=42
125132 Off ch=2 n=46 v=0
125184 On ch=2 n=46 v=41
125328 Off ch=2 n=46 v=0
125376 On ch=2 n=46 v=40
125520 Off ch=2 n=46 v=0
125568 On ch=2 n=46 v=39
125712 Off ch=2 n=46 v=0
125756 On ch=2 n=46 v=38
125884 Pb ch=2 v=8481
125888 Pb ch=2 v=7324
125896 Pb ch=2 v=6682
125900 Off ch=2 n=46 v=0
125904 Pb ch=2 v=5975
125908 Pb ch=2 v=5364
125916 Pb ch=2 v=4883
125924 Pb ch=2 v=4626
125932 Pb ch=2 v=4497
125936 Pb ch=2 v=4433
125936 On ch=2 n=53 v=37
125944 Pb ch=2 v=4561
125952 Pb ch=2 v=5011
125960 Pb ch=2 v=5718
125968 Pb ch=2 v=6746
125972 Pb ch=2 v=7549
125980 Pb ch=2 v=7967
125988 Pb ch=2 v=8127
125992 Pb ch=2 v=8192
126120 Off ch=2 n=53 v=0
126136 On ch=2 n=53 v=36
126280 Off ch=2 n=53 v=0
126336 On ch=2 n=53 v=35
126480 Off ch=2 n=53 v=0
126528 On ch=2 n=53 v=34
126672 Off ch=2 n=53 v=0
126720 On ch=2 n=53 v=33
126864 Off ch=2 n=53 v=0
126912 On ch=2 n=53 v=32
127056 Off ch=2 n=53 v=0
127104 On ch=2 n=53 v=32
127248 Off ch=2 n=53 v=0
127296 On ch=2 n=53 v=31
127440 Off ch=2 n=53 v=0
127488 On ch=2 n=53 v=30
127632 Off ch=2 n=53 v=0
127680 On ch=2 n=53 v=29
127824 Off ch=2 n=53 v=0
127872 On ch=2 n=53 v=28
128016 Off ch=2 n=53 v=0
128064 On ch=2 n=53 v=27
128208 Off ch=2 n=53 v=0
128256 On ch=2 n=53 v=26
128400 Off ch=2 n=53 v=0
128448 On ch=2 n=53 v=25
128592 Off ch=2 n=53 v=0
128640 On ch=2 n=53 v=24
128784 Off ch=2 n=53 v=0
128832 On ch=2 n=53 v=23
128976 Off ch=2 n=53 v=0
129024 On ch=2 n=51 v=22
129168 Off ch=2 n=51 v=0
129216 On ch=2 n=51 v=21
129360 Off ch=2 n=51 v=0
129408 On ch=2 n=51 v=20
129552 Off ch=2 n=51 v=0
129600 On ch=2 n=51 v=19
129744 Off ch=2 n=51 v=0
129792 On ch=2 n=51 v=18
129936 Off ch=2 n=51 v=0
129980 On ch=2 n=51 v=17
130124 Off ch=2 n=51 v=0
130172 On ch=2 n=51 v=16
130316 Off ch=2 n=51 v=0
130364 On ch=2 n=51 v=15
130480 Pb ch=2 v=8481
130484 Pb ch=2 v=7517
130492 Pb ch=2 v=6906
130500 Pb ch=2 v=6521
130504 Pb ch=2 v=6200
130512 Pb ch=2 v=5878
130520 Pb ch=2 v=5718
130528 Pb ch=2 v=5654
130532 Pb ch=2 v=5814
130540 Pb ch=2 v=6746
130544 Off ch=2 n=51 v=0
130548 Pb ch=2 v=7549
130552 Pb ch=2 v=7967
130560 Pb ch=2 v=8127
130560 On ch=2 n=46 v=14
130568 Pb ch=2 v=8192
130704 Off ch=2 n=46 v=0
130752 On ch=2 n=46 v=13
130896 Off ch=2 n=46 v=0
130944 On ch=2 n=46 v=12
131088 Off ch=2 n=46 v=0
131132 On ch=2 n=46 v=11
131276 Off ch=2 n=46 v=0
131328 On ch=2 n=46 v=10
131472 Off ch=2 n=46 v=0
131520 On ch=2 n=46 v=10
131664 Off ch=2 n=46 v=0
131712 On ch=2 n=46 v=9
131856 Off ch=2 n=46 v=0
131900 On ch=2 n=46 v=5
132028 Pb ch=2 v=8481
132032 Pb ch=2 v=7324
132040 Pb ch=2 v=6682
132044 Off ch=2 n=46 v=0
132048 Pb ch=2 v=5975
132052 Pb ch=2 v=5364
132060 Pb ch=2 v=4883
132068 Pb ch=2 v=4626
132076 Pb ch=2 v=4497
132080 Pb ch=2 v=4433
132080 On ch=2 n=53 v=4
132088 Pb ch=2 v=4561
132096 Pb ch=2 v=5011
132104 Pb ch=2 v=5718
132112 Pb ch=2 v=6746
132116 Pb ch=2 v=7549
132124 Pb ch=2 v=7967
132132 Pb ch=2 v=8127
132136 Pb ch=2 v=8192
132264 Off ch=2 n=53 v=0
132280 On ch=2 n=53 v=4
132424 Off ch=2 n=53 v=0
132480 On ch=2 n=53 v=1
132624 Off ch=2 n=53 v=0
132672 On ch=2 n=53 v=1
132816 Off ch=2 n=53 v=0
132864 On ch=2 n=53 v=1
133008 Off ch=2 n=53 v=0
133056 On ch=2 n=53 v=1
133200 Off ch=2 n=53 v=0
133248 On ch=2 n=53 v=1
133392 Off ch=2 n=53 v=0
133440 On ch=2 n=53 v=1
133584 Off ch=2 n=53 v=0
133632 Meta TrkEnd
TrkEnd
MTrk
0 Meta TrkName "A.PIANO 1"
0 Par ch=3 c=7 v=114
0 PrCh ch=3 p=0
1536 Par ch=3 c=64 v=127
1536 On ch=3 n=53 v=79
1536 On ch=3 n=60 v=75
1536 On ch=3 n=57 v=79
1536 On ch=3 n=65 v=75
1724 Off ch=3 n=53 v=0
1728 On ch=3 n=41 v=65
1744 Off ch=3 n=60 v=0
1752 Off ch=3 n=65 v=0
1760 Off ch=3 n=57 v=0
1920 On ch=3 n=60 v=77
1924 On ch=3 n=57 v=76
1928 Off ch=3 n=41 v=0
1928 On ch=3 n=53 v=74
1928 On ch=3 n=65 v=74
2108 Off ch=3 n=53 v=0
2108 On ch=3 n=41 v=68
2112 Off ch=3 n=60 v=0
2128 Off ch=3 n=65 v=0
2132 Off ch=3 n=57 v=0
2300 Off ch=3 n=41 v=0
2304 On ch=3 n=53 v=77
2304 On ch=3 n=60 v=75
2312 On ch=3 n=57 v=72
2312 On ch=3 n=65 v=71
2484 Off ch=3 n=65 v=0
2484 Off ch=3 n=60 v=0
2492 Off ch=3 n=53 v=0
2496 On ch=3 n=41 v=64
2500 Off ch=3 n=57 v=0
2692 Off ch=3 n=41 v=0
2692 On ch=3 n=53 v=79
2692 On ch=3 n=60 v=76
2692 On ch=3 n=57 v=76
2692 On ch=3 n=65 v=72
2868 Off ch=3 n=53 v=0
2876 Off ch=3 n=60 v=0
2880 On ch=3 n=41 v=72
2908 Off ch=3 n=57 v=0
2912 Off ch=3 n=65 v=0
3052 Off ch=3 n=41 v=0
3060 Par ch=3 c=64 v=0
3076 On ch=3 n=52 v=80
3076 On ch=3 n=60 v=71
3076 On ch=3 n=55 v=73
3076 On ch=3 n=64 v=73
3148 Par ch=3 c=64 v=127
3268 Off ch=3 n=64 v=0
3268 On ch=3 n=48 v=77
3272 Off ch=3 n=60 v=0
3272 Off ch=3 n=52 v=0
3276 Off ch=3 n=55 v=0
3452 Off ch=3 n=48 v=0
3452 On ch=3 n=60 v=75
3456 On ch=3 n=64 v=72
3460 On ch=3 n=55 v=77
3460 On ch=3 n=52 v=81
3636 Off ch=3 n=52 v=0
3644 On ch=3 n=48 v=72
3668 Off ch=3 n=64 v=0
3668 Off ch=3 n=60 v=0
3672 Off ch=3 n=55 v=0
3832 Off ch=3 n=48 v=0
3836 On ch=3 n=52 v=76
3840 On ch=3 n=60 v=69
3840 On ch=3 n=64 v=73
3844 On ch=3 n=55 v=66
3964 Off ch=3 n=55 v=0
4000 Off ch=3 n=60 v=0
4020 Off ch=3 n=64 v=0
4028 On ch=3 n=48 v=74
4036 Off ch=3 n=52 v=0
4216 Off ch=3 n=48 v=0
4216 On ch=3 n=60 v=76
4220 On ch=3 n=67 v=77
4224 On ch=3 n=52 v=81
4244 Par ch=3 c=64 v=0
4304 Par ch=3 c=64 v=127
4376 Off ch=3 n=67 v=0
4396 Off ch=3 n=52 v=0
4412 On ch=3 n=69 v=83
4412 On ch=3 n=53 v=86
4488 Off ch=3 n=69 v=0
4524 Off ch=3 n=60 v=0
4600 Par ch=3 c=64 v=0
4604 On ch=3 n=70 v=79
4604 On ch=3 n=55 v=80
4608 On ch=3 n=67 v=76
4608 On ch=3 n=64 v=79
4612 Off ch=3 n=53 v=0
4672 Par ch=3 c=64 v=127
4776 Off ch=3 n=55 v=0
4788 Off ch=3 n=64 v=0
4796 On ch=3 n=48 v=76
4816 Off ch=3 n=67 v=0
4840 Off ch=3 n=70 v=0
4980 Off ch=3 n=48 v=0
4984 On ch=3 n=65 v=80
4984 On ch=3 n=67 v=80
4988 On ch=3 n=70 v=69
4988 On ch=3 n=55 v=85
4992 On ch=3 n=77 v=70
5176 Off ch=3 n=55 v=0
5180 Off ch=3 n=65 v=0
5184 Off ch=3 n=77 v=0
5184 On ch=3 n=48 v=76
5192 Off ch=3 n=67 v=0
5204 Off ch=3 n=70 v=0
5360 Off ch=3 n=48 v=0
5364 On ch=3 n=70 v=69
5364 On ch=3 n=67 v=76
5368 On ch=3 n=65 v=77
5368 On ch=3 n=55 v=79
5376 On ch=3 n=77 v=70
5544 Off ch=3 n=55 v=0
5556 Off ch=3 n=65 v=0
5560 Off ch=3 n=67 v=0
5560 On ch=3 n=48 v=74
5568 Off ch=3 n=77 v=0
5572 Off ch=3 n=70 v=0
5744 Off ch=3 n=48 v=0
5760 On ch=3 n=77 v=70
5760 On ch=3 n=70 v=66
5760 On ch=3 n=67 v=78
5760 On ch=3 n=55 v=84
5760 On ch=3 n=65 v=75
5936 Off ch=3 n=55 v=0
5948 On ch=3 n=48 v=78
5952 Off ch=3 n=77 v=0
5956 Off ch=3 n=65 v=0
6004 Off ch=3 n=70 v=0
6024 Off ch=3 n=67 v=0
6124 Off ch=3 n=48 v=0
6140 On ch=3 n=65 v=75
6140 On ch=3 n=60 v=72
6140 On ch=3 n=69 v=75
6140 On ch=3 n=53 v=84
6144 On ch=3 n=72 v=74
6152 Par ch=3 c=64 v=0
6224 Par ch=3 c=64 v=127
6316 Off ch=3 n=53 v=0
6328 Off ch=3 n=65 v=0
6328 On ch=3 n=41 v=71
6332 Off ch=3 n=60 v=0
6336 Off ch=3 n=72 v=0
6336 Off ch=3 n=69 v=0
6524 On ch=3 n=65 v=75
6524 On ch=3 n=53 v=77
6524 On ch=3 n=60 v=74
6524 On ch=3 n=69 v=79
6528 Off ch=3 n=41 v=0
6528 On ch=3 n=72 v=74
6704 Off ch=3 n=60 v=0
6704 Off ch=3 n=53 v=0
6708 Off ch=3 n=65 v=0
6716 On ch=3 n=41 v=71
6720 Off ch=3 n=72 v=0
6724 Off ch=3 n=69 v=0
6912 Off ch=3 n=41 v=0
6912 On ch=3 n=72 v=74
6912 On ch=3 n=65 v=72
6912 On ch=3 n=60 v=71
6912 On ch=3 n=53 v=80
6912 On ch=3 n=69 v=77
7080 Off ch=3 n=53 v=0
7088 Off ch=3 n=65 v=0
7096 Off ch=3 n=60 v=0
7100 Off ch=3 n=69 v=0
7104 Off ch=3 n=72 v=0
7104 On ch=3 n=41 v=65
7296 On ch=3 n=72 v=74
7296 On ch=3 n=65 v=74
7296 On ch=3 n=53 v=83
7296 On ch=3 n=60 v=77
7296 On ch=3 n=69 v=78
7300 Off ch=3 n=41 v=0
7476 Off ch=3 n=53 v=0
7488 Off ch=3 n=72 v=0
7488 On ch=3 n=41 v=78
7504 Off ch=3 n=60 v=0
7520 Off ch=3 n=69 v=0
7536 Off ch=3 n=65 v=0
7600 Off ch=3 n=41 v=0
7676 Par ch=3 c=64 v=0
7680 On ch=3 n=74 v=63
7680 On ch=3 n=70 v=72
7680 On ch=3 n=62 v=76
7680 On ch=3 n=65 v=78
7680 On ch=3 n=46 v=83
7808 Par ch=3 c=64 v=127
7852 Off ch=3 n=65 v=0
7860 Off ch=3 n=62 v=0
7864 Off ch=3 n=70 v=0
7872 Off ch=3 n=74 v=0
7872 On ch=3 n=34 v=53
7892 Off ch=3 n=46 v=0
8064 On ch=3 n=74 v=62
8064 On ch=3 n=70 v=66
8064 On ch=3 n=46 v=73
8064 On ch=3 n=62 v=69
8064 On ch=3 n=65 v=73
8076 Off ch=3 n=34 v=0
8240 Off ch=3 n=65 v=0
8256 Off ch=3 n=62 v=0
8256 Off ch=3 n=46 v=0
8256 Off ch=3 n=70 v=0
8256 Off ch=3 n=74 v=0
8256 On ch=3 n=34 v=66
8448 On ch=3 n=74 v=61
8452 On ch=3 n=62 v=77
8452 On ch=3 n=70 v=69
8452 On ch=3 n=46 v=76
8452 On ch=3 n=65 v=78
8460 Off ch=3 n=34 v=0
8620 Off ch=3 n=65 v=0
8640 Off ch=3 n=62 v=0
8640 Off ch=3 n=74 v=0
8640 On ch=3 n=34 v=69
8644 Off ch=3 n=46 v=0
8652 Off ch=3 n=70 v=0
8832 Off ch=3 n=34 v=0
8832 On ch=3 n=74 v=61
8836 On ch=3 n=70 v=71
8836 On ch=3 n=46 v=79
8836 On ch=3 n=62 v=75
8836 On ch=3 n=65 v=77
9008 Off ch=3 n=46 v=0
9024 Off ch=3 n=74 v=0
9024 On ch=3 n=34 v=80
9028 Off ch=3 n=70 v=0
9036 Off ch=3 n=65 v=0
9048 Off ch=3 n=62 v=0
9064 Off ch=3 n=34 v=0
9184 Par ch=3 c=64 v=0
9216 On ch=3 n=72 v=68
9216 On ch=3 n=53 v=83
9216 On ch=3 n=60 v=79
9216 On ch=3 n=65 v=75
9216 On ch=3 n=69 v=80
9272 Par ch=3 c=64 v=127
9408 Off ch=3 n=72 v=0
9412 On ch=3 n=41 v=72
9424 Off ch=3 n=65 v=0
9424 Off ch=3 n=53 v=0
9436 Off ch=3 n=69 v=0
9440 Off ch=3 n=60 v=0
9600 Off ch=3 n=41 v=0
9600 On ch=3 n=72 v=74
9600 On ch=3 n=77 v=68
9604 On ch=3 n=65 v=72
9604 On ch=3 n=53 v=81
9604 On ch=3 n=69 v=78
9768 Off ch=3 n=53 v=0
9784 Off ch=3 n=69 v=0
9788 Off ch=3 n=65 v=0
9792 Off ch=3 n=77 v=0
9792 Off ch=3 n=72 v=0
9792 On ch=3 n=41 v=68
9980 Off ch=3 n=41 v=0
9988 On ch=3 n=53 v=81
9988 On ch=3 n=65 v=73
9988 On ch=3 n=60 v=74
9988 On ch=3 n=69 v=79
10156 Off ch=3 n=53 v=0
10176 Off ch=3 n=69 v=0
10176 On ch=3 n=41 v=71
10180 Off ch=3 n=60 v=0
10184 Off ch=3 n=65 v=0
10368 Off ch=3 n=41 v=0
10372 On ch=3 n=65 v=74
10372 On ch=3 n=69 v=76
10372 On ch=3 n=60 v=75
10372 On ch=3 n=53 v=84
10472 Off ch=3 n=69 v=0
10480 Off ch=3 n=65 v=0
10536 Off ch=3 n=53 v=0
10548 Off ch=3 n=60 v=0
10560 On ch=3 n=41 v=75
10736 Off ch=3 n=41 v=0
10736 Par ch=3 c=64 v=0
10756 On ch=3 n=60 v=74
10756 On ch=3 n=58 v=78
10756 On ch=3 n=48 v=90
10756 On ch=3 n=67 v=68
10756 On ch=3 n=64 v=65
10812 Par ch=3 c=64 v=127
10940 Off ch=3 n=64 v=0
10940 Off ch=3 n=58 v=0
10944 On ch=3 n=36 v=72
10948 Off ch=3 n=67 v=0
10948 Off ch=3 n=48 v=0
10952 Off ch=3 n=60 v=0
11136 On ch=3 n=60 v=75
11136 On ch=3 n=58 v=74
11136 On ch=3 n=67 v=66
11136 On ch=3 n=48 v=80
11136 On ch=3 n=64 v=72
11140 Off ch=3 n=36 v=0
11316 Off ch=3 n=64 v=0
11324 Off ch=3 n=48 v=0
11328 On ch=3 n=36 v=72
11336 Off ch=3 n=60 v=0
11340 Off ch=3 n=67 v=0
11344 Off ch=3 n=58 v=0
11516 Off ch=3 n=36 v=0
11520 On ch=3 n=60 v=75
11520 On ch=3 n=58 v=68
11520 On ch=3 n=48 v=77
11520 On ch=3 n=67 v=66
11520 On ch=3 n=64 v=65
11672 Off ch=3 n=48 v=0
11680 Off ch=3 n=64 v=0
11712 On ch=3 n=36 v=69
11716 Off ch=3 n=60 v=0
11720 Off ch=3 n=67 v=0
11720 Off ch=3 n=58 v=0
11900 Off ch=3 n=36 v=0
11904 On ch=3 n=60 v=73
11908 On ch=3 n=67 v=63
11912 On ch=3 n=58 v=64
11912 On ch=3 n=48 v=78
11912 On ch=3 n=64 v=67
12068 Off ch=3 n=60 v=0
12072 Off ch=3 n=48 v=0
12088 Off ch=3 n=64 v=0
12088 Off ch=3 n=58 v=0
12088 On ch=3 n=36 v=78
12092 Off ch=3 n=67 v=0
12136 Off ch=3 n=36 v=0
12284 On ch=3 n=53 v=86
12284 On ch=3 n=60 v=76
12284 On ch=3 n=65 v=74
12292 Par ch=3 c=64 v=0
12292 On ch=3 n=69 v=79
12380 Par ch=3 c=64 v=127
12480 Off ch=3 n=53 v=0
12484 On ch=3 n=41 v=69
12488 Off ch=3 n=65 v=0
12500 Off ch=3 n=69 v=0
12508 Off ch=3 n=60 v=0
12660 Off ch=3 n=41 v=0
12672 On ch=3 n=60 v=75
12672 On ch=3 n=65 v=71
12672 On ch=3 n=53 v=75
12672 On ch=3 n=69 v=74
12820 Off ch=3 n=53 v=0
12856 On ch=3 n=41 v=68
12864 Off ch=3 n=65 v=0
12868 Off ch=3 n=60 v=0
12892 Off ch=3 n=69 v=0
12916 Off ch=3 n=41 v=0
13000 Par ch=3 c=64 v=0
13048 On ch=3 n=60 v=71
13048 On ch=3 n=65 v=70
13048 On ch=3 n=53 v=79
13048 On ch=3 n=41 v=71
13048 On ch=3 n=69 v=72
13076 Par ch=3 c=64 v=127
13668 Off ch=3 n=69 v=0
13668 Par ch=3 c=64 v=0
13672 Off ch=3 n=41 v=0
13672 Off ch=3 n=60 v=0
13676 Off ch=3 n=65 v=0
13680 Off ch=3 n=53 v=0
13824 Par ch=3 c=64 v=127
13824 On ch=3 n=53 v=74
13824 On ch=3 n=60 v=75
13824 On ch=3 n=57 v=79
13824 On ch=3 n=65 v=75
14016 Off ch=3 n=53 v=0
14016 On ch=3 n=41 v=65
14032 Off ch=3 n=60 v=0
14040 Off ch=3 n=65 v=0
14048 Off ch=3 n=57 v=0
14208 On ch=3 n=60 v=77
14212 On ch=3 n=57 v=76
14216 Off ch=3 n=41 v=0
14216 On ch=3 n=53 v=74
14216 On ch=3 n=65 v=74
14396 Off ch=3 n=53 v=0
14396 On ch=3 n=41 v=68
14400 Off ch=3 n=60 v=0
14416 Off ch=3 n=65 v=0
14420 Off ch=3 n=57 v=0
14588 Off ch=3 n=41 v=0
14592 On ch=3 n=53 v=77
14592 On ch=3 n=60 v=75
14600 On ch=3 n=57 v=72
14600 On ch=3 n=65 v=71
14772 Off ch=3 n=65 v=0
14772 Off ch=3 n=60 v=0
14780 Off ch=3 n=53 v=0
14784 On ch=3 n=41 v=64
14788 Off ch=3 n=57 v=0
14980 Off ch=3 n=41 v=0
14980 On ch=3 n=53 v=79
14980 On ch=3 n=60 v=76
14980 On ch=3 n=57 v=76
14980 On ch=3 n=65 v=72
15156 Off ch=3 n=53 v=0
15164 Off ch=3 n=60 v=0
15168 On ch=3 n=41 v=72
15196 Off ch=3 n=57 v=0
15200 Off ch=3 n=65 v=0
15340 Off ch=3 n=41 v=0
15348 Par ch=3 c=64 v=0
15364 On ch=3 n=52 v=80
15364 On ch=3 n=60 v=71
15364 On ch=3 n=55 v=73
15364 On ch=3 n=64 v=73
15436 Par ch=3 c=64 v=127
15556 Off ch=3 n=64 v=0
15556 On ch=3 n=48 v=77
15560 Off ch=3 n=60 v=0
15560 Off ch=3 n=52 v=0
15564 Off ch=3 n=55 v=0
15740 Off ch=3 n=48 v=0
15740 On ch=3 n=60 v=75
15744 On ch=3 n=64 v=72
15748 On ch=3 n=55 v=77
15748 On ch=3 n=52 v=81
15924 Off ch=3 n=52 v=0
15932 On ch=3 n=48 v=72
15956 Off ch=3 n=64 v=0
15956 Off ch=3 n=60 v=0
15960 Off ch=3 n=55 v=0
16120 Off ch=3 n=48 v=0
16124 On ch=3 n=52 v=76
16128 On ch=3 n=60 v=69
16128 On ch=3 n=64 v=73
16132 On ch=3 n=55 v=66
16252 Off ch=3 n=55 v=0
16288 Off ch=3 n=60 v=0
16308 Off ch=3 n=64 v=0
16316 On ch=3 n=48 v=74
16324 Off ch=3 n=52 v=0
16504 Off ch=3 n=48 v=0
16504 On ch=3 n=60 v=76
16508 On ch=3 n=67 v=77
16512 On ch=3 n=52 v=81
16532 Par ch=3 c=64 v=0
16592 Par ch=3 c=64 v=127
16664 Off ch=3 n=67 v=0
16684 Off ch=3 n=52 v=0
16700 On ch=3 n=69 v=83
16700 On ch=3 n=53 v=86
16812 Off ch=3 n=60 v=0
16868 Off ch=3 n=69 v=0
16888 Par ch=3 c=64 v=0
16892 On ch=3 n=70 v=79
16892 On ch=3 n=55 v=92
16896 On ch=3 n=67 v=76
16896 On ch=3 n=64 v=79
16900 Off ch=3 n=53 v=0
16960 Par ch=3 c=64 v=127
17064 Off ch=3 n=55 v=0
17076 Off ch=3 n=64 v=0
17084 On ch=3 n=48 v=76
17104 Off ch=3 n=67 v=0
17128 Off ch=3 n=70 v=0
17268 Off ch=3 n=48 v=0
17272 On ch=3 n=65 v=80
17272 On ch=3 n=67 v=80
17276 On ch=3 n=70 v=56
17276 On ch=3 n=55 v=90
17280 On ch=3 n=77 v=60
17464 Off ch=3 n=55 v=0
17468 Off ch=3 n=65 v=0
17472 Off ch=3 n=77 v=0
17472 On ch=3 n=48 v=76
17480 Off ch=3 n=67 v=0
17492 Off ch=3 n=70 v=0
17648 Off ch=3 n=48 v=0
17652 On ch=3 n=70 v=69
17652 On ch=3 n=67 v=76
17656 On ch=3 n=65 v=77
17656 On ch=3 n=55 v=79
17664 On ch=3 n=77 v=54
17832 Off ch=3 n=55 v=0
17844 Off ch=3 n=65 v=0
17848 Off ch=3 n=67 v=0
17848 On ch=3 n=48 v=74
17856 Off ch=3 n=77 v=0
17860 Off ch=3 n=70 v=0
18032 Off ch=3 n=48 v=0
18048 On ch=3 n=70 v=66
18048 On ch=3 n=67 v=78
18048 On ch=3 n=55 v=84
18048 On ch=3 n=65 v=75
18224 Off ch=3 n=55 v=0
18236 On ch=3 n=48 v=78
18244 Off ch=3 n=65 v=0
18292 Off ch=3 n=70 v=0
18312 Off ch=3 n=67 v=0
18412 Off ch=3 n=48 v=0
18428 On ch=3 n=65 v=75
18428 On ch=3 n=60 v=72
18428 On ch=3 n=69 v=75
18428 On ch=3 n=53 v=84
18440 Par ch=3 c=64 v=0
18512 Par ch=3 c=64 v=127
18604 Off ch=3 n=53 v=0
18616 Off ch=3 n=65 v=0
18616 On ch=3 n=41 v=71
18620 Off ch=3 n=60 v=0
18624 Off ch=3 n=69 v=0
18812 On ch=3 n=65 v=75
18812 On ch=3 n=53 v=77
18812 On ch=3 n=60 v=74
18812 On ch=3 n=69 v=79
18816 Off ch=3 n=41 v=0
18992 Off ch=3 n=60 v=0
18992 Off ch=3 n=53 v=0
18996 Off ch=3 n=65 v=0
19004 On ch=3 n=41 v=71
19012 Off ch=3 n=69 v=0
19200 Off ch=3 n=41 v=0
19200 On ch=3 n=65 v=72
19200 On ch=3 n=60 v=71
19200 On ch=3 n=53 v=80
19200 On ch=3 n=69 v=77
19368 Off ch=3 n=53 v=0
19376 Off ch=3 n=65 v=0
19384 Off ch=3 n=60 v=0
19388 Off ch=3 n=69 v=0
19392 On ch=3 n=41 v=65
19584 On ch=3 n=65 v=74
19584 On ch=3 n=53 v=83
19584 On ch=3 n=60 v=77
19584 On ch=3 n=69 v=78
19588 Off ch=3 n=41 v=0
19764 Off ch=3 n=53 v=0
19776 On ch=3 n=41 v=78
19792 Off ch=3 n=60 v=0
19808 Off ch=3 n=69 v=0
19824 Off ch=3 n=65 v=0
19888 Off ch=3 n=41 v=0
19964 Par ch=3 c=64 v=0
19968 On ch=3 n=70 v=72
19968 On ch=3 n=62 v=76
19968 On ch=3 n=65 v=78
19968 On ch=3 n=46 v=83
20096 Par ch=3 c=64 v=127
20140 Off ch=3 n=65 v=0
20148 Off ch=3 n=62 v=0
20152 Off ch=3 n=70 v=0
20160 On ch=3 n=34 v=53
20180 Off ch=3 n=46 v=0
20352 On ch=3 n=70 v=66
20352 On ch=3 n=46 v=73
20352 On ch=3 n=62 v=69
20352 On ch=3 n=65 v=73
20364 Off ch=3 n=34 v=0
20528 Off ch=3 n=65 v=0
20544 Off ch=3 n=62 v=0
20544 Off ch=3 n=46 v=0
20544 Off ch=3 n=70 v=0
20544 On ch=3 n=34 v=66
20740 On ch=3 n=62 v=77
20740 On ch=3 n=70 v=69
20740 On ch=3 n=46 v=76
20740 On ch=3 n=65 v=78
20748 Off ch=3 n=34 v=0
20908 Off ch=3 n=65 v=0
20928 Off ch=3 n=62 v=0
20928 On ch=3 n=34 v=69
20932 Off ch=3 n=46 v=0
20940 Off ch=3 n=70 v=0
21120 Off ch=3 n=34 v=0
21124 On ch=3 n=70 v=71
21124 On ch=3 n=46 v=79
21124 On ch=3 n=62 v=75
21124 On ch=3 n=65 v=77
21296 Off ch=3 n=46 v=0
21312 On ch=3 n=34 v=80
21316 Off ch=3 n=70 v=0
21324 Off ch=3 n=65 v=0
21336 Off ch=3 n=62 v=0
21352 Off ch=3 n=34 v=0
21472 Par ch=3 c=64 v=0
21504 On ch=3 n=53 v=83
21504 On ch=3 n=60 v=79
21504 On ch=3 n=65 v=75
21504 On ch=3 n=69 v=80
21560 Par ch=3 c=64 v=127
21700 On ch=3 n=41 v=72
21712 Off ch=3 n=65 v=0
21712 Off ch=3 n=53 v=0
21724 Off ch=3 n=69 v=0
21728 Off ch=3 n=60 v=0
21888 Off ch=3 n=41 v=0
21892 On ch=3 n=60 v=77
21892 On ch=3 n=65 v=72
21892 On ch=3 n=53 v=81
21892 On ch=3 n=69 v=78
22056 Off ch=3 n=53 v=0
22072 Off ch=3 n=69 v=0
22076 Off ch=3 n=65 v=0
22080 On ch=3 n=41 v=68
22084 Off ch=3 n=60 v=0
22268 Off ch=3 n=41 v=0
22276 On ch=3 n=53 v=84
22276 On ch=3 n=65 v=73
22276 On ch=3 n=60 v=74
22276 On ch=3 n=69 v=79
22444 Off ch=3 n=53 v=0
22464 Off ch=3 n=69 v=0
22464 On ch=3 n=41 v=71
22468 Off ch=3 n=60 v=0
22472 Off ch=3 n=65 v=0
22656 Off ch=3 n=41 v=0
22660 On ch=3 n=65 v=74
22660 On ch=3 n=69 v=76
22660 On ch=3 n=60 v=75
22660 On ch=3 n=53 v=84
22760 Off ch=3 n=69 v=0
22768 Off ch=3 n=65 v=0
22824 Off ch=3 n=53 v=0
22836 Off ch=3 n=60 v=0
22848 On ch=3 n=41 v=75
23024 Off ch=3 n=41 v=0
23024 Par ch=3 c=64 v=0
23044 On ch=3 n=60 v=74
23044 On ch=3 n=58 v=78
23044 On ch=3 n=48 v=90
23044 On ch=3 n=67 v=68
23044 On ch=3 n=64 v=65
23100 Par ch=3 c=64 v=127
23228 Off ch=3 n=64 v=0
23228 Off ch=3 n=58 v=0
23232 On ch=3 n=36 v=72
23236 Off ch=3 n=67 v=0
23236 Off ch=3 n=48 v=0
23240 Off ch=3 n=60 v=0
23424 On ch=3 n=60 v=75
23424 On ch=3 n=58 v=74
23424 On ch=3 n=67 v=66
23424 On ch=3 n=48 v=80
23424 On ch=3 n=64 v=72
23428 Off ch=3 n=36 v=0
23604 Off ch=3 n=64 v=0
23612 Off ch=3 n=48 v=0
23616 On ch=3 n=36 v=72
23624 Off ch=3 n=60 v=0
23628 Off ch=3 n=67 v=0
23632 Off ch=3 n=58 v=0
23804 Off ch=3 n=36 v=0
23808 On ch=3 n=60 v=75
23808 On ch=3 n=58 v=68
23808 On ch=3 n=48 v=77
23808 On ch=3 n=67 v=66
23808 On ch=3 n=64 v=65
23960 Off ch=3 n=48 v=0
23968 Off ch=3 n=64 v=0
24000 On ch=3 n=36 v=69
24004 Off ch=3 n=60 v=0
24008 Off ch=3 n=67 v=0
24008 Off ch=3 n=58 v=0
24188 Off ch=3 n=36 v=0
24192 On ch=3 n=60 v=73
24196 On ch=3 n=67 v=63
24200 On ch=3 n=58 v=64
24200 On ch=3 n=48 v=78
24200 On ch=3 n=64 v=67
24356 Off ch=3 n=60 v=0
24360 Off ch=3 n=48 v=0
24376 Off ch=3 n=64 v=0
24376 Off ch=3 n=58 v=0
24376 On ch=3 n=36 v=78
24380 Off ch=3 n=67 v=0
24520 Off ch=3 n=36 v=0
24576 On ch=3 n=65 v=75
24576 On ch=3 n=57 v=79
24576 On ch=3 n=60 v=75
24576 On ch=3 n=53 v=66
24580 Par ch=3 c=64 v=0
24668 Par ch=3 c=64 v=127
24768 Off ch=3 n=53 v=0
24768 On ch=3 n=41 v=65
24784 Off ch=3 n=60 v=0
24792 Off ch=3 n=65 v=0
24800 Off ch=3 n=57 v=0
24960 On ch=3 n=60 v=77
24964 On ch=3 n=57 v=76
24968 Off ch=3 n=41 v=0
24968 On ch=3 n=65 v=74
24968 On ch=3 n=53 v=74
25148 Off ch=3 n=53 v=0
25148 On ch=3 n=41 v=68
25152 Off ch=3 n=60 v=0
25168 Off ch=3 n=65 v=0
25172 Off ch=3 n=57 v=0
25288 Par ch=3 c=64 v=0
25340 Off ch=3 n=41 v=0
25344 On ch=3 n=60 v=75
25344 On ch=3 n=53 v=77
25352 On ch=3 n=65 v=71
25352 On ch=3 n=57 v=72
25364 Par ch=3 c=64 v=127
25524 Off ch=3 n=65 v=0
25524 Off ch=3 n=60 v=0
25532 Off ch=3 n=53 v=0
25536 On ch=3 n=41 v=64
25540 Off ch=3 n=57 v=0
25732 Off ch=3 n=41 v=0
25732 On ch=3 n=65 v=79
25732 On ch=3 n=57 v=76
25732 On ch=3 n=53 v=79
25892 Off ch=3 n=65 v=0
25900 Off ch=3 n=57 v=0
25908 Off ch=3 n=53 v=0
25920 On ch=3 n=64 v=79
25920 On ch=3 n=57 v=64
25920 On ch=3 n=41 v=72
25956 Par ch=3 c=64 v=0
26084 Off ch=3 n=57 v=0
26084 Off ch=3 n=64 v=0
26092 Off ch=3 n=41 v=0
26112 On ch=3 n=63 v=74
26112 On ch=3 n=60 v=69
26112 On ch=3 n=53 v=88
26112 On ch=3 n=57 v=63
26140 Par ch=3 c=64 v=127
26284 Off ch=3 n=53 v=0
26300 Off ch=3 n=60 v=0
26304 On ch=3 n=41 v=64
26312 Off ch=3 n=57 v=0
26328 Off ch=3 n=63 v=0
26492 Off ch=3 n=41 v=0
26496 On ch=3 n=53 v=77
26496 On ch=3 n=63 v=72
26496 On ch=3 n=57 v=75
26496 On ch=3 n=60 v=77
26672 Off ch=3 n=53 v=0
26684 Off ch=3 n=60 v=0
26688 On ch=3 n=41 v=74
26696 Off ch=3 n=57 v=0
26700 Off ch=3 n=63 v=0
26872 Off ch=3 n=41 v=0
26880 On ch=3 n=63 v=68
26880 On ch=3 n=60 v=74
26880 On ch=3 n=53 v=76
26880 On ch=3 n=57 v=74
27072 Off ch=3 n=53 v=0
27072 Off ch=3 n=60 v=0
27072 On ch=3 n=41 v=73
27076 Off ch=3 n=57 v=0
27080 Off ch=3 n=63 v=0
27252 Off ch=3 n=41 v=0
27264 On ch=3 n=63 v=65
27264 On ch=3 n=60 v=76
27264 On ch=3 n=53 v=80
27264 On ch=3 n=57 v=77
27412 Off ch=3 n=53 v=0
27456 On ch=3 n=41 v=81
27460 Off ch=3 n=60 v=0
27464 Off ch=3 n=63 v=0
27488 Off ch=3 n=57 v=0
27524 Off ch=3 n=41 v=0
27604 Par ch=3 c=64 v=0
27648 On ch=3 n=58 v=76
27648 On ch=3 n=46 v=77
27648 On ch=3 n=62 v=75
27648 On ch=3 n=65 v=75
27692 Par ch=3 c=64 v=127
27836 Off ch=3 n=46 v=0
27840 On ch=3 n=34 v=75
27844 Off ch=3 n=62 v=0
27856 Off ch=3 n=65 v=0
27856 Off ch=3 n=58 v=0
28020 Off ch=3 n=34 v=0
28032 On ch=3 n=58 v=79
28032 On ch=3 n=65 v=69
28032 On ch=3 n=46 v=81
28032 On ch=3 n=62 v=77
28220 Off ch=3 n=46 v=0
28224 On ch=3 n=34 v=69
28232 Off ch=3 n=62 v=0
28248 Off ch=3 n=58 v=0
28276 Off ch=3 n=65 v=0
28328 Par ch=3 c=64 v=0
28392 Off ch=3 n=34 v=0
28416 On ch=3 n=58 v=79
28416 On ch=3 n=62 v=79
28416 On ch=3 n=45 v=77
28416 On ch=3 n=65 v=71
28420 Par ch=3 c=64 v=127
28600 Off ch=3 n=62 v=0
28600 Off ch=3 n=58 v=0
28604 Off ch=3 n=45 v=0
28604 On ch=3 n=33 v=66
28624 Off ch=3 n=65 v=0
28796 Off ch=3 n=33 v=0
28796 On ch=3 n=58 v=77
28796 On ch=3 n=62 v=76
28796 On ch=3 n=45 v=76
28796 On ch=3 n=65 v=67
28964 Off ch=3 n=45 v=0
28980 Off ch=3 n=62 v=0
28984 Off ch=3 n=58 v=0
28988 On ch=3 n=33 v=64
29020 Off ch=3 n=65 v=0
29068 Par ch=3 c=64 v=0
29160 Par ch=3 c=64 v=127
29168 Off ch=3 n=33 v=0
29180 On ch=3 n=58 v=75
29180 On ch=3 n=43 v=78
29180 On ch=3 n=65 v=66
29180 On ch=3 n=62 v=78
29356 Off ch=3 n=62 v=0
29364 Off ch=3 n=43 v=0
29368 Off ch=3 n=58 v=0
29372 On ch=3 n=31 v=69
29376 Off ch=3 n=65 v=0
29564 On ch=3 n=58 v=78
29564 On ch=3 n=65 v=68
29564 On ch=3 n=62 v=78
29564 On ch=3 n=43 v=78
29576 Off ch=3 n=31 v=0
29740 Off ch=3 n=43 v=0
29748 Off ch=3 n=62 v=0
29756 Off ch=3 n=58 v=0
29756 On ch=3 n=31 v=75
29784 Off ch=3 n=65 v=0
29884 Par ch=3 c=64 v=0
29920 Off ch=3 n=31 v=0
29948 On ch=3 n=41 v=88
29948 On ch=3 n=58 v=77
29948 On ch=3 n=65 v=69
29948 On ch=3 n=62 v=76
29984 Par ch=3 c=64 v=127
30136 Off ch=3 n=62 v=0
30140 On ch=3 n=29 v=66
30144 Off ch=3 n=41 v=0
30160 Off ch=3 n=58 v=0
30164 Off ch=3 n=65 v=0
30332 Off ch=3 n=29 v=0
30332 On ch=3 n=58 v=76
30332 On ch=3 n=65 v=74
30332 On ch=3 n=41 v=76
30332 On ch=3 n=62 v=78
30448 Off ch=3 n=62 v=0
30472 Off ch=3 n=65 v=0
30508 Off ch=3 n=41 v=0
30524 On ch=3 n=29 v=67
30552 Off ch=3 n=58 v=0
30592 Par ch=3 c=64 v=0
30656 Off ch=3 n=29 v=0
30696 Par ch=3 c=64 v=127
30716 On ch=3 n=40 v=84
30716 On ch=3 n=58 v=75
30716 On ch=3 n=60 v=80
30716 On ch=3 n=64 v=76
30892 Off ch=3 n=60 v=0
30896 Off ch=3 n=58 v=0
30908 Off ch=3 n=64 v=0
30908 Off ch=3 n=40 v=0
30908 On ch=3 n=28 v=67
31100 On ch=3 n=40 v=80
31100 On ch=3 n=64 v=74
31100 On ch=3 n=58 v=74
31100 On ch=3 n=60 v=77
31104 Off ch=3 n=28 v=0
31272 Off ch=3 n=40 v=0
31280 Off ch=3 n=60 v=0
31280 Off ch=3 n=58 v=0
31292 Off ch=3 n=64 v=0
31292 On ch=3 n=28 v=63
31484 Off ch=3 n=28 v=0
31484 On ch=3 n=40 v=76
31484 On ch=3 n=60 v=77
31484 On ch=3 n=64 v=72
31484 On ch=3 n=58 v=72
31656 Off ch=3 n=40 v=0
31676 On ch=3 n=28 v=65
31680 Off ch=3 n=60 v=0
31688 Off ch=3 n=58 v=0
31696 Off ch=3 n=64 v=0
31868 On ch=3 n=60 v=83
31868 On ch=3 n=58 v=75
31868 On ch=3 n=40 v=80
31868 On ch=3 n=64 v=75
31876 Off ch=3 n=28 v=0
32036 Off ch=3 n=40 v=0
32044 Off ch=3 n=60 v=0
32052 Off ch=3 n=58 v=0
32060 On ch=3 n=28 v=65
32084 Off ch=3 n=64 v=0
32128 Off ch=3 n=28 v=0
32236 Par ch=3 c=64 v=0
32256 On ch=3 n=65 v=67
32256 On ch=3 n=53 v=80
32256 On ch=3 n=57 v=74
32256 On ch=3 n=60 v=75
32308 Par ch=3 c=64 v=127
32352 Off ch=3 n=53 v=0
32368 Off ch=3 n=57 v=0
32400 Off ch=3 n=65 v=0
32404 Off ch=3 n=60 v=0
32448 On ch=3 n=65 v=59
32448 On ch=3 n=60 v=62
32448 On ch=3 n=57 v=54
32448 On ch=3 n=53 v=58
32548 Off ch=3 n=57 v=0
32564 Off ch=3 n=53 v=0
32564 Off ch=3 n=60 v=0
32564 Off ch=3 n=65 v=0
32640 On ch=3 n=65 v=72
32640 On ch=3 n=53 v=75
32640 On ch=3 n=60 v=72
32640 On ch=3 n=57 v=75
32756 Off ch=3 n=53 v=0
32772 Off ch=3 n=57 v=0
32780 Off ch=3 n=60 v=0
32784 Off ch=3 n=65 v=0
32832 On ch=3 n=65 v=66
32832 On ch=3 n=53 v=71
32832 On ch=3 n=57 v=71
32832 On ch=3 n=60 v=72
32928 Off ch=3 n=53 v=0
32944 Off ch=3 n=57 v=0
32976 Off ch=3 n=65 v=0
32980 Off ch=3 n=60 v=0
33024 On ch=3 n=65 v=63
33024 On ch=3 n=60 v=73
33024 On ch=3 n=57 v=67
33024 On ch=3 n=53 v=75
33124 Off ch=3 n=57 v=0
33140 Off ch=3 n=53 v=0
33140 Off ch=3 n=60 v=0
33140 Off ch=3 n=65 v=0
33216 On ch=3 n=65 v=68
33216 On ch=3 n=53 v=73
33216 On ch=3 n=60 v=73
33216 On ch=3 n=57 v=74
33332 Off ch=3 n=53 v=0
33348 Off ch=3 n=57 v=0
33356 Off ch=3 n=60 v=0
33360 Off ch=3 n=65 v=0
33404 On ch=3 n=65 v=89
33404 On ch=3 n=57 v=84
33404 On ch=3 n=60 v=65
33404 On ch=3 n=53 v=81
33516 Off ch=3 n=65 v=0
33520 Off ch=3 n=57 v=0
33524 Off ch=3 n=53 v=0
33532 Off ch=3 n=60 v=0
33592 On ch=3 n=60 v=62
33592 On ch=3 n=57 v=80
33592 On ch=3 n=64 v=88
33672 Off ch=3 n=64 v=0
33696 Off ch=3 n=57 v=0
33704 Off ch=3 n=60 v=0
33744 Par ch=3 c=64 v=0
33792 On ch=3 n=63 v=72
33792 On ch=3 n=60 v=73
33792 On ch=3 n=57 v=64
33792 On ch=3 n=53 v=88
33820 Par ch=3 c=64 v=127
33980 Off ch=3 n=53 v=0
33980 Off ch=3 n=60 v=0
33984 On ch=3 n=41 v=72
33992 Off ch=3 n=63 v=0
34012 Off ch=3 n=57 v=0
34172 Off ch=3 n=41 v=0
34180 On ch=3 n=63 v=72
34180 On ch=3 n=53 v=81
34180 On ch=3 n=60 v=74
34180 On ch=3 n=57 v=76
34372 Off ch=3 n=53 v=0
34372 On ch=3 n=41 v=76
34380 Off ch=3 n=60 v=0
34420 Off ch=3 n=63 v=0
34424 Off ch=3 n=57 v=0
34532 Off ch=3 n=41 v=0
34564 On ch=3 n=53 v=88
34564 On ch=3 n=63 v=75
34564 On ch=3 n=57 v=77
34564 On ch=3 n=60 v=83
34688 Off ch=3 n=60 v=0
34688 Off ch=3 n=57 v=0
34704 Off ch=3 n=53 v=0
34712 Off ch=3 n=63 v=0
34752 On ch=3 n=53 v=81
34752 On ch=3 n=63 v=63
34752 On ch=3 n=57 v=64
34752 On ch=3 n=60 v=63
34848 Off ch=3 n=60 v=0
34856 Off ch=3 n=53 v=0
34868 Off ch=3 n=63 v=0
34876 Off ch=3 n=57 v=0
34944 On ch=3 n=63 v=80
34944 On ch=3 n=57 v=84
34944 On ch=3 n=53 v=89
34944 On ch=3 n=60 v=80
35096 Off ch=3 n=53 v=0
35104 Off ch=3 n=57 v=0
35108 Off ch=3 n=63 v=0
35136 On ch=3 n=53 v=84
35152 Off ch=3 n=60 v=0
35268 Off ch=3 n=53 v=0
35316 Par ch=3 c=64 v=0
35328 On ch=3 n=58 v=81
35328 On ch=3 n=65 v=78
35328 On ch=3 n=46 v=90
35328 On ch=3 n=62 v=80
35432 Par ch=3 c=64 v=127
35512 Off ch=3 n=62 v=0
35520 On ch=3 n=34 v=67
35524 Off ch=3 n=65 v=0
35528 Off ch=3 n=46 v=0
35528 Off ch=3 n=58 v=0
35708 Off ch=3 n=34 v=0
35716 On ch=3 n=58 v=81
35716 On ch=3 n=65 v=67
35716 On ch=3 n=62 v=80
35716 On ch=3 n=46 v=80
35816 Off ch=3 n=46 v=0
35888 Off ch=3 n=62 v=0
35892 Off ch=3 n=58 v=0
35908 On ch=3 n=34 v=68
35940 Off ch=3 n=65 v=0
36068 Par ch=3 c=64 v=0
36092 Off ch=3 n=34 v=0
36096 On ch=3 n=58 v=80
36096 On ch=3 n=45 v=87
36096 On ch=3 n=65 v=76
36096 On ch=3 n=62 v=79
36156 Par ch=3 c=64 v=127
36280 Off ch=3 n=62 v=0
36288 Off ch=3 n=58 v=0
36292 Off ch=3 n=65 v=0
36292 On ch=3 n=33 v=58
36300 Off ch=3 n=45 v=0
36480 Off ch=3 n=33 v=0
36484 On ch=3 n=65 v=74
36484 On ch=3 n=58 v=77
36484 On ch=3 n=45 v=81
36484 On ch=3 n=62 v=78
36676 On ch=3 n=33 v=64
36680 Off ch=3 n=45 v=0
36696 Off ch=3 n=62 v=0
36716 Off ch=3 n=58 v=0
36728 Off ch=3 n=65 v=0
36808 Off ch=3 n=33 v=0
36868 Par ch=3 c=64 v=0
36872 On ch=3 n=58 v=81
36872 On ch=3 n=65 v=77
36872 On ch=3 n=62 v=80
36872 On ch=3 n=43 v=83
36956 Par ch=3 c=64 v=127
37036 Off ch=3 n=62 v=0
37060 Off ch=3 n=65 v=0
37064 On ch=3 n=31 v=65
37072 Off ch=3 n=43 v=0
37076 Off ch=3 n=58 v=0
37228 Off ch=3 n=31 v=0
37252 On ch=3 n=58 v=78
37252 On ch=3 n=43 v=76
37252 On ch=3 n=65 v=76
37252 On ch=3 n=62 v=79
37444 On ch=3 n=31 v=75
37448 Off ch=3 n=43 v=0
37456 Off ch=3 n=62 v=0
37468 Off ch=3 n=58 v=0
37488 Off ch=3 n=65 v=0
37596 Off ch=3 n=31 v=0
37620 Par ch=3 c=64 v=0
37632 On ch=3 n=65 v=74
37632 On ch=3 n=58 v=80
37632 On ch=3 n=41 v=81
37632 On ch=3 n=62 v=81
37784 Par ch=3 c=64 v=127
37828 On ch=3 n=29 v=55
37844 Off ch=3 n=62 v=0
37864 Off ch=3 n=41 v=0
37864 Off ch=3 n=58 v=0
37868 Off ch=3 n=65 v=0
38020 Off ch=3 n=29 v=0
38020 On ch=3 n=58 v=79
38020 On ch=3 n=65 v=74
38020 On ch=3 n=41 v=74
38020 On ch=3 n=62 v=81
38196 Off ch=3 n=41 v=0
38212 On ch=3 n=29 v=68
38236 Off ch=3 n=62 v=0
38248 Off ch=3 n=58 v=0
38272 Off ch=3 n=65 v=0
38340 Off ch=3 n=29 v=0
38404 Par ch=3 c=64 v=0
38404 On ch=3 n=58 v=79
38404 On ch=3 n=64 v=79
38404 On ch=3 n=40 v=77
38404 On ch=3 n=60 v=77
38524 Par ch=3 c=64 v=127
38584 Off ch=3 n=64 v=0
38596 On ch=3 n=28 v=54
38600 Off ch=3 n=40 v=0
38612 Off ch=3 n=60 v=0
38620 Off ch=3 n=58 v=0
38788 On ch=3 n=58 v=78
38788 On ch=3 n=60 v=78
38788 On ch=3 n=40 v=78
38788 On ch=3 n=64 v=72
38800 Off ch=3 n=28 v=0
38820 Par ch=3 c=64 v=0
38920 Off ch=3 n=40 v=0
38928 Off ch=3 n=60 v=0
38940 Off ch=3 n=64 v=0
38944 Off ch=3 n=58 v=0
38968 Par ch=3 c=64 v=127
38980 On ch=3 n=28 v=62
39156 Off ch=3 n=28 v=0
39172 On ch=3 n=40 v=75
39172 On ch=3 n=58 v=74
39172 On ch=3 n=60 v=59
39172 On ch=3 n=64 v=73
39220 Par ch=3 c=64 v=0
39320 Off ch=3 n=40 v=0
39324 Par ch=3 c=64 v=127
39340 Off ch=3 n=60 v=0
39360 On ch=3 n=28 v=65
39368 Off ch=3 n=58 v=0
39376 Off ch=3 n=64 v=0
39552 Off ch=3 n=28 v=0
39556 On ch=3 n=40 v=71
39556 On ch=3 n=64 v=77
39556 On ch=3 n=58 v=77
39556 On ch=3 n=60 v=77
39740 Off ch=3 n=58 v=0
39744 On ch=3 n=28 v=73
39748 Off ch=3 n=40 v=0
39752 Off ch=3 n=60 v=0
39764 Off ch=3 n=64 v=0
39892 Off ch=3 n=28 v=0
39940 On ch=3 n=41 v=78
39940 On ch=3 n=60 v=81
39940 On ch=3 n=65 v=77
39940 On ch=3 n=57 v=78
39944 Par ch=3 c=64 v=0
40064 Par ch=3 c=64 v=127
40088 Off ch=3 n=41 v=0
40128 On ch=3 n=41 v=80
40152 Off ch=3 n=60 v=0
40156 Off ch=3 n=57 v=0
40160 Off ch=3 n=65 v=0
40240 Off ch=3 n=41 v=0
40320 On ch=3 n=60 v=81
40320 On ch=3 n=65 v=75
40320 On ch=3 n=57 v=77
40320 On ch=3 n=41 v=84
40404 Off ch=3 n=41 v=0
40512 On ch=3 n=41 v=83
40532 Off ch=3 n=60 v=0
40544 Off ch=3 n=57 v=0
40548 Off ch=3 n=65 v=0
40604 Off ch=3 n=41 v=0
40704 On ch=3 n=60 v=75
40704 On ch=3 n=41 v=80
40704 On ch=3 n=57 v=76
40704 On ch=3 n=65 v=74
40808 Off ch=3 n=41 v=0
40896 On ch=3 n=41 v=78
40900 Off ch=3 n=60 v=0
40908 Off ch=3 n=57 v=0
40916 Off ch=3 n=65 v=0
40996 Off ch=3 n=41 v=0
41088 On ch=3 n=41 v=79
41088 On ch=3 n=60 v=72
41088 On ch=3 n=57 v=77
41088 On ch=3 n=65 v=78
41132 Off ch=3 n=41 v=0
41280 On ch=3 n=41 v=79
41320 Off ch=3 n=60 v=0
41324 Off ch=3 n=57 v=0
41332 Off ch=3 n=65 v=0
41340 Off ch=3 n=41 v=0
41472 Par ch=3 c=64 v=0
41472 On ch=3 n=41 v=83
41472 On ch=3 n=60 v=77
41472 On ch=3 n=63 v=69
41472 On ch=3 n=57 v=79
41472 On ch=3 n=65 v=72
41504 Par ch=3 c=64 v=127
41660 Off ch=3 n=41 v=0
41664 On ch=3 n=29 v=68
41680 Off ch=3 n=60 v=0
41684 Off ch=3 n=63 v=0
41692 Off ch=3 n=57 v=0
41704 Off ch=3 n=65 v=0
41852 Off ch=3 n=29 v=0
41864 On ch=3 n=41 v=81
41864 On ch=3 n=63 v=73
41864 On ch=3 n=60 v=76
41864 On ch=3 n=57 v=80
41864 On ch=3 n=65 v=76
42052 Off ch=3 n=41 v=0
42052 On ch=3 n=29 v=75
42076 Off ch=3 n=57 v=0
42112 Off ch=3 n=29 v=0
42132 Off ch=3 n=65 v=0
42140 Off ch=3 n=60 v=0
42152 Off ch=3 n=63 v=0
42244 On ch=3 n=55 v=84
42244 On ch=3 n=64 v=85
42244 On ch=3 n=48 v=81
42260 Par ch=3 c=64 v=0
42356 Off ch=3 n=55 v=0
42364 Par ch=3 c=64 v=127
42384 Off ch=3 n=64 v=0
42428 Off ch=3 n=48 v=0
42428 On ch=3 n=36 v=73
42428 On ch=3 n=65 v=86
42428 On ch=3 n=57 v=83
42572 Off ch=3 n=65 v=0
42580 Off ch=3 n=57 v=0
42588 Off ch=3 n=36 v=0
42616 Par ch=3 c=64 v=0
42620 On ch=3 n=48 v=82
42620 On ch=3 n=60 v=83
42620 On ch=3 n=64 v=75
42620 On ch=3 n=67 v=85
42704 Par ch=3 c=64 v=127
42812 Off ch=3 n=48 v=0
42812 On ch=3 n=36 v=80
42896 Off ch=3 n=64 v=0
42896 Off ch=3 n=60 v=0
42900 Off ch=3 n=67 v=0
42952 Off ch=3 n=36 v=0
43008 On ch=3 n=67 v=80
43008 On ch=3 n=48 v=81
43008 On ch=3 n=60 v=80
43008 On ch=3 n=64 v=79
43200 On ch=3 n=36 v=80
43232 Off ch=3 n=48 v=0
43324 Off ch=3 n=36 v=0
43388 On ch=3 n=48 v=81
43388 On ch=3 n=36 v=76
43500 Off ch=3 n=36 v=0
43512 Off ch=3 n=48 v=0
43580 On ch=3 n=48 v=76
43580 On ch=3 n=36 v=68
43588 Off ch=3 n=64 v=0
43588 Off ch=3 n=60 v=0
43604 Off ch=3 n=67 v=0
43672 Off ch=3 n=36 v=0
43676 Off ch=3 n=48 v=0
43680 Par ch=3 c=64 v=0
43768 On ch=3 n=60 v=90
43768 On ch=3 n=67 v=90
43768 On ch=3 n=64 v=88
43768 On ch=3 n=48 v=79
43768 On ch=3 n=36 v=77
43784 Par ch=3 c=64 v=127
43924 Off ch=3 n=67 v=0
43928 Off ch=3 n=64 v=0
43932 Off ch=3 n=60 v=0
43960 On ch=3 n=62 v=97
43960 On ch=3 n=69 v=95
43960 On ch=3 n=65 v=93
44048 Par ch=3 c=64 v=0
44108 Off ch=3 n=69 v=0
44116 Off ch=3 n=65 v=0
44116 Off ch=3 n=62 v=0
44152 On ch=3 n=64 v=97
44152 On ch=3 n=67 v=93
44152 On ch=3 n=70 v=92
44488 Off ch=3 n=70 v=0
44488 Off ch=3 n=64 v=0
44496 Off ch=3 n=67 v=0
44540 On ch=3 n=67 v=92
44540 On ch=3 n=70 v=94
44540 On ch=3 n=64 v=95
45252 Off ch=3 n=70 v=0
45260 Off ch=3 n=67 v=0
45268 Off ch=3 n=64 v=0
45288 Off ch=3 n=36 v=0
45292 Off ch=3 n=48 v=0
45312 Par ch=3 c=64 v=127
45312 On ch=3 n=53 v=74
45312 On ch=3 n=60 v=75
45312 On ch=3 n=57 v=79
45312 On ch=3 n=65 v=75
45504 Off ch=3 n=53 v=0
45504 On ch=3 n=41 v=65
45520 Off ch=3 n=60 v=0
45528 Off ch=3 n=65 v=0
45536 Off ch=3 n=57 v=0
45696 On ch=3 n=60 v=77
45700 On ch=3 n=57 v=76
45704 Off ch=3 n=41 v=0
45704 On ch=3 n=53 v=74
45704 On ch=3 n=65 v=74
45884 Off ch=3 n=53 v=0
45884 On ch=3 n=41 v=68
45888 Off ch=3 n=60 v=0
45904 Off ch=3 n=65 v=0
45908 Off ch=3 n=57 v=0
46076 Off ch=3 n=41 v=0
46080 On ch=3 n=53 v=77
46080 On ch=3 n=60 v=75
46088 On ch=3 n=57 v=72
46088 On ch=3 n=65 v=71
46260 Off ch=3 n=65 v=0
46260 Off ch=3 n=60 v=0
46268 Off ch=3 n=53 v=0
46272 On ch=3 n=41 v=64
46276 Off ch=3 n=57 v=0
46468 Off ch=3 n=41 v=0
46468 On ch=3 n=53 v=79
46468 On ch=3 n=60 v=76
46468 On ch=3 n=57 v=76
46468 On ch=3 n=65 v=72
46644 Off ch=3 n=53 v=0
46652 Off ch=3 n=60 v=0
46656 On ch=3 n=41 v=72
46684 Off ch=3 n=57 v=0
46688 Off ch=3 n=65 v=0
46828 Off ch=3 n=41 v=0
46836 Par ch=3 c=64 v=0
46852 On ch=3 n=52 v=80
46852 On ch=3 n=60 v=71
46852 On ch=3 n=55 v=73
46852 On ch=3 n=64 v=73
46924 Par ch=3 c=64 v=127
47044 Off ch=3 n=64 v=0
47044 On ch=3 n=48 v=77
47048 Off ch=3 n=60 v=0
47048 Off ch=3 n=52 v=0
47052 Off ch=3 n=55 v=0
47228 Off ch=3 n=48 v=0
47228 On ch=3 n=60 v=75
47232 On ch=3 n=64 v=72
47236 On ch=3 n=55 v=77
47236 On ch=3 n=52 v=81
47412 Off ch=3 n=52 v=0
47420 On ch=3 n=48 v=72
47444 Off ch=3 n=64 v=0
47444 Off ch=3 n=60 v=0
47448 Off ch=3 n=55 v=0
47608 Off ch=3 n=48 v=0
47612 On ch=3 n=52 v=76
47616 On ch=3 n=60 v=69
47616 On ch=3 n=64 v=73
47620 On ch=3 n=55 v=66
47740 Off ch=3 n=55 v=0
47776 Off ch=3 n=60 v=0
47796 Off ch=3 n=64 v=0
47804 On ch=3 n=48 v=74
47812 Off ch=3 n=52 v=0
47992 Off ch=3 n=48 v=0
47992 On ch=3 n=60 v=76
47996 On ch=3 n=67 v=77
48000 On ch=3 n=52 v=81
48020 Par ch=3 c=64 v=0
48080 Par ch=3 c=64 v=127
48152 Off ch=3 n=67 v=0
48172 Off ch=3 n=52 v=0
48188 On ch=3 n=69 v=83
48188 On ch=3 n=53 v=86
48300 Off ch=3 n=60 v=0
48356 Off ch=3 n=69 v=0
48376 Par ch=3 c=64 v=0
48380 On ch=3 n=70 v=79
48380 On ch=3 n=55 v=92
48384 On ch=3 n=67 v=76
48384 On ch=3 n=64 v=79
48388 Off ch=3 n=53 v=0
48448 Par ch=3 c=64 v=127
48552 Off ch=3 n=55 v=0
48564 Off ch=3 n=64 v=0
48572 On ch=3 n=48 v=76
48592 Off ch=3 n=67 v=0
48616 Off ch=3 n=70 v=0
48756 Off ch=3 n=48 v=0
48760 On ch=3 n=65 v=80
48760 On ch=3 n=67 v=80
48764 On ch=3 n=70 v=56
48764 On ch=3 n=55 v=90
48952 Off ch=3 n=55 v=0
48956 Off ch=3 n=65 v=0
48960 On ch=3 n=48 v=76
48968 Off ch=3 n=67 v=0
48980 Off ch=3 n=70 v=0
49136 Off ch=3 n=48 v=0
49140 On ch=3 n=70 v=69
49140 On ch=3 n=67 v=76
49144 On ch=3 n=65 v=77
49144 On ch=3 n=55 v=79
49320 Off ch=3 n=55 v=0
49332 Off ch=3 n=65 v=0
49336 Off ch=3 n=67 v=0
49336 On ch=3 n=48 v=74
49348 Off ch=3 n=70 v=0
49520 Off ch=3 n=48 v=0
49536 On ch=3 n=70 v=66
49536 On ch=3 n=67 v=78
49536 On ch=3 n=55 v=84
49536 On ch=3 n=65 v=75
49712 Off ch=3 n=55 v=0
49724 On ch=3 n=48 v=78
49732 Off ch=3 n=65 v=0
49780 Off ch=3 n=70 v=0
49800 Off ch=3 n=67 v=0
49900 Off ch=3 n=48 v=0
49916 On ch=3 n=65 v=75
49916 On ch=3 n=60 v=72
49916 On ch=3 n=69 v=75
49916 On ch=3 n=53 v=84
49928 Par ch=3 c=64 v=0
50000 Par ch=3 c=64 v=127
50092 Off ch=3 n=53 v=0
50104 Off ch=3 n=65 v=0
50104 On ch=3 n=41 v=71
50108 Off ch=3 n=60 v=0
50112 Off ch=3 n=69 v=0
50300 On ch=3 n=65 v=75
50300 On ch=3 n=53 v=77
50300 On ch=3 n=60 v=74
50300 On ch=3 n=69 v=79
50304 Off ch=3 n=41 v=0
50480 Off ch=3 n=60 v=0
50480 Off ch=3 n=53 v=0
50484 Off ch=3 n=65 v=0
50492 On ch=3 n=41 v=71
50500 Off ch=3 n=69 v=0
50688 Off ch=3 n=41 v=0
50688 On ch=3 n=65 v=72
50688 On ch=3 n=60 v=71
50688 On ch=3 n=53 v=80
50688 On ch=3 n=69 v=77
50856 Off ch=3 n=53 v=0
50864 Off ch=3 n=65 v=0
50872 Off ch=3 n=60 v=0
50876 Off ch=3 n=69 v=0
50880 On ch=3 n=41 v=65
51072 On ch=3 n=65 v=74
51072 On ch=3 n=53 v=83
51072 On ch=3 n=60 v=77
51072 On ch=3 n=69 v=78
51076 Off ch=3 n=41 v=0
51252 Off ch=3 n=53 v=0
51264 On ch=3 n=41 v=78
51280 Off ch=3 n=60 v=0
51296 Off ch=3 n=69 v=0
51312 Off ch=3 n=65 v=0
51376 Off ch=3 n=41 v=0
51452 Par ch=3 c=64 v=0
51456 On ch=3 n=70 v=72
51456 On ch=3 n=62 v=76
51456 On ch=3 n=65 v=78
51456 On ch=3 n=46 v=83
51584 Par ch=3 c=64 v=127
51628 Off ch=3 n=65 v=0
51636 Off ch=3 n=62 v=0
51640 Off ch=3 n=70 v=0
51648 On ch=3 n=34 v=53
51668 Off ch=3 n=46 v=0
51840 On ch=3 n=70 v=66
51840 On ch=3 n=46 v=73
51840 On ch=3 n=62 v=69
51840 On ch=3 n=65 v=73
51852 Off ch=3 n=34 v=0
52016 Off ch=3 n=65 v=0
52032 Off ch=3 n=62 v=0
52032 Off ch=3 n=46 v=0
52032 Off ch=3 n=70 v=0
52032 On ch=3 n=34 v=66
52228 On ch=3 n=62 v=77
52228 On ch=3 n=70 v=69
52228 On ch=3 n=46 v=76
52228 On ch=3 n=65 v=78
52236 Off ch=3 n=34 v=0
52396 Off ch=3 n=65 v=0
52416 Off ch=3 n=62 v=0
52416 On ch=3 n=34 v=69
52420 Off ch=3 n=46 v=0
52428 Off ch=3 n=70 v=0
52608 Off ch=3 n=34 v=0
52612 On ch=3 n=70 v=71
52612 On ch=3 n=46 v=79
52612 On ch=3 n=62 v=75
52612 On ch=3 n=65 v=77
52784 Off ch=3 n=46 v=0
52800 On ch=3 n=34 v=80
52804 Off ch=3 n=70 v=0
52812 Off ch=3 n=65 v=0
52824 Off ch=3 n=62 v=0
52840 Off ch=3 n=34 v=0
52960 Par ch=3 c=64 v=0
52992 On ch=3 n=53 v=83
52992 On ch=3 n=60 v=79
52992 On ch=3 n=65 v=75
52992 On ch=3 n=69 v=80
53048 Par ch=3 c=64 v=127
53188 On ch=3 n=41 v=72
53200 Off ch=3 n=65 v=0
53200 Off ch=3 n=53 v=0
53212 Off ch=3 n=69 v=0
53216 Off ch=3 n=60 v=0
53376 Off ch=3 n=41 v=0
53380 On ch=3 n=60 v=77
53380 On ch=3 n=65 v=72
53380 On ch=3 n=53 v=81
53380 On ch=3 n=69 v=78
53544 Off ch=3 n=53 v=0
53560 Off ch=3 n=69 v=0
53564 Off ch=3 n=65 v=0
53568 On ch=3 n=41 v=68
53572 Off ch=3 n=60 v=0
53756 Off ch=3 n=41 v=0
53764 On ch=3 n=53 v=84
53764 On ch=3 n=65 v=73
53764 On ch=3 n=60 v=74
53764 On ch=3 n=69 v=79
53932 Off ch=3 n=53 v=0
53952 Off ch=3 n=69 v=0
53952 On ch=3 n=41 v=71
53956 Off ch=3 n=60 v=0
53960 Off ch=3 n=65 v=0
54144 Off ch=3 n=41 v=0
54148 On ch=3 n=65 v=74
54148 On ch=3 n=69 v=76
54148 On ch=3 n=60 v=75
54148 On ch=3 n=53 v=84
54248 Off ch=3 n=69 v=0
54256 Off ch=3 n=65 v=0
54312 Off ch=3 n=53 v=0
54324 Off ch=3 n=60 v=0
54336 On ch=3 n=41 v=75
54512 Off ch=3 n=41 v=0
54512 Par ch=3 c=64 v=0
54532 On ch=3 n=60 v=74
54532 On ch=3 n=58 v=78
54532 On ch=3 n=48 v=90
54532 On ch=3 n=67 v=68
54532 On ch=3 n=64 v=65
54588 Par ch=3 c=64 v=127
54716 Off ch=3 n=64 v=0
54716 Off ch=3 n=58 v=0
54720 On ch=3 n=36 v=72
54724 Off ch=3 n=67 v=0
54724 Off ch=3 n=48 v=0
54728 Off ch=3 n=60 v=0
54912 On ch=3 n=60 v=75
54912 On ch=3 n=58 v=74
54912 On ch=3 n=67 v=66
54912 On ch=3 n=48 v=80
54912 On ch=3 n=64 v=72
54916 Off ch=3 n=36 v=0
55092 Off ch=3 n=64 v=0
55100 Off ch=3 n=48 v=0
55104 On ch=3 n=36 v=72
55112 Off ch=3 n=60 v=0
55116 Off ch=3 n=67 v=0
55120 Off ch=3 n=58 v=0
55292 Off ch=3 n=36 v=0
55296 On ch=3 n=60 v=75
55296 On ch=3 n=58 v=68
55296 On ch=3 n=48 v=77
55296 On ch=3 n=67 v=66
55296 On ch=3 n=64 v=65
55448 Off ch=3 n=48 v=0
55456 Off ch=3 n=64 v=0
55488 On ch=3 n=36 v=69
55492 Off ch=3 n=60 v=0
55496 Off ch=3 n=67 v=0
55496 Off ch=3 n=58 v=0
55676 Off ch=3 n=36 v=0
55680 On ch=3 n=60 v=73
55684 On ch=3 n=67 v=63
55688 On ch=3 n=58 v=64
55688 On ch=3 n=48 v=78
55688 On ch=3 n=64 v=67
55844 Off ch=3 n=60 v=0
55848 Off ch=3 n=48 v=0
55864 Off ch=3 n=64 v=0
55864 Off ch=3 n=58 v=0
55864 On ch=3 n=36 v=78
55868 Off ch=3 n=67 v=0
56008 Off ch=3 n=36 v=0
56064 On ch=3 n=65 v=75
56064 On ch=3 n=57 v=79
56064 On ch=3 n=60 v=75
56064 On ch=3 n=53 v=66
56068 Par ch=3 c=64 v=0
56156 Par ch=3 c=64 v=127
56256 Off ch=3 n=53 v=0
56256 On ch=3 n=41 v=65
56272 Off ch=3 n=60 v=0
56280 Off ch=3 n=65 v=0
56288 Off ch=3 n=57 v=0
56448 On ch=3 n=60 v=77
56452 On ch=3 n=57 v=76
56456 Off ch=3 n=41 v=0
56456 On ch=3 n=65 v=74
56456 On ch=3 n=53 v=74
56636 Off ch=3 n=53 v=0
56636 On ch=3 n=41 v=68
56640 Off ch=3 n=60 v=0
56656 Off ch=3 n=65 v=0
56660 Off ch=3 n=57 v=0
56776 Par ch=3 c=64 v=0
56828 Off ch=3 n=41 v=0
56832 On ch=3 n=60 v=75
56832 On ch=3 n=53 v=77
56840 On ch=3 n=65 v=71
56840 On ch=3 n=57 v=72
56852 Par ch=3 c=64 v=127
57012 Off ch=3 n=65 v=0
57012 Off ch=3 n=60 v=0
57020 Off ch=3 n=53 v=0
57024 On ch=3 n=41 v=64
57028 Off ch=3 n=57 v=0
57220 Off ch=3 n=41 v=0
57220 On ch=3 n=65 v=79
57220 On ch=3 n=57 v=76
57220 On ch=3 n=53 v=79
57380 Off ch=3 n=65 v=0
57388 Off ch=3 n=57 v=0
57396 Off ch=3 n=53 v=0
57408 On ch=3 n=64 v=79
57408 On ch=3 n=57 v=64
57408 On ch=3 n=41 v=72
57444 Par ch=3 c=64 v=0
57572 Off ch=3 n=57 v=0
57572 Off ch=3 n=64 v=0
57580 Off ch=3 n=41 v=0
57600 On ch=3 n=63 v=74
57600 On ch=3 n=60 v=69
57600 On ch=3 n=53 v=88
57600 On ch=3 n=57 v=63
57628 Par ch=3 c=64 v=127
57772 Off ch=3 n=53 v=0
57788 Off ch=3 n=60 v=0
57792 On ch=3 n=41 v=64
57800 Off ch=3 n=57 v=0
57816 Off ch=3 n=63 v=0
57980 Off ch=3 n=41 v=0
57984 On ch=3 n=53 v=77
57984 On ch=3 n=63 v=72
57984 On ch=3 n=57 v=75
57984 On ch=3 n=60 v=77
58160 Off ch=3 n=53 v=0
58172 Off ch=3 n=60 v=0
58176 On ch=3 n=41 v=74
58184 Off ch=3 n=57 v=0
58188 Off ch=3 n=63 v=0
58360 Off ch=3 n=41 v=0
58368 On ch=3 n=63 v=68
58368 On ch=3 n=60 v=74
58368 On ch=3 n=53 v=76
58368 On ch=3 n=57 v=74
58560 Off ch=3 n=53 v=0
58560 Off ch=3 n=60 v=0
58560 On ch=3 n=41 v=73
58564 Off ch=3 n=57 v=0
58568 Off ch=3 n=63 v=0
58740 Off ch=3 n=41 v=0
58752 On ch=3 n=63 v=65
58752 On ch=3 n=60 v=76
58752 On ch=3 n=53 v=80
58752 On ch=3 n=57 v=77
58900 Off ch=3 n=53 v=0
58944 On ch=3 n=41 v=81
58948 Off ch=3 n=60 v=0
58952 Off ch=3 n=63 v=0
58976 Off ch=3 n=57 v=0
59012 Off ch=3 n=41 v=0
59092 Par ch=3 c=64 v=0
59136 On ch=3 n=58 v=76
59136 On ch=3 n=46 v=77
59136 On ch=3 n=62 v=75
59136 On ch=3 n=65 v=75
59180 Par ch=3 c=64 v=127
59324 Off ch=3 n=46 v=0
59328 On ch=3 n=34 v=75
59332 Off ch=3 n=62 v=0
59344 Off ch=3 n=65 v=0
59344 Off ch=3 n=58 v=0
59508 Off ch=3 n=34 v=0
59520 On ch=3 n=58 v=79
59520 On ch=3 n=65 v=69
59520 On ch=3 n=46 v=81
59520 On ch=3 n=62 v=77
59708 Off ch=3 n=46 v=0
59712 On ch=3 n=34 v=69
59720 Off ch=3 n=62 v=0
59736 Off ch=3 n=58 v=0
59764 Off ch=3 n=65 v=0
59816 Par ch=3 c=64 v=0
59880 Off ch=3 n=34 v=0
59904 On ch=3 n=58 v=79
59904 On ch=3 n=62 v=79
59904 On ch=3 n=45 v=77
59904 On ch=3 n=65 v=71
59908 Par ch=3 c=64 v=127
60088 Off ch=3 n=62 v=0
60088 Off ch=3 n=58 v=0
60092 Off ch=3 n=45 v=0
60092 On ch=3 n=33 v=66
60112 Off ch=3 n=65 v=0
60284 Off ch=3 n=33 v=0
60284 On ch=3 n=58 v=77
60284 On ch=3 n=62 v=76
60284 On ch=3 n=45 v=76
60284 On ch=3 n=65 v=67
60452 Off ch=3 n=45 v=0
60468 Off ch=3 n=62 v=0
60472 Off ch=3 n=58 v=0
60476 On ch=3 n=33 v=64
60508 Off ch=3 n=65 v=0
60556 Par ch=3 c=64 v=0
60648 Par ch=3 c=64 v=127
60656 Off ch=3 n=33 v=0
60668 On ch=3 n=58 v=75
60668 On ch=3 n=43 v=78
60668 On ch=3 n=65 v=66
60668 On ch=3 n=62 v=78
60844 Off ch=3 n=62 v=0
60852 Off ch=3 n=43 v=0
60856 Off ch=3 n=58 v=0
60860 On ch=3 n=31 v=69
60864 Off ch=3 n=65 v=0
61052 On ch=3 n=58 v=78
61052 On ch=3 n=65 v=68
61052 On ch=3 n=62 v=78
61052 On ch=3 n=43 v=78
61064 Off ch=3 n=31 v=0
61228 Off ch=3 n=43 v=0
61236 Off ch=3 n=62 v=0
61244 Off ch=3 n=58 v=0
61244 On ch=3 n=31 v=75
61272 Off ch=3 n=65 v=0
61372 Par ch=3 c=64 v=0
61408 Off ch=3 n=31 v=0
61436 On ch=3 n=41 v=88
61436 On ch=3 n=58 v=77
61436 On ch=3 n=65 v=69
61436 On ch=3 n=62 v=76
61472 Par ch=3 c=64 v=127
61624 Off ch=3 n=62 v=0
61628 On ch=3 n=29 v=66
61632 Off ch=3 n=41 v=0
61648 Off ch=3 n=58 v=0
61652 Off ch=3 n=65 v=0
61820 Off ch=3 n=29 v=0
61820 On ch=3 n=58 v=76
61820 On ch=3 n=65 v=74
61820 On ch=3 n=41 v=76
61820 On ch=3 n=62 v=78
61936 Off ch=3 n=62 v=0
61960 Off ch=3 n=65 v=0
61996 Off ch=3 n=41 v=0
62012 On ch=3 n=29 v=67
62040 Off ch=3 n=58 v=0
62080 Par ch=3 c=64 v=0
62144 Off ch=3 n=29 v=0
62184 Par ch=3 c=64 v=127
62204 On ch=3 n=40 v=84
62204 On ch=3 n=58 v=75
62204 On ch=3 n=60 v=80
62204 On ch=3 n=64 v=76
62380 Off ch=3 n=60 v=0
62384 Off ch=3 n=58 v=0
62396 Off ch=3 n=64 v=0
62396 Off ch=3 n=40 v=0
62396 On ch=3 n=28 v=67
62588 On ch=3 n=40 v=80
62588 On ch=3 n=64 v=74
62588 On ch=3 n=58 v=74
62588 On ch=3 n=60 v=77
62592 Off ch=3 n=28 v=0
62760 Off ch=3 n=40 v=0
62768 Off ch=3 n=60 v=0
62768 Off ch=3 n=58 v=0
62780 Off ch=3 n=64 v=0
62780 On ch=3 n=28 v=63
62972 Off ch=3 n=28 v=0
62972 On ch=3 n=40 v=76
62972 On ch=3 n=60 v=77
62972 On ch=3 n=64 v=72
62972 On ch=3 n=58 v=72
63144 Off ch=3 n=40 v=0
63164 On ch=3 n=28 v=65
63168 Off ch=3 n=60 v=0
63176 Off ch=3 n=58 v=0
63184 Off ch=3 n=64 v=0
63356 On ch=3 n=60 v=83
63356 On ch=3 n=58 v=75
63356 On ch=3 n=40 v=80
63356 On ch=3 n=64 v=75
63364 Off ch=3 n=28 v=0
63524 Off ch=3 n=40 v=0
63532 Off ch=3 n=60 v=0
63540 Off ch=3 n=58 v=0
63548 On ch=3 n=28 v=65
63572 Off ch=3 n=64 v=0
63616 Off ch=3 n=28 v=0
63724 Par ch=3 c=64 v=0
63744 On ch=3 n=65 v=67
63744 On ch=3 n=53 v=80
63744 On ch=3 n=57 v=74
63744 On ch=3 n=60 v=75
63796 Par ch=3 c=64 v=127
63840 Off ch=3 n=53 v=0
63856 Off ch=3 n=57 v=0
63888 Off ch=3 n=65 v=0
63892 Off ch=3 n=60 v=0
63936 On ch=3 n=65 v=59
63936 On ch=3 n=60 v=62
63936 On ch=3 n=57 v=54
63936 On ch=3 n=53 v=58
64036 Off ch=3 n=57 v=0
64052 Off ch=3 n=53 v=0
64052 Off ch=3 n=60 v=0
64052 Off ch=3 n=65 v=0
64128 On ch=3 n=65 v=72
64128 On ch=3 n=53 v=75
64128 On ch=3 n=60 v=72
64128 On ch=3 n=57 v=75
64244 Off ch=3 n=53 v=0
64260 Off ch=3 n=57 v=0
64268 Off ch=3 n=60 v=0
64272 Off ch=3 n=65 v=0
64320 On ch=3 n=65 v=66
64320 On ch=3 n=53 v=71
64320 On ch=3 n=57 v=71
64320 On ch=3 n=60 v=72
64416 Off ch=3 n=53 v=0
64432 Off ch=3 n=57 v=0
64464 Off ch=3 n=65 v=0
64468 Off ch=3 n=60 v=0
64512 On ch=3 n=65 v=63
64512 On ch=3 n=60 v=73
64512 On ch=3 n=57 v=67
64512 On ch=3 n=53 v=75
64612 Off ch=3 n=57 v=0
64628 Off ch=3 n=53 v=0
64628 Off ch=3 n=60 v=0
64628 Off ch=3 n=65 v=0
64704 On ch=3 n=65 v=68
64704 On ch=3 n=53 v=73
64704 On ch=3 n=60 v=73
64704 On ch=3 n=57 v=74
64820 Off ch=3 n=53 v=0
64836 Off ch=3 n=57 v=0
64844 Off ch=3 n=60 v=0
64848 Off ch=3 n=65 v=0
64892 On ch=3 n=65 v=89
64892 On ch=3 n=57 v=84
64892 On ch=3 n=60 v=65
64892 On ch=3 n=53 v=81
65004 Off ch=3 n=65 v=0
65008 Off ch=3 n=57 v=0
65012 Off ch=3 n=53 v=0
65020 Off ch=3 n=60 v=0
65080 On ch=3 n=60 v=62
65080 On ch=3 n=57 v=80
65080 On ch=3 n=64 v=88
65160 Off ch=3 n=64 v=0
65184 Off ch=3 n=57 v=0
65192 Off ch=3 n=60 v=0
65232 Par ch=3 c=64 v=0
65280 On ch=3 n=63 v=72
65280 On ch=3 n=60 v=73
65280 On ch=3 n=57 v=64
65280 On ch=3 n=53 v=88
65308 Par ch=3 c=64 v=127
65468 Off ch=3 n=53 v=0
65468 Off ch=3 n=60 v=0
65472 On ch=3 n=41 v=72
65480 Off ch=3 n=63 v=0
65500 Off ch=3 n=57 v=0
65660 Off ch=3 n=41 v=0
65668 On ch=3 n=63 v=72
65668 On ch=3 n=53 v=81
65668 On ch=3 n=60 v=74
65668 On ch=3 n=57 v=76
65860 Off ch=3 n=53 v=0
65860 On ch=3 n=41 v=76
65868 Off ch=3 n=60 v=0
65908 Off ch=3 n=63 v=0
65912 Off ch=3 n=57 v=0
66020 Off ch=3 n=41 v=0
66052 On ch=3 n=53 v=88
66052 On ch=3 n=63 v=75
66052 On ch=3 n=57 v=77
66052 On ch=3 n=60 v=83
66176 Off ch=3 n=60 v=0
66176 Off ch=3 n=57 v=0
66192 Off ch=3 n=53 v=0
66200 Off ch=3 n=63 v=0
66240 On ch=3 n=53 v=81
66240 On ch=3 n=63 v=63
66240 On ch=3 n=57 v=64
66240 On ch=3 n=60 v=63
66336 Off ch=3 n=60 v=0
66344 Off ch=3 n=53 v=0
66356 Off ch=3 n=63 v=0
66364 Off ch=3 n=57 v=0
66432 On ch=3 n=63 v=80
66432 On ch=3 n=57 v=84
66432 On ch=3 n=53 v=89
66432 On ch=3 n=60 v=80
66584 Off ch=3 n=53 v=0
66592 Off ch=3 n=57 v=0
66596 Off ch=3 n=63 v=0
66624 On ch=3 n=53 v=84
66640 Off ch=3 n=60 v=0
66756 Off ch=3 n=53 v=0
66804 Par ch=3 c=64 v=0
66816 On ch=3 n=58 v=81
66816 On ch=3 n=65 v=78
66816 On ch=3 n=46 v=90
66816 On ch=3 n=62 v=80
66920 Par ch=3 c=64 v=127
67000 Off ch=3 n=62 v=0
67008 On ch=3 n=34 v=67
67012 Off ch=3 n=65 v=0
67016 Off ch=3 n=46 v=0
67016 Off ch=3 n=58 v=0
67196 Off ch=3 n=34 v=0
67204 On ch=3 n=58 v=81
67204 On ch=3 n=65 v=67
67204 On ch=3 n=62 v=80
67204 On ch=3 n=46 v=80
67304 Off ch=3 n=46 v=0
67376 Off ch=3 n=62 v=0
67380 Off ch=3 n=58 v=0
67396 On ch=3 n=34 v=68
67428 Off ch=3 n=65 v=0
67556 Par ch=3 c=64 v=0
67580 Off ch=3 n=34 v=0
67584 On ch=3 n=58 v=80
67584 On ch=3 n=45 v=87
67584 On ch=3 n=65 v=76
67584 On ch=3 n=62 v=79
67644 Par ch=3 c=64 v=127
67768 Off ch=3 n=62 v=0
67776 Off ch=3 n=58 v=0
67780 Off ch=3 n=65 v=0
67780 On ch=3 n=33 v=58
67788 Off ch=3 n=45 v=0
67968 Off ch=3 n=33 v=0
67972 On ch=3 n=65 v=74
67972 On ch=3 n=58 v=77
67972 On ch=3 n=45 v=81
67972 On ch=3 n=62 v=78
68164 On ch=3 n=33 v=64
68168 Off ch=3 n=45 v=0
68184 Off ch=3 n=62 v=0
68204 Off ch=3 n=58 v=0
68216 Off ch=3 n=65 v=0
68296 Off ch=3 n=33 v=0
68356 Par ch=3 c=64 v=0
68360 On ch=3 n=58 v=81
68360 On ch=3 n=65 v=77
68360 On ch=3 n=62 v=80
68360 On ch=3 n=43 v=83
68444 Par ch=3 c=64 v=127
68524 Off ch=3 n=62 v=0
68548 Off ch=3 n=65 v=0
68552 On ch=3 n=31 v=65
68560 Off ch=3 n=43 v=0
68564 Off ch=3 n=58 v=0
68716 Off ch=3 n=31 v=0
68740 On ch=3 n=58 v=78
68740 On ch=3 n=43 v=76
68740 On ch=3 n=65 v=76
68740 On ch=3 n=62 v=79
68932 On ch=3 n=31 v=75
68936 Off ch=3 n=43 v=0
68944 Off ch=3 n=62 v=0
68956 Off ch=3 n=58 v=0
68976 Off ch=3 n=65 v=0
69084 Off ch=3 n=31 v=0
69108 Par ch=3 c=64 v=0
69120 On ch=3 n=65 v=74
69120 On ch=3 n=58 v=80
69120 On ch=3 n=41 v=81
69120 On ch=3 n=62 v=81
69272 Par ch=3 c=64 v=127
69316 On ch=3 n=29 v=55
69332 Off ch=3 n=62 v=0
69352 Off ch=3 n=41 v=0
69352 Off ch=3 n=58 v=0
69356 Off ch=3 n=65 v=0
69508 Off ch=3 n=29 v=0
69508 On ch=3 n=58 v=79
69508 On ch=3 n=65 v=74
69508 On ch=3 n=41 v=74
69508 On ch=3 n=62 v=81
69684 Off ch=3 n=41 v=0
69700 On ch=3 n=29 v=68
69724 Off ch=3 n=62 v=0
69736 Off ch=3 n=58 v=0
69760 Off ch=3 n=65 v=0
69828 Off ch=3 n=29 v=0
69892 Par ch=3 c=64 v=0
69892 On ch=3 n=58 v=79
69892 On ch=3 n=64 v=79
69892 On ch=3 n=40 v=77
69892 On ch=3 n=60 v=77
70012 Par ch=3 c=64 v=127
70072 Off ch=3 n=64 v=0
70084 On ch=3 n=28 v=54
70088 Off ch=3 n=40 v=0
70100 Off ch=3 n=60 v=0
70108 Off ch=3 n=58 v=0
70276 On ch=3 n=58 v=78
70276 On ch=3 n=60 v=78
70276 On ch=3 n=40 v=78
70276 On ch=3 n=64 v=72
70288 Off ch=3 n=28 v=0
70308 Par ch=3 c=64 v=0
70408 Off ch=3 n=40 v=0
70416 Off ch=3 n=60 v=0
70428 Off ch=3 n=64 v=0
70432 Off ch=3 n=58 v=0
70456 Par ch=3 c=64 v=127
70468 On ch=3 n=28 v=62
70644 Off ch=3 n=28 v=0
70660 On ch=3 n=40 v=75
70660 On ch=3 n=58 v=74
70660 On ch=3 n=60 v=59
70660 On ch=3 n=64 v=73
70708 Par ch=3 c=64 v=0
70808 Off ch=3 n=40 v=0
70812 Par ch=3 c=64 v=127
70828 Off ch=3 n=60 v=0
70848 On ch=3 n=28 v=65
70856 Off ch=3 n=58 v=0
70864 Off ch=3 n=64 v=0
71040 Off ch=3 n=28 v=0
71044 On ch=3 n=40 v=71
71044 On ch=3 n=64 v=77
71044 On ch=3 n=58 v=77
71044 On ch=3 n=60 v=77
71204 Off ch=3 n=40 v=0
71208 Off ch=3 n=58 v=0
71216 Off ch=3 n=64 v=0
71220 Off ch=3 n=60 v=0
71232 On ch=3 n=28 v=73
71312 Off ch=3 n=28 v=0
71428 On ch=3 n=41 v=78
71428 On ch=3 n=60 v=81
71428 On ch=3 n=65 v=77
71428 On ch=3 n=57 v=78
71432 Par ch=3 c=64 v=0
71524 Off ch=3 n=41 v=0
71552 Par ch=3 c=64 v=127
71616 On ch=3 n=41 v=80
71640 Off ch=3 n=60 v=0
71644 Off ch=3 n=57 v=0
71648 Off ch=3 n=65 v=0
71720 Off ch=3 n=41 v=0
71808 On ch=3 n=60 v=81
71808 On ch=3 n=65 v=75
71808 On ch=3 n=57 v=77
71808 On ch=3 n=41 v=84
71892 Off ch=3 n=41 v=0
72000 On ch=3 n=41 v=83
72020 Off ch=3 n=60 v=0
72032 Off ch=3 n=57 v=0
72036 Off ch=3 n=65 v=0
72092 Off ch=3 n=41 v=0
72192 On ch=3 n=60 v=75
72192 On ch=3 n=41 v=80
72192 On ch=3 n=57 v=76
72192 On ch=3 n=65 v=74
72296 Off ch=3 n=41 v=0
72384 On ch=3 n=41 v=78
72388 Off ch=3 n=60 v=0
72396 Off ch=3 n=57 v=0
72404 Off ch=3 n=65 v=0
72484 Off ch=3 n=41 v=0
72576 On ch=3 n=41 v=79
72576 On ch=3 n=60 v=72
72576 On ch=3 n=57 v=77
72576 On ch=3 n=65 v=78
72620 Off ch=3 n=41 v=0
72768 On ch=3 n=41 v=79
72808 Off ch=3 n=60 v=0
72812 Off ch=3 n=57 v=0
72820 Off ch=3 n=65 v=0
72828 Off ch=3 n=41 v=0
72960 Par ch=3 c=64 v=0
72960 On ch=3 n=41 v=83
72960 On ch=3 n=60 v=77
72960 On ch=3 n=63 v=69
72960 On ch=3 n=57 v=79
72960 On ch=3 n=65 v=72
72992 Par ch=3 c=64 v=127
73148 Off ch=3 n=41 v=0
73152 On ch=3 n=29 v=68
73168 Off ch=3 n=60 v=0
73172 Off ch=3 n=63 v=0
73180 Off ch=3 n=57 v=0
73192 Off ch=3 n=65 v=0
73340 Off ch=3 n=29 v=0
73352 On ch=3 n=41 v=81
73352 On ch=3 n=63 v=73
73352 On ch=3 n=60 v=76
73352 On ch=3 n=57 v=80
73352 On ch=3 n=65 v=76
73540 Off ch=3 n=41 v=0
73540 On ch=3 n=29 v=75
73564 Off ch=3 n=57 v=0
73600 Off ch=3 n=29 v=0
73620 Off ch=3 n=65 v=0
73628 Off ch=3 n=60 v=0
73640 Off ch=3 n=63 v=0
73732 On ch=3 n=55 v=84
73732 On ch=3 n=64 v=85
73732 On ch=3 n=48 v=81
73748 Par ch=3 c=64 v=0
73844 Off ch=3 n=55 v=0
73852 Par ch=3 c=64 v=127
73872 Off ch=3 n=64 v=0
73916 Off ch=3 n=48 v=0
73916 On ch=3 n=36 v=73
73916 On ch=3 n=65 v=86
73916 On ch=3 n=57 v=83
74060 Off ch=3 n=65 v=0
74068 Off ch=3 n=57 v=0
74076 Off ch=3 n=36 v=0
74104 Par ch=3 c=64 v=0
74108 On ch=3 n=48 v=82
74108 On ch=3 n=60 v=83
74108 On ch=3 n=64 v=75
74108 On ch=3 n=67 v=85
74192 Par ch=3 c=64 v=127
74300 Off ch=3 n=48 v=0
74300 On ch=3 n=36 v=80
74384 Off ch=3 n=64 v=0
74384 Off ch=3 n=60 v=0
74388 Off ch=3 n=67 v=0
74440 Off ch=3 n=36 v=0
74496 On ch=3 n=67 v=80
74496 On ch=3 n=48 v=81
74496 On ch=3 n=60 v=80
74496 On ch=3 n=64 v=79
74688 On ch=3 n=36 v=80
74720 Off ch=3 n=48 v=0
74812 Off ch=3 n=36 v=0
74876 On ch=3 n=48 v=81
74876 On ch=3 n=36 v=76
74988 Off ch=3 n=36 v=0
75000 Off ch=3 n=48 v=0
75068 On ch=3 n=48 v=76
75068 On ch=3 n=36 v=68
75076 Off ch=3 n=64 v=0
75076 Off ch=3 n=60 v=0
75092 Off ch=3 n=67 v=0
75160 Off ch=3 n=36 v=0
75164 Off ch=3 n=48 v=0
75168 Par ch=3 c=64 v=0
75256 On ch=3 n=60 v=90
75256 On ch=3 n=67 v=90
75256 On ch=3 n=64 v=88
75256 On ch=3 n=48 v=79
75256 On ch=3 n=36 v=77
75272 Par ch=3 c=64 v=127
75412 Off ch=3 n=67 v=0
75416 Off ch=3 n=64 v=0
75420 Off ch=3 n=60 v=0
75448 On ch=3 n=62 v=97
75448 On ch=3 n=69 v=95
75448 On ch=3 n=65 v=93
75536 Par ch=3 c=64 v=0
75596 Off ch=3 n=69 v=0
75604 Off ch=3 n=65 v=0
75604 Off ch=3 n=62 v=0
75640 On ch=3 n=64 v=97
75640 On ch=3 n=67 v=93
75640 On ch=3 n=70 v=92
75976 Off ch=3 n=70 v=0
75976 Off ch=3 n=64 v=0
75984 Off ch=3 n=67 v=0
76028 On ch=3 n=67 v=92
76028 On ch=3 n=70 v=94
76028 On ch=3 n=64 v=95
76740 Off ch=3 n=70 v=0
76748 Off ch=3 n=67 v=0
76756 Off ch=3 n=64 v=0
76776 Off ch=3 n=36 v=0
76780 Off ch=3 n=48 v=0
76800 Par ch=3 c=64 v=127
76800 On ch=3 n=53 v=79
76800 On ch=3 n=60 v=75
76800 On ch=3 n=57 v=79
76800 On ch=3 n=65 v=75
76988 Off ch=3 n=53 v=0
76992 On ch=3 n=41 v=65
77008 Off ch=3 n=60 v=0
77016 Off ch=3 n=65 v=0
77024 Off ch=3 n=57 v=0
77184 On ch=3 n=60 v=77
77188 On ch=3 n=57 v=76
77192 Off ch=3 n=41 v=0
77192 On ch=3 n=53 v=74
77192 On ch=3 n=65 v=74
77372 Off ch=3 n=53 v=0
77372 On ch=3 n=41 v=68
77376 Off ch=3 n=60 v=0
77392 Off ch=3 n=65 v=0
77396 Off ch=3 n=57 v=0
77564 Off ch=3 n=41 v=0
77568 On ch=3 n=53 v=77
77568 On ch=3 n=60 v=75
77576 On ch=3 n=57 v=72
77576 On ch=3 n=65 v=71
77748 Off ch=3 n=65 v=0
77748 Off ch=3 n=60 v=0
77756 Off ch=3 n=53 v=0
77760 On ch=3 n=41 v=64
77764 Off ch=3 n=57 v=0
77956 Off ch=3 n=41 v=0
77956 On ch=3 n=53 v=79
77956 On ch=3 n=60 v=76
77956 On ch=3 n=57 v=76
77956 On ch=3 n=65 v=72
78132 Off ch=3 n=53 v=0
78140 Off ch=3 n=60 v=0
78144 On ch=3 n=41 v=72
78172 Off ch=3 n=57 v=0
78176 Off ch=3 n=65 v=0
78316 Off ch=3 n=41 v=0
78324 Par ch=3 c=64 v=0
78340 On ch=3 n=52 v=80
78340 On ch=3 n=60 v=71
78340 On ch=3 n=55 v=73
78340 On ch=3 n=64 v=73
78412 Par ch=3 c=64 v=127
78532 Off ch=3 n=64 v=0
78532 On ch=3 n=48 v=77
78536 Off ch=3 n=60 v=0
78536 Off ch=3 n=52 v=0
78540 Off ch=3 n=55 v=0
78716 Off ch=3 n=48 v=0
78716 On ch=3 n=60 v=75
78720 On ch=3 n=64 v=72
78724 On ch=3 n=55 v=77
78724 On ch=3 n=52 v=81
78900 Off ch=3 n=52 v=0
78908 On ch=3 n=48 v=72
78932 Off ch=3 n=64 v=0
78932 Off ch=3 n=60 v=0
78936 Off ch=3 n=55 v=0
79096 Off ch=3 n=48 v=0
79100 On ch=3 n=52 v=76
79104 On ch=3 n=60 v=69
79104 On ch=3 n=64 v=73
79108 On ch=3 n=55 v=66
79228 Off ch=3 n=55 v=0
79264 Off ch=3 n=60 v=0
79284 Off ch=3 n=64 v=0
79292 On ch=3 n=48 v=74
79300 Off ch=3 n=52 v=0
79480 Off ch=3 n=48 v=0
79480 On ch=3 n=60 v=76
79484 On ch=3 n=67 v=77
79488 On ch=3 n=52 v=81
79508 Par ch=3 c=64 v=0
79568 Par ch=3 c=64 v=127
79640 Off ch=3 n=67 v=0
79660 Off ch=3 n=52 v=0
79676 On ch=3 n=69 v=83
79676 On ch=3 n=53 v=86
79752 Off ch=3 n=69 v=0
79788 Off ch=3 n=60 v=0
79864 Par ch=3 c=64 v=0
79868 On ch=3 n=70 v=79
79868 On ch=3 n=55 v=80
79872 On ch=3 n=67 v=76
79872 On ch=3 n=64 v=79
79876 Off ch=3 n=53 v=0
79936 Par ch=3 c=64 v=127
80040 Off ch=3 n=55 v=0
80052 Off ch=3 n=64 v=0
80060 On ch=3 n=48 v=76
80080 Off ch=3 n=67 v=0
80104 Off ch=3 n=70 v=0
80244 Off ch=3 n=48 v=0
80248 On ch=3 n=65 v=80
80248 On ch=3 n=67 v=80
80252 On ch=3 n=70 v=69
80252 On ch=3 n=55 v=85
80440 Off ch=3 n=55 v=0
80444 Off ch=3 n=65 v=0
80448 On ch=3 n=48 v=76
80456 Off ch=3 n=67 v=0
80468 Off ch=3 n=70 v=0
80624 Off ch=3 n=48 v=0
80628 On ch=3 n=70 v=69
80628 On ch=3 n=67 v=76
80632 On ch=3 n=65 v=77
80632 On ch=3 n=55 v=79
80808 Off ch=3 n=55 v=0
80820 Off ch=3 n=65 v=0
80824 Off ch=3 n=67 v=0
80824 On ch=3 n=48 v=74
80836 Off ch=3 n=70 v=0
81008 Off ch=3 n=48 v=0
81024 On ch=3 n=70 v=66
81024 On ch=3 n=67 v=78
81024 On ch=3 n=55 v=84
81024 On ch=3 n=65 v=75
81200 Off ch=3 n=55 v=0
81212 On ch=3 n=48 v=78
81220 Off ch=3 n=65 v=0
81268 Off ch=3 n=70 v=0
81288 Off ch=3 n=67 v=0
81388 Off ch=3 n=48 v=0
81404 On ch=3 n=65 v=75
81404 On ch=3 n=60 v=72
81404 On ch=3 n=69 v=75
81404 On ch=3 n=53 v=84
81416 Par ch=3 c=64 v=0
81488 Par ch=3 c=64 v=127
81580 Off ch=3 n=53 v=0
81592 Off ch=3 n=65 v=0
81592 On ch=3 n=41 v=71
81596 Off ch=3 n=60 v=0
81600 Off ch=3 n=69 v=0
81788 On ch=3 n=65 v=75
81788 On ch=3 n=53 v=77
81788 On ch=3 n=60 v=74
81788 On ch=3 n=69 v=79
81792 Off ch=3 n=41 v=0
81968 Off ch=3 n=60 v=0
81968 Off ch=3 n=53 v=0
81972 Off ch=3 n=65 v=0
81980 On ch=3 n=41 v=71
81988 Off ch=3 n=69 v=0
82176 Off ch=3 n=41 v=0
82176 On ch=3 n=65 v=72
82176 On ch=3 n=60 v=71
82176 On ch=3 n=53 v=80
82176 On ch=3 n=69 v=77
82344 Off ch=3 n=53 v=0
82352 Off ch=3 n=65 v=0
82360 Off ch=3 n=60 v=0
82364 Off ch=3 n=69 v=0
82368 On ch=3 n=41 v=65
82560 On ch=3 n=65 v=74
82560 On ch=3 n=53 v=83
82560 On ch=3 n=60 v=77
82560 On ch=3 n=69 v=78
82564 Off ch=3 n=41 v=0
82740 Off ch=3 n=53 v=0
82752 On ch=3 n=41 v=78
82768 Off ch=3 n=60 v=0
82784 Off ch=3 n=69 v=0
82800 Off ch=3 n=65 v=0
82864 Off ch=3 n=41 v=0
82940 Par ch=3 c=64 v=0
82944 On ch=3 n=70 v=72
82944 On ch=3 n=62 v=76
82944 On ch=3 n=65 v=78
82944 On ch=3 n=46 v=83
83072 Par ch=3 c=64 v=127
83116 Off ch=3 n=65 v=0
83124 Off ch=3 n=62 v=0
83128 Off ch=3 n=70 v=0
83136 On ch=3 n=34 v=53
83156 Off ch=3 n=46 v=0
83328 On ch=3 n=70 v=66
83328 On ch=3 n=46 v=73
83328 On ch=3 n=62 v=69
83328 On ch=3 n=65 v=73
83340 Off ch=3 n=34 v=0
83504 Off ch=3 n=65 v=0
83520 Off ch=3 n=62 v=0
83520 Off ch=3 n=46 v=0
83520 Off ch=3 n=70 v=0
83520 On ch=3 n=34 v=66
83716 On ch=3 n=62 v=77
83716 On ch=3 n=70 v=69
83716 On ch=3 n=46 v=76
83716 On ch=3 n=65 v=78
83724 Off ch=3 n=34 v=0
83884 Off ch=3 n=65 v=0
83904 Off ch=3 n=62 v=0
83904 On ch=3 n=34 v=69
83908 Off ch=3 n=46 v=0
83916 Off ch=3 n=70 v=0
84096 Off ch=3 n=34 v=0
84100 On ch=3 n=70 v=71
84100 On ch=3 n=46 v=79
84100 On ch=3 n=62 v=75
84100 On ch=3 n=65 v=77
84272 Off ch=3 n=46 v=0
84288 On ch=3 n=34 v=80
84292 Off ch=3 n=70 v=0
84300 Off ch=3 n=65 v=0
84312 Off ch=3 n=62 v=0
84328 Off ch=3 n=34 v=0
84448 Par ch=3 c=64 v=0
84480 On ch=3 n=53 v=83
84480 On ch=3 n=60 v=79
84480 On ch=3 n=65 v=75
84480 On ch=3 n=69 v=80
84536 Par ch=3 c=64 v=127
84676 On ch=3 n=41 v=72
84688 Off ch=3 n=65 v=0
84688 Off ch=3 n=53 v=0
84700 Off ch=3 n=69 v=0
84704 Off ch=3 n=60 v=0
84864 Off ch=3 n=41 v=0
84868 On ch=3 n=60 v=77
84868 On ch=3 n=65 v=72
84868 On ch=3 n=53 v=81
84868 On ch=3 n=69 v=78
85032 Off ch=3 n=53 v=0
85048 Off ch=3 n=69 v=0
85052 Off ch=3 n=65 v=0
85056 On ch=3 n=41 v=68
85060 Off ch=3 n=60 v=0
85244 Off ch=3 n=41 v=0
85252 On ch=3 n=53 v=81
85252 On ch=3 n=65 v=73
85252 On ch=3 n=60 v=74
85252 On ch=3 n=69 v=79
85420 Off ch=3 n=53 v=0
85440 Off ch=3 n=69 v=0
85440 On ch=3 n=41 v=71
85444 Off ch=3 n=60 v=0
85448 Off ch=3 n=65 v=0
85632 Off ch=3 n=41 v=0
85636 On ch=3 n=65 v=74
85636 On ch=3 n=69 v=76
85636 On ch=3 n=60 v=75
85636 On ch=3 n=53 v=84
85736 Off ch=3 n=69 v=0
85744 Off ch=3 n=65 v=0
85800 Off ch=3 n=53 v=0
85812 Off ch=3 n=60 v=0
85824 On ch=3 n=41 v=75
86000 Off ch=3 n=41 v=0
86000 Par ch=3 c=64 v=0
86020 On ch=3 n=60 v=74
86020 On ch=3 n=58 v=78
86020 On ch=3 n=48 v=90
86020 On ch=3 n=67 v=68
86020 On ch=3 n=64 v=65
86076 Par ch=3 c=64 v=127
86204 Off ch=3 n=64 v=0
86204 Off ch=3 n=58 v=0
86208 On ch=3 n=36 v=72
86212 Off ch=3 n=67 v=0
86212 Off ch=3 n=48 v=0
86216 Off ch=3 n=60 v=0
86400 On ch=3 n=60 v=75
86400 On ch=3 n=58 v=74
86400 On ch=3 n=67 v=66
86400 On ch=3 n=48 v=80
86400 On ch=3 n=64 v=72
86404 Off ch=3 n=36 v=0
86580 Off ch=3 n=64 v=0
86588 Off ch=3 n=48 v=0
86592 On ch=3 n=36 v=72
86600 Off ch=3 n=60 v=0
86604 Off ch=3 n=67 v=0
86608 Off ch=3 n=58 v=0
86780 Off ch=3 n=36 v=0
86784 On ch=3 n=60 v=75
86784 On ch=3 n=58 v=68
86784 On ch=3 n=48 v=77
86784 On ch=3 n=67 v=66
86784 On ch=3 n=64 v=65
86936 Off ch=3 n=48 v=0
86944 Off ch=3 n=64 v=0
86976 On ch=3 n=36 v=69
86980 Off ch=3 n=60 v=0
86984 Off ch=3 n=67 v=0
86984 Off ch=3 n=58 v=0
87164 Off ch=3 n=36 v=0
87168 On ch=3 n=60 v=73
87172 On ch=3 n=67 v=63
87176 On ch=3 n=58 v=64
87176 On ch=3 n=48 v=78
87176 On ch=3 n=64 v=67
87332 Off ch=3 n=60 v=0
87336 Off ch=3 n=48 v=0
87352 Off ch=3 n=64 v=0
87352 Off ch=3 n=58 v=0
87352 On ch=3 n=36 v=78
87356 Off ch=3 n=67 v=0
87400 Off ch=3 n=36 v=0
87552 On ch=3 n=65 v=75
87552 On ch=3 n=57 v=79
87552 On ch=3 n=60 v=75
87552 On ch=3 n=53 v=79
87556 Par ch=3 c=64 v=0
87644 Par ch=3 c=64 v=127
87740 Off ch=3 n=53 v=0
87744 On ch=3 n=41 v=65
87760 Off ch=3 n=60 v=0
87768 Off ch=3 n=65 v=0
87776 Off ch=3 n=57 v=0
87936 On ch=3 n=60 v=77
87940 On ch=3 n=57 v=76
87944 Off ch=3 n=41 v=0
87944 On ch=3 n=65 v=74
87944 On ch=3 n=53 v=74
88124 Off ch=3 n=53 v=0
88124 On ch=3 n=41 v=68
88128 Off ch=3 n=60 v=0
88144 Off ch=3 n=65 v=0
88148 Off ch=3 n=57 v=0
88264 Par ch=3 c=64 v=0
88316 Off ch=3 n=41 v=0
88320 On ch=3 n=60 v=75
88320 On ch=3 n=53 v=77
88328 On ch=3 n=65 v=71
88328 On ch=3 n=57 v=72
88340 Par ch=3 c=64 v=127
88500 Off ch=3 n=65 v=0
88500 Off ch=3 n=60 v=0
88508 Off ch=3 n=53 v=0
88512 On ch=3 n=41 v=64
88516 Off ch=3 n=57 v=0
88708 Off ch=3 n=41 v=0
88708 On ch=3 n=65 v=72
88708 On ch=3 n=57 v=76
88708 On ch=3 n=60 v=76
88708 On ch=3 n=53 v=79
88884 Off ch=3 n=53 v=0
88892 Off ch=3 n=60 v=0
88896 On ch=3 n=41 v=72
88924 Off ch=3 n=57 v=0
88928 Off ch=3 n=65 v=0
88932 Par ch=3 c=64 v=0
89068 Off ch=3 n=41 v=0
89088 On ch=3 n=65 v=74
89088 On ch=3 n=60 v=76
89088 On ch=3 n=53 v=86
89096 On ch=3 n=69 v=79
89284 Off ch=3 n=53 v=0
89288 On ch=3 n=41 v=69
89292 Off ch=3 n=65 v=0
89304 Off ch=3 n=69 v=0
89312 Off ch=3 n=60 v=0
89464 Off ch=3 n=41 v=0
89476 On ch=3 n=69 v=74
89476 On ch=3 n=53 v=75
89476 On ch=3 n=65 v=71
89476 On ch=3 n=60 v=75
89624 Off ch=3 n=53 v=0
89660 On ch=3 n=41 v=68
89668 Off ch=3 n=65 v=0
89672 Off ch=3 n=60 v=0
89696 Off ch=3 n=69 v=0
89720 Off ch=3 n=41 v=0
89852 On ch=3 n=69 v=72
89852 On ch=3 n=41 v=71
89852 On ch=3 n=53 v=79
89852 On ch=3 n=65 v=70
89852 On ch=3 n=60 v=71
90472 Off ch=3 n=69 v=0
90476 Off ch=3 n=60 v=0
90476 Off ch=3 n=41 v=0
90480 Off ch=3 n=65 v=0
90484 Off ch=3 n=53 v=0
90628 On ch=3 n=53 v=90
90628 On ch=3 n=60 v=80
90628 On ch=3 n=65 v=78
90628 On ch=3 n=57 v=80
90712 Par ch=3 c=64 v=127
90816 Off ch=3 n=53 v=0
90816 On ch=3 n=41 v=71
90840 Off ch=3 n=60 v=0
90844 Off ch=3 n=65 v=0
90852 Off ch=3 n=57 v=0
91016 On ch=3 n=60 v=75
91016 On ch=3 n=65 v=73
91016 On ch=3 n=57 v=77
91016 On ch=3 n=53 v=81
91044 Off ch=3 n=41 v=0
91172 Off ch=3 n=53 v=0
91188 Off ch=3 n=60 v=0
91204 Off ch=3 n=65 v=0
91204 On ch=3 n=41 v=71
91208 Off ch=3 n=57 v=0
91396 On ch=3 n=60 v=77
91396 On ch=3 n=65 v=71
91396 On ch=3 n=57 v=77
91396 On ch=3 n=53 v=84
91400 Off ch=3 n=41 v=0
91556 Off ch=3 n=53 v=0
91560 Off ch=3 n=60 v=0
91568 Off ch=3 n=65 v=0
91572 Off ch=3 n=57 v=0
91588 On ch=3 n=41 v=73
91772 Off ch=3 n=41 v=0
91780 On ch=3 n=60 v=78
91780 On ch=3 n=65 v=75
91780 On ch=3 n=57 v=78
91780 On ch=3 n=53 v=83
91952 Off ch=3 n=53 v=0
91964 Off ch=3 n=60 v=0
91972 On ch=3 n=41 v=76
91980 Off ch=3 n=57 v=0
92012 Off ch=3 n=65 v=0
92048 Off ch=3 n=41 v=0
92136 Par ch=3 c=64 v=0
92160 On ch=3 n=51 v=86
92160 On ch=3 n=55 v=86
92160 On ch=3 n=63 v=72
92160 On ch=3 n=58 v=77
92268 Par ch=3 c=64 v=127
92344 Off ch=3 n=58 v=0
92348 Off ch=3 n=55 v=0
92352 Off ch=3 n=63 v=0
92352 Off ch=3 n=51 v=0
92352 On ch=3 n=39 v=71
92544 Off ch=3 n=39 v=0
92544 On ch=3 n=58 v=78
92544 On ch=3 n=63 v=71
92544 On ch=3 n=55 v=74
92544 On ch=3 n=51 v=83
92712 Off ch=3 n=51 v=0
92716 Off ch=3 n=58 v=0
92720 Off ch=3 n=55 v=0
92732 Off ch=3 n=63 v=0
92736 On ch=3 n=39 v=64
92924 Off ch=3 n=39 v=0
92928 On ch=3 n=58 v=77
92928 On ch=3 n=63 v=69
92928 On ch=3 n=55 v=79
92928 On ch=3 n=51 v=80
93096 Off ch=3 n=51 v=0
93104 Off ch=3 n=58 v=0
93112 Off ch=3 n=55 v=0
93112 Off ch=3 n=63 v=0
93120 On ch=3 n=39 v=72
93312 On ch=3 n=58 v=74
93312 On ch=3 n=63 v=69
93312 On ch=3 n=55 v=77
93312 On ch=3 n=51 v=86
93324 Off ch=3 n=39 v=0
93488 Off ch=3 n=51 v=0
93504 On ch=3 n=39 v=74
93520 Off ch=3 n=63 v=0
93536 Off ch=3 n=58 v=0
93540 Off ch=3 n=55 v=0
93668 Par ch=3 c=64 v=0
93672 Off ch=3 n=39 v=0
93696 On ch=3 n=58 v=77
93696 On ch=3 n=46 v=83
93696 On ch=3 n=65 v=69
93696 On ch=3 n=62 v=76
93772 Par ch=3 c=64 v=127
93884 Off ch=3 n=62 v=0
93884 Off ch=3 n=65 v=0
93884 Off ch=3 n=58 v=0
93888 On ch=3 n=34 v=64
93892 Off ch=3 n=46 v=0
94080 On ch=3 n=58 v=81
94080 On ch=3 n=62 v=79
94080 On ch=3 n=46 v=75
94080 On ch=3 n=65 v=64
94088 Off ch=3 n=34 v=0
94260 Off ch=3 n=58 v=0
94268 Off ch=3 n=65 v=0
94268 Off ch=3 n=46 v=0
94268 Off ch=3 n=62 v=0
94272 On ch=3 n=34 v=67
94464 Off ch=3 n=34 v=0
94464 On ch=3 n=46 v=78
94464 On ch=3 n=58 v=76
94464 On ch=3 n=62 v=78
94464 On ch=3 n=65 v=67
94628 Off ch=3 n=62 v=0
94628 Off ch=3 n=58 v=0
94632 Off ch=3 n=46 v=0
94656 Off ch=3 n=65 v=0
94656 On ch=3 n=34 v=59
94848 On ch=3 n=62 v=80
94848 On ch=3 n=58 v=77
94848 On ch=3 n=65 v=66
94848 On ch=3 n=46 v=81
94860 Off ch=3 n=34 v=0
95016 Off ch=3 n=46 v=0
95028 Off ch=3 n=58 v=0
95040 On ch=3 n=34 v=73
95060 Off ch=3 n=62 v=0
95076 Off ch=3 n=65 v=0
95192 Off ch=3 n=34 v=0
95208 Par ch=3 c=64 v=0
95232 On ch=3 n=53 v=86
95232 On ch=3 n=60 v=77
95232 On ch=3 n=57 v=73
95232 On ch=3 n=65 v=68
95248 Par ch=3 c=64 v=127
95416 Off ch=3 n=60 v=0
95420 Off ch=3 n=57 v=0
95424 Off ch=3 n=65 v=0
95424 On ch=3 n=41 v=69
95428 Off ch=3 n=53 v=0
95612 Off ch=3 n=41 v=0
95616 On ch=3 n=60 v=74
95616 On ch=3 n=53 v=81
95616 On ch=3 n=65 v=68
95616 On ch=3 n=57 v=73
95780 Off ch=3 n=53 v=0
95804 Off ch=3 n=60 v=0
95808 On ch=3 n=41 v=75
95816 Off ch=3 n=57 v=0
95828 Off ch=3 n=65 v=0
95992 Off ch=3 n=41 v=0
96000 On ch=3 n=60 v=73
96000 On ch=3 n=65 v=68
96000 On ch=3 n=53 v=77
96000 On ch=3 n=57 v=74
96156 Off ch=3 n=53 v=0
96164 Off ch=3 n=60 v=0
96184 Off ch=3 n=57 v=0
96192 On ch=3 n=41 v=61
96196 Off ch=3 n=65 v=0
96312 Off ch=3 n=41 v=0
96384 On ch=3 n=60 v=77
96384 On ch=3 n=65 v=73
96384 On ch=3 n=53 v=78
96384 On ch=3 n=57 v=73
96568 Off ch=3 n=53 v=0
96576 On ch=3 n=41 v=77
96612 Off ch=3 n=60 v=0
96624 Off ch=3 n=57 v=0
96632 Off ch=3 n=65 v=0
96712 Off ch=3 n=41 v=0
96736 Par ch=3 c=64 v=0
96772 On ch=3 n=53 v=90
96772 On ch=3 n=60 v=80
96772 On ch=3 n=65 v=78
96772 On ch=3 n=57 v=80
96856 Par ch=3 c=64 v=127
96960 Off ch=3 n=53 v=0
96960 On ch=3 n=41 v=71
96984 Off ch=3 n=60 v=0
96988 Off ch=3 n=65 v=0
96996 Off ch=3 n=57 v=0
97160 On ch=3 n=60 v=75
97160 On ch=3 n=65 v=73
97160 On ch=3 n=57 v=77
97160 On ch=3 n=53 v=81
97188 Off ch=3 n=41 v=0
97316 Off ch=3 n=53 v=0
97332 Off ch=3 n=60 v=0
97348 Off ch=3 n=65 v=0
97348 On ch=3 n=41 v=71
97352 Off ch=3 n=57 v=0
97540 On ch=3 n=60 v=77
97540 On ch=3 n=65 v=71
97540 On ch=3 n=57 v=77
97540 On ch=3 n=53 v=84
97544 Off ch=3 n=41 v=0
97700 Off ch=3 n=53 v=0
97704 Off ch=3 n=60 v=0
97712 Off ch=3 n=65 v=0
97716 Off ch=3 n=57 v=0
97732 On ch=3 n=41 v=73
97916 Off ch=3 n=41 v=0
97924 On ch=3 n=60 v=78
97924 On ch=3 n=65 v=75
97924 On ch=3 n=57 v=78
97924 On ch=3 n=53 v=83
98096 Off ch=3 n=53 v=0
98108 Off ch=3 n=60 v=0
98116 On ch=3 n=41 v=76
98124 Off ch=3 n=57 v=0
98156 Off ch=3 n=65 v=0
98192 Off ch=3 n=41 v=0
98280 Par ch=3 c=64 v=0
98304 On ch=3 n=51 v=86
98304 On ch=3 n=55 v=86
98304 On ch=3 n=63 v=72
98304 On ch=3 n=58 v=77
98412 Par ch=3 c=64 v=127
98488 Off ch=3 n=58 v=0
98492 Off ch=3 n=55 v=0
98496 Off ch=3 n=63 v=0
98496 Off ch=3 n=51 v=0
98496 On ch=3 n=39 v=71
98688 Off ch=3 n=39 v=0
98688 On ch=3 n=58 v=78
98688 On ch=3 n=63 v=71
98688 On ch=3 n=55 v=74
98688 On ch=3 n=51 v=83
98856 Off ch=3 n=51 v=0
98860 Off ch=3 n=58 v=0
98864 Off ch=3 n=55 v=0
98876 Off ch=3 n=63 v=0
98880 On ch=3 n=39 v=64
99068 Off ch=3 n=39 v=0
99072 On ch=3 n=58 v=77
99072 On ch=3 n=63 v=69
99072 On ch=3 n=55 v=79
99072 On ch=3 n=51 v=80
99240 Off ch=3 n=51 v=0
99248 Off ch=3 n=58 v=0
99256 Off ch=3 n=55 v=0
99256 Off ch=3 n=63 v=0
99264 On ch=3 n=39 v=72
99456 On ch=3 n=58 v=74
99456 On ch=3 n=63 v=69
99456 On ch=3 n=55 v=77
99456 On ch=3 n=51 v=86
99468 Off ch=3 n=39 v=0
99632 Off ch=3 n=51 v=0
99648 On ch=3 n=39 v=74
99664 Off ch=3 n=63 v=0
99680 Off ch=3 n=58 v=0
99684 Off ch=3 n=55 v=0
99812 Par ch=3 c=64 v=0
99816 Off ch=3 n=39 v=0
99840 On ch=3 n=58 v=77
99840 On ch=3 n=46 v=83
99840 On ch=3 n=65 v=69
99840 On ch=3 n=62 v=76
99916 Par ch=3 c=64 v=127
100028 Off ch=3 n=62 v=0
100028 Off ch=3 n=65 v=0
100028 Off ch=3 n=58 v=0
100032 On ch=3 n=34 v=64
100036 Off ch=3 n=46 v=0
100224 On ch=3 n=58 v=81
100224 On ch=3 n=62 v=79
100224 On ch=3 n=46 v=75
100224 On ch=3 n=65 v=64
100232 Off ch=3 n=34 v=0
100404 Off ch=3 n=58 v=0
100412 Off ch=3 n=65 v=0
100412 Off ch=3 n=46 v=0
100412 Off ch=3 n=62 v=0
100416 On ch=3 n=34 v=67
100608 Off ch=3 n=34 v=0
100608 On ch=3 n=46 v=78
100608 On ch=3 n=58 v=76
100608 On ch=3 n=62 v=78
100608 On ch=3 n=65 v=67
100772 Off ch=3 n=62 v=0
100772 Off ch=3 n=58 v=0
100776 Off ch=3 n=46 v=0
100800 Off ch=3 n=65 v=0
100800 On ch=3 n=34 v=59
100992 On ch=3 n=62 v=80
100992 On ch=3 n=58 v=77
100992 On ch=3 n=65 v=66
100992 On ch=3 n=46 v=81
101004 Off ch=3 n=34 v=0
101160 Off ch=3 n=46 v=0
101172 Off ch=3 n=58 v=0
101184 On ch=3 n=34 v=73
101204 Off ch=3 n=62 v=0
101220 Off ch=3 n=65 v=0
101336 Off ch=3 n=34 v=0
101352 Par ch=3 c=64 v=0
101376 On ch=3 n=53 v=86
101376 On ch=3 n=60 v=77
101376 On ch=3 n=57 v=73
101376 On ch=3 n=65 v=68
101392 Par ch=3 c=64 v=127
101560 Off ch=3 n=60 v=0
101564 Off ch=3 n=57 v=0
101568 Off ch=3 n=65 v=0
101568 On ch=3 n=41 v=69
101572 Off ch=3 n=53 v=0
101756 Off ch=3 n=41 v=0
101760 On ch=3 n=60 v=74
101760 On ch=3 n=53 v=81
101760 On ch=3 n=65 v=68
101760 On ch=3 n=57 v=73
101924 Off ch=3 n=53 v=0
101948 Off ch=3 n=60 v=0
101952 On ch=3 n=41 v=75
101960 Off ch=3 n=57 v=0
101972 Off ch=3 n=65 v=0
102136 Off ch=3 n=41 v=0
102144 On ch=3 n=60 v=73
102144 On ch=3 n=65 v=68
102144 On ch=3 n=53 v=77
102144 On ch=3 n=57 v=74
102300 Off ch=3 n=53 v=0
102308 Off ch=3 n=60 v=0
102328 Off ch=3 n=57 v=0
102336 On ch=3 n=41 v=61
102340 Off ch=3 n=65 v=0
102456 Off ch=3 n=41 v=0
102528 On ch=3 n=60 v=77
102528 On ch=3 n=65 v=73
102528 On ch=3 n=53 v=78
102528 On ch=3 n=57 v=73
102712 Off ch=3 n=53 v=0
102720 On ch=3 n=41 v=77
102756 Off ch=3 n=60 v=0
102768 Off ch=3 n=57 v=0
102776 Off ch=3 n=65 v=0
102856 Off ch=3 n=41 v=0
102880 Par ch=3 c=64 v=0
102916 On ch=3 n=53 v=90
102916 On ch=3 n=60 v=80
102916 On ch=3 n=65 v=78
102916 On ch=3 n=57 v=80
103000 Par ch=3 c=64 v=127
103104 Off ch=3 n=53 v=0
103104 On ch=3 n=41 v=71
103128 Off ch=3 n=60 v=0
103132 Off ch=3 n=65 v=0
103140 Off ch=3 n=57 v=0
103304 On ch=3 n=60 v=75
103304 On ch=3 n=65 v=73
103304 On ch=3 n=57 v=77
103304 On ch=3 n=53 v=81
103332 Off ch=3 n=41 v=0
103460 Off ch=3 n=53 v=0
103476 Off ch=3 n=60 v=0
103492 Off ch=3 n=65 v=0
103492 On ch=3 n=41 v=71
103496 Off ch=3 n=57 v=0
103684 On ch=3 n=60 v=77
103684 On ch=3 n=65 v=71
103684 On ch=3 n=57 v=77
103684 On ch=3 n=53 v=84
103688 Off ch=3 n=41 v=0
103844 Off ch=3 n=53 v=0
103848 Off ch=3 n=60 v=0
103856 Off ch=3 n=65 v=0
103860 Off ch=3 n=57 v=0
103876 On ch=3 n=41 v=73
104060 Off ch=3 n=41 v=0
104068 On ch=3 n=60 v=78
104068 On ch=3 n=65 v=75
104068 On ch=3 n=57 v=78
104068 On ch=3 n=53 v=83
104240 Off ch=3 n=53 v=0
104252 Off ch=3 n=60 v=0
104260 On ch=3 n=41 v=76
104268 Off ch=3 n=57 v=0
104300 Off ch=3 n=65 v=0
104336 Off ch=3 n=41 v=0
104424 Par ch=3 c=64 v=0
104448 On ch=3 n=51 v=86
104448 On ch=3 n=55 v=86
104448 On ch=3 n=63 v=72
104448 On ch=3 n=58 v=77
104556 Par ch=3 c=64 v=127
104632 Off ch=3 n=58 v=0
104636 Off ch=3 n=55 v=0
104640 Off ch=3 n=63 v=0
104640 Off ch=3 n=51 v=0
104640 On ch=3 n=39 v=71
104832 Off ch=3 n=39 v=0
104832 On ch=3 n=58 v=78
104832 On ch=3 n=63 v=71
104832 On ch=3 n=55 v=74
104832 On ch=3 n=51 v=83
105000 Off ch=3 n=51 v=0
105004 Off ch=3 n=58 v=0
105008 Off ch=3 n=55 v=0
105020 Off ch=3 n=63 v=0
105024 On ch=3 n=39 v=64
105212 Off ch=3 n=39 v=0
105216 On ch=3 n=58 v=77
105216 On ch=3 n=63 v=69
105216 On ch=3 n=55 v=79
105216 On ch=3 n=51 v=80
105384 Off ch=3 n=51 v=0
105392 Off ch=3 n=58 v=0
105400 Off ch=3 n=55 v=0
105400 Off ch=3 n=63 v=0
105408 On ch=3 n=39 v=72
105600 On ch=3 n=58 v=74
105600 On ch=3 n=63 v=69
105600 On ch=3 n=55 v=77
105600 On ch=3 n=51 v=86
105612 Off ch=3 n=39 v=0
105776 Off ch=3 n=51 v=0
105792 On ch=3 n=39 v=74
105808 Off ch=3 n=63 v=0
105824 Off ch=3 n=58 v=0
105828 Off ch=3 n=55 v=0
105956 Par ch=3 c=64 v=0
105960 Off ch=3 n=39 v=0
105984 On ch=3 n=58 v=77
105984 On ch=3 n=46 v=83
105984 On ch=3 n=65 v=69
105984 On ch=3 n=62 v=76
106060 Par ch=3 c=64 v=127
106172 Off ch=3 n=62 v=0
106172 Off ch=3 n=65 v=0
106172 Off ch=3 n=58 v=0
106176 On ch=3 n=34 v=64
106180 Off ch=3 n=46 v=0
106368 On ch=3 n=58 v=81
106368 On ch=3 n=62 v=79
106368 On ch=3 n=46 v=75
106368 On ch=3 n=65 v=64
106376 Off ch=3 n=34 v=0
106548 Off ch=3 n=58 v=0
106556 Off ch=3 n=65 v=0
106556 Off ch=3 n=46 v=0
106556 Off ch=3 n=62 v=0
106560 On ch=3 n=34 v=67
106752 Off ch=3 n=34 v=0
106752 On ch=3 n=46 v=78
106752 On ch=3 n=58 v=76
106752 On ch=3 n=62 v=78
106752 On ch=3 n=65 v=67
106916 Off ch=3 n=62 v=0
106916 Off ch=3 n=58 v=0
106920 Off ch=3 n=46 v=0
106944 Off ch=3 n=65 v=0
106944 On ch=3 n=34 v=59
107136 On ch=3 n=62 v=80
107136 On ch=3 n=58 v=77
107136 On ch=3 n=65 v=66
107136 On ch=3 n=46 v=81
107148 Off ch=3 n=34 v=0
107304 Off ch=3 n=46 v=0
107316 Off ch=3 n=58 v=0
107328 On ch=3 n=34 v=73
107348 Off ch=3 n=62 v=0
107364 Off ch=3 n=65 v=0
107480 Off ch=3 n=34 v=0
107496 Par ch=3 c=64 v=0
107520 On ch=3 n=53 v=86
107520 On ch=3 n=60 v=77
107520 On ch=3 n=57 v=73
107520 On ch=3 n=65 v=68
107536 Par ch=3 c=64 v=127
107704 Off ch=3 n=60 v=0
107708 Off ch=3 n=57 v=0
107712 Off ch=3 n=65 v=0
107712 On ch=3 n=41 v=69
107716 Off ch=3 n=53 v=0
107900 Off ch=3 n=41 v=0
107904 On ch=3 n=60 v=74
107904 On ch=3 n=53 v=81
107904 On ch=3 n=65 v=68
107904 On ch=3 n=57 v=73
108068 Off ch=3 n=53 v=0
108092 Off ch=3 n=60 v=0
108096 On ch=3 n=41 v=75
108104 Off ch=3 n=57 v=0
108116 Off ch=3 n=65 v=0
108280 Off ch=3 n=41 v=0
108288 On ch=3 n=60 v=73
108288 On ch=3 n=65 v=68
108288 On ch=3 n=53 v=77
108288 On ch=3 n=57 v=74
108444 Off ch=3 n=53 v=0
108452 Off ch=3 n=60 v=0
108472 Off ch=3 n=57 v=0
108480 On ch=3 n=41 v=61
108484 Off ch=3 n=65 v=0
108600 Off ch=3 n=41 v=0
108672 On ch=3 n=60 v=77
108672 On ch=3 n=65 v=73
108672 On ch=3 n=53 v=78
108672 On ch=3 n=57 v=73
108856 Off ch=3 n=53 v=0
108864 On ch=3 n=41 v=77
108900 Off ch=3 n=60 v=0
108912 Off ch=3 n=57 v=0
108920 Off ch=3 n=65 v=0
109000 Off ch=3 n=41 v=0
109024 Par ch=3 c=64 v=0
109060 On ch=3 n=53 v=90
109060 On ch=3 n=60 v=80
109060 On ch=3 n=65 v=78
109060 On ch=3 n=57 v=80
109144 Par ch=3 c=64 v=127
109248 Off ch=3 n=53 v=0
109248 On ch=3 n=41 v=71
109272 Off ch=3 n=60 v=0
109276 Off ch=3 n=65 v=0
109284 Off ch=3 n=57 v=0
109448 On ch=3 n=60 v=75
109448 On ch=3 n=65 v=73
109448 On ch=3 n=57 v=77
109448 On ch=3 n=53 v=81
109476 Off ch=3 n=41 v=0
109604 Off ch=3 n=53 v=0
109620 Off ch=3 n=60 v=0
109636 Off ch=3 n=65 v=0
109636 On ch=3 n=41 v=71
109640 Off ch=3 n=57 v=0
109828 On ch=3 n=60 v=77
109828 On ch=3 n=65 v=71
109828 On ch=3 n=57 v=77
109828 On ch=3 n=53 v=84
109832 Off ch=3 n=41 v=0
109988 Off ch=3 n=53 v=0
109992 Off ch=3 n=60 v=0
110000 Off ch=3 n=65 v=0
110004 Off ch=3 n=57 v=0
110020 On ch=3 n=41 v=73
110204 Off ch=3 n=41 v=0
110212 On ch=3 n=60 v=78
110212 On ch=3 n=65 v=75
110212 On ch=3 n=57 v=78
110212 On ch=3 n=53 v=83
110384 Off ch=3 n=53 v=0
110396 Off ch=3 n=60 v=0
110404 On ch=3 n=41 v=76
110412 Off ch=3 n=57 v=0
110444 Off ch=3 n=65 v=0
110480 Off ch=3 n=41 v=0
110568 Par ch=3 c=64 v=0
110592 On ch=3 n=51 v=86
110592 On ch=3 n=55 v=86
110592 On ch=3 n=63 v=72
110592 On ch=3 n=58 v=77
110700 Par ch=3 c=64 v=127
110776 Off ch=3 n=58 v=0
110780 Off ch=3 n=55 v=0
110784 Off ch=3 n=63 v=0
110784 Off ch=3 n=51 v=0
110784 On ch=3 n=39 v=71
110976 Off ch=3 n=39 v=0
110976 On ch=3 n=58 v=78
110976 On ch=3 n=63 v=71
110976 On ch=3 n=55 v=74
110976 On ch=3 n=51 v=83
111144 Off ch=3 n=51 v=0
111148 Off ch=3 n=58 v=0
111152 Off ch=3 n=55 v=0
111164 Off ch=3 n=63 v=0
111168 On ch=3 n=39 v=64
111356 Off ch=3 n=39 v=0
111360 On ch=3 n=58 v=77
111360 On ch=3 n=63 v=69
111360 On ch=3 n=55 v=79
111360 On ch=3 n=51 v=80
111528 Off ch=3 n=51 v=0
111536 Off ch=3 n=58 v=0
111544 Off ch=3 n=55 v=0
111544 Off ch=3 n=63 v=0
111552 On ch=3 n=39 v=72
111744 On ch=3 n=58 v=74
111744 On ch=3 n=63 v=69
111744 On ch=3 n=55 v=77
111744 On ch=3 n=51 v=86
111756 Off ch=3 n=39 v=0
111920 Off ch=3 n=51 v=0
111936 On ch=3 n=39 v=74
111952 Off ch=3 n=63 v=0
111968 Off ch=3 n=58 v=0
111972 Off ch=3 n=55 v=0
112100 Par ch=3 c=64 v=0
112104 Off ch=3 n=39 v=0
112128 On ch=3 n=58 v=77
112128 On ch=3 n=46 v=83
112128 On ch=3 n=65 v=69
112128 On ch=3 n=62 v=76
112204 Par ch=3 c=64 v=127
112316 Off ch=3 n=62 v=0
112316 Off ch=3 n=65 v=0
112316 Off ch=3 n=58 v=0
112320 On ch=3 n=34 v=64
112324 Off ch=3 n=46 v=0
112512 On ch=3 n=58 v=81
112512 On ch=3 n=62 v=79
112512 On ch=3 n=46 v=75
112512 On ch=3 n=65 v=64
112520 Off ch=3 n=34 v=0
112692 Off ch=3 n=58 v=0
112700 Off ch=3 n=65 v=0
112700 Off ch=3 n=46 v=0
112700 Off ch=3 n=62 v=0
112704 On ch=3 n=34 v=67
112896 Off ch=3 n=34 v=0
112896 On ch=3 n=46 v=78
112896 On ch=3 n=58 v=76
112896 On ch=3 n=62 v=78
112896 On ch=3 n=65 v=67
113060 Off ch=3 n=62 v=0
113060 Off ch=3 n=58 v=0
113064 Off ch=3 n=46 v=0
113088 Off ch=3 n=65 v=0
113088 On ch=3 n=34 v=59
113280 On ch=3 n=62 v=80
113280 On ch=3 n=58 v=77
113280 On ch=3 n=65 v=66
113280 On ch=3 n=46 v=81
113292 Off ch=3 n=34 v=0
113448 Off ch=3 n=46 v=0
113460 Off ch=3 n=58 v=0
113472 On ch=3 n=34 v=73
113492 Off ch=3 n=62 v=0
113508 Off ch=3 n=65 v=0
113624 Off ch=3 n=34 v=0
113640 Par ch=3 c=64 v=0
113664 On ch=3 n=53 v=86
113664 On ch=3 n=60 v=77
113664 On ch=3 n=57 v=73
113664 On ch=3 n=65 v=68
113680 Par ch=3 c=64 v=127
113848 Off ch=3 n=60 v=0
113852 Off ch=3 n=57 v=0
113856 Off ch=3 n=65 v=0
113856 On ch=3 n=41 v=69
113860 Off ch=3 n=53 v=0
114044 Off ch=3 n=41 v=0
114048 On ch=3 n=60 v=74
114048 On ch=3 n=53 v=81
114048 On ch=3 n=65 v=68
114048 On ch=3 n=57 v=73
114212 Off ch=3 n=53 v=0
114236 Off ch=3 n=60 v=0
114240 On ch=3 n=41 v=75
114248 Off ch=3 n=57 v=0
114260 Off ch=3 n=65 v=0
114424 Off ch=3 n=41 v=0
114432 On ch=3 n=60 v=73
114432 On ch=3 n=65 v=68
114432 On ch=3 n=53 v=77
114432 On ch=3 n=57 v=74
114588 Off ch=3 n=53 v=0
114596 Off ch=3 n=60 v=0
114616 Off ch=3 n=57 v=0
114624 On ch=3 n=41 v=61
114628 Off ch=3 n=65 v=0
114744 Off ch=3 n=41 v=0
114816 On ch=3 n=60 v=72
114816 On ch=3 n=65 v=72
114816 On ch=3 n=53 v=72
114816 On ch=3 n=57 v=72
115000 Off ch=3 n=53 v=0
115008 On ch=3 n=41 v=71
115044 Off ch=3 n=60 v=0
115056 Off ch=3 n=57 v=0
115064 Off ch=3 n=65 v=0
115144 Off ch=3 n=41 v=0
115168 Par ch=3 c=64 v=0
115204 On ch=3 n=53 v=71
115204 On ch=3 n=60 v=71
115204 On ch=3 n=65 v=71
115204 On ch=3 n=57 v=71
115288 Par ch=3 c=64 v=127
115392 Off ch=3 n=53 v=0
115392 On ch=3 n=41 v=70
115416 Off ch=3 n=60 v=0
115420 Off ch=3 n=65 v=0
115428 Off ch=3 n=57 v=0
115592 On ch=3 n=60 v=69
115592 On ch=3 n=65 v=69
115592 On ch=3 n=57 v=69
115592 On ch=3 n=53 v=69
115620 Off ch=3 n=41 v=0
115748 Off ch=3 n=53 v=0
115764 Off ch=3 n=60 v=0
115780 Off ch=3 n=65 v=0
115780 On ch=3 n=41 v=69
115784 Off ch=3 n=57 v=0
115972 On ch=3 n=60 v=68
115972 On ch=3 n=65 v=68
115972 On ch=3 n=57 v=68
115972 On ch=3 n=53 v=68
115976 Off ch=3 n=41 v=0
116132 Off ch=3 n=53 v=0
116136 Off ch=3 n=60 v=0
116144 Off ch=3 n=65 v=0
116148 Off ch=3 n=57 v=0
116164 On ch=3 n=41 v=67
116348 Off ch=3 n=41 v=0
116356 On ch=3 n=60 v=66
116356 On ch=3 n=65 v=66
116356 On ch=3 n=57 v=66
116356 On ch=3 n=53 v=66
116528 Off ch=3 n=53 v=0
116540 Off ch=3 n=60 v=0
116548 On ch=3 n=41 v=66
116556 Off ch=3 n=57 v=0
116588 Off ch=3 n=65 v=0
116624 Off ch=3 n=41 v=0
116712 Par ch=3 c=64 v=0
116736 On ch=3 n=51 v=65
116736 On ch=3 n=55 v=65
116736 On ch=3 n=63 v=65
116736 On ch=3 n=58 v=65
116844 Par ch=3 c=64 v=127
116920 Off ch=3 n=58 v=0
116924 Off ch=3 n=55 v=0
116928 Off ch=3 n=63 v=0
116928 Off ch=3 n=51 v=0
116928 On ch=3 n=39 v=64
117120 Off ch=3 n=39 v=0
117120 On ch=3 n=58 v=63
117120 On ch=3 n=63 v=63
117120 On ch=3 n=55 v=63
117120 On ch=3 n=51 v=63
117288 Off ch=3 n=51 v=0
117292 Off ch=3 n=58 v=0
117296 Off ch=3 n=55 v=0
117308 Off ch=3 n=63 v=0
117312 On ch=3 n=39 v=63
117500 Off ch=3 n=39 v=0
117504 On ch=3 n=58 v=62
117504 On ch=3 n=63 v=62
117504 On ch=3 n=55 v=62
117504 On ch=3 n=51 v=62
117672 Off ch=3 n=51 v=0
117680 Off ch=3 n=58 v=0
117688 Off ch=3 n=55 v=0
117688 Off ch=3 n=63 v=0
117696 On ch=3 n=39 v=61
117888 On ch=3 n=58 v=60
117888 On ch=3 n=63 v=60
117888 On ch=3 n=55 v=60
117888 On ch=3 n=51 v=60
117900 Off ch=3 n=39 v=0
118064 Off ch=3 n=51 v=0
118080 On ch=3 n=39 v=60
118096 Off ch=3 n=63 v=0
118112 Off ch=3 n=58 v=0
118116 Off ch=3 n=55 v=0
118244 Par ch=3 c=64 v=0
118248 Off ch=3 n=39 v=0
118272 On ch=3 n=58 v=59
118272 On ch=3 n=46 v=59
118272 On ch=3 n=65 v=59
118272 On ch=3 n=62 v=59
118348 Par ch=3 c=64 v=127
118460 Off ch=3 n=62 v=0
118460 Off ch=3 n=65 v=0
118460 Off ch=3 n=58 v=0
118464 On ch=3 n=34 v=58
118468 Off ch=3 n=46 v=0
118656 On ch=3 n=58 v=57
118656 On ch=3 n=62 v=57
118656 On ch=3 n=46 v=57
118656 On ch=3 n=65 v=57
118664 Off ch=3 n=34 v=0
118836 Off ch=3 n=58 v=0
118844 Off ch=3 n=65 v=0
118844 Off ch=3 n=46 v=0
118844 Off ch=3 n=62 v=0
118848 On ch=3 n=34 v=57
119040 Off ch=3 n=34 v=0
119040 On ch=3 n=46 v=56
119040 On ch=3 n=58 v=56
119040 On ch=3 n=62 v=56
119040 On ch=3 n=65 v=56
119204 Off ch=3 n=62 v=0
119204 Off ch=3 n=58 v=0
119208 Off ch=3 n=46 v=0
119232 Off ch=3 n=65 v=0
119232 On ch=3 n=34 v=55
119424 On ch=3 n=62 v=54
119424 On ch=3 n=58 v=54
119424 On ch=3 n=65 v=54
119424 On ch=3 n=46 v=54
119436 Off ch=3 n=34 v=0
119592 Off ch=3 n=46 v=0
119604 Off ch=3 n=58 v=0
119616 On ch=3 n=34 v=54
119636 Off ch=3 n=62 v=0
119652 Off ch=3 n=65 v=0
119768 Off ch=3 n=34 v=0
119784 Par ch=3 c=64 v=0
119808 On ch=3 n=53 v=53
119808 On ch=3 n=60 v=53
119808 On ch=3 n=57 v=53
119808 On ch=3 n=65 v=53
119824 Par ch=3 c=64 v=127
119992 Off ch=3 n=60 v=0
119996 Off ch=3 n=57 v=0
120000 Off ch=3 n=65 v=0
120000 On ch=3 n=41 v=52
120004 Off ch=3 n=53 v=0
120188 Off ch=3 n=41 v=0
120192 On ch=3 n=60 v=51
120192 On ch=3 n=53 v=51
120192 On ch=3 n=65 v=51
120192 On ch=3 n=57 v=51
120356 Off ch=3 n=53 v=0
120380 Off ch=3 n=60 v=0
120384 On ch=3 n=41 v=51
120392 Off ch=3 n=57 v=0
120404 Off ch=3 n=65 v=0
120568 Off ch=3 n=41 v=0
120576 On ch=3 n=60 v=50
120576 On ch=3 n=65 v=50
120576 On ch=3 n=53 v=50
120576 On ch=3 n=57 v=50
120732 Off ch=3 n=53 v=0
120740 Off ch=3 n=60 v=0
120760 Off ch=3 n=57 v=0
120768 On ch=3 n=41 v=49
120772 Off ch=3 n=65 v=0
120888 Off ch=3 n=41 v=0
120960 On ch=3 n=60 v=48
120960 On ch=3 n=65 v=48
120960 On ch=3 n=53 v=48
120960 On ch=3 n=57 v=48
121144 Off ch=3 n=53 v=0
121152 On ch=3 n=41 v=48
121188 Off ch=3 n=60 v=0
121200 Off ch=3 n=57 v=0
121208 Off ch=3 n=65 v=0
121288 Off ch=3 n=41 v=0
121312 Par ch=3 c=64 v=0
121348 On ch=3 n=53 v=47
121348 On ch=3 n=60 v=47
121348 On ch=3 n=65 v=47
121348 On ch=3 n=57 v=47
121432 Par ch=3 c=64 v=127
121536 Off ch=3 n=53 v=0
121536 On ch=3 n=41 v=46
121560 Off ch=3 n=60 v=0
121564 Off ch=3 n=65 v=0
121572 Off ch=3 n=57 v=0
121736 On ch=3 n=60 v=45
121736 On ch=3 n=65 v=45
121736 On ch=3 n=57 v=45
121736 On ch=3 n=53 v=45
121764 Off ch=3 n=41 v=0
121892 Off ch=3 n=53 v=0
121908 Off ch=3 n=60 v=0
121924 Off ch=3 n=65 v=0
121924 On ch=3 n=41 v=45
121928 Off ch=3 n=57 v=0
122116 On ch=3 n=60 v=44
122116 On ch=3 n=65 v=44
122116 On ch=3 n=57 v=44
122116 On ch=3 n=53 v=44
122120 Off ch=3 n=41 v=0
122276 Off ch=3 n=53 v=0
122280 Off ch=3 n=60 v=0
122288 Off ch=3 n=65 v=0
122292 Off ch=3 n=57 v=0
122308 On ch=3 n=41 v=43
122492 Off ch=3 n=41 v=0
122500 On ch=3 n=60 v=43
122500 On ch=3 n=65 v=43
122500 On ch=3 n=57 v=43
122500 On ch=3 n=53 v=43
122672 Off ch=3 n=53 v=0
122684 Off ch=3 n=60 v=0
122692 On ch=3 n=41 v=42
122700 Off ch=3 n=57 v=0
122732 Off ch=3 n=65 v=0
122768 Off ch=3 n=41 v=0
122856 Par ch=3 c=64 v=0
122880 On ch=3 n=51 v=41
122880 On ch=3 n=55 v=41
122880 On ch=3 n=63 v=41
122880 On ch=3 n=58 v=41
122988 Par ch=3 c=64 v=127
123064 Off ch=3 n=58 v=0
123068 Off ch=3 n=55 v=0
123072 Off ch=3 n=63 v=0
123072 Off ch=3 n=51 v=0
123072 On ch=3 n=39 v=40
123264 Off ch=3 n=39 v=0
123264 On ch=3 n=58 v=40
123264 On ch=3 n=63 v=40
123264 On ch=3 n=55 v=40
123264 On ch=3 n=51 v=40
123432 Off ch=3 n=51 v=0
123436 Off ch=3 n=58 v=0
123440 Off ch=3 n=55 v=0
123452 Off ch=3 n=63 v=0
123456 On ch=3 n=39 v=39
123644 Off ch=3 n=39 v=0
123648 On ch=3 n=58 v=38
123648 On ch=3 n=63 v=38
123648 On ch=3 n=55 v=38
123648 On ch=3 n=51 v=38
123816 Off ch=3 n=51 v=0
123824 Off ch=3 n=58 v=0
123832 Off ch=3 n=55 v=0
123832 Off ch=3 n=63 v=0
123840 On ch=3 n=39 v=37
124032 On ch=3 n=58 v=37
124032 On ch=3 n=63 v=37
124032 On ch=3 n=55 v=37
124032 On ch=3 n=51 v=37
124044 Off ch=3 n=39 v=0
124208 Off ch=3 n=51 v=0
124224 On ch=3 n=39 v=36
124240 Off ch=3 n=63 v=0
124256 Off ch=3 n=58 v=0
124260 Off ch=3 n=55 v=0
124388 Par ch=3 c=64 v=0
124392 Off ch=3 n=39 v=0
124416 On ch=3 n=58 v=35
124416 On ch=3 n=46 v=35
124416 On ch=3 n=65 v=35
124416 On ch=3 n=62 v=35
124492 Par ch=3 c=64 v=127
124604 Off ch=3 n=62 v=0
124604 Off ch=3 n=65 v=0
124604 Off ch=3 n=58 v=0
124608 On ch=3 n=34 v=34
124612 Off ch=3 n=46 v=0
124800 On ch=3 n=58 v=34
124800 On ch=3 n=62 v=34
124800 On ch=3 n=46 v=34
124800 On ch=3 n=65 v=34
124808 Off ch=3 n=34 v=0
124980 Off ch=3 n=58 v=0
124988 Off ch=3 n=65 v=0
124988 Off ch=3 n=46 v=0
124988 Off ch=3 n=62 v=0
124992 On ch=3 n=34 v=33
125184 Off ch=3 n=34 v=0
125184 On ch=3 n=46 v=32
125184 On ch=3 n=58 v=32
125184 On ch=3 n=62 v=32
125184 On ch=3 n=65 v=32
125348 Off ch=3 n=62 v=0
125348 Off ch=3 n=58 v=0
125352 Off ch=3 n=46 v=0
125376 Off ch=3 n=65 v=0
125376 On ch=3 n=34 v=31
125568 On ch=3 n=62 v=31
125568 On ch=3 n=58 v=31
125568 On ch=3 n=65 v=31
125568 On ch=3 n=46 v=31
125580 Off ch=3 n=34 v=0
125736 Off ch=3 n=46 v=0
125748 Off ch=3 n=58 v=0
125760 On ch=3 n=34 v=30
125780 Off ch=3 n=62 v=0
125796 Off ch=3 n=65 v=0
125912 Off ch=3 n=34 v=0
125928 Par ch=3 c=64 v=0
125952 On ch=3 n=53 v=29
125952 On ch=3 n=60 v=29
125952 On ch=3 n=57 v=29
125952 On ch=3 n=65 v=29
125968 Par ch=3 c=64 v=127
126136 Off ch=3 n=60 v=0
126140 Off ch=3 n=57 v=0
126144 Off ch=3 n=65 v=0
126144 On ch=3 n=41 v=28
126148 Off ch=3 n=53 v=0
126332 Off ch=3 n=41 v=0
126336 On ch=3 n=60 v=28
126336 On ch=3 n=53 v=28
126336 On ch=3 n=65 v=28
126336 On ch=3 n=57 v=28
126500 Off ch=3 n=53 v=0
126524 Off ch=3 n=60 v=0
126528 On ch=3 n=41 v=27
126536 Off ch=3 n=57 v=0
126548 Off ch=3 n=65 v=0
126712 Off ch=3 n=41 v=0
126720 On ch=3 n=60 v=26
126720 On ch=3 n=65 v=26
126720 On ch=3 n=53 v=26
126720 On ch=3 n=57 v=26
126876 Off ch=3 n=53 v=0
126884 Off ch=3 n=60 v=0
126904 Off ch=3 n=57 v=0
126912 On ch=3 n=41 v=25
126916 Off ch=3 n=65 v=0
127032 Off ch=3 n=41 v=0
127104 On ch=3 n=60 v=25
127104 On ch=3 n=65 v=25
127104 On ch=3 n=53 v=25
127104 On ch=3 n=57 v=25
127288 Off ch=3 n=53 v=0
127296 On ch=3 n=41 v=24
127332 Off ch=3 n=60 v=0
127344 Off ch=3 n=57 v=0
127352 Off ch=3 n=65 v=0
127432 Off ch=3 n=41 v=0
127456 Par ch=3 c=64 v=0
127492 On ch=3 n=53 v=23
127492 On ch=3 n=60 v=23
127492 On ch=3 n=65 v=23
127492 On ch=3 n=57 v=23
127576 Par ch=3 c=64 v=127
127680 Off ch=3 n=53 v=0
127680 On ch=3 n=41 v=23
127704 Off ch=3 n=60 v=0
127708 Off ch=3 n=65 v=0
127716 Off ch=3 n=57 v=0
127880 On ch=3 n=60 v=22
127880 On ch=3 n=65 v=22
127880 On ch=3 n=57 v=22
127880 On ch=3 n=53 v=22
127908 Off ch=3 n=41 v=0
128036 Off ch=3 n=53 v=0
128052 Off ch=3 n=60 v=0
128068 Off ch=3 n=65 v=0
128068 On ch=3 n=41 v=21
128072 Off ch=3 n=57 v=0
128260 On ch=3 n=60 v=20
128260 On ch=3 n=65 v=20
128260 On ch=3 n=57 v=20
128260 On ch=3 n=53 v=20
128264 Off ch=3 n=41 v=0
128420 Off ch=3 n=53 v=0
128424 Off ch=3 n=60 v=0
128432 Off ch=3 n=65 v=0
128436 Off ch=3 n=57 v=0
128452 On ch=3 n=41 v=20
128636 Off ch=3 n=41 v=0
128644 On ch=3 n=60 v=19
128644 On ch=3 n=65 v=19
128644 On ch=3 n=57 v=19
128644 On ch=3 n=53 v=19
128816 Off ch=3 n=53 v=0
128828 Off ch=3 n=60 v=0
128836 On ch=3 n=41 v=18
128844 Off ch=3 n=57 v=0
128876 Off ch=3 n=65 v=0
128912 Off ch=3 n=41 v=0
129000 Par ch=3 c=64 v=0
129024 On ch=3 n=51 v=17
129024 On ch=3 n=55 v=17
129024 On ch=3 n=63 v=17
129024 On ch=3 n=58 v=17
129132 Par ch=3 c=64 v=127
129208 Off ch=3 n=58 v=0
129212 Off ch=3 n=55 v=0
129216 Off ch=3 n=63 v=0
129216 Off ch=3 n=51 v=0
129216 On ch=3 n=39 v=17
129408 Off ch=3 n=39 v=0
129408 On ch=3 n=58 v=16
129408 On ch=3 n=63 v=16
129408 On ch=3 n=55 v=16
129408 On ch=3 n=51 v=16
129576 Off ch=3 n=51 v=0
129580 Off ch=3 n=58 v=0
129584 Off ch=3 n=55 v=0
129596 Off ch=3 n=63 v=0
129600 On ch=3 n=39 v=15
129788 Off ch=3 n=39 v=0
129792 On ch=3 n=58 v=14
129792 On ch=3 n=63 v=14
129792 On ch=3 n=55 v=14
129792 On ch=3 n=51 v=14
129960 Off ch=3 n=51 v=0
129968 Off ch=3 n=58 v=0
129976 Off ch=3 n=55 v=0
129976 Off ch=3 n=63 v=0
129984 On ch=3 n=39 v=14
130176 On ch=3 n=58 v=13
130176 On ch=3 n=63 v=13
130176 On ch=3 n=55 v=13
130176 On ch=3 n=51 v=13
130188 Off ch=3 n=39 v=0
130352 Off ch=3 n=51 v=0
130368 On ch=3 n=39 v=12
130384 Off ch=3 n=63 v=0
130400 Off ch=3 n=58 v=0
130404 Off ch=3 n=55 v=0
130532 Par ch=3 c=64 v=0
130536 Off ch=3 n=39 v=0
130560 On ch=3 n=58 v=11
130560 On ch=3 n=46 v=11
130560 On ch=3 n=65 v=11
130560 On ch=3 n=62 v=11
130636 Par ch=3 c=64 v=127
130748 Off ch=3 n=62 v=0
130748 Off ch=3 n=65 v=0
130748 Off ch=3 n=58 v=0
130752 On ch=3 n=34 v=11
130756 Off ch=3 n=46 v=0
130944 On ch=3 n=58 v=10
130944 On ch=3 n=62 v=10
130944 On ch=3 n=46 v=10
130944 On ch=3 n=65 v=10
130952 Off ch=3 n=34 v=0
131124 Off ch=3 n=58 v=0
131132 Off ch=3 n=65 v=0
131132 Off ch=3 n=46 v=0
131132 Off ch=3 n=62 v=0
131136 On ch=3 n=34 v=9
131328 Off ch=3 n=34 v=0
131328 On ch=3 n=46 v=8
131328 On ch=3 n=58 v=8
131328 On ch=3 n=62 v=8
131328 On ch=3 n=65 v=8
131492 Off ch=3 n=62 v=0
131492 Off ch=3 n=58 v=0
131496 Off ch=3 n=46 v=0
131520 Off ch=3 n=65 v=0
131520 On ch=3 n=34 v=8
131712 On ch=3 n=62 v=7
131712 On ch=3 n=58 v=7
131712 On ch=3 n=65 v=7
131712 On ch=3 n=46 v=7
131724 Off ch=3 n=34 v=0
131880 Off ch=3 n=46 v=0
131892 Off ch=3 n=58 v=0
131904 On ch=3 n=34 v=6
131924 Off ch=3 n=62 v=0
131940 Off ch=3 n=65 v=0
132056 Off ch=3 n=34 v=0
132072 Par ch=3 c=64 v=0
132096 On ch=3 n=53 v=5
132096 On ch=3 n=60 v=5
132096 On ch=3 n=57 v=5
132096 On ch=3 n=65 v=5
132112 Par ch=3 c=64 v=127
132280 Off ch=3 n=60 v=0
132284 Off ch=3 n=57 v=0
132288 Off ch=3 n=65 v=0
132288 On ch=3 n=41 v=5
132292 Off ch=3 n=53 v=0
132476 Off ch=3 n=41 v=0
132480 On ch=3 n=60 v=4
132480 On ch=3 n=53 v=4
132480 On ch=3 n=65 v=4
132480 On ch=3 n=57 v=4
132644 Off ch=3 n=53 v=0
132668 Off ch=3 n=60 v=0
132672 On ch=3 n=41 v=3
132680 Off ch=3 n=57 v=0
132692 Off ch=3 n=65 v=0
132856 Off ch=3 n=41 v=0
132864 On ch=3 n=60 v=2
132864 On ch=3 n=65 v=2
132864 On ch=3 n=53 v=2
132864 On ch=3 n=57 v=2
133020 Off ch=3 n=53 v=0
133028 Off ch=3 n=60 v=0
133048 Off ch=3 n=57 v=0
133056 On ch=3 n=41 v=2
133060 Off ch=3 n=65 v=0
133176 Off ch=3 n=41 v=0
133248 On ch=3 n=60 v=1
133248 On ch=3 n=65 v=1
133248 On ch=3 n=53 v=1
133248 On ch=3 n=57 v=1
133432 Off ch=3 n=53 v=0
133440 On ch=3 n=41 v=1
133476 Off ch=3 n=60 v=0
133488 Off ch=3 n=57 v=0
133496 Off ch=3 n=65 v=0
133576 Off ch=3 n=41 v=0
133600 Par ch=3 c=64 v=0
133632 Meta TrkEnd
TrkEnd
MTrk
0 Meta TrkName "BASS DRUM"
0 Par ch=10 c=7 v=125
0 PrCh ch=10 p=127
26112 On ch=10 n=36 v=69
26208 Off ch=10 n=36 v=0
27648 On ch=10 n=36 v=80
27744 Off ch=10 n=36 v=0
28032 On ch=10 n=36 v=72
28128 Off ch=10 n=36 v=0
28416 On ch=10 n=36 v=87
28512 Off ch=10 n=36 v=0
28800 On ch=10 n=36 v=77
28896 Off ch=10 n=36 v=0
29184 On ch=10 n=36 v=80
29280 Off ch=10 n=36 v=0
29568 On ch=10 n=36 v=72
29664 Off ch=10 n=36 v=0
29952 On ch=10 n=36 v=87
30048 Off ch=10 n=36 v=0
30336 On ch=10 n=36 v=77
30432 Off ch=10 n=36 v=0
30720 On ch=10 n=36 v=80
30816 Off ch=10 n=36 v=0
31104 On ch=10 n=36 v=72
31200 Off ch=10 n=36 v=0
31488 On ch=10 n=36 v=87
31584 Off ch=10 n=36 v=0
31872 On ch=10 n=36 v=77
31968 Off ch=10 n=36 v=0
32256 On ch=10 n=36 v=80
32352 Off ch=10 n=36 v=0
32640 On ch=10 n=36 v=72
32736 Off ch=10 n=36 v=0
33024 On ch=10 n=36 v=50
33120 Off ch=10 n=36 v=0
33408 On ch=10 n=36 v=50
33504 Off ch=10 n=36 v=0
33792 On ch=10 n=36 v=87
33888 Off ch=10 n=36 v=0
34176 On ch=10 n=36 v=72
34272 Off ch=10 n=36 v=0
34560 On ch=10 n=36 v=82
34656 Off ch=10 n=36 v=0
34944 On ch=10 n=36 v=72
35040 Off ch=10 n=36 v=0
35328 On ch=10 n=36 v=80
35424 Off ch=10 n=36 v=0
35712 On ch=10 n=36 v=72
35808 Off ch=10 n=36 v=0
36096 On ch=10 n=36 v=87
36192 Off ch=10 n=36 v=0
36480 On ch=10 n=36 v=77
36576 Off ch=10 n=36 v=0
36864 On ch=10 n=36 v=80
36960 Off ch=10 n=36 v=0
37248 On ch=10 n=36 v=72
37344 Off ch=10 n=36 v=0
37632 On ch=10 n=36 v=87
37728 Off ch=10 n=36 v=0
38016 On ch=10 n=36 v=77
38112 Off ch=10 n=36 v=0
38400 On ch=10 n=36 v=80
38496 Off ch=10 n=36 v=0
38784 On ch=10 n=36 v=72
38880 Off ch=10 n=36 v=0
39168 On ch=10 n=36 v=87
39264 Off ch=10 n=36 v=0
39552 On ch=10 n=36 v=77
39648 Off ch=10 n=36 v=0
39936 On ch=10 n=36 v=80
40032 Off ch=10 n=36 v=0
40320 On ch=10 n=36 v=72
40416 Off ch=10 n=36 v=0
40704 On ch=10 n=36 v=76
40800 Off ch=10 n=36 v=0
41088 On ch=10 n=36 v=50
41184 Off ch=10 n=36 v=0
41472 On ch=10 n=36 v=88
41568 Off ch=10 n=36 v=0
41856 On ch=10 n=36 v=76
41952 Off ch=10 n=36 v=0
42240 On ch=10 n=36 v=88
42336 Off ch=10 n=36 v=0
42624 On ch=10 n=36 v=77
42720 Off ch=10 n=36 v=0
43008 On ch=10 n=36 v=81
43104 Off ch=10 n=36 v=0
43776 On ch=10 n=36 v=88
43872 Off ch=10 n=36 v=0
45312 On ch=10 n=36 v=80
45408 Off ch=10 n=36 v=0
45696 On ch=10 n=36 v=72
45792 Off ch=10 n=36 v=0
46080 On ch=10 n=36 v=72
46176 Off ch=10 n=36 v=0
46272 On ch=10 n=36 v=52
46368 Off ch=10 n=36 v=0
46464 On ch=10 n=36 v=72
46560 Off ch=10 n=36 v=0
46656 On ch=10 n=36 v=50
46752 Off ch=10 n=36 v=0
46848 On ch=10 n=36 v=80
46944 Off ch=10 n=36 v=0
47232 On ch=10 n=36 v=72
47328 Off ch=10 n=36 v=0
47616 On ch=10 n=36 v=72
47712 Off ch=10 n=36 v=0
47808 On ch=10 n=36 v=52
47904 Off ch=10 n=36 v=0
48000 On ch=10 n=36 v=72
48096 Off ch=10 n=36 v=0
48192 On ch=10 n=36 v=50
48288 Off ch=10 n=36 v=0
48384 On ch=10 n=36 v=80
48480 Off ch=10 n=36 v=0
48768 On ch=10 n=36 v=72
48864 Off ch=10 n=36 v=0
49152 On ch=10 n=36 v=72
49248 Off ch=10 n=36 v=0
49344 On ch=10 n=36 v=52
49440 Off ch=10 n=36 v=0
49536 On ch=10 n=36 v=72
49632 Off ch=10 n=36 v=0
49728 On ch=10 n=36 v=50
49824 Off ch=10 n=36 v=0
49920 On ch=10 n=36 v=80
50016 Off ch=10 n=36 v=0
50304 On ch=10 n=36 v=72
50400 Off ch=10 n=36 v=0
50688 On ch=10 n=36 v=72
50784 Off ch=10 n=36 v=0
51072 On ch=10 n=36 v=72
51168 Off ch=10 n=36 v=0
51456 On ch=10 n=36 v=80
51552 Off ch=10 n=36 v=0
51840 On ch=10 n=36 v=72
51936 Off ch=10 n=36 v=0
52224 On ch=10 n=36 v=72
52320 Off ch=10 n=36 v=0
52608 On ch=10 n=36 v=72
52704 Off ch=10 n=36 v=0
52992 On ch=10 n=36 v=80
53088 Off ch=10 n=36 v=0
53184 On ch=10 n=36 v=50
53280 Off ch=10 n=36 v=0
53376 On ch=10 n=36 v=72
53472 Off ch=10 n=36 v=0
53568 On ch=10 n=36 v=50
53664 Off ch=10 n=36 v=0
53760 On ch=10 n=36 v=72
53856 Off ch=10 n=36 v=0
54144 On ch=10 n=36 v=72
54240 Off ch=10 n=36 v=0
54528 On ch=10 n=36 v=80
54624 Off ch=10 n=36 v=0
54720 On ch=10 n=36 v=61
54816 Off ch=10 n=36 v=0
54912 On ch=10 n=36 v=72
55008 Off ch=10 n=36 v=0
55296 On ch=10 n=36 v=72
55392 Off ch=10 n=36 v=0
55680 On ch=10 n=36 v=72
55776 Off ch=10 n=36 v=0
56064 On ch=10 n=36 v=80
56160 Off ch=10 n=36 v=0
56256 On ch=10 n=36 v=50
56352 Off ch=10 n=36 v=0
56448 On ch=10 n=36 v=72
56544 Off ch=10 n=36 v=0
56640 On ch=10 n=36 v=60
56736 Off ch=10 n=36 v=0
56832 On ch=10 n=36 v=72
56928 Off ch=10 n=36 v=0
57216 On ch=10 n=36 v=52
57312 Off ch=10 n=36 v=0
57408 On ch=10 n=36 v=30
57504 Off ch=10 n=36 v=0
57600 On ch=10 n=36 v=72
57696 Off ch=10 n=36 v=0
57984 On ch=10 n=36 v=60
58080 Off ch=10 n=36 v=0
58368 On ch=10 n=36 v=48
58464 Off ch=10 n=36 v=0
58752 On ch=10 n=36 v=44
58848 Off ch=10 n=36 v=0
59136 On ch=10 n=36 v=80
59232 Off ch=10 n=36 v=0
59520 On ch=10 n=36 v=72
59616 Off ch=10 n=36 v=0
59904 On ch=10 n=36 v=87
60000 Off ch=10 n=36 v=0
60288 On ch=10 n=36 v=77
60384 Off ch=10 n=36 v=0
60672 On ch=10 n=36 v=80
60768 Off ch=10 n=36 v=0
61056 On ch=10 n=36 v=72
61152 Off ch=10 n=36 v=0
61440 On ch=10 n=36 v=87
61536 Off ch=10 n=36 v=0
61824 On ch=10 n=36 v=77
61920 Off ch=10 n=36 v=0
62208 On ch=10 n=36 v=80
62304 Off ch=10 n=36 v=0
62592 On ch=10 n=36 v=72
62688 Off ch=10 n=36 v=0
62976 On ch=10 n=36 v=87
63072 Off ch=10 n=36 v=0
63360 On ch=10 n=36 v=77
63456 Off ch=10 n=36 v=0
63744 On ch=10 n=36 v=80
63840 Off ch=10 n=36 v=0
64128 On ch=10 n=36 v=72
64224 Off ch=10 n=36 v=0
64512 On ch=10 n=36 v=50
64608 Off ch=10 n=36 v=0
64896 On ch=10 n=36 v=50
64992 Off ch=10 n=36 v=0
65280 On ch=10 n=36 v=87
65376 Off ch=10 n=36 v=0
65664 On ch=10 n=36 v=72
65760 Off ch=10 n=36 v=0
66048 On ch=10 n=36 v=82
66144 Off ch=10 n=36 v=0
66432 On ch=10 n=36 v=72
66528 Off ch=10 n=36 v=0
66816 On ch=10 n=36 v=80
66912 Off ch=10 n=36 v=0
67200 On ch=10 n=36 v=72
67296 Off ch=10 n=36 v=0
67584 On ch=10 n=36 v=87
67680 Off ch=10 n=36 v=0
67968 On ch=10 n=36 v=77
68064 Off ch=10 n=36 v=0
68352 On ch=10 n=36 v=80
68448 Off ch=10 n=36 v=0
68736 On ch=10 n=36 v=72
68832 Off ch=10 n=36 v=0
69120 On ch=10 n=36 v=87
69216 Off ch=10 n=36 v=0
69504 On ch=10 n=36 v=77
69600 Off ch=10 n=36 v=0
69888 On ch=10 n=36 v=80
69984 Off ch=10 n=36 v=0
70272 On ch=10 n=36 v=72
70368 Off ch=10 n=36 v=0
70656 On ch=10 n=36 v=87
70752 Off ch=10 n=36 v=0
71040 On ch=10 n=36 v=77
71136 Off ch=10 n=36 v=0
71424 On ch=10 n=36 v=80
71520 Off ch=10 n=36 v=0
71808 On ch=10 n=36 v=72
71904 Off ch=10 n=36 v=0
72192 On ch=10 n=36 v=76
72288 Off ch=10 n=36 v=0
72576 On ch=10 n=36 v=50
72672 Off ch=10 n=36 v=0
72960 On ch=10 n=36 v=88
73056 Off ch=10 n=36 v=0
73344 On ch=10 n=36 v=76
73440 Off ch=10 n=36 v=0
73728 On ch=10 n=36 v=88
73824 Off ch=10 n=36 v=0
74112 On ch=10 n=36 v=77
74208 Off ch=10 n=36 v=0
74496 On ch=10 n=36 v=81
74592 Off ch=10 n=36 v=0
75264 On ch=10 n=36 v=88
75360 Off ch=10 n=36 v=0
76800 On ch=10 n=36 v=80
76896 Off ch=10 n=36 v=0
77184 On ch=10 n=36 v=72
77280 Off ch=10 n=36 v=0
77568 On ch=10 n=36 v=72
77664 Off ch=10 n=36 v=0
77760 On ch=10 n=36 v=52
77856 Off ch=10 n=36 v=0
77952 On ch=10 n=36 v=72
78048 Off ch=10 n=36 v=0
78144 On ch=10 n=36 v=50
78240 Off ch=10 n=36 v=0
78336 On ch=10 n=36 v=80
78432 Off ch=10 n=36 v=0
78720 On ch=10 n=36 v=72
78816 Off ch=10 n=36 v=0
79104 On ch=10 n=36 v=72
79200 Off ch=10 n=36 v=0
79296 On ch=10 n=36 v=52
79392 Off ch=10 n=36 v=0
79488 On ch=10 n=36 v=72
79584 Off ch=10 n=36 v=0
79680 On ch=10 n=36 v=50
79776 Off ch=10 n=36 v=0
79872 On ch=10 n=36 v=80
79968 Off ch=10 n=36 v=0
80256 On ch=10 n=36 v=72
80352 Off ch=10 n=36 v=0
80640 On ch=10 n=36 v=72
80736 Off ch=10 n=36 v=0
80832 On ch=10 n=36 v=52
80928 Off ch=10 n=36 v=0
81024 On ch=10 n=36 v=72
81120 Off ch=10 n=36 v=0
81216 On ch=10 n=36 v=50
81312 Off ch=10 n=36 v=0
81408 On ch=10 n=36 v=80
81504 Off ch=10 n=36 v=0
81792 On ch=10 n=36 v=72
81888 Off ch=10 n=36 v=0
82176 On ch=10 n=36 v=72
82272 Off ch=10 n=36 v=0
82560 On ch=10 n=36 v=72
82656 Off ch=10 n=36 v=0
82944 On ch=10 n=36 v=80
83040 Off ch=10 n=36 v=0
83328 On ch=10 n=36 v=72
83424 Off ch=10 n=36 v=0
83712 On ch=10 n=36 v=72
83808 Off ch=10 n=36 v=0
84096 On ch=10 n=36 v=72
84192 Off ch=10 n=36 v=0
84480 On ch=10 n=36 v=80
84576 Off ch=10 n=36 v=0
84672 On ch=10 n=36 v=50
84768 Off ch=10 n=36 v=0
84864 On ch=10 n=36 v=72
84960 Off ch=10 n=36 v=0
85056 On ch=10 n=36 v=50
85152 Off ch=10 n=36 v=0
85248 On ch=10 n=36 v=72
85344 Off ch=10 n=36 v=0
85632 On ch=10 n=36 v=72
85728 Off ch=10 n=36 v=0
86016 On ch=10 n=36 v=80
86112 Off ch=10 n=36 v=0
86208 On ch=10 n=36 v=61
86304 Off ch=10 n=36 v=0
86400 On ch=10 n=36 v=72
86496 Off ch=10 n=36 v=0
86784 On ch=10 n=36 v=72
86880 Off ch=10 n=36 v=0
87168 On ch=10 n=36 v=72
87264 Off ch=10 n=36 v=0
87552 On ch=10 n=36 v=80
87648 Off ch=10 n=36 v=0
87744 On ch=10 n=36 v=44
87840 Off ch=10 n=36 v=0
87936 On ch=10 n=36 v=72
88032 Off ch=10 n=36 v=0
88128 On ch=10 n=36 v=40
88224 Off ch=10 n=36 v=0
88320 On ch=10 n=36 v=30
88416 Off ch=10 n=36 v=0
88704 On ch=10 n=36 v=30
88800 Off ch=10 n=36 v=0
89088 On ch=10 n=36 v=30
89184 Off ch=10 n=36 v=0
89472 On ch=10 n=36 v=30
89568 Off ch=10 n=36 v=0
89856 On ch=10 n=36 v=30
89952 Off ch=10 n=36 v=0
90624 On ch=10 n=36 v=80
90720 Off ch=10 n=36 v=0
91008 On ch=10 n=36 v=53
91104 Off ch=10 n=36 v=0
91392 On ch=10 n=36 v=88
91488 Off ch=10 n=36 v=0
91776 On ch=10 n=36 v=56
91872 Off ch=10 n=36 v=0
92160 On ch=10 n=36 v=80
92256 Off ch=10 n=36 v=0
92544 On ch=10 n=36 v=53
92640 Off ch=10 n=36 v=0
92928 On ch=10 n=36 v=88
93024 Off ch=10 n=36 v=0
93312 On ch=10 n=36 v=56
93408 Off ch=10 n=36 v=0
93696 On ch=10 n=36 v=80
93792 Off ch=10 n=36 v=0
94080 On ch=10 n=36 v=53
94176 Off ch=10 n=36 v=0
94464 On ch=10 n=36 v=88
94560 Off ch=10 n=36 v=0
94848 On ch=10 n=36 v=56
94944 Off ch=10 n=36 v=0
95232 On ch=10 n=36 v=80
95328 Off ch=10 n=36 v=0
95616 On ch=10 n=36 v=53
95712 Off ch=10 n=36 v=0
96000 On ch=10 n=36 v=88
96096 Off ch=10 n=36 v=0
96384 On ch=10 n=36 v=56
96480 Off ch=10 n=36 v=0
96768 On ch=10 n=36 v=80
96864 Off ch=10 n=36 v=0
97152 On ch=10 n=36 v=53
97248 Off ch=10 n=36 v=0
97536 On ch=10 n=36 v=88
97632 Off ch=10 n=36 v=0
97920 On ch=10 n=36 v=56
98016 Off ch=10 n=36 v=0
98304 On ch=10 n=36 v=80
98400 Off ch=10 n=36 v=0
98688 On ch=10 n=36 v=53
98784 Off ch=10 n=36 v=0
99072 On ch=10 n=36 v=88
99168 Off ch=10 n=36 v=0
99456 On ch=10 n=36 v=56
99552 Off ch=10 n=36 v=0
99840 On ch=10 n=36 v=80
99936 Off ch=10 n=36 v=0
100224 On ch=10 n=36 v=53
100320 Off ch=10 n=36 v=0
100608 On ch=10 n=36 v=88
100704 Off ch=10 n=36 v=0
100992 On ch=10 n=36 v=56
101088 Off ch=10 n=36 v=0
101376 On ch=10 n=36 v=80
101472 Off ch=10 n=36 v=0
101760 On ch=10 n=36 v=53
101856 Off ch=10 n=36 v=0
102144 On ch=10 n=36 v=88
102240 Off ch=10 n=36 v=0
102528 On ch=10 n=36 v=56
102624 Off ch=10 n=36 v=0
102912 On ch=10 n=36 v=80
103008 Off ch=10 n=36 v=0
103296 On ch=10 n=36 v=53
103392 Off ch=10 n=36 v=0
103680 On ch=10 n=36 v=88
103776 Off ch=10 n=36 v=0
104064 On ch=10 n=36 v=56
104160 Off ch=10 n=36 v=0
104448 On ch=10 n=36 v=80
104544 Off ch=10 n=36 v=0
104832 On ch=10 n=36 v=53
104928 Off ch=10 n=36 v=0
105216 On ch=10 n=36 v=88
105312 Off ch=10 n=36 v=0
105600 On ch=10 n=36 v=56
105696 Off ch=10 n=36 v=0
105984 On ch=10 n=36 v=80
106080 Off ch=10 n=36 v=0
106368 On ch=10 n=36 v=53
106464 Off ch=10 n=36 v=0
106752 On ch=10 n=36 v=88
106848 Off ch=10 n=36 v=0
107136 On ch=10 n=36 v=56
107232 Off ch=10 n=36 v=0
107520 On ch=10 n=36 v=80
107616 Off ch=10 n=36 v=0
107904 On ch=10 n=36 v=53
108000 Off ch=10 n=36 v=0
108288 On ch=10 n=36 v=88
108384 Off ch=10 n=36 v=0
108672 On ch=10 n=36 v=56
108768 Off ch=10 n=36 v=0
109056 On ch=10 n=36 v=80
109152 Off ch=10 n=36 v=0
109440 On ch=10 n=36 v=53
109536 Off ch=10 n=36 v=0
109824 On ch=10 n=36 v=88
109920 Off ch=10 n=36 v=0
110208 On ch=10 n=36 v=56
110304 Off ch=10 n=36 v=0
110592 On ch=10 n=36 v=80
110688 Off ch=10 n=36 v=0
110976 On ch=10 n=36 v=53
111072 Off ch=10 n=36 v=0
111360 On ch=10 n=36 v=88
111456 Off ch=10 n=36 v=0
111744 On ch=10 n=36 v=56
111840 Off ch=10 n=36 v=0
112128 On ch=10 n=36 v=80
112224 Off ch=10 n=36 v=0
112512 On ch=10 n=36 v=53
112608 Off ch=10 n=36 v=0
112896 On ch=10 n=36 v=88
112992 Off ch=10 n=36 v=0
113280 On ch=10 n=36 v=56
113376 Off ch=10 n=36 v=0
113664 On ch=10 n=36 v=75
113760 Off ch=10 n=36 v=0
114048 On ch=10 n=36 v=74
114144 Off ch=10 n=36 v=0
114432 On ch=10 n=36 v=72
114528 Off ch=10 n=36 v=0
114816 On ch=10 n=36 v=71
114912 Off ch=10 n=36 v=0
115200 On ch=10 n=36 v=69
115296 Off ch=10 n=36 v=0
115584 On ch=10 n=36 v=68
115680 Off ch=10 n=36 v=0
115968 On ch=10 n=36 v=66
116064 Off ch=10 n=36 v=0
116352 On ch=10 n=36 v=65
116448 Off ch=10 n=36 v=0
116736 On ch=10 n=36 v=63
116832 Off ch=10 n=36 v=0
117120 On ch=10 n=36 v=62
117216 Off ch=10 n=36 v=0
117504 On ch=10 n=36 v=60
117600 Off ch=10 n=36 v=0
117888 On ch=10 n=36 v=59
117984 Off ch=10 n=36 v=0
118272 On ch=10 n=36 v=58
118368 Off ch=10 n=36 v=0
118656 On ch=10 n=36 v=56
118752 Off ch=10 n=36 v=0
119040 On ch=10 n=36 v=55
119136 Off ch=10 n=36 v=0
119424 On ch=10 n=36 v=53
119520 Off ch=10 n=36 v=0
119808 On ch=10 n=36 v=52
119904 Off ch=10 n=36 v=0
120192 On ch=10 n=36 v=50
120288 Off ch=10 n=36 v=0
120576 On ch=10 n=36 v=49
120672 Off ch=10 n=36 v=0
120960 On ch=10 n=36 v=47
121056 Off ch=10 n=36 v=0
121344 On ch=10 n=36 v=46
121440 Off ch=10 n=36 v=0
121728 On ch=10 n=36 v=44
121824 Off ch=10 n=36 v=0
122112 On ch=10 n=36 v=43
122208 Off ch=10 n=36 v=0
122496 On ch=10 n=36 v=41
122592 Off ch=10 n=36 v=0
122880 On ch=10 n=36 v=40
122976 Off ch=10 n=36 v=0
123264 On ch=10 n=36 v=38
123360 Off ch=10 n=36 v=0
123648 On ch=10 n=36 v=37
123744 Off ch=10 n=36 v=0
124032 On ch=10 n=36 v=35
124128 Off ch=10 n=36 v=0
124416 On ch=10 n=36 v=34
124512 Off ch=10 n=36 v=0
124800 On ch=10 n=36 v=33
124896 Off ch=10 n=36 v=0
125184 On ch=10 n=36 v=31
125280 Off ch=10 n=36 v=0
125568 On ch=10 n=36 v=30
125664 Off ch=10 n=36 v=0
125952 On ch=10 n=36 v=28
126048 Off ch=10 n=36 v=0
126336 On ch=10 n=36 v=27
126432 Off ch=10 n=36 v=0
126720 On ch=10 n=36 v=25
126816 Off ch=10 n=36 v=0
127104 On ch=10 n=36 v=24
127200 Off ch=10 n=36 v=0
127488 On ch=10 n=36 v=22
127584 Off ch=10 n=36 v=0
127872 On ch=10 n=36 v=21
127968 Off ch=10 n=36 v=0
128256 On ch=10 n=36 v=19
128352 Off ch=10 n=36 v=0
128640 On ch=10 n=36 v=18
128736 Off ch=10 n=36 v=0
129024 On ch=10 n=36 v=16
129120 Off ch=10 n=36 v=0
129408 On ch=10 n=36 v=15
129504 Off ch=10 n=36 v=0
129792 On ch=10 n=36 v=13
129888 Off ch=10 n=36 v=0
130176 On ch=10 n=36 v=12
130272 Off ch=10 n=36 v=0
130560 On ch=10 n=36 v=11
130656 Off ch=10 n=36 v=0
130944 On ch=10 n=36 v=9
131040 Off ch=10 n=36 v=0
131328 On ch=10 n=36 v=8
131424 Off ch=10 n=36 v=0
131712 On ch=10 n=36 v=6
131808 Off ch=10 n=36 v=0
132096 On ch=10 n=36 v=5
132192 Off ch=10 n=36 v=0
132480 On ch=10 n=36 v=3
132576 Off ch=10 n=36 v=0
132864 On ch=10 n=36 v=2
132960 Off ch=10 n=36 v=0
133248 On ch=10 n=36 v=1
133344 Off ch=10 n=36 v=0
133632 Meta TrkEnd
TrkEnd
MTrk
0 Meta TrkName "SNARE DRUM"
26496 On ch=10 n=38 v=56
26592 Off ch=10 n=38 v=0
27456 On ch=10 n=38 v=48
27552 Off ch=10 n=38 v=0
28032 On ch=10 n=38 v=72
28128 Off ch=10 n=38 v=0
28800 On ch=10 n=38 v=72
28896 Off ch=10 n=38 v=0
29568 On ch=10 n=38 v=72
29664 Off ch=10 n=38 v=0
30336 On ch=10 n=38 v=72
30432 Off ch=10 n=38 v=0
31104 On ch=10 n=38 v=72
31200 Off ch=10 n=38 v=0
31872 On ch=10 n=38 v=72
31968 Off ch=10 n=38 v=0
32640 On ch=10 n=38 v=72
32736 Off ch=10 n=38 v=0
33216 On ch=10 n=38 v=40
33312 Off ch=10 n=38 v=0
33408 On ch=10 n=38 v=76
33504 Off ch=10 n=38 v=0
33552 On ch=10 n=38 v=48
33600 Off ch=10 n=38 v=0
33600 On ch=10 n=38 v=84
33648 Off ch=10 n=38 v=0
34176 On ch=10 n=38 v=72
34272 Off ch=10 n=38 v=0
34944 On ch=10 n=38 v=72
35040 Off ch=10 n=38 v=0
35712 On ch=10 n=38 v=72
35808 Off ch=10 n=38 v=0
36480 On ch=10 n=38 v=72
36576 Off ch=10 n=38 v=0
37248 On ch=10 n=38 v=72
37344 Off ch=10 n=38 v=0
38016 On ch=10 n=38 v=72
38112 Off ch=10 n=38 v=0
38784 On ch=10 n=38 v=72
38880 Off ch=10 n=38 v=0
39552 On ch=10 n=38 v=72
39648 Off ch=10 n=38 v=0
40320 On ch=10 n=38 v=72
40416 Off ch=10 n=38 v=0
40896 On ch=10 n=38 v=40
40992 Off ch=10 n=38 v=0
41856 On ch=10 n=38 v=72
41952 Off ch=10 n=38 v=0
42624 On ch=10 n=38 v=72
42720 Off ch=10 n=38 v=0
44736 On ch=10 n=38 v=32
44832 Off ch=10 n=38 v=0
45696 On ch=10 n=38 v=48
45792 Off ch=10 n=38 v=0
46464 On ch=10 n=38 v=50
46560 Off ch=10 n=38 v=0
47232 On ch=10 n=38 v=48
47328 Off ch=10 n=38 v=0
48000 On ch=10 n=38 v=50
48096 Off ch=10 n=38 v=0
48768 On ch=10 n=38 v=48
48864 Off ch=10 n=38 v=0
49536 On ch=10 n=38 v=50
49632 Off ch=10 n=38 v=0
50304 On ch=10 n=38 v=48
50400 Off ch=10 n=38 v=0
50688 On ch=10 n=38 v=30
50752 Off ch=10 n=38 v=0
50752 On ch=10 n=38 v=30
50784 Off ch=10 n=38 v=0
50816 On ch=10 n=38 v=30
50848 Off ch=10 n=38 v=0
50880 On ch=10 n=38 v=30
50912 Off ch=10 n=38 v=0
51840 On ch=10 n=38 v=48
51936 Off ch=10 n=38 v=0
52608 On ch=10 n=38 v=50
52704 Off ch=10 n=38 v=0
53376 On ch=10 n=38 v=48
53472 Off ch=10 n=38 v=0
54144 On ch=10 n=38 v=50
54240 Off ch=10 n=38 v=0
54912 On ch=10 n=38 v=48
55008 Off ch=10 n=38 v=0
55680 On ch=10 n=38 v=50
55776 Off ch=10 n=38 v=0
56448 On ch=10 n=38 v=48
56544 Off ch=10 n=38 v=0
57984 On ch=10 n=38 v=56
58080 Off ch=10 n=38 v=0
59520 On ch=10 n=38 v=72
59616 Off ch=10 n=38 v=0
60288 On ch=10 n=38 v=72
60384 Off ch=10 n=38 v=0
61056 On ch=10 n=38 v=72
61152 Off ch=10 n=38 v=0
61824 On ch=10 n=38 v=72
61920 Off ch=10 n=38 v=0
62592 On ch=10 n=38 v=72
62688 Off ch=10 n=38 v=0
63360 On ch=10 n=38 v=72
63456 Off ch=10 n=38 v=0
64128 On ch=10 n=38 v=72
64224 Off ch=10 n=38 v=0
64704 On ch=10 n=38 v=30
64800 Off ch=10 n=38 v=0
64896 On ch=10 n=38 v=30
64992 Off ch=10 n=38 v=0
65088 On ch=10 n=38 v=30
65184 Off ch=10 n=38 v=0
65664 On ch=10 n=38 v=72
65760 Off ch=10 n=38 v=0
66432 On ch=10 n=38 v=72
66528 Off ch=10 n=38 v=0
67200 On ch=10 n=38 v=72
67296 Off ch=10 n=38 v=0
67968 On ch=10 n=38 v=72
68064 Off ch=10 n=38 v=0
68736 On ch=10 n=38 v=72
68832 Off ch=10 n=38 v=0
69504 On ch=10 n=38 v=72
69600 Off ch=10 n=38 v=0
70272 On ch=10 n=38 v=72
70368 Off ch=10 n=38 v=0
71040 On ch=10 n=38 v=72
71136 Off ch=10 n=38 v=0
71808 On ch=10 n=38 v=72
71904 Off ch=10 n=38 v=0
72384 On ch=10 n=38 v=40
72480 Off ch=10 n=38 v=0
73344 On ch=10 n=38 v=72
73440 Off ch=10 n=38 v=0
74112 On ch=10 n=38 v=72
74208 Off ch=10 n=38 v=0
77184 On ch=10 n=38 v=48
77280 Off ch=10 n=38 v=0
77952 On ch=10 n=38 v=50
78048 Off ch=10 n=38 v=0
78720 On ch=10 n=38 v=48
78816 Off ch=10 n=38 v=0
79488 On ch=10 n=38 v=50
79584 Off ch=10 n=38 v=0
80256 On ch=10 n=38 v=48
80352 Off ch=10 n=38 v=0
81024 On ch=10 n=38 v=50
81120 Off ch=10 n=38 v=0
81792 On ch=10 n=38 v=48
81888 Off ch=10 n=38 v=0
82176 On ch=10 n=38 v=30
82240 Off ch=10 n=38 v=0
82240 On ch=10 n=38 v=30
82272 Off ch=10 n=38 v=0
82304 On ch=10 n=38 v=30
82336 Off ch=10 n=38 v=0
82368 On ch=10 n=38 v=30
82400 Off ch=10 n=38 v=0
83328 On ch=10 n=38 v=48
83424 Off ch=10 n=38 v=0
84096 On ch=10 n=38 v=50
84192 Off ch=10 n=38 v=0
84864 On ch=10 n=38 v=48
84960 Off ch=10 n=38 v=0
85632 On ch=10 n=38 v=50
85728 Off ch=10 n=38 v=0
86400 On ch=10 n=38 v=48
86496 Off ch=10 n=38 v=0
87168 On ch=10 n=38 v=50
87264 Off ch=10 n=38 v=0
87936 On ch=10 n=38 v=48
88032 Off ch=10 n=38 v=0
91008 On ch=10 n=38 v=62
91104 Off ch=10 n=38 v=0
91776 On ch=10 n=38 v=56
91872 Off ch=10 n=38 v=0
92544 On ch=10 n=38 v=62
92640 Off ch=10 n=38 v=0
93312 On ch=10 n=38 v=56
93408 Off ch=10 n=38 v=0
94080 On ch=10 n=38 v=62
94176 Off ch=10 n=38 v=0
94848 On ch=10 n=38 v=56
94944 Off ch=10 n=38 v=0
95616 On ch=10 n=38 v=62
95712 Off ch=10 n=38 v=0
96192 On ch=10 n=38 v=67
96288 Off ch=10 n=38 v=0
96384 On ch=10 n=38 v=58
96480 Off ch=10 n=38 v=0
96480 On ch=10 n=38 v=56
96576 Off ch=10 n=38 v=0
96576 On ch=10 n=38 v=58
96672 Off ch=10 n=38 v=0
97152 On ch=10 n=38 v=62
97248 Off ch=10 n=38 v=0
97920 On ch=10 n=38 v=56
98016 Off ch=10 n=38 v=0
98688 On ch=10 n=38 v=62
98784 Off ch=10 n=38 v=0
99456 On ch=10 n=38 v=56
99552 Off ch=10 n=38 v=0
100224 On ch=10 n=38 v=62
100320 Off ch=10 n=38 v=0
100992 On ch=10 n=38 v=56
101088 Off ch=10 n=38 v=0
101760 On ch=10 n=38 v=62
101856 Off ch=10 n=38 v=0
102336 On ch=10 n=38 v=67
102432 Off ch=10 n=38 v=0
102528 On ch=10 n=38 v=58
102624 Off ch=10 n=38 v=0
102624 On ch=10 n=38 v=56
102720 Off ch=10 n=38 v=0
102720 On ch=10 n=38 v=58
102816 Off ch=10 n=38 v=0
103296 On ch=10 n=38 v=62
103392 Off ch=10 n=38 v=0
104064 On ch=10 n=38 v=56
104160 Off ch=10 n=38 v=0
104832 On ch=10 n=38 v=62
104928 Off ch=10 n=38 v=0
105600 On ch=10 n=38 v=56
105696 Off ch=10 n=38 v=0
106368 On ch=10 n=38 v=62
106464 Off ch=10 n=38 v=0
107136 On ch=10 n=38 v=56
107232 Off ch=10 n=38 v=0
107904 On ch=10 n=38 v=62
108000 Off ch=10 n=38 v=0
108480 On ch=10 n=38 v=67
108576 Off ch=10 n=38 v=0
108672 On ch=10 n=38 v=58
108768 Off ch=10 n=38 v=0
108768 On ch=10 n=38 v=56
108864 Off ch=10 n=38 v=0
108864 On ch=10 n=38 v=58
108960 Off ch=10 n=38 v=0
109440 On ch=10 n=38 v=62
109536 Off ch=10 n=38 v=0
110208 On ch=10 n=38 v=56
110304 Off ch=10 n=38 v=0
110976 On ch=10 n=38 v=62
111072 Off ch=10 n=38 v=0
111744 On ch=10 n=38 v=56
111840 Off ch=10 n=38 v=0
112512 On ch=10 n=38 v=62
112608 Off ch=10 n=38 v=0
113280 On ch=10 n=38 v=56
113376 Off ch=10 n=38 v=0
114048 On ch=10 n=38 v=62
114144 Off ch=10 n=38 v=0
114624 On ch=10 n=38 v=61
114720 Off ch=10 n=38 v=0
114816 On ch=10 n=38 v=60
114912 Off ch=10 n=38 v=0
114912 On ch=10 n=38 v=60
115008 Off ch=10 n=38 v=0
115008 On ch=10 n=38 v=59
115104 Off ch=10 n=38 v=0
115584 On ch=10 n=38 v=58
115680 Off ch=10 n=38 v=0
116352 On ch=10 n=38 v=55
116448 Off ch=10 n=38 v=0
117120 On ch=10 n=38 v=53
117216 Off ch=10 n=38 v=0
117888 On ch=10 n=38 v=50
117984 Off ch=10 n=38 v=0
118656 On ch=10 n=38 v=48
118752 Off ch=10 n=38 v=0
119424 On ch=10 n=38 v=45
119520 Off ch=10 n=38 v=0
120192 On ch=10 n=38 v=43
120288 Off ch=10 n=38 v=0
120768 On ch=10 n=38 v=41
120864 Off ch=10 n=38 v=0
120960 On ch=10 n=38 v=40
121056 Off ch=10 n=38 v=0
121056 On ch=10 n=38 v=40
121152 Off ch=10 n=38 v=0
121152 On ch=10 n=38 v=40
121248 Off ch=10 n=38 v=0
121728 On ch=10 n=38 v=38
121824 Off ch=10 n=38 v=0
122496 On ch=10 n=38 v=35
122592 Off ch=10 n=38 v=0
123264 On ch=10 n=38 v=33
123360 Off ch=10 n=38 v=0
124032 On ch=10 n=38 v=31
124128 Off ch=10 n=38 v=0
124800 On ch=10 n=38 v=28
124896 Off ch=10 n=38 v=0
125568 On ch=10 n=38 v=26
125664 Off ch=10 n=38 v=0
126336 On ch=10 n=38 v=23
126432 Off ch=10 n=38 v=0
126912 On ch=10 n=38 v=21
127008 Off ch=10 n=38 v=0
127104 On ch=10 n=38 v=21
127200 Off ch=10 n=38 v=0
127200 On ch=10 n=38 v=20
127296 Off ch=10 n=38 v=0
127296 On ch=10 n=38 v=20
127392 Off ch=10 n=38 v=0
127872 On ch=10 n=38 v=18
127968 Off ch=10 n=38 v=0
128640 On ch=10 n=38 v=16
128736 Off ch=10 n=38 v=0
129408 On ch=10 n=38 v=13
129504 Off ch=10 n=38 v=0
130176 On ch=10 n=38 v=11
130272 Off ch=10 n=38 v=0
130944 On ch=10 n=38 v=8
131040 Off ch=10 n=38 v=0
131712 On ch=10 n=38 v=6
131808 Off ch=10 n=38 v=0
132480 On ch=10 n=38 v=3
132576 Off ch=10 n=38 v=0
133056 On ch=10 n=38 v=2
133152 Off ch=10 n=38 v=0
133248 On ch=10 n=38 v=1
133344 Off ch=10 n=38 v=0
133344 On ch=10 n=38 v=1
133440 Off ch=10 n=38 v=0
133440 On ch=10 n=38 v=1
133536 Off ch=10 n=38 v=0
133632 Meta TrkEnd
TrkEnd
MTrk
0 Meta TrkName "CLOSED H.H"
45312 On ch=10 n=42 v=50
45408 Off ch=10 n=42 v=0
45504 On ch=10 n=42 v=50
45600 Off ch=10 n=42 v=0
45696 On ch=10 n=42 v=50
45792 Off ch=10 n=42 v=0
45888 On ch=10 n=42 v=50
45984 Off ch=10 n=42 v=0
46080 On ch=10 n=42 v=50
46176 Off ch=10 n=42 v=0
46272 On ch=10 n=42 v=50
46368 Off ch=10 n=42 v=0
46464 On ch=10 n=42 v=50
46560 Off ch=10 n=42 v=0
46656 On ch=10 n=42 v=50
46752 Off ch=10 n=42 v=0
46848 On ch=10 n=42 v=50
46944 Off ch=10 n=42 v=0
47040 On ch=10 n=42 v=50
47136 Off ch=10 n=42 v=0
47232 On ch=10 n=42 v=50
47328 Off ch=10 n=42 v=0
47424 On ch=10 n=42 v=50
47520 Off ch=10 n=42 v=0
47616 On ch=10 n=42 v=50
47712 Off ch=10 n=42 v=0
47808 On ch=10 n=42 v=50
47904 Off ch=10 n=42 v=0
48000 On ch=10 n=42 v=50
48096 Off ch=10 n=42 v=0
48192 On ch=10 n=42 v=50
48288 Off ch=10 n=42 v=0
48384 On ch=10 n=42 v=50
48480 Off ch=10 n=42 v=0
48576 On ch=10 n=42 v=50
48672 Off ch=10 n=42 v=0
48768 On ch=10 n=42 v=50
48864 Off ch=10 n=42 v=0
48960 On ch=10 n=42 v=50
49056 Off ch=10 n=42 v=0
49152 On ch=10 n=42 v=50
49248 Off ch=10 n=42 v=0
49344 On ch=10 n=42 v=50
49440 Off ch=10 n=42 v=0
49536 On ch=10 n=42 v=50
49632 Off ch=10 n=42 v=0
49728 On ch=10 n=42 v=50
49824 Off ch=10 n=42 v=0
49920 On ch=10 n=42 v=50
50016 Off ch=10 n=42 v=0
50112 On ch=10 n=42 v=50
50208 Off ch=10 n=42 v=0
50304 On ch=10 n=42 v=50
50400 Off ch=10 n=42 v=0
50496 On ch=10 n=46 v=30
50592 Off ch=10 n=46 v=0
51456 On ch=10 n=42 v=50
51552 Off ch=10 n=42 v=0
51648 On ch=10 n=42 v=50
51744 Off ch=10 n=42 v=0
51840 On ch=10 n=42 v=50
51936 Off ch=10 n=42 v=0
52032 On ch=10 n=42 v=50
52128 Off ch=10 n=42 v=0
52224 On ch=10 n=42 v=50
52320 Off ch=10 n=42 v=0
52416 On ch=10 n=42 v=50
52512 Off ch=10 n=42 v=0
52608 On ch=10 n=42 v=50
52704 Off ch=10 n=42 v=0
52800 On ch=10 n=42 v=50
52896 Off ch=10 n=42 v=0
52992 On ch=10 n=42 v=50
53088 Off ch=10 n=42 v=0
53184 On ch=10 n=42 v=50
53280 Off ch=10 n=42 v=0
53376 On ch=10 n=42 v=50
53472 Off ch=10 n=42 v=0
53568 On ch=10 n=42 v=50
53664 Off ch=10 n=42 v=0
53760 On ch=10 n=42 v=50
53856 Off ch=10 n=42 v=0
53952 On ch=10 n=42 v=50
54048 Off ch=10 n=42 v=0
54144 On ch=10 n=42 v=50
54240 Off ch=10 n=42 v=0
54336 On ch=10 n=42 v=50
54432 Off ch=10 n=42 v=0
54528 On ch=10 n=42 v=50
54624 Off ch=10 n=42 v=0
54720 On ch=10 n=42 v=50
54816 Off ch=10 n=42 v=0
54912 On ch=10 n=42 v=50
55008 Off ch=10 n=42 v=0
55104 On ch=10 n=42 v=50
55200 Off ch=10 n=42 v=0
55296 On ch=10 n=42 v=50
55392 Off ch=10 n=42 v=0
55488 On ch=10 n=42 v=50
55584 Off ch=10 n=42 v=0
55680 On ch=10 n=42 v=50
55776 Off ch=10 n=42 v=0
55872 On ch=10 n=42 v=50
55968 Off ch=10 n=42 v=0
56064 On ch=10 n=42 v=50
56160 Off ch=10 n=42 v=0
56256 On ch=10 n=42 v=50
56352 Off ch=10 n=42 v=0
56448 On ch=10 n=44 v=32
56544 Off ch=10 n=44 v=0
56640 On ch=10 n=44 v=50
56736 Off ch=10 n=44 v=0
56832 On ch=10 n=46 v=30
56928 Off ch=10 n=46 v=0
76800 On ch=10 n=42 v=50
76896 Off ch=10 n=42 v=0
76992 On ch=10 n=42 v=50
77088 Off ch=10 n=42 v=0
77184 On ch=10 n=42 v=50
77280 Off ch=10 n=42 v=0
77376 On ch=10 n=42 v=50
77472 Off ch=10 n=42 v=0
77568 On ch=10 n=42 v=50
77664 Off ch=10 n=42 v=0
77760 On ch=10 n=42 v=50
77856 Off ch=10 n=42 v=0
77952 On ch=10 n=42 v=50
78048 Off ch=10 n=42 v=0
78144 On ch=10 n=42 v=50
78240 Off ch=10 n=42 v=0
78336 On ch=10 n=42 v=50
78432 Off ch=10 n=42 v=0
78528 On ch=10 n=42 v=50
78624 Off ch=10 n=42 v=0
78720 On ch=10 n=42 v=50
78816 Off ch=10 n=42 v=0
78912 On ch=10 n=42 v=50
79008 Off ch=10 n=42 v=0
79104 On ch=10 n=42 v=50
79200 Off ch=10 n=42 v=0
79296 On ch=10 n=46 v=30
79392 Off ch=10 n=46 v=0
79872 On ch=10 n=42 v=50
79968 Off ch=10 n=42 v=0
80064 On ch=10 n=42 v=50
80160 Off ch=10 n=42 v=0
80256 On ch=10 n=42 v=50
80352 Off ch=10 n=42 v=0
80448 On ch=10 n=42 v=50
80544 Off ch=10 n=42 v=0
80640 On ch=10 n=42 v=50
80736 Off ch=10 n=42 v=0
80832 On ch=10 n=42 v=50
80928 Off ch=10 n=42 v=0
81024 On ch=10 n=42 v=50
81120 Off ch=10 n=42 v=0
81216 On ch=10 n=42 v=50
81312 Off ch=10 n=42 v=0
81408 On ch=10 n=42 v=50
81504 Off ch=10 n=42 v=0
81600 On ch=10 n=42 v=50
81696 Off ch=10 n=42 v=0
81792 On ch=10 n=42 v=50
81888 Off ch=10 n=42 v=0
81984 On ch=10 n=46 v=30
82080 Off ch=10 n=46 v=0
82944 On ch=10 n=42 v=50
83040 Off ch=10 n=42 v=0
83136 On ch=10 n=42 v=50
83232 Off ch=10 n=42 v=0
83328 On ch=10 n=42 v=50
83424 Off ch=10 n=42 v=0
83520 On ch=10 n=42 v=50
83616 Off ch=10 n=42 v=0
83712 On ch=10 n=42 v=50
83808 Off ch=10 n=42 v=0
83904 On ch=10 n=42 v=50
84000 Off ch=10 n=42 v=0
84096 On ch=10 n=42 v=50
84192 Off ch=10 n=42 v=0
84288 On ch=10 n=42 v=50
84384 Off ch=10 n=42 v=0
84480 On ch=10 n=42 v=50
84576 Off ch=10 n=42 v=0
84672 On ch=10 n=42 v=50
84768 Off ch=10 n=42 v=0
84864 On ch=10 n=42 v=50
84960 Off ch=10 n=42 v=0
85056 On ch=10 n=42 v=50
85152 Off ch=10 n=42 v=0
85248 On ch=10 n=46 v=30
85344 Off ch=10 n=46 v=0
86016 On ch=10 n=42 v=50
86112 Off ch=10 n=42 v=0
86208 On ch=10 n=42 v=50
86304 Off ch=10 n=42 v=0
86400 On ch=10 n=42 v=50
86496 Off ch=10 n=42 v=0
86592 On ch=10 n=42 v=50
86688 Off ch=10 n=42 v=0
86784 On ch=10 n=42 v=50
86880 Off ch=10 n=42 v=0
86976 On ch=10 n=42 v=50
87072 Off ch=10 n=42 v=0
87168 On ch=10 n=42 v=50
87264 Off ch=10 n=42 v=0
87360 On ch=10 n=42 v=50
87456 Off ch=10 n=42 v=0
87552 On ch=10 n=42 v=50
87648 Off ch=10 n=42 v=0
87744 On ch=10 n=42 v=50
87840 Off ch=10 n=42 v=0
87936 On ch=10 n=46 v=30
88032 Off ch=10 n=46 v=0
89088 On ch=10 n=42 v=30
89184 Off ch=10 n=42 v=0
90240 On ch=10 n=42 v=50
90336 Off ch=10 n=42 v=0
133632 Meta TrkEnd
TrkEnd
MTrk
0 Meta TrkName "TAMBOURIN"
14208 On ch=10 n=54 v=102
14304 Off ch=10 n=54 v=0
14976 On ch=10 n=54 v=102
15072 Off ch=10 n=54 v=0
15744 On ch=10 n=54 v=102
15840 Off ch=10 n=54 v=0
16512 On ch=10 n=54 v=102
16608 Off ch=10 n=54 v=0
17280 On ch=10 n=54 v=102
17376 Off ch=10 n=54 v=0
18048 On ch=10 n=54 v=102
18144 Off ch=10 n=54 v=0
18816 On ch=10 n=54 v=102
18912 Off ch=10 n=54 v=0
19584 On ch=10 n=54 v=102
19680 Off ch=10 n=54 v=0
20352 On ch=10 n=54 v=102
20448 Off ch=10 n=54 v=0
21120 On ch=10 n=54 v=102
21216 Off ch=10 n=54 v=0
21888 On ch=10 n=54 v=102
21984 Off ch=10 n=54 v=0
22656 On ch=10 n=54 v=102
22752 Off ch=10 n=54 v=0
23424 On ch=10 n=54 v=102
23520 Off ch=10 n=54 v=0
24192 On ch=10 n=54 v=102
24288 Off ch=10 n=54 v=0
24960 On ch=10 n=54 v=102
25056 Off ch=10 n=54 v=0
25152 On ch=10 n=54 v=46
25248 Off ch=10 n=54 v=0
25344 On ch=10 n=54 v=102
25440 Off ch=10 n=54 v=0
25536 On ch=10 n=54 v=46
25632 Off ch=10 n=54 v=0
25728 On ch=10 n=54 v=102
25824 Off ch=10 n=54 v=0
25920 On ch=10 n=54 v=46
26016 Off ch=10 n=54 v=0
26112 On ch=10 n=54 v=87
26304 Off ch=10 n=54 v=0
45312 On ch=10 n=54 v=66
45408 Off ch=10 n=54 v=0
45408 On ch=10 n=54 v=36
45504 Off ch=10 n=54 v=0
45504 On ch=10 n=54 v=58
45600 Off ch=10 n=54 v=0
45600 On ch=10 n=54 v=36
45696 Off ch=10 n=54 v=0
45696 On ch=10 n=54 v=106
45792 Off ch=10 n=54 v=0
45792 On ch=10 n=54 v=36
45888 Off ch=10 n=54 v=0
45888 On ch=10 n=54 v=58
45984 Off ch=10 n=54 v=0
45984 On ch=10 n=54 v=36
46080 Off ch=10 n=54 v=0
46080 On ch=10 n=54 v=70
46176 Off ch=10 n=54 v=0
46176 On ch=10 n=54 v=36
46272 Off ch=10 n=54 v=0
46272 On ch=10 n=54 v=58
46368 Off ch=10 n=54 v=0
46368 On ch=10 n=54 v=36
46464 Off ch=10 n=54 v=0
46464 On ch=10 n=54 v=102
46560 Off ch=10 n=54 v=0
46560 On ch=10 n=54 v=36
46656 Off ch=10 n=54 v=0
46656 On ch=10 n=54 v=58
46752 Off ch=10 n=54 v=0
46752 On ch=10 n=54 v=36
46848 Off ch=10 n=54 v=0
46848 On ch=10 n=54 v=66
46944 Off ch=10 n=54 v=0
46944 On ch=10 n=54 v=36
47040 Off ch=10 n=54 v=0
47040 On ch=10 n=54 v=58
47136 Off ch=10 n=54 v=0
47136 On ch=10 n=54 v=36
47232 Off ch=10 n=54 v=0
47232 On ch=10 n=54 v=106
47328 Off ch=10 n=54 v=0
47328 On ch=10 n=54 v=36
47424 Off ch=10 n=54 v=0
47424 On ch=10 n=54 v=58
47520 Off ch=10 n=54 v=0
47520 On ch=10 n=54 v=36
47616 Off ch=10 n=54 v=0
47616 On ch=10 n=54 v=70
47712 Off ch=10 n=54 v=0
47712 On ch=10 n=54 v=36
47808 Off ch=10 n=54 v=0
47808 On ch=10 n=54 v=58
47904 Off ch=10 n=54 v=0
47904 On ch=10 n=54 v=36
48000 Off ch=10 n=54 v=0
48000 On ch=10 n=54 v=102
48096 Off ch=10 n=54 v=0
48096 On ch=10 n=54 v=36
48192 Off ch=10 n=54 v=0
48192 On ch=10 n=54 v=58
48288 Off ch=10 n=54 v=0
48288 On ch=10 n=54 v=36
48384 Off ch=10 n=54 v=0
48384 On ch=10 n=54 v=66
48480 Off ch=10 n=54 v=0
48480 On ch=10 n=54 v=36
48576 Off ch=10 n=54 v=0
48576 On ch=10 n=54 v=58
48672 Off ch=10 n=54 v=0
48672 On ch=10 n=54 v=36
48768 Off ch=10 n=54 v=0
48768 On ch=10 n=54 v=106
48864 Off ch=10 n=54 v=0
48864 On ch=10 n=54 v=36
48960 Off ch=10 n=54 v=0
48960 On ch=10 n=54 v=58
49056 Off ch=10 n=54 v=0
49056 On ch=10 n=54 v=36
49152 Off ch=10 n=54 v=0
49152 On ch=10 n=54 v=70
49248 Off ch=10 n=54 v=0
49248 On ch=10 n=54 v=36
49344 Off ch=10 n=54 v=0
49344 On ch=10 n=54 v=58
49440 Off ch=10 n=54 v=0
49440 On ch=10 n=54 v=36
49536 Off ch=10 n=54 v=0
49536 On ch=10 n=54 v=102
49632 Off ch=10 n=54 v=0
49632 On ch=10 n=54 v=36
49728 Off ch=10 n=54 v=0
49728 On ch=10 n=54 v=58
49824 Off ch=10 n=54 v=0
49824 On ch=10 n=54 v=36
49920 Off ch=10 n=54 v=0
49920 On ch=10 n=54 v=66
50016 Off ch=10 n=54 v=0
50016 On ch=10 n=54 v=36
50112 Off ch=10 n=54 v=0
50112 On ch=10 n=54 v=58
50208 Off ch=10 n=54 v=0
50208 On ch=10 n=54 v=36
50304 Off ch=10 n=54 v=0
50304 On ch=10 n=54 v=106
50400 Off ch=10 n=54 v=0
50400 On ch=10 n=54 v=36
50496 Off ch=10 n=54 v=0
50496 On ch=10 n=54 v=58
50592 Off ch=10 n=54 v=0
50592 On ch=10 n=54 v=36
50688 Off ch=10 n=54 v=0
50688 On ch=10 n=54 v=70
50784 Off ch=10 n=54 v=0
50784 On ch=10 n=54 v=36
50880 Off ch=10 n=54 v=0
50880 On ch=10 n=54 v=58
50976 Off ch=10 n=54 v=0
50976 On ch=10 n=54 v=36
51072 Off ch=10 n=54 v=0
51072 On ch=10 n=54 v=102
51168 Off ch=10 n=54 v=0
51168 On ch=10 n=54 v=36
51264 Off ch=10 n=54 v=0
51264 On ch=10 n=54 v=58
51360 Off ch=10 n=54 v=0
51360 On ch=10 n=54 v=36
51456 Off ch=10 n=54 v=0
51456 On ch=10 n=54 v=66
51552 Off ch=10 n=54 v=0
51552 On ch=10 n=54 v=36
51648 Off ch=10 n=54 v=0
51648 On ch=10 n=54 v=58
51744 Off ch=10 n=54 v=0
51744 On ch=10 n=54 v=36
51840 Off ch=10 n=54 v=0
51840 On ch=10 n=54 v=106
51936 Off ch=10 n=54 v=0
51936 On ch=10 n=54 v=36
52032 Off ch=10 n=54 v=0
52032 On ch=10 n=54 v=58
52128 Off ch=10 n=54 v=0
52128 On ch=10 n=54 v=36
52224 Off ch=10 n=54 v=0
52224 On ch=10 n=54 v=70
52320 Off ch=10 n=54 v=0
52320 On ch=10 n=54 v=36
52416 Off ch=10 n=54 v=0
52416 On ch=10 n=54 v=58
52512 Off ch=10 n=54 v=0
52512 On ch=10 n=54 v=36
52608 Off ch=10 n=54 v=0
52608 On ch=10 n=54 v=102
52704 Off ch=10 n=54 v=0
52704 On ch=10 n=54 v=36
52800 Off ch=10 n=54 v=0
52800 On ch=10 n=54 v=58
52896 Off ch=10 n=54 v=0
52896 On ch=10 n=54 v=36
52992 Off ch=10 n=54 v=0
52992 On ch=10 n=54 v=66
53088 Off ch=10 n=54 v=0
53088 On ch=10 n=54 v=36
53184 Off ch=10 n=54 v=0
53184 On ch=10 n=54 v=58
53280 Off ch=10 n=54 v=0
53280 On ch=10 n=54 v=36
53376 Off ch=10 n=54 v=0
53376 On ch=10 n=54 v=106
53472 Off ch=10 n=54 v=0
53472 On ch=10 n=54 v=36
53568 Off ch=10 n=54 v=0
53568 On ch=10 n=54 v=58
53664 Off ch=10 n=54 v=0
53664 On ch=10 n=54 v=36
53760 Off ch=10 n=54 v=0
53760 On ch=10 n=54 v=70
53856 Off ch=10 n=54 v=0
53856 On ch=10 n=54 v=36
53952 Off ch=10 n=54 v=0
53952 On ch=10 n=54 v=58
54048 Off ch=10 n=54 v=0
54048 On ch=10 n=54 v=36
54144 Off ch=10 n=54 v=0
54144 On ch=10 n=54 v=102
54240 Off ch=10 n=54 v=0
54240 On ch=10 n=54 v=36
54336 Off ch=10 n=54 v=0
54336 On ch=10 n=54 v=58
54432 Off ch=10 n=54 v=0
54432 On ch=10 n=54 v=36
54528 Off ch=10 n=54 v=0
54528 On ch=10 n=54 v=66
54624 Off ch=10 n=54 v=0
54624 On ch=10 n=54 v=36
54720 Off ch=10 n=54 v=0
54720 On ch=10 n=54 v=58
54816 Off ch=10 n=54 v=0
54816 On ch=10 n=54 v=36
54912 Off ch=10 n=54 v=0
54912 On ch=10 n=54 v=106
55008 Off ch=10 n=54 v=0
55008 On ch=10 n=54 v=36
55104 Off ch=10 n=54 v=0
55104 On ch=10 n=54 v=58
55200 Off ch=10 n=54 v=0
55200 On ch=10 n=54 v=36
55296 Off ch=10 n=54 v=0
55296 On ch=10 n=54 v=70
55392 Off ch=10 n=54 v=0
55392 On ch=10 n=54 v=36
55488 Off ch=10 n=54 v=0
55488 On ch=10 n=54 v=58
55584 Off ch=10 n=54 v=0
55584 On ch=10 n=54 v=36
55680 Off ch=10 n=54 v=0
55680 On ch=10 n=54 v=102
55776 Off ch=10 n=54 v=0
55776 On ch=10 n=54 v=36
55872 Off ch=10 n=54 v=0
55872 On ch=10 n=54 v=58
55968 Off ch=10 n=54 v=0
55968 On ch=10 n=54 v=36
56064 Off ch=10 n=54 v=0
56064 On ch=10 n=54 v=66
56160 Off ch=10 n=54 v=0
56160 On ch=10 n=54 v=36
56256 Off ch=10 n=54 v=0
56256 On ch=10 n=54 v=58
56352 Off ch=10 n=54 v=0
56352 On ch=10 n=54 v=36
56448 Off ch=10 n=54 v=0
56448 On ch=10 n=54 v=112
56544 Off ch=10 n=54 v=0
56544 On ch=10 n=54 v=36
56640 Off ch=10 n=54 v=0
56640 On ch=10 n=54 v=88
56736 Off ch=10 n=54 v=0
56736 On ch=10 n=54 v=36
56832 Off ch=10 n=54 v=0
56832 On ch=10 n=54 v=96
56928 Off ch=10 n=54 v=0
56928 On ch=10 n=54 v=36
57024 Off ch=10 n=54 v=0
57024 On ch=10 n=54 v=58
57120 Off ch=10 n=54 v=0
57120 On ch=10 n=54 v=36
57216 Off ch=10 n=54 v=0
57216 On ch=10 n=54 v=112
57312 Off ch=10 n=54 v=0
57312 On ch=10 n=54 v=36
57408 Off ch=10 n=54 v=0
57408 On ch=10 n=54 v=108
57504 Off ch=10 n=54 v=0
57504 On ch=10 n=54 v=36
57600 Off ch=10 n=54 v=0
57600 On ch=10 n=54 v=96
57696 Off ch=10 n=54 v=0
76800 On ch=10 n=54 v=66
76896 Off ch=10 n=54 v=0
76896 On ch=10 n=54 v=36
76992 Off ch=10 n=54 v=0
76992 On ch=10 n=54 v=58
77088 Off ch=10 n=54 v=0
77088 On ch=10 n=54 v=36
77184 Off ch=10 n=54 v=0
77184 On ch=10 n=54 v=106
77280 Off ch=10 n=54 v=0
77280 On ch=10 n=54 v=36
77376 Off ch=10 n=54 v=0
77376 On ch=10 n=54 v=58
77472 Off ch=10 n=54 v=0
77472 On ch=10 n=54 v=36
77568 Off ch=10 n=54 v=0
77568 On ch=10 n=54 v=70
77664 Off ch=10 n=54 v=0
77664 On ch=10 n=54 v=36
77760 Off ch=10 n=54 v=0
77760 On ch=10 n=54 v=58
77856 Off ch=10 n=54 v=0
77856 On ch=10 n=54 v=36
77952 Off ch=10 n=54 v=0
77952 On ch=10 n=54 v=102
78048 Off ch=10 n=54 v=0
78048 On ch=10 n=54 v=36
78144 Off ch=10 n=54 v=0
78144 On ch=10 n=54 v=58
78240 Off ch=10 n=54 v=0
78240 On ch=10 n=54 v=36
78336 Off ch=10 n=54 v=0
78336 On ch=10 n=54 v=66
78432 Off ch=10 n=54 v=0
78432 On ch=10 n=54 v=36
78528 Off ch=10 n=54 v=0
78528 On ch=10 n=54 v=58
78624 Off ch=10 n=54 v=0
78624 On ch=10 n=54 v=36
78720 Off ch=10 n=54 v=0
78720 On ch=10 n=54 v=106
78816 Off ch=10 n=54 v=0
78816 On ch=10 n=54 v=36
78912 Off ch=10 n=54 v=0
78912 On ch=10 n=54 v=58
79008 Off ch=10 n=54 v=0
79008 On ch=10 n=54 v=36
79104 Off ch=10 n=54 v=0
79104 On ch=10 n=54 v=70
79200 Off ch=10 n=54 v=0
79200 On ch=10 n=54 v=36
79296 Off ch=10 n=54 v=0
79296 On ch=10 n=54 v=58
79392 Off ch=10 n=54 v=0
79392 On ch=10 n=54 v=36
79488 Off ch=10 n=54 v=0
79488 On ch=10 n=54 v=102
79584 Off ch=10 n=54 v=0
79584 On ch=10 n=54 v=36
79680 Off ch=10 n=54 v=0
79680 On ch=10 n=54 v=58
79776 Off ch=10 n=54 v=0
79776 On ch=10 n=54 v=36
79872 Off ch=10 n=54 v=0
79872 On ch=10 n=54 v=66
79968 Off ch=10 n=54 v=0
79968 On ch=10 n=54 v=36
80064 Off ch=10 n=54 v=0
80064 On ch=10 n=54 v=58
80160 Off ch=10 n=54 v=0
80160 On ch=10 n=54 v=36
80256 Off ch=10 n=54 v=0
80256 On ch=10 n=54 v=106
80352 Off ch=10 n=54 v=0
80352 On ch=10 n=54 v=36
80448 Off ch=10 n=54 v=0
80448 On ch=10 n=54 v=58
80544 Off ch=10 n=54 v=0
80544 On ch=10 n=54 v=36
80640 Off ch=10 n=54 v=0
80640 On ch=10 n=54 v=70
80736 Off ch=10 n=54 v=0
80736 On ch=10 n=54 v=36
80832 Off ch=10 n=54 v=0
80832 On ch=10 n=54 v=58
80928 Off ch=10 n=54 v=0
80928 On ch=10 n=54 v=36
81024 Off ch=10 n=54 v=0
81024 On ch=10 n=54 v=102
81120 Off ch=10 n=54 v=0
81120 On ch=10 n=54 v=36
81216 Off ch=10 n=54 v=0
81216 On ch=10 n=54 v=58
81312 Off ch=10 n=54 v=0
81312 On ch=10 n=54 v=36
81408 Off ch=10 n=54 v=0
81408 On ch=10 n=54 v=66
81504 Off ch=10 n=54 v=0
81504 On ch=10 n=54 v=36
81600 Off ch=10 n=54 v=0
81600 On ch=10 n=54 v=58
81696 Off ch=10 n=54 v=0
81696 On ch=10 n=54 v=36
81792 Off ch=10 n=54 v=0
81792 On ch=10 n=54 v=106
81888 Off ch=10 n=54 v=0
81888 On ch=10 n=54 v=36
81984 Off ch=10 n=54 v=0
81984 On ch=10 n=54 v=58
82080 Off ch=10 n=54 v=0
82080 On ch=10 n=54 v=36
82176 Off ch=10 n=54 v=0
82176 On ch=10 n=54 v=70
82272 Off ch=10 n=54 v=0
82272 On ch=10 n=54 v=36
82368 Off ch=10 n=54 v=0
82368 On ch=10 n=54 v=58
82464 Off ch=10 n=54 v=0
82464 On ch=10 n=54 v=36
82560 Off ch=10 n=54 v=0
82560 On ch=10 n=54 v=102
82656 Off ch=10 n=54 v=0
82656 On ch=10 n=54 v=36
82752 Off ch=10 n=54 v=0
82752 On ch=10 n=54 v=58
82848 Off ch=10 n=54 v=0
82848 On ch=10 n=54 v=36
82944 Off ch=10 n=54 v=0
82944 On ch=10 n=54 v=66
83040 Off ch=10 n=54 v=0
83040 On ch=10 n=54 v=36
83136 Off ch=10 n=54 v=0
83136 On ch=10 n=54 v=58
83232 Off ch=10 n=54 v=0
83232 On ch=10 n=54 v=36
83328 Off ch=10 n=54 v=0
83328 On ch=10 n=54 v=106
83424 Off ch=10 n=54 v=0
83424 On ch=10 n=54 v=36
83520 Off ch=10 n=54 v=0
83520 On ch=10 n=54 v=58
83616 Off ch=10 n=54 v=0
83616 On ch=10 n=54 v=36
83712 Off ch=10 n=54 v=0
83712 On ch=10 n=54 v=70
83808 Off ch=10 n=54 v=0
83808 On ch=10 n=54 v=36
83904 Off ch=10 n=54 v=0
83904 On ch=10 n=54 v=58
84000 Off ch=10 n=54 v=0
84000 On ch=10 n=54 v=36
84096 Off ch=10 n=54 v=0
84096 On ch=10 n=54 v=102
84192 Off ch=10 n=54 v=0
84192 On ch=10 n=54 v=36
84288 Off ch=10 n=54 v=0
84288 On ch=10 n=54 v=58
84384 Off ch=10 n=54 v=0
84384 On ch=10 n=54 v=36
84480 Off ch=10 n=54 v=0
84480 On ch=10 n=54 v=66
84576 Off ch=10 n=54 v=0
84576 On ch=10 n=54 v=36
84672 Off ch=10 n=54 v=0
84672 On ch=10 n=54 v=58
84768 Off ch=10 n=54 v=0
84768 On ch=10 n=54 v=36
84864 Off ch=10 n=54 v=0
84864 On ch=10 n=54 v=106
84960 Off ch=10 n=54 v=0
84960 On ch=10 n=54 v=36
85056 Off ch=10 n=54 v=0
85056 On ch=10 n=54 v=58
85152 Off ch=10 n=54 v=0
85152 On ch=10 n=54 v=36
85248 Off ch=10 n=54 v=0
85248 On ch=10 n=54 v=70
85344 Off ch=10 n=54 v=0
85344 On ch=10 n=54 v=36
85440 Off ch=10 n=54 v=0
85440 On ch=10 n=54 v=58
85536 Off ch=10 n=54 v=0
85536 On ch=10 n=54 v=36
85632 Off ch=10 n=54 v=0
85632 On ch=10 n=54 v=102
85728 Off ch=10 n=54 v=0
85728 On ch=10 n=54 v=36
85824 Off ch=10 n=54 v=0
85824 On ch=10 n=54 v=58
85920 Off ch=10 n=54 v=0
85920 On ch=10 n=54 v=36
86016 Off ch=10 n=54 v=0
86016 On ch=10 n=54 v=66
86112 Off ch=10 n=54 v=0
86112 On ch=10 n=54 v=36
86208 Off ch=10 n=54 v=0
86208 On ch=10 n=54 v=58
86304 Off ch=10 n=54 v=0
86304 On ch=10 n=54 v=36
86400 Off ch=10 n=54 v=0
86400 On ch=10 n=54 v=106
86496 Off ch=10 n=54 v=0
86496 On ch=10 n=54 v=36
86592 Off ch=10 n=54 v=0
86592 On ch=10 n=54 v=58
86688 Off ch=10 n=54 v=0
86688 On ch=10 n=54 v=36
86784 Off ch=10 n=54 v=0
86784 On ch=10 n=54 v=70
86880 Off ch=10 n=54 v=0
86880 On ch=10 n=54 v=36
86976 Off ch=10 n=54 v=0
86976 On ch=10 n=54 v=58
87072 Off ch=10 n=54 v=0
87072 On ch=10 n=54 v=36
87168 Off ch=10 n=54 v=0
87168 On ch=10 n=54 v=102
87264 Off ch=10 n=54 v=0
87264 On ch=10 n=54 v=36
87360 Off ch=10 n=54 v=0
87360 On ch=10 n=54 v=58
87456 Off ch=10 n=54 v=0
87456 On ch=10 n=54 v=36
87552 Off ch=10 n=54 v=0
87552 On ch=10 n=54 v=88
87648 Off ch=10 n=54 v=0
87648 On ch=10 n=54 v=36
87744 Off ch=10 n=54 v=0
87744 On ch=10 n=54 v=84
87840 Off ch=10 n=54 v=0
87840 On ch=10 n=54 v=36
87936 Off ch=10 n=54 v=0
87936 On ch=10 n=54 v=112
88032 Off ch=10 n=54 v=0
88032 On ch=10 n=54 v=36
88128 Off ch=10 n=54 v=0
88128 On ch=10 n=54 v=92
88224 Off ch=10 n=54 v=0
88224 On ch=10 n=54 v=36
88320 Off ch=10 n=54 v=0
88320 On ch=10 n=54 v=88
88416 Off ch=10 n=54 v=0
88416 On ch=10 n=54 v=36
88512 Off ch=10 n=54 v=0
88512 On ch=10 n=54 v=88
88608 Off ch=10 n=54 v=0
88608 On ch=10 n=54 v=36
88704 Off ch=10 n=54 v=0
88704 On ch=10 n=54 v=104
88800 Off ch=10 n=54 v=0
88800 On ch=10 n=54 v=36
88896 Off ch=10 n=54 v=0
88896 On ch=10 n=54 v=100
88992 Off ch=10 n=54 v=0
88992 On ch=10 n=54 v=36
89088 Off ch=10 n=54 v=0
89088 On ch=10 n=54 v=99
89184 Off ch=10 n=54 v=0
89184 On ch=10 n=54 v=46
89280 Off ch=10 n=54 v=0
89280 On ch=10 n=54 v=93
89376 Off ch=10 n=54 v=0
89376 On ch=10 n=54 v=46
89472 Off ch=10 n=54 v=0
89472 On ch=10 n=54 v=86
89568 Off ch=10 n=54 v=0
89568 On ch=10 n=54 v=46
89664 Off ch=10 n=54 v=0
89664 On ch=10 n=54 v=102
89760 Off ch=10 n=54 v=0
89760 On ch=10 n=54 v=46
89856 Off ch=10 n=54 v=0
89856 On ch=10 n=54 v=96
89952 Off ch=10 n=54 v=0
90624 On ch=10 n=54 v=76
90720 Off ch=10 n=54 v=0
90720 On ch=10 n=54 v=46
90816 Off ch=10 n=54 v=0
90816 On ch=10 n=54 v=64
90912 Off ch=10 n=54 v=0
90912 On ch=10 n=54 v=46
91008 Off ch=10 n=54 v=0
91008 On ch=10 n=54 v=108
91104 Off ch=10 n=54 v=0
91104 On ch=10 n=54 v=46
91200 Off ch=10 n=54 v=0
91200 On ch=10 n=54 v=60
91296 Off ch=10 n=54 v=0
91296 On ch=10 n=54 v=46
91392 Off ch=10 n=54 v=0
91392 On ch=10 n=54 v=76
91488 Off ch=10 n=54 v=0
91488 On ch=10 n=54 v=46
91584 Off ch=10 n=54 v=0
91584 On ch=10 n=54 v=64
91680 Off ch=10 n=54 v=0
91680 On ch=10 n=54 v=46
91776 Off ch=10 n=54 v=0
91776 On ch=10 n=54 v=112
91872 Off ch=10 n=54 v=0
91872 On ch=10 n=54 v=46
91968 Off ch=10 n=54 v=0
91968 On ch=10 n=54 v=60
92064 Off ch=10 n=54 v=0
92064 On ch=10 n=54 v=46
92160 Off ch=10 n=54 v=0
92160 On ch=10 n=54 v=76
92256 Off ch=10 n=54 v=0
92256 On ch=10 n=54 v=46
92352 Off ch=10 n=54 v=0
92352 On ch=10 n=54 v=64
92448 Off ch=10 n=54 v=0
92448 On ch=10 n=54 v=46
92544 Off ch=10 n=54 v=0
92544 On ch=10 n=54 v=108
92640 Off ch=10 n=54 v=0
92640 On ch=10 n=54 v=46
92736 Off ch=10 n=54 v=0
92736 On ch=10 n=54 v=60
92832 Off ch=10 n=54 v=0
92832 On ch=10 n=54 v=46
92928 Off ch=10 n=54 v=0
92928 On ch=10 n=54 v=76
93024 Off ch=10 n=54 v=0
93024 On ch=10 n=54 v=46
93120 Off ch=10 n=54 v=0
93120 On ch=10 n=54 v=64
93216 Off ch=10 n=54 v=0
93216 On ch=10 n=54 v=46
93312 Off ch=10 n=54 v=0
93312 On ch=10 n=54 v=112
93408 Off ch=10 n=54 v=0
93408 On ch=10 n=54 v=46
93504 Off ch=10 n=54 v=0
93504 On ch=10 n=54 v=60
93600 Off ch=10 n=54 v=0
93600 On ch=10 n=54 v=46
93696 Off ch=10 n=54 v=0
93696 On ch=10 n=54 v=76
93792 Off ch=10 n=54 v=0
93792 On ch=10 n=54 v=46
93888 Off ch=10 n=54 v=0
93888 On ch=10 n=54 v=64
93984 Off ch=10 n=54 v=0
93984 On ch=10 n=54 v=46
94080 Off ch=10 n=54 v=0
94080 On ch=10 n=54 v=108
94176 Off ch=10 n=54 v=0
94176 On ch=10 n=54 v=46
94272 Off ch=10 n=54 v=0
94272 On ch=10 n=54 v=60
94368 Off ch=10 n=54 v=0
94368 On ch=10 n=54 v=46
94464 Off ch=10 n=54 v=0
94464 On ch=10 n=54 v=76
94560 Off ch=10 n=54 v=0
94560 On ch=10 n=54 v=46
94656 Off ch=10 n=54 v=0
94656 On ch=10 n=54 v=64
94752 Off ch=10 n=54 v=0
94752 On ch=10 n=54 v=46
94848 Off ch=10 n=54 v=0
94848 On ch=10 n=54 v=112
94944 Off ch=10 n=54 v=0
94944 On ch=10 n=54 v=46
95040 Off ch=10 n=54 v=0
95040 On ch=10 n=54 v=60
95136 Off ch=10 n=54 v=0
95136 On ch=10 n=54 v=46
95232 Off ch=10 n=54 v=0
95232 On ch=10 n=54 v=76
95328 Off ch=10 n=54 v=0
95328 On ch=10 n=54 v=46
95424 Off ch=10 n=54 v=0
95424 On ch=10 n=54 v=64
95520 Off ch=10 n=54 v=0
95520 On ch=10 n=54 v=46
95616 Off ch=10 n=54 v=0
95616 On ch=10 n=54 v=108
95712 Off ch=10 n=54 v=0
95712 On ch=10 n=54 v=46
95808 Off ch=10 n=54 v=0
95808 On ch=10 n=54 v=60
95904 Off ch=10 n=54 v=0
95904 On ch=10 n=54 v=46
96000 Off ch=10 n=54 v=0
96000 On ch=10 n=54 v=76
96096 Off ch=10 n=54 v=0
96096 On ch=10 n=54 v=46
96192 Off ch=10 n=54 v=0
96192 On ch=10 n=54 v=64
96288 Off ch=10 n=54 v=0
96288 On ch=10 n=54 v=46
96384 Off ch=10 n=54 v=0
96384 On ch=10 n=54 v=112
96480 Off ch=10 n=54 v=0
96480 On ch=10 n=54 v=46
96576 Off ch=10 n=54 v=0
96576 On ch=10 n=54 v=60
96672 Off ch=10 n=54 v=0
96672 On ch=10 n=54 v=46
96768 Off ch=10 n=54 v=0
96768 On ch=10 n=54 v=76
96864 Off ch=10 n=54 v=0
96864 On ch=10 n=54 v=46
96960 Off ch=10 n=54 v=0
96960 On ch=10 n=54 v=64
97056 Off ch=10 n=54 v=0
97056 On ch=10 n=54 v=46
97152 Off ch=10 n=54 v=0
97152 On ch=10 n=54 v=108
97248 Off ch=10 n=54 v=0
97248 On ch=10 n=54 v=46
97344 Off ch=10 n=54 v=0
97344 On ch=10 n=54 v=60
97440 Off ch=10 n=54 v=0
97440 On ch=10 n=54 v=46
97536 Off ch=10 n=54 v=0
97536 On ch=10 n=54 v=76
97632 Off ch=10 n=54 v=0
97632 On ch=10 n=54 v=46
97728 Off ch=10 n=54 v=0
97728 On ch=10 n=54 v=64
97824 Off ch=10 n=54 v=0
97824 On ch=10 n=54 v=46
97920 Off ch=10 n=54 v=0
97920 On ch=10 n=54 v=112
98016 Off ch=10 n=54 v=0
98016 On ch=10 n=54 v=46
98112 Off ch=10 n=54 v=0
98112 On ch=10 n=54 v=60
98208 Off ch=10 n=54 v=0
98208 On ch=10 n=54 v=46
98304 Off ch=10 n=54 v=0
98304 On ch=10 n=54 v=76
98400 Off ch=10 n=54 v=0
98400 On ch=10 n=54 v=46
98496 Off ch=10 n=54 v=0
98496 On ch=10 n=54 v=64
98592 Off ch=10 n=54 v=0
98592 On ch=10 n=54 v=46
98688 Off ch=10 n=54 v=0
98688 On ch=10 n=54 v=108
98784 Off ch=10 n=54 v=0
98784 On ch=10 n=54 v=46
98880 Off ch=10 n=54 v=0
98880 On ch=10 n=54 v=60
98976 Off ch=10 n=54 v=0
98976 On ch=10 n=54 v=46
99072 Off ch=10 n=54 v=0
99072 On ch=10 n=54 v=76
99168 Off ch=10 n=54 v=0
99168 On ch=10 n=54 v=46
99264 Off ch=10 n=54 v=0
99264 On ch=10 n=54 v=64
99360 Off ch=10 n=54 v=0
99360 On ch=10 n=54 v=46
99456 Off ch=10 n=54 v=0
99456 On ch=10 n=54 v=112
99552 Off ch=10 n=54 v=0
99552 On ch=10 n=54 v=46
99648 Off ch=10 n=54 v=0
99648 On ch=10 n=54 v=60
99744 Off ch=10 n=54 v=0
99744 On ch=10 n=54 v=46
99840 Off ch=10 n=54 v=0
99840 On ch=10 n=54 v=76
99936 Off ch=10 n=54 v=0
99936 On ch=10 n=54 v=46
100032 Off ch=10 n=54 v=0
100032 On ch=10 n=54 v=64
100128 Off ch=10 n=54 v=0
100128 On ch=10 n=54 v=46
100224 Off ch=10 n=54 v=0
100224 On ch=10 n=54 v=108
100320 Off ch=10 n=54 v=0
100320 On ch=10 n=54 v=46
100416 Off ch=10 n=54 v=0
100416 On ch=10 n=54 v=60
100512 Off ch=10 n=54 v=0
100512 On ch=10 n=54 v=46
100608 Off ch=10 n=54 v=0
100608 On ch=10 n=54 v=76
100704 Off ch=10 n=54 v=0
100704 On ch=10 n=54 v=46
100800 Off ch=10 n=54 v=0
100800 On ch=10 n=54 v=64
100896 Off ch=10 n=54 v=0
100896 On ch=10 n=54 v=46
100992 Off ch=10 n=54 v=0
100992 On ch=10 n=54 v=112
101088 Off ch=10 n=54 v=0
101088 On ch=10 n=54 v=46
101184 Off ch=10 n=54 v=0
101184 On ch=10 n=54 v=60
101280 Off ch=10 n=54 v=0
101280 On ch=10 n=54 v=46
101376 Off ch=10 n=54 v=0
101376 On ch=10 n=54 v=76
101472 Off ch=10 n=54 v=0
101472 On ch=10 n=54 v=46
101568 Off ch=10 n=54 v=0
101568 On ch=10 n=54 v=64
101664 Off ch=10 n=54 v=0
101664 On ch=10 n=54 v=46
101760 Off ch=10 n=54 v=0
101760 On ch=10 n=54 v=108
101856 Off ch=10 n=54 v=0
101856 On ch=10 n=54 v=46
101952 Off ch=10 n=54 v=0
101952 On ch=10 n=54 v=60
102048 Off ch=10 n=54 v=0
102048 On ch=10 n=54 v=46
102144 Off ch=10 n=54 v=0
102144 On ch=10 n=54 v=76
102240 Off ch=10 n=54 v=0
102240 On ch=10 n=54 v=46
102336 Off ch=10 n=54 v=0
102336 On ch=10 n=54 v=64
102432 Off ch=10 n=54 v=0
102432 On ch=10 n=54 v=46
102528 Off ch=10 n=54 v=0
102528 On ch=10 n=54 v=112
102624 Off ch=10 n=54 v=0
102624 On ch=10 n=54 v=46
102720 Off ch=10 n=54 v=0
102720 On ch=10 n=54 v=60
102816 Off ch=10 n=54 v=0
102816 On ch=10 n=54 v=46
102912 Off ch=10 n=54 v=0
102912 On ch=10 n=54 v=76
103008 Off ch=10 n=54 v=0
103008 On ch=10 n=54 v=46
103104 Off ch=10 n=54 v=0
103104 On ch=10 n=54 v=64
103200 Off ch=10 n=54 v=0
103200 On ch=10 n=54 v=46
103296 Off ch=10 n=54 v=0
103296 On ch=10 n=54 v=108
103392 Off ch=10 n=54 v=0
103392 On ch=10 n=54 v=46
103488 Off ch=10 n=54 v=0
103488 On ch=10 n=54 v=60
103584 Off ch=10 n=54 v=0
103584 On ch=10 n=54 v=46
103680 Off ch=10 n=54 v=0
103680 On ch=10 n=54 v=76
103776 Off ch=10 n=54 v=0
103776 On ch=10 n=54 v=46
103872 Off ch=10 n=54 v=0
103872 On ch=10 n=54 v=64
103968 Off ch=10 n=54 v=0
103968 On ch=10 n=54 v=46
104064 Off ch=10 n=54 v=0
104064 On ch=10 n=54 v=112
104160 Off ch=10 n=54 v=0
104160 On ch=10 n=54 v=46
104256 Off ch=10 n=54 v=0
104256 On ch=10 n=54 v=60
104352 Off ch=10 n=54 v=0
104352 On ch=10 n=54 v=46
104448 Off ch=10 n=54 v=0
104448 On ch=10 n=54 v=76
104544 Off ch=10 n=54 v=0
104544 On ch=10 n=54 v=46
104640 Off ch=10 n=54 v=0
104640 On ch=10 n=54 v=64
104736 Off ch=10 n=54 v=0
104736 On ch=10 n=54 v=46
104832 Off ch=10 n=54 v=0
104832 On ch=10 n=54 v=108
104928 Off ch=10 n=54 v=0
104928 On ch=10 n=54 v=46
105024 Off ch=10 n=54 v=0
105024 On ch=10 n=54 v=60
105120 Off ch=10 n=54 v=0
105120 On ch=10 n=54 v=46
105216 Off ch=10 n=54 v=0
105216 On ch=10 n=54 v=76
105312 Off ch=10 n=54 v=0
105312 On ch=10 n=54 v=46
105408 Off ch=10 n=54 v=0
105408 On ch=10 n=54 v=64
105504 Off ch=10 n=54 v=0
105504 On ch=10 n=54 v=46
105600 Off ch=10 n=54 v=0
105600 On ch=10 n=54 v=112
105696 Off ch=10 n=54 v=0
105696 On ch=10 n=54 v=46
105792 Off ch=10 n=54 v=0
105792 On ch=10 n=54 v=60
105888 Off ch=10 n=54 v=0
105888 On ch=10 n=54 v=46
105984 Off ch=10 n=54 v=0
105984 On ch=10 n=54 v=76
106080 Off ch=10 n=54 v=0
106080 On ch=10 n=54 v=46
106176 Off ch=10 n=54 v=0
106176 On ch=10 n=54 v=64
106272 Off ch=10 n=54 v=0
106272 On ch=10 n=54 v=46
106368 Off ch=10 n=54 v=0
106368 On ch=10 n=54 v=108
106464 Off ch=10 n=54 v=0
106464 On ch=10 n=54 v=46
106560 Off ch=10 n=54 v=0
106560 On ch=10 n=54 v=60
106656 Off ch=10 n=54 v=0
106656 On ch=10 n=54 v=46
106752 Off ch=10 n=54 v=0
106752 On ch=10 n=54 v=76
106848 Off ch=10 n=54 v=0
106848 On ch=10 n=54 v=46
106944 Off ch=10 n=54 v=0
106944 On ch=10 n=54 v=64
107040 Off ch=10 n=54 v=0
107040 On ch=10 n=54 v=46
107136 Off ch=10 n=54 v=0
107136 On ch=10 n=54 v=112
107232 Off ch=10 n=54 v=0
107232 On ch=10 n=54 v=46
107328 Off ch=10 n=54 v=0
107328 On ch=10 n=54 v=60
107424 Off ch=10 n=54 v=0
107424 On ch=10 n=54 v=46
107520 Off ch=10 n=54 v=0
107520 On ch=10 n=54 v=76
107616 Off ch=10 n=54 v=0
107616 On ch=10 n=54 v=46
107712 Off ch=10 n=54 v=0
107712 On ch=10 n=54 v=64
107808 Off ch=10 n=54 v=0
107808 On ch=10 n=54 v=46
107904 Off ch=10 n=54 v=0
107904 On ch=10 n=54 v=108
108000 Off ch=10 n=54 v=0
108000 On ch=10 n=54 v=46
108096 Off ch=10 n=54 v=0
108096 On ch=10 n=54 v=60
108192 Off ch=10 n=54 v=0
108192 On ch=10 n=54 v=46
108288 Off ch=10 n=54 v=0
108288 On ch=10 n=54 v=76
108384 Off ch=10 n=54 v=0
108384 On ch=10 n=54 v=46
108480 Off ch=10 n=54 v=0
108480 On ch=10 n=54 v=64
108576 Off ch=10 n=54 v=0
108576 On ch=10 n=54 v=46
108672 Off ch=10 n=54 v=0
108672 On ch=10 n=54 v=112
108768 Off ch=10 n=54 v=0
108768 On ch=10 n=54 v=46
108864 Off ch=10 n=54 v=0
108864 On ch=10 n=54 v=60
108960 Off ch=10 n=54 v=0
108960 On ch=10 n=54 v=46
109056 Off ch=10 n=54 v=0
109056 On ch=10 n=54 v=76
109152 Off ch=10 n=54 v=0
109152 On ch=10 n=54 v=77
109248 Off ch=10 n=54 v=0
109248 On ch=10 n=54 v=76
109344 Off ch=10 n=54 v=0
109344 On ch=10 n=54 v=76
109440 Off ch=10 n=54 v=0
109440 On ch=10 n=54 v=76
109536 Off ch=10 n=54 v=0
109536 On ch=10 n=54 v=76
109632 Off ch=10 n=54 v=0
109632 On ch=10 n=54 v=75
109728 Off ch=10 n=54 v=0
109728 On ch=10 n=54 v=75
109824 Off ch=10 n=54 v=0
109824 On ch=10 n=54 v=75
109920 Off ch=10 n=54 v=0
109920 On ch=10 n=54 v=74
110016 Off ch=10 n=54 v=0
110016 On ch=10 n=54 v=74
110112 Off ch=10 n=54 v=0
110112 On ch=10 n=54 v=74
110208 Off ch=10 n=54 v=0
110208 On ch=10 n=54 v=74
110304 Off ch=10 n=54 v=0
110304 On ch=10 n=54 v=73
110400 Off ch=10 n=54 v=0
110400 On ch=10 n=54 v=73
110496 Off ch=10 n=54 v=0
110496 On ch=10 n=54 v=65
110592 Off ch=10 n=54 v=0
110592 On ch=10 n=54 v=65
110688 Off ch=10 n=54 v=0
110688 On ch=10 n=54 v=64
110784 Off ch=10 n=54 v=0
110784 On ch=10 n=54 v=64
110880 Off ch=10 n=54 v=0
110880 On ch=10 n=54 v=64
110976 Off ch=10 n=54 v=0
110976 On ch=10 n=54 v=64
111072 Off ch=10 n=54 v=0
111072 On ch=10 n=54 v=63
111168 Off ch=10 n=54 v=0
111168 On ch=10 n=54 v=63
111264 Off ch=10 n=54 v=0
111264 On ch=10 n=54 v=63
111360 Off ch=10 n=54 v=0
111360 On ch=10 n=54 v=63
111456 Off ch=10 n=54 v=0
111456 On ch=10 n=54 v=62
111552 Off ch=10 n=54 v=0
111552 On ch=10 n=54 v=62
111648 Off ch=10 n=54 v=0
111648 On ch=10 n=54 v=62
111744 Off ch=10 n=54 v=0
111744 On ch=10 n=54 v=62
111840 Off ch=10 n=54 v=0
111840 On ch=10 n=54 v=61
111936 Off ch=10 n=54 v=0
111936 On ch=10 n=54 v=61
112032 Off ch=10 n=54 v=0
112032 On ch=10 n=54 v=61
112128 Off ch=10 n=54 v=0
112128 On ch=10 n=54 v=61
112224 Off ch=10 n=54 v=0
112224 On ch=10 n=54 v=60
112320 Off ch=10 n=54 v=0
112320 On ch=10 n=54 v=60
112416 Off ch=10 n=54 v=0
112416 On ch=10 n=54 v=60
112512 Off ch=10 n=54 v=0
112512 On ch=10 n=54 v=59
112608 Off ch=10 n=54 v=0
112608 On ch=10 n=54 v=59
112704 Off ch=10 n=54 v=0
112704 On ch=10 n=54 v=59
112800 Off ch=10 n=54 v=0
112800 On ch=10 n=54 v=59
112896 Off ch=10 n=54 v=0
112896 On ch=10 n=54 v=58
112992 Off ch=10 n=54 v=0
112992 On ch=10 n=54 v=58
113088 Off ch=10 n=54 v=0
113088 On ch=10 n=54 v=58
113184 Off ch=10 n=54 v=0
113184 On ch=10 n=54 v=58
113280 Off ch=10 n=54 v=0
113280 On ch=10 n=54 v=57
113376 Off ch=10 n=54 v=0
113376 On ch=10 n=54 v=57
113472 Off ch=10 n=54 v=0
113472 On ch=10 n=54 v=57
113568 Off ch=10 n=54 v=0
113568 On ch=10 n=54 v=57
113664 Off ch=10 n=54 v=0
113664 On ch=10 n=54 v=56
113760 Off ch=10 n=54 v=0
113760 On ch=10 n=54 v=56
113856 Off ch=10 n=54 v=0
113856 On ch=10 n=54 v=56
113952 Off ch=10 n=54 v=0
113952 On ch=10 n=54 v=56
114048 Off ch=10 n=54 v=0
114048 On ch=10 n=54 v=55
114144 Off ch=10 n=54 v=0
114144 On ch=10 n=54 v=55
114240 Off ch=10 n=54 v=0
114240 On ch=10 n=54 v=55
114336 Off ch=10 n=54 v=0
114336 On ch=10 n=54 v=55
114432 Off ch=10 n=54 v=0
114432 On ch=10 n=54 v=54
114528 Off ch=10 n=54 v=0
114528 On ch=10 n=54 v=54
114624 Off ch=10 n=54 v=0
114624 On ch=10 n=54 v=54
114720 Off ch=10 n=54 v=0
114720 On ch=10 n=54 v=54
114816 Off ch=10 n=54 v=0
114816 On ch=10 n=54 v=53
114912 Off ch=10 n=54 v=0
114912 On ch=10 n=54 v=53
115008 Off ch=10 n=54 v=0
115008 On ch=10 n=54 v=53
115104 Off ch=10 n=54 v=0
115104 On ch=10 n=54 v=52
115200 Off ch=10 n=54 v=0
115200 On ch=10 n=54 v=52
115296 Off ch=10 n=54 v=0
115296 On ch=10 n=54 v=52
115392 Off ch=10 n=54 v=0
115392 On ch=10 n=54 v=52
115488 Off ch=10 n=54 v=0
115488 On ch=10 n=54 v=51
115584 Off ch=10 n=54 v=0
115584 On ch=10 n=54 v=51
115680 Off ch=10 n=54 v=0
115680 On ch=10 n=54 v=51
115776 Off ch=10 n=54 v=0
115776 On ch=10 n=54 v=51
115872 Off ch=10 n=54 v=0
115872 On ch=10 n=54 v=50
115968 Off ch=10 n=54 v=0
115968 On ch=10 n=54 v=50
116064 Off ch=10 n=54 v=0
116064 On ch=10 n=54 v=50
116160 Off ch=10 n=54 v=0
116160 On ch=10 n=54 v=50
116256 Off ch=10 n=54 v=0
116256 On ch=10 n=54 v=49
116352 Off ch=10 n=54 v=0
116352 On ch=10 n=54 v=49
116448 Off ch=10 n=54 v=0
116448 On ch=10 n=54 v=49
116544 Off ch=10 n=54 v=0
116544 On ch=10 n=54 v=49
116640 Off ch=10 n=54 v=0
116640 On ch=10 n=54 v=48
116736 Off ch=10 n=54 v=0
116736 On ch=10 n=54 v=48
116832 Off ch=10 n=54 v=0
116832 On ch=10 n=54 v=48
116928 Off ch=10 n=54 v=0
116928 On ch=10 n=54 v=48
117024 Off ch=10 n=54 v=0
117024 On ch=10 n=54 v=47
117120 Off ch=10 n=54 v=0
117120 On ch=10 n=54 v=47
117216 Off ch=10 n=54 v=0
117216 On ch=10 n=54 v=47
117312 Off ch=10 n=54 v=0
117312 On ch=10 n=54 v=46
117408 Off ch=10 n=54 v=0
117408 On ch=10 n=54 v=46
117504 Off ch=10 n=54 v=0
117504 On ch=10 n=54 v=46
117600 Off ch=10 n=54 v=0
117600 On ch=10 n=54 v=46
117696 Off ch=10 n=54 v=0
117696 On ch=10 n=54 v=45
117792 Off ch=10 n=54 v=0
117792 On ch=10 n=54 v=45
117888 Off ch=10 n=54 v=0
117888 On ch=10 n=54 v=45
117984 Off ch=10 n=54 v=0
117984 On ch=10 n=54 v=45
118080 Off ch=10 n=54 v=0
118080 On ch=10 n=54 v=44
118176 Off ch=10 n=54 v=0
118176 On ch=10 n=54 v=44
118272 Off ch=10 n=54 v=0
118272 On ch=10 n=54 v=44
118368 Off ch=10 n=54 v=0
118368 On ch=10 n=54 v=44
118464 Off ch=10 n=54 v=0
118464 On ch=10 n=54 v=43
118560 Off ch=10 n=54 v=0
118560 On ch=10 n=54 v=43
118656 Off ch=10 n=54 v=0
118656 On ch=10 n=54 v=43
118752 Off ch=10 n=54 v=0
118752 On ch=10 n=54 v=43
118848 Off ch=10 n=54 v=0
118848 On ch=10 n=54 v=42
118944 Off ch=10 n=54 v=0
118944 On ch=10 n=54 v=42
119040 Off ch=10 n=54 v=0
119040 On ch=10 n=54 v=42
119136 Off ch=10 n=54 v=0
119136 On ch=10 n=54 v=42
119232 Off ch=10 n=54 v=0
119232 On ch=10 n=54 v=41
119328 Off ch=10 n=54 v=0
119328 On ch=10 n=54 v=41
119424 Off ch=10 n=54 v=0
119424 On ch=10 n=54 v=41
119520 Off ch=10 n=54 v=0
119520 On ch=10 n=54 v=40
119616 Off ch=10 n=54 v=0
119616 On ch=10 n=54 v=40
119712 Off ch=10 n=54 v=0
119712 On ch=10 n=54 v=40
119808 Off ch=10 n=54 v=0
119808 On ch=10 n=54 v=40
119904 Off ch=10 n=54 v=0
119904 On ch=10 n=54 v=39
120000 Off ch=10 n=54 v=0
120000 On ch=10 n=54 v=39
120096 Off ch=10 n=54 v=0
120096 On ch=10 n=54 v=39
120192 Off ch=10 n=54 v=0
120192 On ch=10 n=54 v=39
120288 Off ch=10 n=54 v=0
120288 On ch=10 n=54 v=38
120384 Off ch=10 n=54 v=0
120384 On ch=10 n=54 v=38
120480 Off ch=10 n=54 v=0
120480 On ch=10 n=54 v=38
120576 Off ch=10 n=54 v=0
120576 On ch=10 n=54 v=38
120672 Off ch=10 n=54 v=0
120672 On ch=10 n=54 v=37
120768 Off ch=10 n=54 v=0
120768 On ch=10 n=54 v=37
120864 Off ch=10 n=54 v=0
120864 On ch=10 n=54 v=37
120960 Off ch=10 n=54 v=0
120960 On ch=10 n=54 v=37
121056 Off ch=10 n=54 v=0
121056 On ch=10 n=54 v=36
121152 Off ch=10 n=54 v=0
121152 On ch=10 n=54 v=36
121248 Off ch=10 n=54 v=0
121248 On ch=10 n=54 v=36
121344 Off ch=10 n=54 v=0
121344 On ch=10 n=54 v=36
121440 Off ch=10 n=54 v=0
121440 On ch=10 n=54 v=35
121536 Off ch=10 n=54 v=0
121536 On ch=10 n=54 v=35
121632 Off ch=10 n=54 v=0
121632 On ch=10 n=54 v=35
121728 Off ch=10 n=54 v=0
121728 On ch=10 n=54 v=35
121824 Off ch=10 n=54 v=0
121824 On ch=10 n=54 v=34
121920 Off ch=10 n=54 v=0
121920 On ch=10 n=54 v=34
122016 Off ch=10 n=54 v=0
122016 On ch=10 n=54 v=34
122112 Off ch=10 n=54 v=0
122112 On ch=10 n=54 v=33
122208 Off ch=10 n=54 v=0
122208 On ch=10 n=54 v=33
122304 Off ch=10 n=54 v=0
122304 On ch=10 n=54 v=33
122400 Off ch=10 n=54 v=0
122400 On ch=10 n=54 v=33
122496 Off ch=10 n=54 v=0
122496 On ch=10 n=54 v=32
122592 Off ch=10 n=54 v=0
122592 On ch=10 n=54 v=32
122688 Off ch=10 n=54 v=0
122688 On ch=10 n=54 v=32
122784 Off ch=10 n=54 v=0
122784 On ch=10 n=54 v=32
122880 Off ch=10 n=54 v=0
122880 On ch=10 n=54 v=31
122976 Off ch=10 n=54 v=0
122976 On ch=10 n=54 v=31
123072 Off ch=10 n=54 v=0
123072 On ch=10 n=54 v=31
123168 Off ch=10 n=54 v=0
123168 On ch=10 n=54 v=31
123264 Off ch=10 n=54 v=0
123264 On ch=10 n=54 v=30
123360 Off ch=10 n=54 v=0
123360 On ch=10 n=54 v=30
123456 Off ch=10 n=54 v=0
123456 On ch=10 n=54 v=30
123552 Off ch=10 n=54 v=0
123552 On ch=10 n=54 v=30
123648 Off ch=10 n=54 v=0
123648 On ch=10 n=54 v=29
123744 Off ch=10 n=54 v=0
123744 On ch=10 n=54 v=29
123840 Off ch=10 n=54 v=0
123840 On ch=10 n=54 v=29
123936 Off ch=10 n=54 v=0
123936 On ch=10 n=54 v=29
124032 Off ch=10 n=54 v=0
124032 On ch=10 n=54 v=28
124128 Off ch=10 n=54 v=0
124128 On ch=10 n=54 v=28
124224 Off ch=10 n=54 v=0
124224 On ch=10 n=54 v=28
124320 Off ch=10 n=54 v=0
124320 On ch=10 n=54 v=27
124416 Off ch=10 n=54 v=0
124416 On ch=10 n=54 v=27
124512 Off ch=10 n=54 v=0
124512 On ch=10 n=54 v=27
124608 Off ch=10 n=54 v=0
124608 On ch=10 n=54 v=27
124704 Off ch=10 n=54 v=0
124704 On ch=10 n=54 v=26
124800 Off ch=10 n=54 v=0
124800 On ch=10 n=54 v=26
124896 Off ch=10 n=54 v=0
124896 On ch=10 n=54 v=26
124992 Off ch=10 n=54 v=0
124992 On ch=10 n=54 v=26
125088 Off ch=10 n=54 v=0
125088 On ch=10 n=54 v=25
125184 Off ch=10 n=54 v=0
125184 On ch=10 n=54 v=25
125280 Off ch=10 n=54 v=0
125280 On ch=10 n=54 v=25
125376 Off ch=10 n=54 v=0
125376 On ch=10 n=54 v=25
125472 Off ch=10 n=54 v=0
125472 On ch=10 n=54 v=24
125568 Off ch=10 n=54 v=0
125568 On ch=10 n=54 v=24
125664 Off ch=10 n=54 v=0
125664 On ch=10 n=54 v=24
125760 Off ch=10 n=54 v=0
125760 On ch=10 n=54 v=24
125856 Off ch=10 n=54 v=0
125856 On ch=10 n=54 v=23
125952 Off ch=10 n=54 v=0
125952 On ch=10 n=54 v=23
126048 Off ch=10 n=54 v=0
126048 On ch=10 n=54 v=23
126144 Off ch=10 n=54 v=0
126144 On ch=10 n=54 v=23
126240 Off ch=10 n=54 v=0
126240 On ch=10 n=54 v=22
126336 Off ch=10 n=54 v=0
126336 On ch=10 n=54 v=22
126432 Off ch=10 n=54 v=0
126432 On ch=10 n=54 v=22
126528 Off ch=10 n=54 v=0
126528 On ch=10 n=54 v=21
126624 Off ch=10 n=54 v=0
126624 On ch=10 n=54 v=21
126720 Off ch=10 n=54 v=0
126720 On ch=10 n=54 v=21
126816 Off ch=10 n=54 v=0
126816 On ch=10 n=54 v=21
126912 Off ch=10 n=54 v=0
126912 On ch=10 n=54 v=20
127008 Off ch=10 n=54 v=0
127008 On ch=10 n=54 v=20
127104 Off ch=10 n=54 v=0
127104 On ch=10 n=54 v=20
127200 Off ch=10 n=54 v=0
127200 On ch=10 n=54 v=20
127296 Off ch=10 n=54 v=0
127296 On ch=10 n=54 v=19
127392 Off ch=10 n=54 v=0
127392 On ch=10 n=54 v=19
127488 Off ch=10 n=54 v=0
127488 On ch=10 n=54 v=19
127584 Off ch=10 n=54 v=0
127584 On ch=10 n=54 v=19
127680 Off ch=10 n=54 v=0
127680 On ch=10 n=54 v=18
127776 Off ch=10 n=54 v=0
127776 On ch=10 n=54 v=18
127872 Off ch=10 n=54 v=0
127872 On ch=10 n=54 v=18
127968 Off ch=10 n=54 v=0
127968 On ch=10 n=54 v=18
128064 Off ch=10 n=54 v=0
128064 On ch=10 n=54 v=17
128160 Off ch=10 n=54 v=0
128160 On ch=10 n=54 v=17
128256 Off ch=10 n=54 v=0
128256 On ch=10 n=54 v=17
128352 Off ch=10 n=54 v=0
128352 On ch=10 n=54 v=17
128448 Off ch=10 n=54 v=0
128448 On ch=10 n=54 v=16
128544 Off ch=10 n=54 v=0
128544 On ch=10 n=54 v=16
128640 Off ch=10 n=54 v=0
128640 On ch=10 n=54 v=16
128736 Off ch=10 n=54 v=0
128736 On ch=10 n=54 v=16
128832 Off ch=10 n=54 v=0
128832 On ch=10 n=54 v=16
128928 Off ch=10 n=54 v=0
128928 On ch=10 n=54 v=16
129024 Off ch=10 n=54 v=0
129024 On ch=10 n=54 v=16
129120 Off ch=10 n=54 v=0
129120 On ch=10 n=54 v=16
129216 Off ch=10 n=54 v=0
129216 On ch=10 n=54 v=16
129312 Off ch=10 n=54 v=0
129312 On ch=10 n=54 v=16
129408 Off ch=10 n=54 v=0
129408 On ch=10 n=54 v=16
129504 Off ch=10 n=54 v=0
129504 On ch=10 n=54 v=16
129600 Off ch=10 n=54 v=0
129600 On ch=10 n=54 v=16
129696 Off ch=10 n=54 v=0
129696 On ch=10 n=54 v=16
129792 Off ch=10 n=54 v=0
129792 On ch=10 n=54 v=16
129888 Off ch=10 n=54 v=0
129888 On ch=10 n=54 v=16
129984 Off ch=10 n=54 v=0
129984 On ch=10 n=54 v=16
130080 Off ch=10 n=54 v=0
130080 On ch=10 n=54 v=16
130176 Off ch=10 n=54 v=0
130176 On ch=10 n=54 v=16
130272 Off ch=10 n=54 v=0
130272 On ch=10 n=54 v=16
130368 Off ch=10 n=54 v=0
130368 On ch=10 n=54 v=16
130464 Off ch=10 n=54 v=0
130464 On ch=10 n=54 v=16
130560 Off ch=10 n=54 v=0
130560 On ch=10 n=54 v=16
130656 Off ch=10 n=54 v=0
130656 On ch=10 n=54 v=16
130752 Off ch=10 n=54 v=0
130752 On ch=10 n=54 v=16
130848 Off ch=10 n=54 v=0
130848 On ch=10 n=54 v=16
130944 Off ch=10 n=54 v=0
130944 On ch=10 n=54 v=16
131040 Off ch=10 n=54 v=0
131040 On ch=10 n=54 v=16
131136 Off ch=10 n=54 v=0
131136 On ch=10 n=54 v=16
131232 Off ch=10 n=54 v=0
131232 On ch=10 n=54 v=16
131328 Off ch=10 n=54 v=0
131328 On ch=10 n=54 v=16
131424 Off ch=10 n=54 v=0
131424 On ch=10 n=54 v=16
131520 Off ch=10 n=54 v=0
131520 On ch=10 n=54 v=16
131616 Off ch=10 n=54 v=0
131616 On ch=10 n=54 v=16
131712 Off ch=10 n=54 v=0
131712 On ch=10 n=54 v=16
131808 Off ch=10 n=54 v=0
131808 On ch=10 n=54 v=16
131904 Off ch=10 n=54 v=0
131904 On ch=10 n=54 v=16
132000 Off ch=10 n=54 v=0
132000 On ch=10 n=54 v=16
132096 Off ch=10 n=54 v=0
132096 On ch=10 n=54 v=16
132192 Off ch=10 n=54 v=0
132192 On ch=10 n=54 v=16
132288 Off ch=10 n=54 v=0
132288 On ch=10 n=54 v=16
132384 Off ch=10 n=54 v=0
132384 On ch=10 n=54 v=16
132480 Off ch=10 n=54 v=0
132480 On ch=10 n=54 v=16
132576 Off ch=10 n=54 v=0
132576 On ch=10 n=54 v=16
132672 Off ch=10 n=54 v=0
132672 On ch=10 n=54 v=16
132768 Off ch=10 n=54 v=0
132768 On ch=10 n=54 v=16
132864 Off ch=10 n=54 v=0
132864 On ch=10 n=54 v=16
132960 Off ch=10 n=54 v=0
132960 On ch=10 n=54 v=16
133056 Off ch=10 n=54 v=0
133056 On ch=10 n=54 v=16
133152 Off ch=10 n=54 v=0
133152 On ch=10 n=54 v=16
133248 Off ch=10 n=54 v=0
133248 On ch=10 n=54 v=16
133344 Off ch=10 n=54 v=0
133344 On ch=10 n=54 v=16
133440 Off ch=10 n=54 v=0
133440 On ch=10 n=54 v=16
133536 Off ch=10 n=54 v=0
133536 On ch=10 n=54 v=16
133632 Off ch=10 n=54 v=0
133632 Meta TrkEnd
TrkEnd
MTrk
0 Meta TrkName "RIDE CYMB"
26112 On ch=10 n=51 v=80
26208 Off ch=10 n=51 v=0
26304 On ch=10 n=51 v=78
26400 Off ch=10 n=51 v=0
26496 On ch=10 n=51 v=73
26592 Off ch=10 n=51 v=0
27648 On ch=10 n=51 v=50
27744 Off ch=10 n=51 v=0
27840 On ch=10 n=51 v=50
27936 Off ch=10 n=51 v=0
28032 On ch=10 n=51 v=50
28128 Off ch=10 n=51 v=0
28224 On ch=10 n=51 v=50
28320 Off ch=10 n=51 v=0
28416 On ch=10 n=51 v=50
28512 Off ch=10 n=51 v=0
28608 On ch=10 n=51 v=50
28704 Off ch=10 n=51 v=0
28800 On ch=10 n=51 v=50
28896 Off ch=10 n=51 v=0
28992 On ch=10 n=51 v=50
29088 Off ch=10 n=51 v=0
29184 On ch=10 n=51 v=50
29280 Off ch=10 n=51 v=0
29376 On ch=10 n=51 v=50
29472 Off ch=10 n=51 v=0
29568 On ch=10 n=51 v=50
29664 Off ch=10 n=51 v=0
29760 On ch=10 n=51 v=50
29856 Off ch=10 n=51 v=0
29952 On ch=10 n=51 v=50
30048 Off ch=10 n=51 v=0
30144 On ch=10 n=51 v=50
30240 Off ch=10 n=51 v=0
30336 On ch=10 n=51 v=50
30432 Off ch=10 n=51 v=0
30528 On ch=10 n=51 v=50
30624 Off ch=10 n=51 v=0
30720 On ch=10 n=51 v=50
30816 Off ch=10 n=51 v=0
30912 On ch=10 n=51 v=50
31008 Off ch=10 n=51 v=0
31104 On ch=10 n=51 v=50
31200 Off ch=10 n=51 v=0
31296 On ch=10 n=51 v=50
31392 Off ch=10 n=51 v=0
31488 On ch=10 n=51 v=50
31584 Off ch=10 n=51 v=0
31680 On ch=10 n=51 v=50
31776 Off ch=10 n=51 v=0
31872 On ch=10 n=51 v=50
31968 Off ch=10 n=51 v=0
32064 On ch=10 n=51 v=50
32160 Off ch=10 n=51 v=0
32256 On ch=10 n=51 v=50
32352 Off ch=10 n=51 v=0
32448 On ch=10 n=51 v=50
32544 Off ch=10 n=51 v=0
32640 On ch=10 n=51 v=50
32736 Off ch=10 n=51 v=0
32832 On ch=10 n=51 v=50
32928 Off ch=10 n=51 v=0
33024 On ch=10 n=51 v=50
33120 Off ch=10 n=51 v=0
33216 On ch=10 n=51 v=50
33312 Off ch=10 n=51 v=0
33792 On ch=10 n=51 v=68
33888 Off ch=10 n=51 v=0
33984 On ch=10 n=51 v=48
34080 Off ch=10 n=51 v=0
34176 On ch=10 n=51 v=44
34272 Off ch=10 n=51 v=0
34368 On ch=10 n=51 v=50
34464 Off ch=10 n=51 v=0
34560 On ch=10 n=51 v=50
34656 Off ch=10 n=51 v=0
34752 On ch=10 n=51 v=50
34848 Off ch=10 n=51 v=0
34944 On ch=10 n=51 v=50
35040 Off ch=10 n=51 v=0
35136 On ch=10 n=51 v=50
35232 Off ch=10 n=51 v=0
35328 On ch=10 n=51 v=50
35424 Off ch=10 n=51 v=0
35520 On ch=10 n=51 v=50
35616 Off ch=10 n=51 v=0
35712 On ch=10 n=51 v=50
35808 Off ch=10 n=51 v=0
35904 On ch=10 n=51 v=50
36000 Off ch=10 n=51 v=0
36096 On ch=10 n=51 v=50
36192 Off ch=10 n=51 v=0
36288 On ch=10 n=51 v=50
36384 Off ch=10 n=51 v=0
36480 On ch=10 n=51 v=50
36576 Off ch=10 n=51 v=0
36672 On ch=10 n=51 v=50
36768 Off ch=10 n=51 v=0
36864 On ch=10 n=51 v=50
36960 Off ch=10 n=51 v=0
37056 On ch=10 n=51 v=50
37152 Off ch=10 n=51 v=0
37248 On ch=10 n=51 v=50
37344 Off ch=10 n=51 v=0
37440 On ch=10 n=51 v=50
37536 Off ch=10 n=51 v=0
37632 On ch=10 n=51 v=50
37728 Off ch=10 n=51 v=0
37824 On ch=10 n=51 v=50
37920 Off ch=10 n=51 v=0
38016 On ch=10 n=51 v=50
38112 Off ch=10 n=51 v=0
38208 On ch=10 n=51 v=50
38304 Off ch=10 n=51 v=0
38400 On ch=10 n=51 v=50
38496 Off ch=10 n=51 v=0
38592 On ch=10 n=51 v=50
38688 Off ch=10 n=51 v=0
38784 On ch=10 n=51 v=50
38880 Off ch=10 n=51 v=0
38976 On ch=10 n=51 v=50
39072 Off ch=10 n=51 v=0
39168 On ch=10 n=51 v=50
39264 Off ch=10 n=51 v=0
39360 On ch=10 n=51 v=50
39456 Off ch=10 n=51 v=0
39552 On ch=10 n=51 v=50
39648 Off ch=10 n=51 v=0
39744 On ch=10 n=51 v=50
39840 Off ch=10 n=51 v=0
39936 On ch=10 n=51 v=50
40032 Off ch=10 n=51 v=0
40128 On ch=10 n=51 v=50
40224 Off ch=10 n=51 v=0
40320 On ch=10 n=51 v=50
40416 Off ch=10 n=51 v=0
40512 On ch=10 n=51 v=50
40608 Off ch=10 n=51 v=0
40704 On ch=10 n=51 v=50
40800 Off ch=10 n=51 v=0
40896 On ch=10 n=51 v=64
40992 Off ch=10 n=51 v=0
41472 On ch=10 n=51 v=50
41568 Off ch=10 n=51 v=0
41664 On ch=10 n=51 v=50
41760 Off ch=10 n=51 v=0
41856 On ch=10 n=51 v=50
41952 Off ch=10 n=51 v=0
42048 On ch=10 n=51 v=50
42144 Off ch=10 n=51 v=0
42240 On ch=10 n=51 v=50
42336 Off ch=10 n=51 v=0
42432 On ch=10 n=51 v=50
42528 Off ch=10 n=51 v=0
42624 On ch=10 n=51 v=50
42720 Off ch=10 n=51 v=0
42816 On ch=10 n=51 v=50
42912 Off ch=10 n=51 v=0
43008 On ch=10 n=51 v=71
43104 Off ch=10 n=51 v=0
43776 On ch=10 n=51 v=77
43872 Off ch=10 n=51 v=0
57600 On ch=10 n=51 v=60
57696 Off ch=10 n=51 v=0
57792 On ch=10 n=51 v=60
57888 Off ch=10 n=51 v=0
57984 On ch=10 n=51 v=68
58080 Off ch=10 n=51 v=0
58176 On ch=10 n=51 v=64
58272 Off ch=10 n=51 v=0
58368 On ch=10 n=51 v=64
58464 Off ch=10 n=51 v=0
59136 On ch=10 n=51 v=50
59232 Off ch=10 n=51 v=0
59328 On ch=10 n=51 v=50
59424 Off ch=10 n=51 v=0
59520 On ch=10 n=51 v=50
59616 Off ch=10 n=51 v=0
59712 On ch=10 n=51 v=50
59808 Off ch=10 n=51 v=0
59904 On ch=10 n=51 v=50
60000 Off ch=10 n=51 v=0
60096 On ch=10 n=51 v=50
60192 Off ch=10 n=51 v=0
60288 On ch=10 n=51 v=50
60384 Off ch=10 n=51 v=0
60480 On ch=10 n=51 v=50
60576 Off ch=10 n=51 v=0
60672 On ch=10 n=51 v=50
60768 Off ch=10 n=51 v=0
60864 On ch=10 n=51 v=50
60960 Off ch=10 n=51 v=0
61056 On ch=10 n=51 v=50
61152 Off ch=10 n=51 v=0
61248 On ch=10 n=51 v=50
61344 Off ch=10 n=51 v=0
61440 On ch=10 n=51 v=50
61536 Off ch=10 n=51 v=0
61632 On ch=10 n=51 v=50
61728 Off ch=10 n=51 v=0
61824 On ch=10 n=51 v=50
61920 Off ch=10 n=51 v=0
62016 On ch=10 n=51 v=50
62112 Off ch=10 n=51 v=0
62208 On ch=10 n=51 v=50
62304 Off ch=10 n=51 v=0
62400 On ch=10 n=51 v=50
62496 Off ch=10 n=51 v=0
62592 On ch=10 n=51 v=50
62688 Off ch=10 n=51 v=0
62784 On ch=10 n=51 v=50
62880 Off ch=10 n=51 v=0
62976 On ch=10 n=51 v=50
63072 Off ch=10 n=51 v=0
63168 On ch=10 n=51 v=50
63264 Off ch=10 n=51 v=0
63360 On ch=10 n=51 v=50
63456 Off ch=10 n=51 v=0
63552 On ch=10 n=51 v=50
63648 Off ch=10 n=51 v=0
63744 On ch=10 n=51 v=50
63840 Off ch=10 n=51 v=0
63936 On ch=10 n=51 v=50
64032 Off ch=10 n=51 v=0
64128 On ch=10 n=51 v=50
64224 Off ch=10 n=51 v=0
64320 On ch=10 n=51 v=50
64416 Off ch=10 n=51 v=0
64512 On ch=10 n=51 v=50
64608 Off ch=10 n=51 v=0
64704 On ch=10 n=51 v=50
64800 Off ch=10 n=51 v=0
65280 On ch=10 n=51 v=68
65376 Off ch=10 n=51 v=0
65472 On ch=10 n=51 v=48
65568 Off ch=10 n=51 v=0
65664 On ch=10 n=51 v=44
65760 Off ch=10 n=51 v=0
65856 On ch=10 n=51 v=50
65952 Off ch=10 n=51 v=0
66048 On ch=10 n=51 v=50
66144 Off ch=10 n=51 v=0
66240 On ch=10 n=51 v=50
66336 Off ch=10 n=51 v=0
66432 On ch=10 n=51 v=50
66528 Off ch=10 n=51 v=0
66624 On ch=10 n=51 v=50
66720 Off ch=10 n=51 v=0
66816 On ch=10 n=51 v=50
66912 Off ch=10 n=51 v=0
67008 On ch=10 n=51 v=50
67104 Off ch=10 n=51 v=0
67200 On ch=10 n=51 v=50
67296 Off ch=10 n=51 v=0
67392 On ch=10 n=51 v=50
67488 Off ch=10 n=51 v=0
67584 On ch=10 n=51 v=50
67680 Off ch=10 n=51 v=0
67776 On ch=10 n=51 v=50
67872 Off ch=10 n=51 v=0
67968 On ch=10 n=51 v=50
68064 Off ch=10 n=51 v=0
68160 On ch=10 n=51 v=50
68256 Off ch=10 n=51 v=0
68352 On ch=10 n=51 v=50
68448 Off ch=10 n=51 v=0
68544 On ch=10 n=51 v=50
68640 Off ch=10 n=51 v=0
68736 On ch=10 n=51 v=50
68832 Off ch=10 n=51 v=0
68928 On ch=10 n=51 v=50
69024 Off ch=10 n=51 v=0
69120 On ch=10 n=51 v=50
69216 Off ch=10 n=51 v=0
69312 On ch=10 n=51 v=50
69408 Off ch=10 n=51 v=0
69504 On ch=10 n=51 v=50
69600 Off ch=10 n=51 v=0
69696 On ch=10 n=51 v=50
69792 Off ch=10 n=51 v=0
69888 On ch=10 n=51 v=50
69984 Off ch=10 n=51 v=0
70080 On ch=10 n=51 v=50
70176 Off ch=10 n=51 v=0
70272 On ch=10 n=51 v=50
70368 Off ch=10 n=51 v=0
70464 On ch=10 n=51 v=50
70560 Off ch=10 n=51 v=0
70656 On ch=10 n=51 v=50
70752 Off ch=10 n=51 v=0
70848 On ch=10 n=51 v=50
70944 Off ch=10 n=51 v=0
71040 On ch=10 n=51 v=50
71136 Off ch=10 n=51 v=0
71232 On ch=10 n=51 v=50
71328 Off ch=10 n=51 v=0
71424 On ch=10 n=51 v=50
71520 Off ch=10 n=51 v=0
71616 On ch=10 n=51 v=50
71712 Off ch=10 n=51 v=0
71808 On ch=10 n=51 v=50
71904 Off ch=10 n=51 v=0
72000 On ch=10 n=51 v=50
72096 Off ch=10 n=51 v=0
72192 On ch=10 n=51 v=50
72288 Off ch=10 n=51 v=0
72384 On ch=10 n=51 v=64
72480 Off ch=10 n=51 v=0
72960 On ch=10 n=51 v=50
73056 Off ch=10 n=51 v=0
73152 On ch=10 n=51 v=50
73248 Off ch=10 n=51 v=0
73344 On ch=10 n=51 v=50
73440 Off ch=10 n=51 v=0
73536 On ch=10 n=51 v=50
73632 Off ch=10 n=51 v=0
73728 On ch=10 n=51 v=50
73824 Off ch=10 n=51 v=0
73920 On ch=10 n=51 v=50
74016 Off ch=10 n=51 v=0
74112 On ch=10 n=51 v=50
74208 Off ch=10 n=51 v=0
74304 On ch=10 n=51 v=50
74400 Off ch=10 n=51 v=0
74496 On ch=10 n=51 v=71
74592 Off ch=10 n=51 v=0
75264 On ch=10 n=51 v=77
75360 Off ch=10 n=51 v=0
76800 On ch=10 n=51 v=50
76896 Off ch=10 n=51 v=0
89088 On ch=10 n=51 v=50
89184 Off ch=10 n=51 v=0
89856 On ch=10 n=51 v=50
89952 Off ch=10 n=51 v=0
90624 On ch=10 n=51 v=80
90720 Off ch=10 n=51 v=0
90816 On ch=10 n=51 v=50
90912 Off ch=10 n=51 v=0
91008 On ch=10 n=51 v=50
91104 Off ch=10 n=51 v=0
91200 On ch=10 n=51 v=50
91296 Off ch=10 n=51 v=0
91392 On ch=10 n=51 v=50
91488 Off ch=10 n=51 v=0
91584 On ch=10 n=51 v=50
91680 Off ch=10 n=51 v=0
91776 On ch=10 n=51 v=50
91872 Off ch=10 n=51 v=0
91968 On ch=10 n=51 v=50
92064 Off ch=10 n=51 v=0
92160 On ch=10 n=51 v=50
92256 Off ch=10 n=51 v=0
92352 On ch=10 n=51 v=50
92448 Off ch=10 n=51 v=0
92544 On ch=10 n=51 v=50
92640 Off ch=10 n=51 v=0
92736 On ch=10 n=51 v=50
92832 Off ch=10 n=51 v=0
92928 On ch=10 n=51 v=50
93024 Off ch=10 n=51 v=0
93120 On ch=10 n=51 v=50
93216 Off ch=10 n=51 v=0
93312 On ch=10 n=51 v=50
93408 Off ch=10 n=51 v=0
93504 On ch=10 n=51 v=50
93600 Off ch=10 n=51 v=0
93696 On ch=10 n=51 v=50
93792 Off ch=10 n=51 v=0
93888 On ch=10 n=51 v=50
93984 Off ch=10 n=51 v=0
94080 On ch=10 n=51 v=50
94176 Off ch=10 n=51 v=0
94272 On ch=10 n=51 v=50
94368 Off ch=10 n=51 v=0
94464 On ch=10 n=51 v=50
94560 Off ch=10 n=51 v=0
94656 On ch=10 n=51 v=50
94752 Off ch=10 n=51 v=0
94848 On ch=10 n=51 v=50
94944 Off ch=10 n=51 v=0
95040 On ch=10 n=51 v=50
95136 Off ch=10 n=51 v=0
95232 On ch=10 n=51 v=50
95328 Off ch=10 n=51 v=0
95424 On ch=10 n=51 v=50
95520 Off ch=10 n=51 v=0
95616 On ch=10 n=51 v=50
95712 Off ch=10 n=51 v=0
95808 On ch=10 n=51 v=50
95904 Off ch=10 n=51 v=0
96000 On ch=10 n=51 v=50
96096 Off ch=10 n=51 v=0
96192 On ch=10 n=51 v=50
96288 Off ch=10 n=51 v=0
96768 On ch=10 n=51 v=80
96864 Off ch=10 n=51 v=0
96960 On ch=10 n=51 v=50
97056 Off ch=10 n=51 v=0
97152 On ch=10 n=51 v=50
97248 Off ch=10 n=51 v=0
97344 On ch=10 n=51 v=50
97440 Off ch=10 n=51 v=0
97536 On ch=10 n=51 v=50
97632 Off ch=10 n=51 v=0
97728 On ch=10 n=51 v=50
97824 Off ch=10 n=51 v=0
97920 On ch=10 n=51 v=50
98016 Off ch=10 n=51 v=0
98112 On ch=10 n=51 v=50
98208 Off ch=10 n=51 v=0
98304 On ch=10 n=51 v=50
98400 Off ch=10 n=51 v=0
98496 On ch=10 n=51 v=50
98592 Off ch=10 n=51 v=0
98688 On ch=10 n=51 v=50
98784 Off ch=10 n=51 v=0
98880 On ch=10 n=51 v=50
98976 Off ch=10 n=51 v=0
99072 On ch=10 n=51 v=50
99168 Off ch=10 n=51 v=0
99264 On ch=10 n=51 v=50
99360 Off ch=10 n=51 v=0
99456 On ch=10 n=51 v=50
99552 Off ch=10 n=51 v=0
99648 On ch=10 n=51 v=50
99744 Off ch=10 n=51 v=0
99840 On ch=10 n=51 v=50
99936 Off ch=10 n=51 v=0
100032 On ch=10 n=51 v=50
100128 Off ch=10 n=51 v=0
100224 On ch=10 n=51 v=50
100320 Off ch=10 n=51 v=0
100416 On ch=10 n=51 v=50
100512 Off ch=10 n=51 v=0
100608 On ch=10 n=51 v=50
100704 Off ch=10 n=51 v=0
100800 On ch=10 n=51 v=50
100896 Off ch=10 n=51 v=0
100992 On ch=10 n=51 v=50
101088 Off ch=10 n=51 v=0
101184 On ch=10 n=51 v=50
101280 Off ch=10 n=51 v=0
101376 On ch=10 n=51 v=50
101472 Off ch=10 n=51 v=0
101568 On ch=10 n=51 v=50
101664 Off ch=10 n=51 v=0
101760 On ch=10 n=51 v=50
101856 Off ch=10 n=51 v=0
101952 On ch=10 n=51 v=50
102048 Off ch=10 n=51 v=0
102144 On ch=10 n=51 v=50
102240 Off ch=10 n=51 v=0
102336 On ch=10 n=51 v=50
102432 Off ch=10 n=51 v=0
102912 On ch=10 n=51 v=80
103008 Off ch=10 n=51 v=0
103104 On ch=10 n=51 v=50
103200 Off ch=10 n=51 v=0
103296 On ch=10 n=51 v=50
103392 Off ch=10 n=51 v=0
103488 On ch=10 n=51 v=50
103584 Off ch=10 n=51 v=0
103680 On ch=10 n=51 v=50
103776 Off ch=10 n=51 v=0
103872 On ch=10 n=51 v=50
103968 Off ch=10 n=51 v=0
104064 On ch=10 n=51 v=50
104160 Off ch=10 n=51 v=0
104256 On ch=10 n=51 v=50
104352 Off ch=10 n=51 v=0
104448 On ch=10 n=51 v=50
104544 Off ch=10 n=51 v=0
104640 On ch=10 n=51 v=50
104736 Off ch=10 n=51 v=0
104832 On ch=10 n=51 v=50
104928 Off ch=10 n=51 v=0
105024 On ch=10 n=51 v=50
105120 Off ch=10 n=51 v=0
105216 On ch=10 n=51 v=50
105312 Off ch=10 n=51 v=0
105408 On ch=10 n=51 v=50
105504 Off ch=10 n=51 v=0
105600 On ch=10 n=51 v=50
105696 Off ch=10 n=51 v=0
105792 On ch=10 n=51 v=50
105888 Off ch=10 n=51 v=0
105984 On ch=10 n=51 v=50
106080 Off ch=10 n=51 v=0
106176 On ch=10 n=51 v=50
106272 Off ch=10 n=51 v=0
106368 On ch=10 n=51 v=50
106464 Off ch=10 n=51 v=0
106560 On ch=10 n=51 v=50
106656 Off ch=10 n=51 v=0
106752 On ch=10 n=51 v=50
106848 Off ch=10 n=51 v=0
106944 On ch=10 n=51 v=50
107040 Off ch=10 n=51 v=0
107136 On ch=10 n=51 v=50
107232 Off ch=10 n=51 v=0
107328 On ch=10 n=51 v=50
107424 Off ch=10 n=51 v=0
107520 On ch=10 n=51 v=50
107616 Off ch=10 n=51 v=0
107712 On ch=10 n=51 v=50
107808 Off ch=10 n=51 v=0
107904 On ch=10 n=51 v=50
108000 Off ch=10 n=51 v=0
108096 On ch=10 n=51 v=50
108192 Off ch=10 n=51 v=0
108288 On ch=10 n=51 v=50
108384 Off ch=10 n=51 v=0
108480 On ch=10 n=51 v=50
108576 Off ch=10 n=51 v=0
109056 On ch=10 n=51 v=80
109152 Off ch=10 n=51 v=0
109248 On ch=10 n=51 v=50
109344 Off ch=10 n=51 v=0
109440 On ch=10 n=51 v=50
109536 Off ch=10 n=51 v=0
109632 On ch=10 n=51 v=50
109728 Off ch=10 n=51 v=0
109824 On ch=10 n=51 v=50
109920 Off ch=10 n=51 v=0
110016 On ch=10 n=51 v=50
110112 Off ch=10 n=51 v=0
110208 On ch=10 n=51 v=50
110304 Off ch=10 n=51 v=0
110400 On ch=10 n=51 v=50
110496 Off ch=10 n=51 v=0
110592 On ch=10 n=51 v=50
110688 Off ch=10 n=51 v=0
110784 On ch=10 n=51 v=50
110880 Off ch=10 n=51 v=0
110976 On ch=10 n=51 v=50
111072 Off ch=10 n=51 v=0
111168 On ch=10 n=51 v=50
111264 Off ch=10 n=51 v=0
111360 On ch=10 n=51 v=50
111456 Off ch=10 n=51 v=0
111552 On ch=10 n=51 v=50
111648 Off ch=10 n=51 v=0
111744 On ch=10 n=51 v=50
111840 Off ch=10 n=51 v=0
111936 On ch=10 n=51 v=50
112032 Off ch=10 n=51 v=0
112128 On ch=10 n=51 v=50
112224 Off ch=10 n=51 v=0
112320 On ch=10 n=51 v=50
112416 Off ch=10 n=51 v=0
112512 On ch=10 n=51 v=50
112608 Off ch=10 n=51 v=0
112704 On ch=10 n=51 v=50
112800 Off ch=10 n=51 v=0
112896 On ch=10 n=51 v=50
112992 Off ch=10 n=51 v=0
113088 On ch=10 n=51 v=50
113184 Off ch=10 n=51 v=0
113280 On ch=10 n=51 v=50
113376 Off ch=10 n=51 v=0
113472 On ch=10 n=51 v=50
113568 Off ch=10 n=51 v=0
113664 On ch=10 n=51 v=50
113760 Off ch=10 n=51 v=0
113856 On ch=10 n=51 v=50
113952 Off ch=10 n=51 v=0
114048 On ch=10 n=51 v=46
114144 Off ch=10 n=51 v=0
114240 On ch=10 n=51 v=45
114336 Off ch=10 n=51 v=0
114432 On ch=10 n=51 v=45
114528 Off ch=10 n=51 v=0
114624 On ch=10 n=51 v=44
114720 Off ch=10 n=51 v=0
115200 On ch=10 n=51 v=43
115296 Off ch=10 n=51 v=0
115392 On ch=10 n=51 v=43
115488 Off ch=10 n=51 v=0
115584 On ch=10 n=51 v=42
115680 Off ch=10 n=51 v=0
115776 On ch=10 n=51 v=42
115872 Off ch=10 n=51 v=0
115968 On ch=10 n=51 v=41
116064 Off ch=10 n=51 v=0
116160 On ch=10 n=51 v=41
116256 Off ch=10 n=51 v=0
116352 On ch=10 n=51 v=40
116448 Off ch=10 n=51 v=0
116544 On ch=10 n=51 v=40
116640 Off ch=10 n=51 v=0
116736 On ch=10 n=51 v=39
116832 Off ch=10 n=51 v=0
116928 On ch=10 n=51 v=39
117024 Off ch=10 n=51 v=0
117120 On ch=10 n=51 v=38
117216 Off ch=10 n=51 v=0
117312 On ch=10 n=51 v=38
117408 Off ch=10 n=51 v=0
117504 On ch=10 n=51 v=37
117600 Off ch=10 n=51 v=0
117696 On ch=10 n=51 v=37
117792 Off ch=10 n=51 v=0
117888 On ch=10 n=51 v=36
117984 Off ch=10 n=51 v=0
118080 On ch=10 n=51 v=36
118176 Off ch=10 n=51 v=0
118272 On ch=10 n=51 v=35
118368 Off ch=10 n=51 v=0
118464 On ch=10 n=51 v=35
118560 Off ch=10 n=51 v=0
118656 On ch=10 n=51 v=35
118752 Off ch=10 n=51 v=0
118848 On ch=10 n=51 v=34
118944 Off ch=10 n=51 v=0
119040 On ch=10 n=51 v=34
119136 Off ch=10 n=51 v=0
119232 On ch=10 n=51 v=33
119328 Off ch=10 n=51 v=0
119424 On ch=10 n=51 v=33
119520 Off ch=10 n=51 v=0
119616 On ch=10 n=51 v=32
119712 Off ch=10 n=51 v=0
119808 On ch=10 n=51 v=32
119904 Off ch=10 n=51 v=0
120000 On ch=10 n=51 v=31
120096 Off ch=10 n=51 v=0
120192 On ch=10 n=51 v=31
120288 Off ch=10 n=51 v=0
120384 On ch=10 n=51 v=30
120480 Off ch=10 n=51 v=0
120576 On ch=10 n=51 v=30
120672 Off ch=10 n=51 v=0
120768 On ch=10 n=51 v=29
120864 Off ch=10 n=51 v=0
121344 On ch=10 n=51 v=28
121440 Off ch=10 n=51 v=0
121536 On ch=10 n=51 v=27
121632 Off ch=10 n=51 v=0
121728 On ch=10 n=51 v=27
121824 Off ch=10 n=51 v=0
121920 On ch=10 n=51 v=27
122016 Off ch=10 n=51 v=0
122112 On ch=10 n=51 v=26
122208 Off ch=10 n=51 v=0
122304 On ch=10 n=51 v=26
122400 Off ch=10 n=51 v=0
122496 On ch=10 n=51 v=25
122592 Off ch=10 n=51 v=0
122688 On ch=10 n=51 v=25
122784 Off ch=10 n=51 v=0
122880 On ch=10 n=51 v=24
122976 Off ch=10 n=51 v=0
123072 On ch=10 n=51 v=24
123168 Off ch=10 n=51 v=0
123264 On ch=10 n=51 v=23
123360 Off ch=10 n=51 v=0
123456 On ch=10 n=51 v=23
123552 Off ch=10 n=51 v=0
123648 On ch=10 n=51 v=22
123744 Off ch=10 n=51 v=0
123840 On ch=10 n=51 v=22
123936 Off ch=10 n=51 v=0
124032 On ch=10 n=51 v=21
124128 Off ch=10 n=51 v=0
124224 On ch=10 n=51 v=21
124320 Off ch=10 n=51 v=0
124416 On ch=10 n=51 v=20
124512 Off ch=10 n=51 v=0
124608 On ch=10 n=51 v=20
124704 Off ch=10 n=51 v=0
124800 On ch=10 n=51 v=19
124896 Off ch=10 n=51 v=0
124992 On ch=10 n=51 v=19
125088 Off ch=10 n=51 v=0
125184 On ch=10 n=51 v=19
125280 Off ch=10 n=51 v=0
125376 On ch=10 n=51 v=18
125472 Off ch=10 n=51 v=0
125568 On ch=10 n=51 v=18
125664 Off ch=10 n=51 v=0
125760 On ch=10 n=51 v=17
125856 Off ch=10 n=51 v=0
125952 On ch=10 n=51 v=17
126048 Off ch=10 n=51 v=0
126144 On ch=10 n=51 v=16
126240 Off ch=10 n=51 v=0
126336 On ch=10 n=51 v=16
126432 Off ch=10 n=51 v=0
126528 On ch=10 n=51 v=15
126624 Off ch=10 n=51 v=0
126720 On ch=10 n=51 v=15
126816 Off ch=10 n=51 v=0
126912 On ch=10 n=51 v=14
127008 Off ch=10 n=51 v=0
127488 On ch=10 n=51 v=13
127584 Off ch=10 n=51 v=0
127680 On ch=10 n=51 v=12
127776 Off ch=10 n=51 v=0
127872 On ch=10 n=51 v=12
127968 Off ch=10 n=51 v=0
128064 On ch=10 n=51 v=11
128160 Off ch=10 n=51 v=0
128256 On ch=10 n=51 v=11
128352 Off ch=10 n=51 v=0
128448 On ch=10 n=51 v=11
128544 Off ch=10 n=51 v=0
128640 On ch=10 n=51 v=10
128736 Off ch=10 n=51 v=0
128832 On ch=10 n=51 v=10
128928 Off ch=10 n=51 v=0
129024 On ch=10 n=51 v=9
129120 Off ch=10 n=51 v=0
129216 On ch=10 n=51 v=9
129312 Off ch=10 n=51 v=0
129408 On ch=10 n=51 v=8
129504 Off ch=10 n=51 v=0
129600 On ch=10 n=51 v=8
129696 Off ch=10 n=51 v=0
129792 On ch=10 n=51 v=7
129888 Off ch=10 n=51 v=0
129984 On ch=10 n=51 v=7
130080 Off ch=10 n=51 v=0
130176 On ch=10 n=51 v=6
130272 Off ch=10 n=51 v=0
130368 On ch=10 n=51 v=6
130464 Off ch=10 n=51 v=0
130560 On ch=10 n=51 v=5
130656 Off ch=10 n=51 v=0
130752 On ch=10 n=51 v=5
130848 Off ch=10 n=51 v=0
130944 On ch=10 n=51 v=4
131040 Off ch=10 n=51 v=0
131136 On ch=10 n=51 v=4
131232 Off ch=10 n=51 v=0
131328 On ch=10 n=51 v=4
131424 Off ch=10 n=51 v=0
131520 On ch=10 n=51 v=3
131616 Off ch=10 n=51 v=0
131712 On ch=10 n=51 v=3
131808 Off ch=10 n=51 v=0
131904 On ch=10 n=51 v=2
132000 Off ch=10 n=51 v=0
132096 On ch=10 n=51 v=2
132192 Off ch=10 n=51 v=0
132288 On ch=10 n=51 v=1
132384 Off ch=10 n=51 v=0
132480 On ch=10 n=51 v=1
132576 Off ch=10 n=51 v=0
132672 On ch=10 n=51 v=1
132768 Off ch=10 n=51 v=0
132864 On ch=10 n=51 v=1
132960 Off ch=10 n=51 v=0
133056 On ch=10 n=51 v=1
133152 Off ch=10 n=51 v=0
133632 Meta TrkEnd
TrkEnd
MTrk
0 Meta TrkName "TOMS"
24864 On ch=10 n=48 v=63
24960 Off ch=10 n=48 v=0
24960 On ch=10 n=48 v=52
25056 Off ch=10 n=48 v=0
25056 On ch=10 n=48 v=72
25152 Off ch=10 n=48 v=0
25152 On ch=10 n=48 v=88
25248 Off ch=10 n=48 v=0
25344 On ch=10 n=45 v=50
25344 On ch=10 n=48 v=78
25440 Off ch=10 n=48 v=0
25440 Off ch=10 n=45 v=0
25536 On ch=10 n=45 v=50
25536 On ch=10 n=48 v=81
25632 Off ch=10 n=48 v=0
25632 Off ch=10 n=45 v=0
25728 On ch=10 n=41 v=64
25792 Off ch=10 n=41 v=0
25792 On ch=10 n=41 v=52
25824 Off ch=10 n=41 v=0
25856 On ch=10 n=41 v=68
25888 Off ch=10 n=41 v=0
25920 On ch=10 n=41 v=88
25952 Off ch=10 n=41 v=0
26112 On ch=10 n=41 v=71
26208 Off ch=10 n=41 v=0
26496 On ch=10 n=48 v=50
26496 On ch=10 n=45 v=50
26592 Off ch=10 n=45 v=0
26592 Off ch=10 n=48 v=0
26688 On ch=10 n=48 v=89
26784 Off ch=10 n=48 v=0
26784 On ch=10 n=45 v=74
26880 Off ch=10 n=45 v=0
26976 On ch=10 n=48 v=88
27072 Off ch=10 n=48 v=0
27072 On ch=10 n=45 v=79
27168 Off ch=10 n=45 v=0
27168 On ch=10 n=45 v=73
27264 Off ch=10 n=45 v=0
27264 On ch=10 n=45 v=72
27360 Off ch=10 n=45 v=0
27360 On ch=10 n=45 v=80
27456 Off ch=10 n=45 v=0
27456 On ch=10 n=41 v=64
27552 Off ch=10 n=41 v=0
33216 On ch=10 n=45 v=88
33312 Off ch=10 n=45 v=0
40896 On ch=10 n=45 v=88
40992 Off ch=10 n=45 v=0
41088 On ch=10 n=45 v=80
41152 Off ch=10 n=45 v=0
41152 On ch=10 n=45 v=64
41184 Off ch=10 n=45 v=0
41216 On ch=10 n=45 v=75
41248 Off ch=10 n=45 v=0
41280 On ch=10 n=41 v=97
41376 Off ch=10 n=41 v=0
43200 On ch=10 n=45 v=72
43296 Off ch=10 n=45 v=0
43296 On ch=10 n=45 v=60
43392 Off ch=10 n=45 v=0
43392 On ch=10 n=45 v=79
43488 Off ch=10 n=45 v=0
43488 On ch=10 n=45 v=72
43584 Off ch=10 n=45 v=0
43584 On ch=10 n=41 v=71
43680 Off ch=10 n=41 v=0
44736 On ch=10 n=45 v=86
44832 Off ch=10 n=45 v=0
44928 On ch=10 n=45 v=83
44992 Off ch=10 n=45 v=0
44992 On ch=10 n=45 v=69
45024 Off ch=10 n=45 v=0
45056 On ch=10 n=45 v=68
45088 Off ch=10 n=45 v=0
45120 On ch=10 n=45 v=55
45120 On ch=10 n=41 v=61
45152 Off ch=10 n=45 v=0
45216 Off ch=10 n=41 v=0
50688 On ch=10 n=45 v=30
50752 Off ch=10 n=45 v=0
50752 On ch=10 n=45 v=30
50784 Off ch=10 n=45 v=0
50816 On ch=10 n=45 v=30
50816 On ch=10 n=45 v=50
50817 Off ch=10 n=45 v=0
50848 Off ch=10 n=45 v=0
50880 On ch=10 n=45 v=30
50912 Off ch=10 n=45 v=0
51072 On ch=10 n=45 v=50
51136 Off ch=10 n=45 v=0
51136 On ch=10 n=45 v=50
51168 Off ch=10 n=45 v=0
51200 On ch=10 n=45 v=50
51232 Off ch=10 n=45 v=0
51264 On ch=10 n=41 v=30
51264 On ch=10 n=45 v=40
51296 Off ch=10 n=45 v=0
51360 Off ch=10 n=41 v=0
51456 On ch=10 n=45 v=50
51456 On ch=10 n=41 v=30
51552 Off ch=10 n=41 v=0
51552 Off ch=10 n=45 v=0
57024 On ch=10 n=45 v=64
57120 Off ch=10 n=45 v=0
57120 On ch=10 n=45 v=57
57216 Off ch=10 n=45 v=0
57216 On ch=10 n=45 v=65
57216 On ch=10 n=45 v=64
57217 Off ch=10 n=45 v=0
57312 Off ch=10 n=45 v=0
57312 On ch=10 n=45 v=60
57408 Off ch=10 n=45 v=0
57408 On ch=10 n=45 v=64
57408 On ch=10 n=45 v=64
57409 Off ch=10 n=45 v=0
57504 Off ch=10 n=45 v=0
57504 On ch=10 n=45 v=30
57600 Off ch=10 n=45 v=0
57600 On ch=10 n=45 v=50
57600 On ch=10 n=41 v=65
57696 Off ch=10 n=41 v=0
57696 Off ch=10 n=45 v=0
58560 On ch=10 n=45 v=80
58656 Off ch=10 n=45 v=0
58752 On ch=10 n=45 v=74
58816 Off ch=10 n=45 v=0
58816 On ch=10 n=45 v=62
58848 Off ch=10 n=45 v=0
58880 On ch=10 n=45 v=71
58912 Off ch=10 n=45 v=0
58944 On ch=10 n=41 v=69
58944 On ch=10 n=45 v=66
58976 Off ch=10 n=45 v=0
59040 Off ch=10 n=41 v=0
64704 On ch=10 n=45 v=88
64800 Off ch=10 n=45 v=0
64896 On ch=10 n=45 v=72
64992 Off ch=10 n=45 v=0
65040 On ch=10 n=45 v=60
65088 Off ch=10 n=45 v=0
65088 On ch=10 n=45 v=78
65136 Off ch=10 n=45 v=0
72384 On ch=10 n=45 v=88
72480 Off ch=10 n=45 v=0
72576 On ch=10 n=45 v=80
72640 Off ch=10 n=45 v=0
72640 On ch=10 n=45 v=64
72672 Off ch=10 n=45 v=0
72704 On ch=10 n=45 v=75
72736 Off ch=10 n=45 v=0
72768 On ch=10 n=41 v=97
72864 Off ch=10 n=41 v=0
74688 On ch=10 n=45 v=72
74784 Off ch=10 n=45 v=0
74784 On ch=10 n=45 v=60
74880 Off ch=10 n=45 v=0
74880 On ch=10 n=45 v=79
74976 Off ch=10 n=45 v=0
74976 On ch=10 n=45 v=72
75072 Off ch=10 n=45 v=0
75072 On ch=10 n=41 v=71
75168 Off ch=10 n=41 v=0
76224 On ch=10 n=48 v=30
76224 On ch=10 n=45 v=86
76320 Off ch=10 n=45 v=0
76320 Off ch=10 n=48 v=0
76416 On ch=10 n=45 v=83
76512 Off ch=10 n=45 v=0
76608 On ch=10 n=45 v=55
76608 On ch=10 n=41 v=61
76704 Off ch=10 n=41 v=0
76704 Off ch=10 n=45 v=0
79488 On ch=10 n=45 v=72
79552 Off ch=10 n=45 v=0
79552 On ch=10 n=45 v=63
79584 Off ch=10 n=45 v=0
79616 On ch=10 n=45 v=65
79648 Off ch=10 n=45 v=0
79680 On ch=10 n=45 v=78
79712 Off ch=10 n=45 v=0
82176 On ch=10 n=45 v=30
82240 Off ch=10 n=45 v=0
82240 On ch=10 n=45 v=30
82272 Off ch=10 n=45 v=0
82304 On ch=10 n=45 v=30
82304 On ch=10 n=45 v=50
82305 Off ch=10 n=45 v=0
82336 Off ch=10 n=45 v=0
82368 On ch=10 n=45 v=30
82400 Off ch=10 n=45 v=0
82560 On ch=10 n=45 v=50
82624 Off ch=10 n=45 v=0
82624 On ch=10 n=45 v=50
82656 Off ch=10 n=45 v=0
82688 On ch=10 n=45 v=50
82720 Off ch=10 n=45 v=0
82752 On ch=10 n=41 v=30
82752 On ch=10 n=45 v=40
82784 Off ch=10 n=45 v=0
82848 Off ch=10 n=41 v=0
82944 On ch=10 n=45 v=50
82944 On ch=10 n=41 v=30
83040 Off ch=10 n=41 v=0
83040 Off ch=10 n=45 v=0
85440 On ch=10 n=48 v=83
85504 Off ch=10 n=48 v=0
85504 On ch=10 n=48 v=68
85536 Off ch=10 n=48 v=0
85568 On ch=10 n=48 v=84
85600 Off ch=10 n=48 v=0
85632 On ch=10 n=48 v=100
85664 Off ch=10 n=48 v=0
85696 On ch=10 n=48 v=68
85728 Off ch=10 n=48 v=0
85760 On ch=10 n=48 v=80
85792 Off ch=10 n=48 v=0
85824 On ch=10 n=45 v=50
85824 On ch=10 n=48 v=80
85856 Off ch=10 n=48 v=0
85920 Off ch=10 n=45 v=0
86016 On ch=10 n=45 v=61
86112 Off ch=10 n=45 v=0
87936 On ch=10 n=48 v=50
88032 Off ch=10 n=48 v=0
88128 On ch=10 n=48 v=68
88192 Off ch=10 n=48 v=0
88192 On ch=10 n=48 v=58
88224 Off ch=10 n=48 v=0
88256 On ch=10 n=48 v=64
88288 Off ch=10 n=48 v=0
88320 On ch=10 n=45 v=76
88416 Off ch=10 n=45 v=0
88512 On ch=10 n=45 v=72
88608 Off ch=10 n=45 v=0
88704 On ch=10 n=45 v=60
88768 Off ch=10 n=45 v=0
88768 On ch=10 n=45 v=50
88800 Off ch=10 n=45 v=0
88832 On ch=10 n=45 v=60
88864 Off ch=10 n=45 v=0
88896 On ch=10 n=45 v=59
88896 On ch=10 n=45 v=50
88897 Off ch=10 n=45 v=0
88928 Off ch=10 n=45 v=0
89088 On ch=10 n=45 v=72
89184 Off ch=10 n=45 v=0
89280 On ch=10 n=45 v=50
89280 On ch=10 n=45 v=68
89281 Off ch=10 n=45 v=0
89376 Off ch=10 n=45 v=0
89376 On ch=10 n=45 v=65
89472 Off ch=10 n=45 v=0
89568 On ch=10 n=45 v=50
89568 On ch=10 n=45 v=61
89569 Off ch=10 n=45 v=0
89664 Off ch=10 n=45 v=0
89664 On ch=10 n=45 v=68
89760 Off ch=10 n=45 v=0
89856 On ch=10 n=45 v=50
89856 On ch=10 n=41 v=93
89952 Off ch=10 n=41 v=0
89952 Off ch=10 n=45 v=0
90624 On ch=10 n=41 v=50
90720 Off ch=10 n=41 v=0
96192 On ch=10 n=45 v=50
96288 Off ch=10 n=45 v=0
96384 On ch=10 n=48 v=50
96480 Off ch=10 n=48 v=0
96480 On ch=10 n=45 v=50
96576 Off ch=10 n=45 v=0
96576 On ch=10 n=41 v=50
96672 Off ch=10 n=41 v=0
96768 On ch=10 n=41 v=50
96864 Off ch=10 n=41 v=0
102336 On ch=10 n=45 v=50
102432 Off ch=10 n=45 v=0
102528 On ch=10 n=48 v=50
102624 Off ch=10 n=48 v=0
102624 On ch=10 n=45 v=50
102720 Off ch=10 n=45 v=0
102720 On ch=10 n=41 v=50
102816 Off ch=10 n=41 v=0
102912 On ch=10 n=41 v=50
103008 Off ch=10 n=41 v=0
108480 On ch=10 n=45 v=50
108576 Off ch=10 n=45 v=0
108672 On ch=10 n=48 v=50
108768 Off ch=10 n=48 v=0
108768 On ch=10 n=45 v=50
108864 Off ch=10 n=45 v=0
108864 On ch=10 n=41 v=50
108960 Off ch=10 n=41 v=0
109056 On ch=10 n=41 v=50
109152 Off ch=10 n=41 v=0
114624 On ch=10 n=45 v=46
114720 Off ch=10 n=45 v=0
114816 On ch=10 n=48 v=46
114912 Off ch=10 n=48 v=0
114912 On ch=10 n=45 v=45
115008 Off ch=10 n=45 v=0
115008 On ch=10 n=41 v=45
115104 Off ch=10 n=41 v=0
115200 On ch=10 n=41 v=45
115296 Off ch=10 n=41 v=0
120768 On ch=10 n=45 v=31
120864 Off ch=10 n=45 v=0
120960 On ch=10 n=48 v=30
121056 Off ch=10 n=48 v=0
121056 On ch=10 n=45 v=30
121152 Off ch=10 n=45 v=0
121152 On ch=10 n=41 v=30
121248 Off ch=10 n=41 v=0
121344 On ch=10 n=41 v=30
121440 Off ch=10 n=41 v=0
126912 On ch=10 n=45 v=16
127008 Off ch=10 n=45 v=0
127104 On ch=10 n=48 v=15
127200 Off ch=10 n=48 v=0
127200 On ch=10 n=45 v=15
127296 Off ch=10 n=45 v=0
127296 On ch=10 n=41 v=15
127392 Off ch=10 n=41 v=0
127488 On ch=10 n=41 v=14
127584 Off ch=10 n=41 v=0
133056 On ch=10 n=45 v=1
133152 Off ch=10 n=45 v=0
133248 On ch=10 n=48 v=1
133344 Off ch=10 n=48 v=0
133344 On ch=10 n=45 v=1
133440 Off ch=10 n=45 v=0
133440 On ch=10 n=41 v=1
133536 Off ch=10 n=41 v=0
133632 Meta TrkEnd
TrkEnd
MTrk
0 Meta TrkName "GS/RESET"
0 SysEx f0 42 12 40 00 7f 00 41 f7 b0 00
6144 Meta TrkEnd
TrkEnd
